<?xml version="1.0" encoding="utf-8" standalone="no"?>
<!DOCTYPE svg PUBLIC "-//W3C//DTD SVG 1.1//EN"
  "http://www.w3.org/Graphics/SVG/1.1/DTD/svg11.dtd">
<svg xmlns:xlink="http://www.w3.org/1999/xlink" width="460.8pt" height="345.6pt" viewBox="0 0 460.8 345.6" xmlns="http://www.w3.org/2000/svg" version="1.1">
 <metadata>
  <rdf:RDF xmlns:dc="http://purl.org/dc/elements/1.1/" xmlns:cc="http://creativecommons.org/ns#" xmlns:rdf="http://www.w3.org/1999/02/22-rdf-syntax-ns#">
   <cc:Work>
    <dc:type rdf:resource="http://purl.org/dc/dcmitype/StillImage"/>
    <dc:date>2024-03-04T11:32:17.994594</dc:date>
    <dc:format>image/svg+xml</dc:format>
    <dc:creator>
     <cc:Agent>
      <dc:title>Matplotlib v3.8.3, https://matplotlib.org/</dc:title>
     </cc:Agent>
    </dc:creator>
   </cc:Work>
  </rdf:RDF>
 </metadata>
 <defs>
  <style type="text/css">*{stroke-linejoin: round; stroke-linecap: butt}</style>
 </defs>
 <g id="figure_1">
  <g id="patch_1">
   <path d="M 0 345.6 
L 460.8 345.6 
L 460.8 0 
L 0 0 
z
" style="fill: #ffffff"/>
  </g>
  <g id="axes_1">
   <g id="patch_2">
    <path d="M 75.35 303.64 
L 450 303.64 
L 450 14.76 
L 75.35 14.76 
z
" style="fill: #ffffff"/>
   </g>
   <g id="matplotlib.axis_1">
    <g id="xtick_1">
     <g id="line2d_1">
      <defs>
       <path id="mc65ab9040b" d="M 0 0 
L 0 3.5 
" style="stroke: #000000; stroke-width: 0.8"/>
      </defs>
      <g>
       <use xlink:href="#mc65ab9040b" x="92.379545" y="303.64" style="stroke: #000000; stroke-width: 0.8"/>
      </g>
     </g>
     <g id="text_1">
      <!-- 0 -->
      <g transform="translate(89.198295 318.238437) scale(0.1 -0.1)">
       <defs>
        <path id="DejaVuSans-30" d="M 2034 4250 
Q 1547 4250 1301 3770 
Q 1056 3291 1056 2328 
Q 1056 1369 1301 889 
Q 1547 409 2034 409 
Q 2525 409 2770 889 
Q 3016 1369 3016 2328 
Q 3016 3291 2770 3770 
Q 2525 4250 2034 4250 
z
M 2034 4750 
Q 2819 4750 3233 4129 
Q 3647 3509 3647 2328 
Q 3647 1150 3233 529 
Q 2819 -91 2034 -91 
Q 1250 -91 836 529 
Q 422 1150 422 2328 
Q 422 3509 836 4129 
Q 1250 4750 2034 4750 
z
" transform="scale(0.015625)"/>
       </defs>
       <use xlink:href="#DejaVuSans-30"/>
      </g>
     </g>
    </g>
    <g id="xtick_2">
     <g id="line2d_2">
      <g>
       <use xlink:href="#mc65ab9040b" x="160.497727" y="303.64" style="stroke: #000000; stroke-width: 0.8"/>
      </g>
     </g>
     <g id="text_2">
      <!-- 1 -->
      <g transform="translate(157.316477 318.238437) scale(0.1 -0.1)">
       <defs>
        <path id="DejaVuSans-31" d="M 794 531 
L 1825 531 
L 1825 4091 
L 703 3866 
L 703 4441 
L 1819 4666 
L 2450 4666 
L 2450 531 
L 3481 531 
L 3481 0 
L 794 0 
L 794 531 
z
" transform="scale(0.015625)"/>
       </defs>
       <use xlink:href="#DejaVuSans-31"/>
      </g>
     </g>
    </g>
    <g id="xtick_3">
     <g id="line2d_3">
      <g>
       <use xlink:href="#mc65ab9040b" x="228.615909" y="303.64" style="stroke: #000000; stroke-width: 0.8"/>
      </g>
     </g>
     <g id="text_3">
      <!-- 2 -->
      <g transform="translate(225.434659 318.238437) scale(0.1 -0.1)">
       <defs>
        <path id="DejaVuSans-32" d="M 1228 531 
L 3431 531 
L 3431 0 
L 469 0 
L 469 531 
Q 828 903 1448 1529 
Q 2069 2156 2228 2338 
Q 2531 2678 2651 2914 
Q 2772 3150 2772 3378 
Q 2772 3750 2511 3984 
Q 2250 4219 1831 4219 
Q 1534 4219 1204 4116 
Q 875 4013 500 3803 
L 500 4441 
Q 881 4594 1212 4672 
Q 1544 4750 1819 4750 
Q 2544 4750 2975 4387 
Q 3406 4025 3406 3419 
Q 3406 3131 3298 2873 
Q 3191 2616 2906 2266 
Q 2828 2175 2409 1742 
Q 1991 1309 1228 531 
z
" transform="scale(0.015625)"/>
       </defs>
       <use xlink:href="#DejaVuSans-32"/>
      </g>
     </g>
    </g>
    <g id="xtick_4">
     <g id="line2d_4">
      <g>
       <use xlink:href="#mc65ab9040b" x="296.734091" y="303.64" style="stroke: #000000; stroke-width: 0.8"/>
      </g>
     </g>
     <g id="text_4">
      <!-- 3 -->
      <g transform="translate(293.552841 318.238437) scale(0.1 -0.1)">
       <defs>
        <path id="DejaVuSans-33" d="M 2597 2516 
Q 3050 2419 3304 2112 
Q 3559 1806 3559 1356 
Q 3559 666 3084 287 
Q 2609 -91 1734 -91 
Q 1441 -91 1130 -33 
Q 819 25 488 141 
L 488 750 
Q 750 597 1062 519 
Q 1375 441 1716 441 
Q 2309 441 2620 675 
Q 2931 909 2931 1356 
Q 2931 1769 2642 2001 
Q 2353 2234 1838 2234 
L 1294 2234 
L 1294 2753 
L 1863 2753 
Q 2328 2753 2575 2939 
Q 2822 3125 2822 3475 
Q 2822 3834 2567 4026 
Q 2313 4219 1838 4219 
Q 1578 4219 1281 4162 
Q 984 4106 628 3988 
L 628 4550 
Q 988 4650 1302 4700 
Q 1616 4750 1894 4750 
Q 2613 4750 3031 4423 
Q 3450 4097 3450 3541 
Q 3450 3153 3228 2886 
Q 3006 2619 2597 2516 
z
" transform="scale(0.015625)"/>
       </defs>
       <use xlink:href="#DejaVuSans-33"/>
      </g>
     </g>
    </g>
    <g id="xtick_5">
     <g id="line2d_5">
      <g>
       <use xlink:href="#mc65ab9040b" x="364.852273" y="303.64" style="stroke: #000000; stroke-width: 0.8"/>
      </g>
     </g>
     <g id="text_5">
      <!-- 4 -->
      <g transform="translate(361.671023 318.238437) scale(0.1 -0.1)">
       <defs>
        <path id="DejaVuSans-34" d="M 2419 4116 
L 825 1625 
L 2419 1625 
L 2419 4116 
z
M 2253 4666 
L 3047 4666 
L 3047 1625 
L 3713 1625 
L 3713 1100 
L 3047 1100 
L 3047 0 
L 2419 0 
L 2419 1100 
L 313 1100 
L 313 1709 
L 2253 4666 
z
" transform="scale(0.015625)"/>
       </defs>
       <use xlink:href="#DejaVuSans-34"/>
      </g>
     </g>
    </g>
    <g id="xtick_6">
     <g id="line2d_6">
      <g>
       <use xlink:href="#mc65ab9040b" x="432.970455" y="303.64" style="stroke: #000000; stroke-width: 0.8"/>
      </g>
     </g>
     <g id="text_6">
      <!-- 5 -->
      <g transform="translate(429.789205 318.238437) scale(0.1 -0.1)">
       <defs>
        <path id="DejaVuSans-35" d="M 691 4666 
L 3169 4666 
L 3169 4134 
L 1269 4134 
L 1269 2991 
Q 1406 3038 1543 3061 
Q 1681 3084 1819 3084 
Q 2600 3084 3056 2656 
Q 3513 2228 3513 1497 
Q 3513 744 3044 326 
Q 2575 -91 1722 -91 
Q 1428 -91 1123 -41 
Q 819 9 494 109 
L 494 744 
Q 775 591 1075 516 
Q 1375 441 1709 441 
Q 2250 441 2565 725 
Q 2881 1009 2881 1497 
Q 2881 1984 2565 2268 
Q 2250 2553 1709 2553 
Q 1456 2553 1204 2497 
Q 953 2441 691 2322 
L 691 4666 
z
" transform="scale(0.015625)"/>
       </defs>
       <use xlink:href="#DejaVuSans-35"/>
      </g>
     </g>
    </g>
    <g id="text_7">
     <!-- time (s) -->
     <g transform="translate(243.283594 331.916562) scale(0.1 -0.1)">
      <defs>
       <path id="DejaVuSans-74" d="M 1172 4494 
L 1172 3500 
L 2356 3500 
L 2356 3053 
L 1172 3053 
L 1172 1153 
Q 1172 725 1289 603 
Q 1406 481 1766 481 
L 2356 481 
L 2356 0 
L 1766 0 
Q 1100 0 847 248 
Q 594 497 594 1153 
L 594 3053 
L 172 3053 
L 172 3500 
L 594 3500 
L 594 4494 
L 1172 4494 
z
" transform="scale(0.015625)"/>
       <path id="DejaVuSans-69" d="M 603 3500 
L 1178 3500 
L 1178 0 
L 603 0 
L 603 3500 
z
M 603 4863 
L 1178 4863 
L 1178 4134 
L 603 4134 
L 603 4863 
z
" transform="scale(0.015625)"/>
       <path id="DejaVuSans-6d" d="M 3328 2828 
Q 3544 3216 3844 3400 
Q 4144 3584 4550 3584 
Q 5097 3584 5394 3201 
Q 5691 2819 5691 2113 
L 5691 0 
L 5113 0 
L 5113 2094 
Q 5113 2597 4934 2840 
Q 4756 3084 4391 3084 
Q 3944 3084 3684 2787 
Q 3425 2491 3425 1978 
L 3425 0 
L 2847 0 
L 2847 2094 
Q 2847 2600 2669 2842 
Q 2491 3084 2119 3084 
Q 1678 3084 1418 2786 
Q 1159 2488 1159 1978 
L 1159 0 
L 581 0 
L 581 3500 
L 1159 3500 
L 1159 2956 
Q 1356 3278 1631 3431 
Q 1906 3584 2284 3584 
Q 2666 3584 2933 3390 
Q 3200 3197 3328 2828 
z
" transform="scale(0.015625)"/>
       <path id="DejaVuSans-65" d="M 3597 1894 
L 3597 1613 
L 953 1613 
Q 991 1019 1311 708 
Q 1631 397 2203 397 
Q 2534 397 2845 478 
Q 3156 559 3463 722 
L 3463 178 
Q 3153 47 2828 -22 
Q 2503 -91 2169 -91 
Q 1331 -91 842 396 
Q 353 884 353 1716 
Q 353 2575 817 3079 
Q 1281 3584 2069 3584 
Q 2775 3584 3186 3129 
Q 3597 2675 3597 1894 
z
M 3022 2063 
Q 3016 2534 2758 2815 
Q 2500 3097 2075 3097 
Q 1594 3097 1305 2825 
Q 1016 2553 972 2059 
L 3022 2063 
z
" transform="scale(0.015625)"/>
       <path id="DejaVuSans-20" transform="scale(0.015625)"/>
       <path id="DejaVuSans-28" d="M 1984 4856 
Q 1566 4138 1362 3434 
Q 1159 2731 1159 2009 
Q 1159 1288 1364 580 
Q 1569 -128 1984 -844 
L 1484 -844 
Q 1016 -109 783 600 
Q 550 1309 550 2009 
Q 550 2706 781 3412 
Q 1013 4119 1484 4856 
L 1984 4856 
z
" transform="scale(0.015625)"/>
       <path id="DejaVuSans-73" d="M 2834 3397 
L 2834 2853 
Q 2591 2978 2328 3040 
Q 2066 3103 1784 3103 
Q 1356 3103 1142 2972 
Q 928 2841 928 2578 
Q 928 2378 1081 2264 
Q 1234 2150 1697 2047 
L 1894 2003 
Q 2506 1872 2764 1633 
Q 3022 1394 3022 966 
Q 3022 478 2636 193 
Q 2250 -91 1575 -91 
Q 1294 -91 989 -36 
Q 684 19 347 128 
L 347 722 
Q 666 556 975 473 
Q 1284 391 1588 391 
Q 1994 391 2212 530 
Q 2431 669 2431 922 
Q 2431 1156 2273 1281 
Q 2116 1406 1581 1522 
L 1381 1569 
Q 847 1681 609 1914 
Q 372 2147 372 2553 
Q 372 3047 722 3315 
Q 1072 3584 1716 3584 
Q 2034 3584 2315 3537 
Q 2597 3491 2834 3397 
z
" transform="scale(0.015625)"/>
       <path id="DejaVuSans-29" d="M 513 4856 
L 1013 4856 
Q 1481 4119 1714 3412 
Q 1947 2706 1947 2009 
Q 1947 1309 1714 600 
Q 1481 -109 1013 -844 
L 513 -844 
Q 928 -128 1133 580 
Q 1338 1288 1338 2009 
Q 1338 2731 1133 3434 
Q 928 4138 513 4856 
z
" transform="scale(0.015625)"/>
      </defs>
      <use xlink:href="#DejaVuSans-74"/>
      <use xlink:href="#DejaVuSans-69" x="39.208984"/>
      <use xlink:href="#DejaVuSans-6d" x="66.992188"/>
      <use xlink:href="#DejaVuSans-65" x="164.404297"/>
      <use xlink:href="#DejaVuSans-20" x="225.927734"/>
      <use xlink:href="#DejaVuSans-28" x="257.714844"/>
      <use xlink:href="#DejaVuSans-73" x="296.728516"/>
      <use xlink:href="#DejaVuSans-29" x="348.828125"/>
     </g>
    </g>
   </g>
   <g id="matplotlib.axis_2">
    <g id="ytick_1">
     <g id="line2d_7">
      <defs>
       <path id="m84d3814f4c" d="M 0 0 
L -3.5 0 
" style="stroke: #000000; stroke-width: 0.8"/>
      </defs>
      <g>
       <use xlink:href="#m84d3814f4c" x="75.35" y="303.64" style="stroke: #000000; stroke-width: 0.8"/>
      </g>
     </g>
     <g id="text_8">
      <!-- −0.0015 -->
      <g transform="translate(24.979688 307.439219) scale(0.1 -0.1)">
       <defs>
        <path id="DejaVuSans-2212" d="M 678 2272 
L 4684 2272 
L 4684 1741 
L 678 1741 
L 678 2272 
z
" transform="scale(0.015625)"/>
        <path id="DejaVuSans-2e" d="M 684 794 
L 1344 794 
L 1344 0 
L 684 0 
L 684 794 
z
" transform="scale(0.015625)"/>
       </defs>
       <use xlink:href="#DejaVuSans-2212"/>
       <use xlink:href="#DejaVuSans-30" x="83.789062"/>
       <use xlink:href="#DejaVuSans-2e" x="147.412109"/>
       <use xlink:href="#DejaVuSans-30" x="179.199219"/>
       <use xlink:href="#DejaVuSans-30" x="242.822266"/>
       <use xlink:href="#DejaVuSans-31" x="306.445312"/>
       <use xlink:href="#DejaVuSans-35" x="370.068359"/>
      </g>
     </g>
    </g>
    <g id="ytick_2">
     <g id="line2d_8">
      <g>
       <use xlink:href="#m84d3814f4c" x="75.35" y="255.493333" style="stroke: #000000; stroke-width: 0.8"/>
      </g>
     </g>
     <g id="text_9">
      <!-- −0.0010 -->
      <g transform="translate(24.979688 259.292552) scale(0.1 -0.1)">
       <use xlink:href="#DejaVuSans-2212"/>
       <use xlink:href="#DejaVuSans-30" x="83.789062"/>
       <use xlink:href="#DejaVuSans-2e" x="147.412109"/>
       <use xlink:href="#DejaVuSans-30" x="179.199219"/>
       <use xlink:href="#DejaVuSans-30" x="242.822266"/>
       <use xlink:href="#DejaVuSans-31" x="306.445312"/>
       <use xlink:href="#DejaVuSans-30" x="370.068359"/>
      </g>
     </g>
    </g>
    <g id="ytick_3">
     <g id="line2d_9">
      <g>
       <use xlink:href="#m84d3814f4c" x="75.35" y="207.346667" style="stroke: #000000; stroke-width: 0.8"/>
      </g>
     </g>
     <g id="text_10">
      <!-- −0.0005 -->
      <g transform="translate(24.979688 211.145885) scale(0.1 -0.1)">
       <use xlink:href="#DejaVuSans-2212"/>
       <use xlink:href="#DejaVuSans-30" x="83.789062"/>
       <use xlink:href="#DejaVuSans-2e" x="147.412109"/>
       <use xlink:href="#DejaVuSans-30" x="179.199219"/>
       <use xlink:href="#DejaVuSans-30" x="242.822266"/>
       <use xlink:href="#DejaVuSans-30" x="306.445312"/>
       <use xlink:href="#DejaVuSans-35" x="370.068359"/>
      </g>
     </g>
    </g>
    <g id="ytick_4">
     <g id="line2d_10">
      <g>
       <use xlink:href="#m84d3814f4c" x="75.35" y="159.2" style="stroke: #000000; stroke-width: 0.8"/>
      </g>
     </g>
     <g id="text_11">
      <!-- 0.0000 -->
      <g transform="translate(33.359375 162.999219) scale(0.1 -0.1)">
       <use xlink:href="#DejaVuSans-30"/>
       <use xlink:href="#DejaVuSans-2e" x="63.623047"/>
       <use xlink:href="#DejaVuSans-30" x="95.410156"/>
       <use xlink:href="#DejaVuSans-30" x="159.033203"/>
       <use xlink:href="#DejaVuSans-30" x="222.65625"/>
       <use xlink:href="#DejaVuSans-30" x="286.279297"/>
      </g>
     </g>
    </g>
    <g id="ytick_5">
     <g id="line2d_11">
      <g>
       <use xlink:href="#m84d3814f4c" x="75.35" y="111.053333" style="stroke: #000000; stroke-width: 0.8"/>
      </g>
     </g>
     <g id="text_12">
      <!-- 0.0005 -->
      <g transform="translate(33.359375 114.852552) scale(0.1 -0.1)">
       <use xlink:href="#DejaVuSans-30"/>
       <use xlink:href="#DejaVuSans-2e" x="63.623047"/>
       <use xlink:href="#DejaVuSans-30" x="95.410156"/>
       <use xlink:href="#DejaVuSans-30" x="159.033203"/>
       <use xlink:href="#DejaVuSans-30" x="222.65625"/>
       <use xlink:href="#DejaVuSans-35" x="286.279297"/>
      </g>
     </g>
    </g>
    <g id="ytick_6">
     <g id="line2d_12">
      <g>
       <use xlink:href="#m84d3814f4c" x="75.35" y="62.906667" style="stroke: #000000; stroke-width: 0.8"/>
      </g>
     </g>
     <g id="text_13">
      <!-- 0.0010 -->
      <g transform="translate(33.359375 66.705885) scale(0.1 -0.1)">
       <use xlink:href="#DejaVuSans-30"/>
       <use xlink:href="#DejaVuSans-2e" x="63.623047"/>
       <use xlink:href="#DejaVuSans-30" x="95.410156"/>
       <use xlink:href="#DejaVuSans-30" x="159.033203"/>
       <use xlink:href="#DejaVuSans-31" x="222.65625"/>
       <use xlink:href="#DejaVuSans-30" x="286.279297"/>
      </g>
     </g>
    </g>
    <g id="ytick_7">
     <g id="line2d_13">
      <g>
       <use xlink:href="#m84d3814f4c" x="75.35" y="14.76" style="stroke: #000000; stroke-width: 0.8"/>
      </g>
     </g>
     <g id="text_14">
      <!-- 0.0015 -->
      <g transform="translate(33.359375 18.559219) scale(0.1 -0.1)">
       <use xlink:href="#DejaVuSans-30"/>
       <use xlink:href="#DejaVuSans-2e" x="63.623047"/>
       <use xlink:href="#DejaVuSans-30" x="95.410156"/>
       <use xlink:href="#DejaVuSans-30" x="159.033203"/>
       <use xlink:href="#DejaVuSans-31" x="222.65625"/>
       <use xlink:href="#DejaVuSans-35" x="286.279297"/>
      </g>
     </g>
    </g>
    <g id="text_15">
     <!-- displacement (mm) -->
     <g transform="translate(18.9 208.128125) rotate(-90) scale(0.1 -0.1)">
      <defs>
       <path id="DejaVuSans-64" d="M 2906 2969 
L 2906 4863 
L 3481 4863 
L 3481 0 
L 2906 0 
L 2906 525 
Q 2725 213 2448 61 
Q 2172 -91 1784 -91 
Q 1150 -91 751 415 
Q 353 922 353 1747 
Q 353 2572 751 3078 
Q 1150 3584 1784 3584 
Q 2172 3584 2448 3432 
Q 2725 3281 2906 2969 
z
M 947 1747 
Q 947 1113 1208 752 
Q 1469 391 1925 391 
Q 2381 391 2643 752 
Q 2906 1113 2906 1747 
Q 2906 2381 2643 2742 
Q 2381 3103 1925 3103 
Q 1469 3103 1208 2742 
Q 947 2381 947 1747 
z
" transform="scale(0.015625)"/>
       <path id="DejaVuSans-70" d="M 1159 525 
L 1159 -1331 
L 581 -1331 
L 581 3500 
L 1159 3500 
L 1159 2969 
Q 1341 3281 1617 3432 
Q 1894 3584 2278 3584 
Q 2916 3584 3314 3078 
Q 3713 2572 3713 1747 
Q 3713 922 3314 415 
Q 2916 -91 2278 -91 
Q 1894 -91 1617 61 
Q 1341 213 1159 525 
z
M 3116 1747 
Q 3116 2381 2855 2742 
Q 2594 3103 2138 3103 
Q 1681 3103 1420 2742 
Q 1159 2381 1159 1747 
Q 1159 1113 1420 752 
Q 1681 391 2138 391 
Q 2594 391 2855 752 
Q 3116 1113 3116 1747 
z
" transform="scale(0.015625)"/>
       <path id="DejaVuSans-6c" d="M 603 4863 
L 1178 4863 
L 1178 0 
L 603 0 
L 603 4863 
z
" transform="scale(0.015625)"/>
       <path id="DejaVuSans-61" d="M 2194 1759 
Q 1497 1759 1228 1600 
Q 959 1441 959 1056 
Q 959 750 1161 570 
Q 1363 391 1709 391 
Q 2188 391 2477 730 
Q 2766 1069 2766 1631 
L 2766 1759 
L 2194 1759 
z
M 3341 1997 
L 3341 0 
L 2766 0 
L 2766 531 
Q 2569 213 2275 61 
Q 1981 -91 1556 -91 
Q 1019 -91 701 211 
Q 384 513 384 1019 
Q 384 1609 779 1909 
Q 1175 2209 1959 2209 
L 2766 2209 
L 2766 2266 
Q 2766 2663 2505 2880 
Q 2244 3097 1772 3097 
Q 1472 3097 1187 3025 
Q 903 2953 641 2809 
L 641 3341 
Q 956 3463 1253 3523 
Q 1550 3584 1831 3584 
Q 2591 3584 2966 3190 
Q 3341 2797 3341 1997 
z
" transform="scale(0.015625)"/>
       <path id="DejaVuSans-63" d="M 3122 3366 
L 3122 2828 
Q 2878 2963 2633 3030 
Q 2388 3097 2138 3097 
Q 1578 3097 1268 2742 
Q 959 2388 959 1747 
Q 959 1106 1268 751 
Q 1578 397 2138 397 
Q 2388 397 2633 464 
Q 2878 531 3122 666 
L 3122 134 
Q 2881 22 2623 -34 
Q 2366 -91 2075 -91 
Q 1284 -91 818 406 
Q 353 903 353 1747 
Q 353 2603 823 3093 
Q 1294 3584 2113 3584 
Q 2378 3584 2631 3529 
Q 2884 3475 3122 3366 
z
" transform="scale(0.015625)"/>
       <path id="DejaVuSans-6e" d="M 3513 2113 
L 3513 0 
L 2938 0 
L 2938 2094 
Q 2938 2591 2744 2837 
Q 2550 3084 2163 3084 
Q 1697 3084 1428 2787 
Q 1159 2491 1159 1978 
L 1159 0 
L 581 0 
L 581 3500 
L 1159 3500 
L 1159 2956 
Q 1366 3272 1645 3428 
Q 1925 3584 2291 3584 
Q 2894 3584 3203 3211 
Q 3513 2838 3513 2113 
z
" transform="scale(0.015625)"/>
      </defs>
      <use xlink:href="#DejaVuSans-64"/>
      <use xlink:href="#DejaVuSans-69" x="63.476562"/>
      <use xlink:href="#DejaVuSans-73" x="91.259766"/>
      <use xlink:href="#DejaVuSans-70" x="143.359375"/>
      <use xlink:href="#DejaVuSans-6c" x="206.835938"/>
      <use xlink:href="#DejaVuSans-61" x="234.619141"/>
      <use xlink:href="#DejaVuSans-63" x="295.898438"/>
      <use xlink:href="#DejaVuSans-65" x="350.878906"/>
      <use xlink:href="#DejaVuSans-6d" x="412.402344"/>
      <use xlink:href="#DejaVuSans-65" x="509.814453"/>
      <use xlink:href="#DejaVuSans-6e" x="571.337891"/>
      <use xlink:href="#DejaVuSans-74" x="634.716797"/>
      <use xlink:href="#DejaVuSans-20" x="673.925781"/>
      <use xlink:href="#DejaVuSans-28" x="705.712891"/>
      <use xlink:href="#DejaVuSans-6d" x="744.726562"/>
      <use xlink:href="#DejaVuSans-6d" x="842.138672"/>
      <use xlink:href="#DejaVuSans-29" x="939.550781"/>
     </g>
    </g>
   </g>
   <g id="line2d_14">
    <path d="M 92.379545 159.2 
L 98.510182 159.270742 
L 99.191364 158.655295 
L 99.872545 153.87253 
L 100.553727 144.254904 
L 101.234909 129.861465 
L 101.916091 110.576721 
L 103.278455 68.9477 
L 103.959636 54.683829 
L 104.640818 45.152675 
L 105.322 40.419241 
L 106.003182 39.783767 
L 109.409091 39.722988 
L 110.771455 39.836811 
L 111.452636 39.618086 
L 112.133818 39.860941 
L 112.815 43.831859 
L 113.496182 52.458312 
L 114.177364 65.800191 
L 114.858545 84.706581 
L 116.220909 126.770528 
L 116.902091 141.910704 
L 117.583273 152.385687 
L 118.264455 157.854765 
L 118.945636 159.076982 
L 120.308 159.187066 
L 123.032727 159.147194 
L 123.713909 159.355317 
L 125.076273 158.871847 
L 125.757455 161.954361 
L 126.438636 169.85578 
L 127.119818 181.930011 
L 127.801 200.015721 
L 129.163364 242.605204 
L 129.844545 258.633996 
L 130.525727 270.224303 
L 131.206909 276.651449 
L 131.888091 278.542894 
L 132.569273 278.800638 
L 135.294 278.739029 
L 135.975182 278.916734 
L 136.656364 278.713693 
L 138.018727 279.32256 
L 138.699909 277.252018 
L 139.381091 270.272079 
L 140.062273 259.431617 
L 140.743455 242.653332 
L 142.105818 199.783841 
L 142.787 182.763712 
L 143.468182 169.953293 
L 144.149364 162.411994 
L 144.830545 159.767661 
L 145.511727 159.271011 
L 146.874091 159.142092 
L 147.555273 159.250677 
L 148.236455 159.179317 
L 148.917636 159.308931 
L 149.598818 158.985469 
L 150.961182 159.806213 
L 151.642364 158.477746 
L 152.323545 152.471428 
L 153.004727 142.709791 
L 153.685909 127.003813 
L 155.729455 66.470924 
L 156.410636 52.709057 
L 157.091818 44.122681 
L 157.773 40.761084 
L 158.454182 39.95415 
L 159.135364 39.716811 
L 161.178909 39.861615 
L 161.860091 39.564784 
L 162.541273 40.056413 
L 163.222455 39.720043 
L 163.903636 39.049847 
L 164.584818 39.779533 
L 165.266 45.057499 
L 165.947182 53.771339 
L 166.628364 68.608705 
L 168.671909 129.417262 
L 169.353091 144.098792 
L 170.034273 153.591417 
L 170.715455 157.663886 
L 171.396636 158.928364 
L 172.077818 159.147344 
L 172.759 159.199782 
L 173.440182 159.111677 
L 174.121364 159.358157 
L 174.802545 159.000893 
L 175.483727 159.436522 
L 176.164909 159.297205 
L 176.846091 158.511069 
L 177.527273 158.710883 
L 178.208455 163.18518 
L 178.889636 170.896577 
L 179.570818 184.517 
L 182.295545 261.034254 
L 182.976727 271.560574 
L 183.657909 276.662144 
L 184.339091 278.406918 
L 185.020273 278.778434 
L 185.701455 278.748133 
L 186.382636 278.928295 
L 187.063818 278.745999 
L 187.745 278.994032 
L 188.426182 278.700034 
L 189.107364 278.655502 
L 189.788545 279.473266 
L 190.469727 279.729833 
L 191.150909 276.098549 
L 191.832091 269.364019 
L 192.513273 257.227069 
L 193.194455 238.563856 
L 194.556818 196.794441 
L 195.238 180.18123 
L 195.919182 168.352384 
L 196.600364 162.175747 
L 197.281545 159.888442 
L 197.962727 159.370842 
L 198.643909 159.199524 
L 200.006273 159.110925 
L 200.687455 159.342778 
L 202.049818 158.894393 
L 202.731 159.790665 
L 203.412182 160.424897 
L 204.093364 157.534759 
L 204.774545 151.647444 
L 205.455727 140.812943 
L 206.136909 123.209989 
L 207.499273 81.221061 
L 208.180455 63.789076 
L 208.861636 50.848557 
L 209.542818 43.664834 
L 210.224 40.815246 
L 210.905182 40.023396 
L 211.586364 39.709091 
L 212.948727 39.811085 
L 213.629909 39.640361 
L 214.311091 39.759425 
L 214.992273 40.235934 
L 216.354636 38.403101 
L 217.035818 40.624912 
L 217.717 45.761386 
L 218.398182 55.417492 
L 219.079364 72.255385 
L 220.441727 114.144292 
L 221.122909 132.276847 
L 221.804091 146.091163 
L 222.485273 154.240855 
L 223.166455 157.59228 
L 223.847636 158.9431 
L 225.891182 159.211428 
L 227.253545 159.118306 
L 227.934727 159.764217 
L 229.297091 157.754141 
L 229.978273 159.409599 
L 230.659455 163.701421 
L 231.340636 172.235413 
L 232.021818 187.974341 
L 234.065364 248.396759 
L 234.746545 263.303477 
L 235.427727 272.300883 
L 236.108909 276.840613 
L 236.790091 278.150391 
L 237.471273 278.8174 
L 238.152455 278.726977 
L 239.514818 278.915367 
L 240.196 278.990684 
L 240.877182 278.229024 
L 241.558364 279.06886 
L 242.239545 280.217048 
L 242.920727 279.181669 
L 243.601909 275.678563 
L 244.283091 268.342654 
L 244.964273 254.171009 
L 247.689 177.800316 
L 248.370182 167.153501 
L 249.051364 162.136449 
L 249.732545 159.854565 
L 251.094909 159.165988 
L 253.138455 159.434762 
L 253.819636 158.625219 
L 254.500818 159.188929 
L 255.182 160.493473 
L 255.863182 160.019376 
L 256.544364 157.096076 
L 257.225545 150.922997 
L 257.906727 138.110859 
L 260.631455 61.010685 
L 261.312636 49.583268 
L 261.993818 43.239927 
L 262.675 40.998971 
L 263.356182 39.906526 
L 265.399727 39.790377 
L 266.080909 39.44826 
L 266.762091 40.363512 
L 267.443273 39.99309 
L 268.124455 38.518967 
L 268.805636 38.646961 
L 269.486818 41.001344 
L 270.168 46.25524 
L 270.849182 57.880586 
L 272.211545 97.136132 
L 273.573909 135.09981 
L 274.255091 147.65984 
L 274.936273 154.516863 
L 275.617455 157.832564 
L 276.298636 158.689878 
L 276.979818 159.07783 
L 277.661 159.296368 
L 278.342182 159.224711 
L 279.023364 158.825128 
L 279.704545 159.786454 
L 280.385727 159.553324 
L 281.066909 158.060344 
L 281.748091 157.889432 
L 282.429273 159.779922 
L 283.110455 163.965781 
L 283.791636 174.475138 
L 284.472818 191.822339 
L 286.516364 251.406497 
L 287.197545 265.021409 
L 287.878727 273.092774 
L 288.559909 276.748397 
L 289.241091 278.313218 
L 289.922273 278.726654 
L 290.603455 278.619963 
L 291.284636 278.855036 
L 291.965818 279.24998 
L 292.647 278.323178 
L 293.328182 278.340725 
L 294.009364 279.80457 
L 294.690545 280.186684 
L 295.371727 278.860858 
L 296.052909 275.546299 
L 296.734091 266.591209 
L 297.415273 250.669665 
L 299.458818 190.433317 
L 300.14 175.625599 
L 300.821182 166.328406 
L 301.502364 161.791923 
L 302.183545 160.02335 
L 302.864727 159.482478 
L 303.545909 159.095358 
L 304.227091 159.214704 
L 304.908273 159.646166 
L 305.589455 158.778955 
L 306.270636 158.618145 
L 306.951818 159.936094 
L 307.633 160.631129 
L 308.314182 159.748753 
L 308.995364 157.100509 
L 309.676545 149.54121 
L 310.357727 134.638154 
L 313.082455 58.751081 
L 313.763636 48.528164 
L 314.444818 43.063233 
L 315.126 40.932645 
L 315.807182 39.936725 
L 316.488364 39.974068 
L 317.169545 39.819116 
L 317.850727 39.313317 
L 318.531909 40.053981 
L 319.213091 40.460969 
L 319.894273 39.220378 
L 320.575455 38.270461 
L 321.256636 39.041642 
L 321.937818 40.762762 
L 322.619 47.423734 
L 323.300182 61.062763 
L 326.024909 137.569809 
L 326.706091 148.855183 
L 327.387273 154.939276 
L 328.068455 157.84611 
L 329.430818 159.289685 
L 330.112 159.299675 
L 330.793182 158.719648 
L 332.155545 160.072156 
L 332.836727 158.80044 
L 333.517909 157.886976 
L 334.199091 158.087768 
L 334.880273 159.553783 
L 335.561455 164.746246 
L 336.242636 177.40901 
L 336.923818 195.277246 
L 338.286182 236.466554 
L 338.967364 254.236759 
L 339.648545 266.475653 
L 340.329727 273.592957 
L 341.010909 276.812702 
L 341.692091 278.464252 
L 343.054455 278.647367 
L 343.735636 279.352492 
L 345.098 278.05677 
L 345.779182 278.927506 
L 346.460364 280.09964 
L 347.141545 279.907144 
L 347.822727 279.324903 
L 348.503909 274.922668 
L 349.185091 264.171878 
L 349.866273 247.050394 
L 351.909818 187.556061 
L 352.591 173.825643 
L 353.272182 165.725111 
L 353.953364 161.555198 
L 354.634545 160.235696 
L 355.315727 159.213043 
L 355.996909 159.103416 
L 356.678091 159.667094 
L 357.359273 159.300538 
L 358.040455 158.299417 
L 358.721636 159.198453 
L 359.402818 160.308395 
L 360.084 160.388398 
L 360.765182 160.030269 
L 361.446364 156.998989 
L 362.127545 147.212479 
L 362.808727 131.499308 
L 364.852273 71.36361 
L 365.533455 56.777813 
L 366.214636 47.559352 
L 366.895818 42.988873 
L 367.577 40.601361 
L 368.258182 40.169398 
L 368.939364 40.147719 
L 369.620545 39.341087 
L 370.301727 39.562521 
L 370.982909 40.605719 
L 371.664091 39.984914 
L 372.345273 38.766716 
L 373.026455 38.53087 
L 373.707636 38.629721 
L 374.388818 40.864671 
L 375.07 49.26171 
L 375.751182 64.337354 
L 378.475909 139.833505 
L 379.157091 149.823772 
L 379.838273 155.509528 
L 380.519455 157.55643 
L 381.200636 158.856747 
L 381.881818 159.355245 
L 382.563 158.7376 
L 383.244182 158.969455 
L 383.925364 159.936412 
L 384.606545 159.586876 
L 385.287727 158.34916 
L 385.968909 158.093003 
L 386.650091 157.712494 
L 387.331273 159.397875 
L 388.012455 166.49036 
L 388.693636 180.337002 
L 390.056 219.855164 
L 390.737182 240.024009 
L 391.418364 256.585238 
L 392.099545 267.677841 
L 392.780727 273.876334 
L 393.461909 277.31242 
L 394.143091 278.131708 
L 394.824273 278.351191 
L 395.505455 279.172517 
L 396.186636 279.27049 
L 396.867818 277.995233 
L 397.549 278.465804 
L 398.230182 279.374615 
L 398.911364 279.918293 
L 399.592545 280.228338 
L 400.273727 279.626406 
L 400.954909 273.639983 
L 401.636091 261.410265 
L 402.317273 243.730415 
L 404.360818 184.872636 
L 405.042 172.402354 
L 405.723182 164.94076 
L 406.404364 161.717737 
L 407.085545 160.067999 
L 407.766727 158.953328 
L 408.447909 159.633467 
L 409.129091 159.667477 
L 409.810273 158.624405 
L 410.491455 158.452696 
L 411.172636 159.817096 
L 411.853818 160.011149 
L 412.535 160.808261 
L 413.216182 160.489885 
L 413.897364 156.037313 
L 414.578545 144.81238 
L 415.259727 128.188316 
L 417.303273 68.478973 
L 417.984455 55.017499 
L 418.665636 47.081329 
L 419.346818 42.391047 
L 420.028 40.809529 
L 420.709182 40.412274 
L 421.390364 39.694111 
L 422.071545 39.140694 
L 422.752727 40.395186 
L 423.433909 40.379809 
L 424.796273 38.819015 
L 425.477455 38.430964 
L 426.158636 37.895161 
L 426.839818 41.601516 
L 427.521 51.509244 
L 428.202182 67.513439 
L 430.245727 127.219254 
L 430.926909 141.725194 
L 431.608091 150.886459 
L 432.289273 155.421876 
L 432.970455 157.783657 
L 432.970455 157.783657 
" clip-path="url(#p50c4ca392e)" style="fill: none; stroke: #000000; stroke-width: 1.5; stroke-linecap: square"/>
   </g>
   <g id="line2d_15">
    <path d="M 92.379545 159.2 
L 98.510182 159.195368 
L 99.191364 158.614482 
L 99.872545 153.846605 
L 100.553727 144.290326 
L 101.234909 129.93278 
L 101.916091 110.765095 
L 103.278455 68.990302 
L 103.959636 54.661064 
L 104.640818 45.108357 
L 105.322 40.322704 
L 106.003182 39.748728 
L 108.046727 39.75848 
L 111.452636 39.77715 
L 112.133818 40.175677 
L 112.815 43.677104 
L 113.496182 52.437601 
L 114.177364 65.968662 
L 114.858545 84.282041 
L 116.220909 126.956383 
L 116.902091 141.930041 
L 117.583273 152.301669 
L 118.264455 158.022342 
L 118.945636 159.403962 
L 119.626818 159.105758 
L 120.989182 159.207543 
L 124.395091 159.230421 
L 125.076273 159.505202 
L 125.757455 161.953708 
L 126.438636 169.748503 
L 127.119818 182.169269 
L 127.801 199.538649 
L 129.163364 242.721434 
L 129.844545 258.58964 
L 130.525727 270.197016 
L 131.206909 276.835706 
L 131.888091 279.101668 
L 132.569273 278.76624 
L 133.250455 278.87204 
L 133.931636 278.806162 
L 135.294 278.843339 
L 137.337545 278.80315 
L 138.018727 278.588448 
L 138.699909 276.904861 
L 139.381091 270.598883 
L 140.062273 259.070773 
L 140.743455 242.998151 
L 142.787 182.436618 
L 143.468182 170.170495 
L 144.149364 162.293489 
L 144.830545 158.95711 
L 145.511727 159.078173 
L 146.192909 159.353029 
L 146.874091 159.159794 
L 148.917636 159.166971 
L 150.28 159.166042 
L 150.961182 159.031654 
L 151.642364 157.826552 
L 152.323545 152.855306 
L 153.004727 142.272778 
L 153.685909 127.327165 
L 155.729455 66.041181 
L 156.410636 52.9836 
L 157.091818 43.902642 
L 157.773 39.966316 
L 158.454182 39.359952 
L 159.135364 39.898054 
L 159.816545 39.726549 
L 160.497727 39.845252 
L 161.178909 39.692677 
L 162.541273 39.758954 
L 163.222455 39.730172 
L 163.903636 39.877696 
L 164.584818 40.791444 
L 165.266 44.714994 
L 165.947182 54.230983 
L 166.628364 68.525394 
L 167.309545 87.335008 
L 168.671909 129.774449 
L 169.353091 143.848358 
L 170.034273 153.532109 
L 170.715455 158.655868 
L 171.396636 159.795115 
L 172.077818 159.031288 
L 172.759 159.217902 
L 176.846091 159.318282 
L 177.527273 159.98416 
L 178.208455 162.976199 
L 178.889636 171.155832 
L 179.570818 184.714399 
L 180.252 202.437222 
L 181.614364 245.305572 
L 182.295545 261.10109 
L 182.976727 271.280626 
L 183.657909 277.687092 
L 184.339091 279.356655 
L 185.701455 278.664976 
L 186.382636 278.9131 
L 187.063818 278.788508 
L 187.745 278.893582 
L 188.426182 278.765341 
L 189.788545 278.797869 
L 190.469727 278.295776 
L 191.150909 276.019733 
L 191.832091 269.24788 
L 192.513273 256.808319 
L 193.194455 240.123146 
L 195.238 179.864467 
L 195.919182 168.785104 
L 196.600364 161.33595 
L 197.281545 158.675645 
L 197.962727 158.851304 
L 198.643909 159.494267 
L 199.325091 159.005185 
L 200.006273 159.255309 
L 202.049818 159.166926 
L 202.731 159.226208 
L 203.412182 158.771056 
L 204.093364 157.061093 
L 204.774545 151.574348 
L 205.455727 140.343521 
L 206.136909 124.421247 
L 208.180455 63.563232 
L 208.861636 51.056913 
L 209.542818 43.180671 
L 210.224 39.29195 
L 210.905182 39.279821 
L 211.586364 39.87963 
L 214.311091 39.741357 
L 214.992273 39.808978 
L 215.673455 39.759135 
L 216.354636 40.074738 
L 217.035818 41.426486 
L 217.717 45.893696 
L 218.398182 55.97069 
L 219.079364 71.269918 
L 220.441727 112.339801 
L 221.122909 132.249002 
L 221.804091 146.090709 
L 222.485273 154.358164 
L 223.166455 159.349626 
L 223.847636 159.802167 
L 224.528818 159.216883 
L 225.21 158.953908 
L 225.891182 159.418297 
L 226.572364 159.056506 
L 227.253545 159.294262 
L 227.934727 159.192149 
L 228.615909 159.218124 
L 229.297091 159.394909 
L 229.978273 160.495552 
L 230.659455 164.02142 
L 231.340636 172.808924 
L 232.021818 187.231769 
L 232.703 205.530884 
L 234.065364 247.992657 
L 234.746545 263.303892 
L 235.427727 272.542633 
L 236.108909 278.225664 
L 236.790091 279.75536 
L 237.471273 278.966296 
L 238.152455 278.611693 
L 238.833636 278.915071 
L 240.196 278.815572 
L 241.558364 278.809126 
L 242.239545 278.677944 
L 242.920727 277.858655 
L 243.601909 275.064769 
L 244.283091 267.764097 
L 244.964273 254.563803 
L 245.645455 237.102566 
L 247.689 177.613936 
L 248.370182 167.070707 
L 249.051364 160.902616 
L 249.732545 158.109488 
L 250.413727 158.974689 
L 251.094909 159.383549 
L 251.776091 159.314398 
L 252.457273 159.004416 
L 253.138455 159.357333 
L 253.819636 159.05884 
L 254.500818 159.255318 
L 255.182 159.045658 
L 255.863182 158.496119 
L 256.544364 156.273046 
L 257.225545 150.209318 
L 257.906727 138.267997 
L 258.587909 121.526161 
L 260.631455 61.097421 
L 261.312636 49.280987 
L 261.993818 42.485634 
L 262.675 38.842796 
L 263.356182 39.142101 
L 264.037364 39.932257 
L 264.718545 39.910662 
L 265.399727 39.566785 
L 266.080909 39.86133 
L 266.762091 39.752332 
L 268.124455 39.83844 
L 268.805636 40.322902 
L 269.486818 42.054094 
L 270.168 47.163045 
L 270.849182 57.917254 
L 271.530364 73.997034 
L 273.573909 134.827724 
L 274.255091 147.895407 
L 274.936273 155.432172 
L 275.617455 159.601384 
L 276.298636 160.27456 
L 276.979818 158.975842 
L 279.023364 159.284954 
L 279.704545 159.068986 
L 280.385727 159.354298 
L 281.066909 159.205821 
L 281.748091 159.704533 
L 282.429273 160.980018 
L 283.110455 165.21327 
L 283.791636 174.60562 
L 284.472818 189.738154 
L 285.835182 229.930243 
L 286.516364 250.635254 
L 287.197545 265.335962 
L 287.878727 273.803453 
L 288.559909 278.565039 
L 289.241091 280.149749 
L 289.922273 278.832911 
L 290.603455 278.587358 
L 291.965818 279.01222 
L 292.647 278.64865 
L 293.328182 278.948658 
L 294.009364 278.68999 
L 294.690545 278.550579 
L 295.371727 277.378709 
L 296.052909 274.091188 
L 296.734091 266.056943 
L 297.415273 252.316408 
L 298.777636 213.37303 
L 299.458818 192.039094 
L 300.14 175.378683 
L 300.821182 165.668615 
L 301.502364 160.221138 
L 302.183545 157.91572 
L 303.545909 159.62657 
L 304.227091 159.176522 
L 304.908273 159.102536 
L 306.270636 159.240903 
L 307.633 159.041181 
L 308.314182 158.07925 
L 308.995364 155.434572 
L 309.676545 148.618973 
L 310.357727 136.135246 
L 311.038909 118.715168 
L 313.082455 58.772839 
L 313.763636 47.688764 
L 314.444818 41.636004 
L 315.126 38.671091 
L 315.807182 38.840122 
L 316.488364 40.193588 
L 317.169545 39.823623 
L 318.531909 39.680523 
L 319.213091 39.925466 
L 319.894273 39.618791 
L 321.256636 40.478974 
L 321.937818 42.864952 
L 322.619 48.558409 
L 323.300182 59.999012 
L 323.981364 76.671077 
L 326.024909 137.161075 
L 326.706091 149.689124 
L 327.387273 156.394674 
L 328.068455 159.938949 
L 328.749636 160.412234 
L 329.430818 159.021741 
L 330.112 158.928624 
L 330.793182 159.336192 
L 332.155545 159.102167 
L 332.836727 159.275312 
L 333.517909 159.320281 
L 334.199091 159.809942 
L 334.880273 161.639181 
L 335.561455 166.485921 
L 336.242636 176.549138 
L 336.923818 192.293118 
L 339.648545 267.322488 
L 340.329727 274.920056 
L 341.010909 279.013943 
L 341.692091 280.214164 
L 342.373273 279.059756 
L 343.054455 278.343663 
L 343.735636 279.000336 
L 344.416818 278.826813 
L 345.098 278.852053 
L 345.779182 278.704963 
L 346.460364 278.856303 
L 347.141545 278.164846 
L 347.822727 277.072318 
L 348.503909 272.877749 
L 349.185091 264.381028 
L 349.866273 249.843542 
L 351.228636 210.179654 
L 351.909818 189.510286 
L 352.591 173.268626 
L 353.272182 164.300179 
L 353.953364 159.722735 
L 354.634545 157.826764 
L 355.315727 158.550203 
L 355.996909 159.707038 
L 356.678091 159.217833 
L 357.359273 159.070449 
L 358.721636 159.28608 
L 360.084 158.928303 
L 360.765182 157.682975 
L 361.446364 154.508741 
L 362.127545 147.007467 
L 362.808727 133.881067 
L 364.171091 95.187506 
L 365.533455 56.626145 
L 366.214636 46.073352 
L 366.895818 41.014293 
L 367.577 38.561509 
L 368.258182 38.767314 
L 368.939364 40.107763 
L 369.620545 40.052639 
L 370.301727 39.507861 
L 370.982909 39.771045 
L 371.664091 39.780101 
L 373.026455 39.974076 
L 373.707636 41.045868 
L 374.388818 43.520269 
L 375.07 50.192541 
L 375.751182 62.018541 
L 377.113545 99.783596 
L 378.475909 139.387566 
L 379.157091 151.492998 
L 379.838273 157.224487 
L 380.519455 160.100028 
L 381.200636 160.494444 
L 381.881818 159.123883 
L 382.563 158.656875 
L 383.244182 159.424419 
L 383.925364 159.258784 
L 385.287727 159.127457 
L 386.650091 159.991966 
L 387.331273 162.422628 
L 388.012455 167.692604 
L 388.693636 178.654024 
L 389.374818 194.893264 
L 391.418364 255.416705 
L 392.099545 269.183202 
L 392.780727 276.057223 
L 393.461909 279.245414 
L 394.143091 280.304245 
L 394.824273 279.101485 
L 395.505455 278.184848 
L 396.186636 278.837987 
L 396.867818 279.06606 
L 397.549 278.75139 
L 398.230182 278.7989 
L 398.911364 278.660659 
L 399.592545 278.162674 
L 400.273727 276.252312 
L 400.954909 271.833178 
L 401.636091 262.366014 
L 402.317273 247.485557 
L 405.042 171.344766 
L 405.723182 162.948291 
L 406.404364 159.322553 
L 407.085545 157.714591 
L 407.766727 158.479666 
L 408.447909 159.774522 
L 409.129091 159.439681 
L 409.810273 158.85755 
L 410.491455 159.267847 
L 411.853818 159.126657 
L 412.535 158.522598 
L 413.216182 157.387135 
L 413.897364 153.360205 
L 414.578545 145.438557 
L 415.259727 131.371303 
L 416.622091 91.95981 
L 417.303273 71.576893 
L 417.984455 54.532006 
L 418.665636 44.591964 
L 419.346818 40.399272 
L 420.028 38.475764 
L 420.709182 38.641936 
L 421.390364 40.15095 
L 422.071545 40.289935 
L 422.752727 39.461309 
L 424.115091 39.909479 
L 424.796273 39.857718 
L 425.477455 40.103542 
L 426.158636 41.345 
L 426.839818 44.555899 
L 427.521 51.645622 
L 428.202182 64.383456 
L 429.564545 103.028927 
L 430.926909 141.523175 
L 431.608091 153.064443 
L 432.289273 158.055278 
L 432.970455 160.198428 
L 432.970455 160.198428 
" clip-path="url(#p50c4ca392e)" style="fill: none; stroke-dasharray: 5.55,2.4; stroke-dashoffset: 0; stroke: #0000ff; stroke-width: 1.5"/>
   </g>
   <g id="line2d_16">
    <defs>
     <path id="m5367e93d31" d="M 0 0.75 
C 0.198902 0.75 0.389685 0.670975 0.53033 0.53033 
C 0.670975 0.389685 0.75 0.198902 0.75 0 
C 0.75 -0.198902 0.670975 -0.389685 0.53033 -0.53033 
C 0.389685 -0.670975 0.198902 -0.75 0 -0.75 
C -0.198902 -0.75 -0.389685 -0.670975 -0.53033 -0.53033 
C -0.670975 -0.389685 -0.75 -0.198902 -0.75 0 
C -0.75 0.198902 -0.670975 0.389685 -0.53033 0.53033 
C -0.389685 0.670975 -0.198902 0.75 0 0.75 
z
" style="stroke: #ff0000"/>
    </defs>
    <g clip-path="url(#p50c4ca392e)">
     <use xlink:href="#m5367e93d31" x="92.379545" y="159.2" style="fill: #ff0000; stroke: #ff0000"/>
     <use xlink:href="#m5367e93d31" x="93.060727" y="159.2" style="fill: #ff0000; stroke: #ff0000"/>
     <use xlink:href="#m5367e93d31" x="93.741909" y="159.2" style="fill: #ff0000; stroke: #ff0000"/>
     <use xlink:href="#m5367e93d31" x="94.423091" y="159.199999" style="fill: #ff0000; stroke: #ff0000"/>
     <use xlink:href="#m5367e93d31" x="95.104273" y="159.199638" style="fill: #ff0000; stroke: #ff0000"/>
     <use xlink:href="#m5367e93d31" x="95.785455" y="159.193498" style="fill: #ff0000; stroke: #ff0000"/>
     <use xlink:href="#m5367e93d31" x="96.466636" y="159.191823" style="fill: #ff0000; stroke: #ff0000"/>
     <use xlink:href="#m5367e93d31" x="97.147818" y="159.213511" style="fill: #ff0000; stroke: #ff0000"/>
     <use xlink:href="#m5367e93d31" x="97.829" y="159.226873" style="fill: #ff0000; stroke: #ff0000"/>
     <use xlink:href="#m5367e93d31" x="98.510182" y="159.271239" style="fill: #ff0000; stroke: #ff0000"/>
     <use xlink:href="#m5367e93d31" x="99.191364" y="158.656465" style="fill: #ff0000; stroke: #ff0000"/>
     <use xlink:href="#m5367e93d31" x="99.872545" y="153.873029" style="fill: #ff0000; stroke: #ff0000"/>
     <use xlink:href="#m5367e93d31" x="100.553727" y="144.25587" style="fill: #ff0000; stroke: #ff0000"/>
     <use xlink:href="#m5367e93d31" x="101.234909" y="129.863991" style="fill: #ff0000; stroke: #ff0000"/>
     <use xlink:href="#m5367e93d31" x="101.916091" y="110.578709" style="fill: #ff0000; stroke: #ff0000"/>
     <use xlink:href="#m5367e93d31" x="102.597273" y="87.975874" style="fill: #ff0000; stroke: #ff0000"/>
     <use xlink:href="#m5367e93d31" x="103.278455" y="68.950451" style="fill: #ff0000; stroke: #ff0000"/>
     <use xlink:href="#m5367e93d31" x="103.959636" y="54.686999" style="fill: #ff0000; stroke: #ff0000"/>
     <use xlink:href="#m5367e93d31" x="104.640818" y="45.15388" style="fill: #ff0000; stroke: #ff0000"/>
     <use xlink:href="#m5367e93d31" x="105.322" y="40.420999" style="fill: #ff0000; stroke: #ff0000"/>
     <use xlink:href="#m5367e93d31" x="106.003182" y="39.784388" style="fill: #ff0000; stroke: #ff0000"/>
     <use xlink:href="#m5367e93d31" x="106.684364" y="39.758791" style="fill: #ff0000; stroke: #ff0000"/>
     <use xlink:href="#m5367e93d31" x="107.365545" y="39.747775" style="fill: #ff0000; stroke: #ff0000"/>
     <use xlink:href="#m5367e93d31" x="108.046727" y="39.757359" style="fill: #ff0000; stroke: #ff0000"/>
     <use xlink:href="#m5367e93d31" x="108.727909" y="39.747901" style="fill: #ff0000; stroke: #ff0000"/>
     <use xlink:href="#m5367e93d31" x="109.409091" y="39.724435" style="fill: #ff0000; stroke: #ff0000"/>
     <use xlink:href="#m5367e93d31" x="110.090273" y="39.766319" style="fill: #ff0000; stroke: #ff0000"/>
     <use xlink:href="#m5367e93d31" x="110.771455" y="39.83716" style="fill: #ff0000; stroke: #ff0000"/>
     <use xlink:href="#m5367e93d31" x="111.452636" y="39.615474" style="fill: #ff0000; stroke: #ff0000"/>
     <use xlink:href="#m5367e93d31" x="112.133818" y="39.85752" style="fill: #ff0000; stroke: #ff0000"/>
     <use xlink:href="#m5367e93d31" x="112.815" y="43.829283" style="fill: #ff0000; stroke: #ff0000"/>
     <use xlink:href="#m5367e93d31" x="113.496182" y="52.451646" style="fill: #ff0000; stroke: #ff0000"/>
     <use xlink:href="#m5367e93d31" x="114.177364" y="65.795455" style="fill: #ff0000; stroke: #ff0000"/>
     <use xlink:href="#m5367e93d31" x="114.858545" y="84.704679" style="fill: #ff0000; stroke: #ff0000"/>
     <use xlink:href="#m5367e93d31" x="115.539727" y="107.124457" style="fill: #ff0000; stroke: #ff0000"/>
     <use xlink:href="#m5367e93d31" x="116.220909" y="126.764712" style="fill: #ff0000; stroke: #ff0000"/>
     <use xlink:href="#m5367e93d31" x="116.902091" y="141.906053" style="fill: #ff0000; stroke: #ff0000"/>
     <use xlink:href="#m5367e93d31" x="117.583273" y="152.380348" style="fill: #ff0000; stroke: #ff0000"/>
     <use xlink:href="#m5367e93d31" x="118.264455" y="157.850981" style="fill: #ff0000; stroke: #ff0000"/>
     <use xlink:href="#m5367e93d31" x="118.945636" y="159.071335" style="fill: #ff0000; stroke: #ff0000"/>
     <use xlink:href="#m5367e93d31" x="119.626818" y="159.176265" style="fill: #ff0000; stroke: #ff0000"/>
     <use xlink:href="#m5367e93d31" x="120.308" y="159.187443" style="fill: #ff0000; stroke: #ff0000"/>
     <use xlink:href="#m5367e93d31" x="120.989182" y="159.1936" style="fill: #ff0000; stroke: #ff0000"/>
     <use xlink:href="#m5367e93d31" x="121.670364" y="159.23587" style="fill: #ff0000; stroke: #ff0000"/>
     <use xlink:href="#m5367e93d31" x="122.351545" y="159.227085" style="fill: #ff0000; stroke: #ff0000"/>
     <use xlink:href="#m5367e93d31" x="123.032727" y="159.148704" style="fill: #ff0000; stroke: #ff0000"/>
     <use xlink:href="#m5367e93d31" x="123.713909" y="159.357533" style="fill: #ff0000; stroke: #ff0000"/>
     <use xlink:href="#m5367e93d31" x="124.395091" y="159.0531" style="fill: #ff0000; stroke: #ff0000"/>
     <use xlink:href="#m5367e93d31" x="125.076273" y="158.86114" style="fill: #ff0000; stroke: #ff0000"/>
     <use xlink:href="#m5367e93d31" x="125.757455" y="161.948233" style="fill: #ff0000; stroke: #ff0000"/>
     <use xlink:href="#m5367e93d31" x="126.438636" y="169.843879" style="fill: #ff0000; stroke: #ff0000"/>
     <use xlink:href="#m5367e93d31" x="127.119818" y="181.916983" style="fill: #ff0000; stroke: #ff0000"/>
     <use xlink:href="#m5367e93d31" x="127.801" y="200.007197" style="fill: #ff0000; stroke: #ff0000"/>
     <use xlink:href="#m5367e93d31" x="128.482182" y="222.228197" style="fill: #ff0000; stroke: #ff0000"/>
     <use xlink:href="#m5367e93d31" x="129.163364" y="242.595203" style="fill: #ff0000; stroke: #ff0000"/>
     <use xlink:href="#m5367e93d31" x="129.844545" y="258.627133" style="fill: #ff0000; stroke: #ff0000"/>
     <use xlink:href="#m5367e93d31" x="130.525727" y="270.214771" style="fill: #ff0000; stroke: #ff0000"/>
     <use xlink:href="#m5367e93d31" x="131.206909" y="276.64785" style="fill: #ff0000; stroke: #ff0000"/>
     <use xlink:href="#m5367e93d31" x="131.888091" y="278.533651" style="fill: #ff0000; stroke: #ff0000"/>
     <use xlink:href="#m5367e93d31" x="132.569273" y="278.79703" style="fill: #ff0000; stroke: #ff0000"/>
     <use xlink:href="#m5367e93d31" x="133.250455" y="278.790782" style="fill: #ff0000; stroke: #ff0000"/>
     <use xlink:href="#m5367e93d31" x="133.931636" y="278.835816" style="fill: #ff0000; stroke: #ff0000"/>
     <use xlink:href="#m5367e93d31" x="134.612818" y="278.851625" style="fill: #ff0000; stroke: #ff0000"/>
     <use xlink:href="#m5367e93d31" x="135.294" y="278.741371" style="fill: #ff0000; stroke: #ff0000"/>
     <use xlink:href="#m5367e93d31" x="135.975182" y="278.920351" style="fill: #ff0000; stroke: #ff0000"/>
     <use xlink:href="#m5367e93d31" x="136.656364" y="278.7084" style="fill: #ff0000; stroke: #ff0000"/>
     <use xlink:href="#m5367e93d31" x="137.337545" y="278.981445" style="fill: #ff0000; stroke: #ff0000"/>
     <use xlink:href="#m5367e93d31" x="138.018727" y="279.328341" style="fill: #ff0000; stroke: #ff0000"/>
     <use xlink:href="#m5367e93d31" x="138.699909" y="277.253411" style="fill: #ff0000; stroke: #ff0000"/>
     <use xlink:href="#m5367e93d31" x="139.381091" y="270.278127" style="fill: #ff0000; stroke: #ff0000"/>
     <use xlink:href="#m5367e93d31" x="140.062273" y="259.447021" style="fill: #ff0000; stroke: #ff0000"/>
     <use xlink:href="#m5367e93d31" x="140.743455" y="242.658862" style="fill: #ff0000; stroke: #ff0000"/>
     <use xlink:href="#m5367e93d31" x="141.424636" y="220.929144" style="fill: #ff0000; stroke: #ff0000"/>
     <use xlink:href="#m5367e93d31" x="142.105818" y="199.802172" style="fill: #ff0000; stroke: #ff0000"/>
     <use xlink:href="#m5367e93d31" x="142.787" y="182.777298" style="fill: #ff0000; stroke: #ff0000"/>
     <use xlink:href="#m5367e93d31" x="143.468182" y="169.963415" style="fill: #ff0000; stroke: #ff0000"/>
     <use xlink:href="#m5367e93d31" x="144.149364" y="162.422026" style="fill: #ff0000; stroke: #ff0000"/>
     <use xlink:href="#m5367e93d31" x="144.830545" y="159.782363" style="fill: #ff0000; stroke: #ff0000"/>
     <use xlink:href="#m5367e93d31" x="145.511727" y="159.277304" style="fill: #ff0000; stroke: #ff0000"/>
     <use xlink:href="#m5367e93d31" x="146.192909" y="159.195153" style="fill: #ff0000; stroke: #ff0000"/>
     <use xlink:href="#m5367e93d31" x="146.874091" y="159.147842" style="fill: #ff0000; stroke: #ff0000"/>
     <use xlink:href="#m5367e93d31" x="147.555273" y="159.251109" style="fill: #ff0000; stroke: #ff0000"/>
     <use xlink:href="#m5367e93d31" x="148.236455" y="159.181917" style="fill: #ff0000; stroke: #ff0000"/>
     <use xlink:href="#m5367e93d31" x="148.917636" y="159.306715" style="fill: #ff0000; stroke: #ff0000"/>
     <use xlink:href="#m5367e93d31" x="149.598818" y="158.988339" style="fill: #ff0000; stroke: #ff0000"/>
     <use xlink:href="#m5367e93d31" x="150.28" y="159.356104" style="fill: #ff0000; stroke: #ff0000"/>
     <use xlink:href="#m5367e93d31" x="150.961182" y="159.818014" style="fill: #ff0000; stroke: #ff0000"/>
     <use xlink:href="#m5367e93d31" x="151.642364" y="158.483736" style="fill: #ff0000; stroke: #ff0000"/>
     <use xlink:href="#m5367e93d31" x="152.323545" y="152.482159" style="fill: #ff0000; stroke: #ff0000"/>
     <use xlink:href="#m5367e93d31" x="153.004727" y="142.725213" style="fill: #ff0000; stroke: #ff0000"/>
     <use xlink:href="#m5367e93d31" x="153.685909" y="127.01649" style="fill: #ff0000; stroke: #ff0000"/>
     <use xlink:href="#m5367e93d31" x="154.367091" y="105.894915" style="fill: #ff0000; stroke: #ff0000"/>
     <use xlink:href="#m5367e93d31" x="155.048273" y="84.331862" style="fill: #ff0000; stroke: #ff0000"/>
     <use xlink:href="#m5367e93d31" x="155.729455" y="66.496065" style="fill: #ff0000; stroke: #ff0000"/>
     <use xlink:href="#m5367e93d31" x="156.410636" y="52.722632" style="fill: #ff0000; stroke: #ff0000"/>
     <use xlink:href="#m5367e93d31" x="157.091818" y="44.135666" style="fill: #ff0000; stroke: #ff0000"/>
     <use xlink:href="#m5367e93d31" x="157.773" y="40.772812" style="fill: #ff0000; stroke: #ff0000"/>
     <use xlink:href="#m5367e93d31" x="158.454182" y="39.965083" style="fill: #ff0000; stroke: #ff0000"/>
     <use xlink:href="#m5367e93d31" x="159.135364" y="39.718398" style="fill: #ff0000; stroke: #ff0000"/>
     <use xlink:href="#m5367e93d31" x="159.816545" y="39.758644" style="fill: #ff0000; stroke: #ff0000"/>
     <use xlink:href="#m5367e93d31" x="160.497727" y="39.730228" style="fill: #ff0000; stroke: #ff0000"/>
     <use xlink:href="#m5367e93d31" x="161.178909" y="39.860174" style="fill: #ff0000; stroke: #ff0000"/>
     <use xlink:href="#m5367e93d31" x="161.860091" y="39.564327" style="fill: #ff0000; stroke: #ff0000"/>
     <use xlink:href="#m5367e93d31" x="162.541273" y="40.059303" style="fill: #ff0000; stroke: #ff0000"/>
     <use xlink:href="#m5367e93d31" x="163.222455" y="39.711865" style="fill: #ff0000; stroke: #ff0000"/>
     <use xlink:href="#m5367e93d31" x="163.903636" y="39.039519" style="fill: #ff0000; stroke: #ff0000"/>
     <use xlink:href="#m5367e93d31" x="164.584818" y="39.772764" style="fill: #ff0000; stroke: #ff0000"/>
     <use xlink:href="#m5367e93d31" x="165.266" y="45.044558" style="fill: #ff0000; stroke: #ff0000"/>
     <use xlink:href="#m5367e93d31" x="165.947182" y="53.748482" style="fill: #ff0000; stroke: #ff0000"/>
     <use xlink:href="#m5367e93d31" x="166.628364" y="68.59643" style="fill: #ff0000; stroke: #ff0000"/>
     <use xlink:href="#m5367e93d31" x="167.309545" y="89.200434" style="fill: #ff0000; stroke: #ff0000"/>
     <use xlink:href="#m5367e93d31" x="167.990727" y="110.945606" style="fill: #ff0000; stroke: #ff0000"/>
     <use xlink:href="#m5367e93d31" x="168.671909" y="129.397361" style="fill: #ff0000; stroke: #ff0000"/>
     <use xlink:href="#m5367e93d31" x="169.353091" y="144.076279" style="fill: #ff0000; stroke: #ff0000"/>
     <use xlink:href="#m5367e93d31" x="170.034273" y="153.572808" style="fill: #ff0000; stroke: #ff0000"/>
     <use xlink:href="#m5367e93d31" x="170.715455" y="157.639019" style="fill: #ff0000; stroke: #ff0000"/>
     <use xlink:href="#m5367e93d31" x="171.396636" y="158.928964" style="fill: #ff0000; stroke: #ff0000"/>
     <use xlink:href="#m5367e93d31" x="172.077818" y="159.147108" style="fill: #ff0000; stroke: #ff0000"/>
     <use xlink:href="#m5367e93d31" x="172.759" y="159.205182" style="fill: #ff0000; stroke: #ff0000"/>
     <use xlink:href="#m5367e93d31" x="173.440182" y="159.11298" style="fill: #ff0000; stroke: #ff0000"/>
     <use xlink:href="#m5367e93d31" x="174.121364" y="159.352238" style="fill: #ff0000; stroke: #ff0000"/>
     <use xlink:href="#m5367e93d31" x="174.802545" y="158.992533" style="fill: #ff0000; stroke: #ff0000"/>
     <use xlink:href="#m5367e93d31" x="175.483727" y="159.435424" style="fill: #ff0000; stroke: #ff0000"/>
     <use xlink:href="#m5367e93d31" x="176.164909" y="159.284234" style="fill: #ff0000; stroke: #ff0000"/>
     <use xlink:href="#m5367e93d31" x="176.846091" y="158.493906" style="fill: #ff0000; stroke: #ff0000"/>
     <use xlink:href="#m5367e93d31" x="177.527273" y="158.708952" style="fill: #ff0000; stroke: #ff0000"/>
     <use xlink:href="#m5367e93d31" x="178.208455" y="163.174077" style="fill: #ff0000; stroke: #ff0000"/>
     <use xlink:href="#m5367e93d31" x="178.889636" y="170.868404" style="fill: #ff0000; stroke: #ff0000"/>
     <use xlink:href="#m5367e93d31" x="179.570818" y="184.500751" style="fill: #ff0000; stroke: #ff0000"/>
     <use xlink:href="#m5367e93d31" x="180.252" y="204.344558" style="fill: #ff0000; stroke: #ff0000"/>
     <use xlink:href="#m5367e93d31" x="180.933182" y="226.129269" style="fill: #ff0000; stroke: #ff0000"/>
     <use xlink:href="#m5367e93d31" x="181.614364" y="245.339475" style="fill: #ff0000; stroke: #ff0000"/>
     <use xlink:href="#m5367e93d31" x="182.295545" y="261.01868" style="fill: #ff0000; stroke: #ff0000"/>
     <use xlink:href="#m5367e93d31" x="182.976727" y="271.530953" style="fill: #ff0000; stroke: #ff0000"/>
     <use xlink:href="#m5367e93d31" x="183.657909" y="276.647418" style="fill: #ff0000; stroke: #ff0000"/>
     <use xlink:href="#m5367e93d31" x="184.339091" y="278.389548" style="fill: #ff0000; stroke: #ff0000"/>
     <use xlink:href="#m5367e93d31" x="185.020273" y="278.774624" style="fill: #ff0000; stroke: #ff0000"/>
     <use xlink:href="#m5367e93d31" x="185.701455" y="278.746821" style="fill: #ff0000; stroke: #ff0000"/>
     <use xlink:href="#m5367e93d31" x="186.382636" y="278.936234" style="fill: #ff0000; stroke: #ff0000"/>
     <use xlink:href="#m5367e93d31" x="187.063818" y="278.749955" style="fill: #ff0000; stroke: #ff0000"/>
     <use xlink:href="#m5367e93d31" x="187.745" y="278.986571" style="fill: #ff0000; stroke: #ff0000"/>
     <use xlink:href="#m5367e93d31" x="188.426182" y="278.697064" style="fill: #ff0000; stroke: #ff0000"/>
     <use xlink:href="#m5367e93d31" x="189.107364" y="278.644867" style="fill: #ff0000; stroke: #ff0000"/>
     <use xlink:href="#m5367e93d31" x="189.788545" y="279.484555" style="fill: #ff0000; stroke: #ff0000"/>
     <use xlink:href="#m5367e93d31" x="190.469727" y="279.73246" style="fill: #ff0000; stroke: #ff0000"/>
     <use xlink:href="#m5367e93d31" x="191.150909" y="276.122563" style="fill: #ff0000; stroke: #ff0000"/>
     <use xlink:href="#m5367e93d31" x="191.832091" y="269.401539" style="fill: #ff0000; stroke: #ff0000"/>
     <use xlink:href="#m5367e93d31" x="192.513273" y="257.258094" style="fill: #ff0000; stroke: #ff0000"/>
     <use xlink:href="#m5367e93d31" x="193.194455" y="238.584316" style="fill: #ff0000; stroke: #ff0000"/>
     <use xlink:href="#m5367e93d31" x="193.875636" y="216.821283" style="fill: #ff0000; stroke: #ff0000"/>
     <use xlink:href="#m5367e93d31" x="194.556818" y="196.826948" style="fill: #ff0000; stroke: #ff0000"/>
     <use xlink:href="#m5367e93d31" x="195.238" y="180.1997" style="fill: #ff0000; stroke: #ff0000"/>
     <use xlink:href="#m5367e93d31" x="195.919182" y="168.381518" style="fill: #ff0000; stroke: #ff0000"/>
     <use xlink:href="#m5367e93d31" x="196.600364" y="162.189823" style="fill: #ff0000; stroke: #ff0000"/>
     <use xlink:href="#m5367e93d31" x="197.281545" y="159.909891" style="fill: #ff0000; stroke: #ff0000"/>
     <use xlink:href="#m5367e93d31" x="197.962727" y="159.369065" style="fill: #ff0000; stroke: #ff0000"/>
     <use xlink:href="#m5367e93d31" x="198.643909" y="159.209795" style="fill: #ff0000; stroke: #ff0000"/>
     <use xlink:href="#m5367e93d31" x="199.325091" y="159.188038" style="fill: #ff0000; stroke: #ff0000"/>
     <use xlink:href="#m5367e93d31" x="200.006273" y="159.124172" style="fill: #ff0000; stroke: #ff0000"/>
     <use xlink:href="#m5367e93d31" x="200.687455" y="159.348354" style="fill: #ff0000; stroke: #ff0000"/>
     <use xlink:href="#m5367e93d31" x="201.368636" y="159.114252" style="fill: #ff0000; stroke: #ff0000"/>
     <use xlink:href="#m5367e93d31" x="202.049818" y="158.887998" style="fill: #ff0000; stroke: #ff0000"/>
     <use xlink:href="#m5367e93d31" x="202.731" y="159.810594" style="fill: #ff0000; stroke: #ff0000"/>
     <use xlink:href="#m5367e93d31" x="203.412182" y="160.436042" style="fill: #ff0000; stroke: #ff0000"/>
     <use xlink:href="#m5367e93d31" x="204.093364" y="157.544196" style="fill: #ff0000; stroke: #ff0000"/>
     <use xlink:href="#m5367e93d31" x="204.774545" y="151.687993" style="fill: #ff0000; stroke: #ff0000"/>
     <use xlink:href="#m5367e93d31" x="205.455727" y="140.855579" style="fill: #ff0000; stroke: #ff0000"/>
     <use xlink:href="#m5367e93d31" x="206.136909" y="123.22459" style="fill: #ff0000; stroke: #ff0000"/>
     <use xlink:href="#m5367e93d31" x="206.818091" y="101.613083" style="fill: #ff0000; stroke: #ff0000"/>
     <use xlink:href="#m5367e93d31" x="207.499273" y="81.260746" style="fill: #ff0000; stroke: #ff0000"/>
     <use xlink:href="#m5367e93d31" x="208.180455" y="63.808046" style="fill: #ff0000; stroke: #ff0000"/>
     <use xlink:href="#m5367e93d31" x="208.861636" y="50.870325" style="fill: #ff0000; stroke: #ff0000"/>
     <use xlink:href="#m5367e93d31" x="209.542818" y="43.692836" style="fill: #ff0000; stroke: #ff0000"/>
     <use xlink:href="#m5367e93d31" x="210.224" y="40.842205" style="fill: #ff0000; stroke: #ff0000"/>
     <use xlink:href="#m5367e93d31" x="210.905182" y="40.031401" style="fill: #ff0000; stroke: #ff0000"/>
     <use xlink:href="#m5367e93d31" x="211.586364" y="39.7161" style="fill: #ff0000; stroke: #ff0000"/>
     <use xlink:href="#m5367e93d31" x="212.267545" y="39.795061" style="fill: #ff0000; stroke: #ff0000"/>
     <use xlink:href="#m5367e93d31" x="212.948727" y="39.810015" style="fill: #ff0000; stroke: #ff0000"/>
     <use xlink:href="#m5367e93d31" x="213.629909" y="39.641957" style="fill: #ff0000; stroke: #ff0000"/>
     <use xlink:href="#m5367e93d31" x="214.311091" y="39.772019" style="fill: #ff0000; stroke: #ff0000"/>
     <use xlink:href="#m5367e93d31" x="214.992273" y="40.24649" style="fill: #ff0000; stroke: #ff0000"/>
     <use xlink:href="#m5367e93d31" x="215.673455" y="39.263388" style="fill: #ff0000; stroke: #ff0000"/>
     <use xlink:href="#m5367e93d31" x="216.354636" y="38.388999" style="fill: #ff0000; stroke: #ff0000"/>
     <use xlink:href="#m5367e93d31" x="217.035818" y="40.612051" style="fill: #ff0000; stroke: #ff0000"/>
     <use xlink:href="#m5367e93d31" x="217.717" y="45.711039" style="fill: #ff0000; stroke: #ff0000"/>
     <use xlink:href="#m5367e93d31" x="218.398182" y="55.372804" style="fill: #ff0000; stroke: #ff0000"/>
     <use xlink:href="#m5367e93d31" x="219.079364" y="72.235682" style="fill: #ff0000; stroke: #ff0000"/>
     <use xlink:href="#m5367e93d31" x="219.760545" y="93.506327" style="fill: #ff0000; stroke: #ff0000"/>
     <use xlink:href="#m5367e93d31" x="220.441727" y="114.102868" style="fill: #ff0000; stroke: #ff0000"/>
     <use xlink:href="#m5367e93d31" x="221.122909" y="132.242833" style="fill: #ff0000; stroke: #ff0000"/>
     <use xlink:href="#m5367e93d31" x="221.804091" y="146.069674" style="fill: #ff0000; stroke: #ff0000"/>
     <use xlink:href="#m5367e93d31" x="222.485273" y="154.194235" style="fill: #ff0000; stroke: #ff0000"/>
     <use xlink:href="#m5367e93d31" x="223.166455" y="157.583265" style="fill: #ff0000; stroke: #ff0000"/>
     <use xlink:href="#m5367e93d31" x="223.847636" y="158.927999" style="fill: #ff0000; stroke: #ff0000"/>
     <use xlink:href="#m5367e93d31" x="224.528818" y="159.032411" style="fill: #ff0000; stroke: #ff0000"/>
     <use xlink:href="#m5367e93d31" x="225.21" y="159.224168" style="fill: #ff0000; stroke: #ff0000"/>
     <use xlink:href="#m5367e93d31" x="225.891182" y="159.212251" style="fill: #ff0000; stroke: #ff0000"/>
     <use xlink:href="#m5367e93d31" x="226.572364" y="159.107842" style="fill: #ff0000; stroke: #ff0000"/>
     <use xlink:href="#m5367e93d31" x="227.253545" y="159.128222" style="fill: #ff0000; stroke: #ff0000"/>
     <use xlink:href="#m5367e93d31" x="227.934727" y="159.761959" style="fill: #ff0000; stroke: #ff0000"/>
     <use xlink:href="#m5367e93d31" x="228.615909" y="158.802302" style="fill: #ff0000; stroke: #ff0000"/>
     <use xlink:href="#m5367e93d31" x="229.297091" y="157.750145" style="fill: #ff0000; stroke: #ff0000"/>
     <use xlink:href="#m5367e93d31" x="229.978273" y="159.399347" style="fill: #ff0000; stroke: #ff0000"/>
     <use xlink:href="#m5367e93d31" x="230.659455" y="163.647024" style="fill: #ff0000; stroke: #ff0000"/>
     <use xlink:href="#m5367e93d31" x="231.340636" y="172.19409" style="fill: #ff0000; stroke: #ff0000"/>
     <use xlink:href="#m5367e93d31" x="232.021818" y="187.953471" style="fill: #ff0000; stroke: #ff0000"/>
     <use xlink:href="#m5367e93d31" x="232.703" y="208.643101" style="fill: #ff0000; stroke: #ff0000"/>
     <use xlink:href="#m5367e93d31" x="233.384182" y="229.527139" style="fill: #ff0000; stroke: #ff0000"/>
     <use xlink:href="#m5367e93d31" x="234.065364" y="248.357051" style="fill: #ff0000; stroke: #ff0000"/>
     <use xlink:href="#m5367e93d31" x="234.746545" y="263.262714" style="fill: #ff0000; stroke: #ff0000"/>
     <use xlink:href="#m5367e93d31" x="235.427727" y="272.253293" style="fill: #ff0000; stroke: #ff0000"/>
     <use xlink:href="#m5367e93d31" x="236.108909" y="276.827418" style="fill: #ff0000; stroke: #ff0000"/>
     <use xlink:href="#m5367e93d31" x="236.790091" y="278.137593" style="fill: #ff0000; stroke: #ff0000"/>
     <use xlink:href="#m5367e93d31" x="237.471273" y="278.825136" style="fill: #ff0000; stroke: #ff0000"/>
     <use xlink:href="#m5367e93d31" x="238.152455" y="278.728574" style="fill: #ff0000; stroke: #ff0000"/>
     <use xlink:href="#m5367e93d31" x="238.833636" y="278.862606" style="fill: #ff0000; stroke: #ff0000"/>
     <use xlink:href="#m5367e93d31" x="239.514818" y="278.905117" style="fill: #ff0000; stroke: #ff0000"/>
     <use xlink:href="#m5367e93d31" x="240.196" y="278.975768" style="fill: #ff0000; stroke: #ff0000"/>
     <use xlink:href="#m5367e93d31" x="240.877182" y="278.223802" style="fill: #ff0000; stroke: #ff0000"/>
     <use xlink:href="#m5367e93d31" x="241.558364" y="279.084168" style="fill: #ff0000; stroke: #ff0000"/>
     <use xlink:href="#m5367e93d31" x="242.239545" y="280.232382" style="fill: #ff0000; stroke: #ff0000"/>
     <use xlink:href="#m5367e93d31" x="242.920727" y="279.20706" style="fill: #ff0000; stroke: #ff0000"/>
     <use xlink:href="#m5367e93d31" x="243.601909" y="275.722535" style="fill: #ff0000; stroke: #ff0000"/>
     <use xlink:href="#m5367e93d31" x="244.283091" y="268.369515" style="fill: #ff0000; stroke: #ff0000"/>
     <use xlink:href="#m5367e93d31" x="244.964273" y="254.193296" style="fill: #ff0000; stroke: #ff0000"/>
     <use xlink:href="#m5367e93d31" x="245.645455" y="234.300132" style="fill: #ff0000; stroke: #ff0000"/>
     <use xlink:href="#m5367e93d31" x="246.326636" y="213.318374" style="fill: #ff0000; stroke: #ff0000"/>
     <use xlink:href="#m5367e93d31" x="247.007818" y="193.635803" style="fill: #ff0000; stroke: #ff0000"/>
     <use xlink:href="#m5367e93d31" x="247.689" y="177.8466" style="fill: #ff0000; stroke: #ff0000"/>
     <use xlink:href="#m5367e93d31" x="248.370182" y="167.190919" style="fill: #ff0000; stroke: #ff0000"/>
     <use xlink:href="#m5367e93d31" x="249.051364" y="162.165165" style="fill: #ff0000; stroke: #ff0000"/>
     <use xlink:href="#m5367e93d31" x="249.732545" y="159.870418" style="fill: #ff0000; stroke: #ff0000"/>
     <use xlink:href="#m5367e93d31" x="250.413727" y="159.497886" style="fill: #ff0000; stroke: #ff0000"/>
     <use xlink:href="#m5367e93d31" x="251.094909" y="159.179119" style="fill: #ff0000; stroke: #ff0000"/>
     <use xlink:href="#m5367e93d31" x="251.776091" y="159.235214" style="fill: #ff0000; stroke: #ff0000"/>
     <use xlink:href="#m5367e93d31" x="252.457273" y="159.2228" style="fill: #ff0000; stroke: #ff0000"/>
     <use xlink:href="#m5367e93d31" x="253.138455" y="159.442521" style="fill: #ff0000; stroke: #ff0000"/>
     <use xlink:href="#m5367e93d31" x="253.819636" y="158.617536" style="fill: #ff0000; stroke: #ff0000"/>
     <use xlink:href="#m5367e93d31" x="254.500818" y="159.204844" style="fill: #ff0000; stroke: #ff0000"/>
     <use xlink:href="#m5367e93d31" x="255.182" y="160.513163" style="fill: #ff0000; stroke: #ff0000"/>
     <use xlink:href="#m5367e93d31" x="255.863182" y="160.043646" style="fill: #ff0000; stroke: #ff0000"/>
     <use xlink:href="#m5367e93d31" x="256.544364" y="157.131689" style="fill: #ff0000; stroke: #ff0000"/>
     <use xlink:href="#m5367e93d31" x="257.225545" y="150.967699" style="fill: #ff0000; stroke: #ff0000"/>
     <use xlink:href="#m5367e93d31" x="257.906727" y="138.147738" style="fill: #ff0000; stroke: #ff0000"/>
     <use xlink:href="#m5367e93d31" x="258.587909" y="119.109287" style="fill: #ff0000; stroke: #ff0000"/>
     <use xlink:href="#m5367e93d31" x="259.269091" y="97.983152" style="fill: #ff0000; stroke: #ff0000"/>
     <use xlink:href="#m5367e93d31" x="259.950273" y="78.075307" style="fill: #ff0000; stroke: #ff0000"/>
     <use xlink:href="#m5367e93d31" x="260.631455" y="61.054998" style="fill: #ff0000; stroke: #ff0000"/>
     <use xlink:href="#m5367e93d31" x="261.312636" y="49.624429" style="fill: #ff0000; stroke: #ff0000"/>
     <use xlink:href="#m5367e93d31" x="261.993818" y="43.286624" style="fill: #ff0000; stroke: #ff0000"/>
     <use xlink:href="#m5367e93d31" x="262.675" y="41.024043" style="fill: #ff0000; stroke: #ff0000"/>
     <use xlink:href="#m5367e93d31" x="263.356182" y="39.920286" style="fill: #ff0000; stroke: #ff0000"/>
     <use xlink:href="#m5367e93d31" x="264.037364" y="39.831066" style="fill: #ff0000; stroke: #ff0000"/>
     <use xlink:href="#m5367e93d31" x="264.718545" y="39.803092" style="fill: #ff0000; stroke: #ff0000"/>
     <use xlink:href="#m5367e93d31" x="265.399727" y="39.784047" style="fill: #ff0000; stroke: #ff0000"/>
     <use xlink:href="#m5367e93d31" x="266.080909" y="39.456851" style="fill: #ff0000; stroke: #ff0000"/>
     <use xlink:href="#m5367e93d31" x="266.762091" y="40.372317" style="fill: #ff0000; stroke: #ff0000"/>
     <use xlink:href="#m5367e93d31" x="267.443273" y="39.987433" style="fill: #ff0000; stroke: #ff0000"/>
     <use xlink:href="#m5367e93d31" x="268.124455" y="38.490875" style="fill: #ff0000; stroke: #ff0000"/>
     <use xlink:href="#m5367e93d31" x="268.805636" y="38.631093" style="fill: #ff0000; stroke: #ff0000"/>
     <use xlink:href="#m5367e93d31" x="269.486818" y="40.97145" style="fill: #ff0000; stroke: #ff0000"/>
     <use xlink:href="#m5367e93d31" x="270.168" y="46.187794" style="fill: #ff0000; stroke: #ff0000"/>
     <use xlink:href="#m5367e93d31" x="270.849182" y="57.842107" style="fill: #ff0000; stroke: #ff0000"/>
     <use xlink:href="#m5367e93d31" x="271.530364" y="76.298067" style="fill: #ff0000; stroke: #ff0000"/>
     <use xlink:href="#m5367e93d31" x="272.211545" y="97.093951" style="fill: #ff0000; stroke: #ff0000"/>
     <use xlink:href="#m5367e93d31" x="272.892727" y="117.530124" style="fill: #ff0000; stroke: #ff0000"/>
     <use xlink:href="#m5367e93d31" x="273.573909" y="135.056701" style="fill: #ff0000; stroke: #ff0000"/>
     <use xlink:href="#m5367e93d31" x="274.255091" y="147.621106" style="fill: #ff0000; stroke: #ff0000"/>
     <use xlink:href="#m5367e93d31" x="274.936273" y="154.481651" style="fill: #ff0000; stroke: #ff0000"/>
     <use xlink:href="#m5367e93d31" x="275.617455" y="157.79395" style="fill: #ff0000; stroke: #ff0000"/>
     <use xlink:href="#m5367e93d31" x="276.298636" y="158.671114" style="fill: #ff0000; stroke: #ff0000"/>
     <use xlink:href="#m5367e93d31" x="276.979818" y="159.079911" style="fill: #ff0000; stroke: #ff0000"/>
     <use xlink:href="#m5367e93d31" x="277.661" y="159.288359" style="fill: #ff0000; stroke: #ff0000"/>
     <use xlink:href="#m5367e93d31" x="278.342182" y="159.202574" style="fill: #ff0000; stroke: #ff0000"/>
     <use xlink:href="#m5367e93d31" x="279.023364" y="158.833454" style="fill: #ff0000; stroke: #ff0000"/>
     <use xlink:href="#m5367e93d31" x="279.704545" y="159.807309" style="fill: #ff0000; stroke: #ff0000"/>
     <use xlink:href="#m5367e93d31" x="280.385727" y="159.527756" style="fill: #ff0000; stroke: #ff0000"/>
     <use xlink:href="#m5367e93d31" x="281.066909" y="158.045213" style="fill: #ff0000; stroke: #ff0000"/>
     <use xlink:href="#m5367e93d31" x="281.748091" y="157.878277" style="fill: #ff0000; stroke: #ff0000"/>
     <use xlink:href="#m5367e93d31" x="282.429273" y="159.730917" style="fill: #ff0000; stroke: #ff0000"/>
     <use xlink:href="#m5367e93d31" x="283.110455" y="163.897442" style="fill: #ff0000; stroke: #ff0000"/>
     <use xlink:href="#m5367e93d31" x="283.791636" y="174.437767" style="fill: #ff0000; stroke: #ff0000"/>
     <use xlink:href="#m5367e93d31" x="284.472818" y="191.776505" style="fill: #ff0000; stroke: #ff0000"/>
     <use xlink:href="#m5367e93d31" x="285.154" y="212.294502" style="fill: #ff0000; stroke: #ff0000"/>
     <use xlink:href="#m5367e93d31" x="285.835182" y="232.981666" style="fill: #ff0000; stroke: #ff0000"/>
     <use xlink:href="#m5367e93d31" x="286.516364" y="251.364935" style="fill: #ff0000; stroke: #ff0000"/>
     <use xlink:href="#m5367e93d31" x="287.197545" y="264.973871" style="fill: #ff0000; stroke: #ff0000"/>
     <use xlink:href="#m5367e93d31" x="287.878727" y="273.049044" style="fill: #ff0000; stroke: #ff0000"/>
     <use xlink:href="#m5367e93d31" x="288.559909" y="276.720307" style="fill: #ff0000; stroke: #ff0000"/>
     <use xlink:href="#m5367e93d31" x="289.241091" y="278.294774" style="fill: #ff0000; stroke: #ff0000"/>
     <use xlink:href="#m5367e93d31" x="289.922273" y="278.704943" style="fill: #ff0000; stroke: #ff0000"/>
     <use xlink:href="#m5367e93d31" x="290.603455" y="278.618002" style="fill: #ff0000; stroke: #ff0000"/>
     <use xlink:href="#m5367e93d31" x="291.284636" y="278.872517" style="fill: #ff0000; stroke: #ff0000"/>
     <use xlink:href="#m5367e93d31" x="291.965818" y="279.231638" style="fill: #ff0000; stroke: #ff0000"/>
     <use xlink:href="#m5367e93d31" x="292.647" y="278.296589" style="fill: #ff0000; stroke: #ff0000"/>
     <use xlink:href="#m5367e93d31" x="293.328182" y="278.362972" style="fill: #ff0000; stroke: #ff0000"/>
     <use xlink:href="#m5367e93d31" x="294.009364" y="279.821351" style="fill: #ff0000; stroke: #ff0000"/>
     <use xlink:href="#m5367e93d31" x="294.690545" y="280.190579" style="fill: #ff0000; stroke: #ff0000"/>
     <use xlink:href="#m5367e93d31" x="295.371727" y="278.906572" style="fill: #ff0000; stroke: #ff0000"/>
     <use xlink:href="#m5367e93d31" x="296.052909" y="275.629776" style="fill: #ff0000; stroke: #ff0000"/>
     <use xlink:href="#m5367e93d31" x="296.734091" y="266.631367" style="fill: #ff0000; stroke: #ff0000"/>
     <use xlink:href="#m5367e93d31" x="297.415273" y="250.696699" style="fill: #ff0000; stroke: #ff0000"/>
     <use xlink:href="#m5367e93d31" x="298.096455" y="230.561629" style="fill: #ff0000; stroke: #ff0000"/>
     <use xlink:href="#m5367e93d31" x="298.777636" y="209.767893" style="fill: #ff0000; stroke: #ff0000"/>
     <use xlink:href="#m5367e93d31" x="299.458818" y="190.483956" style="fill: #ff0000; stroke: #ff0000"/>
     <use xlink:href="#m5367e93d31" x="300.14" y="175.671441" style="fill: #ff0000; stroke: #ff0000"/>
     <use xlink:href="#m5367e93d31" x="300.821182" y="166.39037" style="fill: #ff0000; stroke: #ff0000"/>
     <use xlink:href="#m5367e93d31" x="301.502364" y="161.843158" style="fill: #ff0000; stroke: #ff0000"/>
     <use xlink:href="#m5367e93d31" x="302.183545" y="160.056987" style="fill: #ff0000; stroke: #ff0000"/>
     <use xlink:href="#m5367e93d31" x="302.864727" y="159.48721" style="fill: #ff0000; stroke: #ff0000"/>
     <use xlink:href="#m5367e93d31" x="303.545909" y="159.109322" style="fill: #ff0000; stroke: #ff0000"/>
     <use xlink:href="#m5367e93d31" x="304.227091" y="159.233599" style="fill: #ff0000; stroke: #ff0000"/>
     <use xlink:href="#m5367e93d31" x="304.908273" y="159.645799" style="fill: #ff0000; stroke: #ff0000"/>
     <use xlink:href="#m5367e93d31" x="305.589455" y="158.77236" style="fill: #ff0000; stroke: #ff0000"/>
     <use xlink:href="#m5367e93d31" x="306.270636" y="158.627408" style="fill: #ff0000; stroke: #ff0000"/>
     <use xlink:href="#m5367e93d31" x="306.951818" y="159.951794" style="fill: #ff0000; stroke: #ff0000"/>
     <use xlink:href="#m5367e93d31" x="307.633" y="160.651799" style="fill: #ff0000; stroke: #ff0000"/>
     <use xlink:href="#m5367e93d31" x="308.314182" y="159.770764" style="fill: #ff0000; stroke: #ff0000"/>
     <use xlink:href="#m5367e93d31" x="308.995364" y="157.152173" style="fill: #ff0000; stroke: #ff0000"/>
     <use xlink:href="#m5367e93d31" x="309.676545" y="149.601222" style="fill: #ff0000; stroke: #ff0000"/>
     <use xlink:href="#m5367e93d31" x="310.357727" y="134.690889" style="fill: #ff0000; stroke: #ff0000"/>
     <use xlink:href="#m5367e93d31" x="311.038909" y="115.457531" style="fill: #ff0000; stroke: #ff0000"/>
     <use xlink:href="#m5367e93d31" x="311.720091" y="94.364118" style="fill: #ff0000; stroke: #ff0000"/>
     <use xlink:href="#m5367e93d31" x="312.401273" y="74.742508" style="fill: #ff0000; stroke: #ff0000"/>
     <use xlink:href="#m5367e93d31" x="313.082455" y="58.799615" style="fill: #ff0000; stroke: #ff0000"/>
     <use xlink:href="#m5367e93d31" x="313.763636" y="48.564303" style="fill: #ff0000; stroke: #ff0000"/>
     <use xlink:href="#m5367e93d31" x="314.444818" y="43.114814" style="fill: #ff0000; stroke: #ff0000"/>
     <use xlink:href="#m5367e93d31" x="315.126" y="40.954037" style="fill: #ff0000; stroke: #ff0000"/>
     <use xlink:href="#m5367e93d31" x="315.807182" y="39.929835" style="fill: #ff0000; stroke: #ff0000"/>
     <use xlink:href="#m5367e93d31" x="316.488364" y="39.997165" style="fill: #ff0000; stroke: #ff0000"/>
     <use xlink:href="#m5367e93d31" x="317.169545" y="39.823752" style="fill: #ff0000; stroke: #ff0000"/>
     <use xlink:href="#m5367e93d31" x="317.850727" y="39.318351" style="fill: #ff0000; stroke: #ff0000"/>
     <use xlink:href="#m5367e93d31" x="318.531909" y="40.081811" style="fill: #ff0000; stroke: #ff0000"/>
     <use xlink:href="#m5367e93d31" x="319.213091" y="40.467534" style="fill: #ff0000; stroke: #ff0000"/>
     <use xlink:href="#m5367e93d31" x="319.894273" y="39.188403" style="fill: #ff0000; stroke: #ff0000"/>
     <use xlink:href="#m5367e93d31" x="320.575455" y="38.277017" style="fill: #ff0000; stroke: #ff0000"/>
     <use xlink:href="#m5367e93d31" x="321.256636" y="39.007359" style="fill: #ff0000; stroke: #ff0000"/>
     <use xlink:href="#m5367e93d31" x="321.937818" y="40.683392" style="fill: #ff0000; stroke: #ff0000"/>
     <use xlink:href="#m5367e93d31" x="322.619" y="47.378896" style="fill: #ff0000; stroke: #ff0000"/>
     <use xlink:href="#m5367e93d31" x="323.300182" y="61.035096" style="fill: #ff0000; stroke: #ff0000"/>
     <use xlink:href="#m5367e93d31" x="323.981364" y="80.060651" style="fill: #ff0000; stroke: #ff0000"/>
     <use xlink:href="#m5367e93d31" x="324.662545" y="100.600135" style="fill: #ff0000; stroke: #ff0000"/>
     <use xlink:href="#m5367e93d31" x="325.343727" y="121.056082" style="fill: #ff0000; stroke: #ff0000"/>
     <use xlink:href="#m5367e93d31" x="326.024909" y="137.495794" style="fill: #ff0000; stroke: #ff0000"/>
     <use xlink:href="#m5367e93d31" x="326.706091" y="148.775476" style="fill: #ff0000; stroke: #ff0000"/>
     <use xlink:href="#m5367e93d31" x="327.387273" y="154.888089" style="fill: #ff0000; stroke: #ff0000"/>
     <use xlink:href="#m5367e93d31" x="328.068455" y="157.822044" style="fill: #ff0000; stroke: #ff0000"/>
     <use xlink:href="#m5367e93d31" x="328.749636" y="158.560358" style="fill: #ff0000; stroke: #ff0000"/>
     <use xlink:href="#m5367e93d31" x="329.430818" y="159.289017" style="fill: #ff0000; stroke: #ff0000"/>
     <use xlink:href="#m5367e93d31" x="330.112" y="159.285348" style="fill: #ff0000; stroke: #ff0000"/>
     <use xlink:href="#m5367e93d31" x="330.793182" y="158.710936" style="fill: #ff0000; stroke: #ff0000"/>
     <use xlink:href="#m5367e93d31" x="331.474364" y="159.398863" style="fill: #ff0000; stroke: #ff0000"/>
     <use xlink:href="#m5367e93d31" x="332.155545" y="160.055006" style="fill: #ff0000; stroke: #ff0000"/>
     <use xlink:href="#m5367e93d31" x="332.836727" y="158.772258" style="fill: #ff0000; stroke: #ff0000"/>
     <use xlink:href="#m5367e93d31" x="333.517909" y="157.872018" style="fill: #ff0000; stroke: #ff0000"/>
     <use xlink:href="#m5367e93d31" x="334.199091" y="158.063319" style="fill: #ff0000; stroke: #ff0000"/>
     <use xlink:href="#m5367e93d31" x="334.880273" y="159.473437" style="fill: #ff0000; stroke: #ff0000"/>
     <use xlink:href="#m5367e93d31" x="335.561455" y="164.683328" style="fill: #ff0000; stroke: #ff0000"/>
     <use xlink:href="#m5367e93d31" x="336.242636" y="177.374903" style="fill: #ff0000; stroke: #ff0000"/>
     <use xlink:href="#m5367e93d31" x="336.923818" y="195.224229" style="fill: #ff0000; stroke: #ff0000"/>
     <use xlink:href="#m5367e93d31" x="337.605" y="216.134612" style="fill: #ff0000; stroke: #ff0000"/>
     <use xlink:href="#m5367e93d31" x="338.286182" y="236.39577" style="fill: #ff0000; stroke: #ff0000"/>
     <use xlink:href="#m5367e93d31" x="338.967364" y="254.179679" style="fill: #ff0000; stroke: #ff0000"/>
     <use xlink:href="#m5367e93d31" x="339.648545" y="266.390754" style="fill: #ff0000; stroke: #ff0000"/>
     <use xlink:href="#m5367e93d31" x="340.329727" y="273.521309" style="fill: #ff0000; stroke: #ff0000"/>
     <use xlink:href="#m5367e93d31" x="341.010909" y="276.766537" style="fill: #ff0000; stroke: #ff0000"/>
     <use xlink:href="#m5367e93d31" x="341.692091" y="278.45621" style="fill: #ff0000; stroke: #ff0000"/>
     <use xlink:href="#m5367e93d31" x="342.373273" y="278.493185" style="fill: #ff0000; stroke: #ff0000"/>
     <use xlink:href="#m5367e93d31" x="343.054455" y="278.661042" style="fill: #ff0000; stroke: #ff0000"/>
     <use xlink:href="#m5367e93d31" x="343.735636" y="279.365646" style="fill: #ff0000; stroke: #ff0000"/>
     <use xlink:href="#m5367e93d31" x="344.416818" y="278.685917" style="fill: #ff0000; stroke: #ff0000"/>
     <use xlink:href="#m5367e93d31" x="345.098" y="278.06299" style="fill: #ff0000; stroke: #ff0000"/>
     <use xlink:href="#m5367e93d31" x="345.779182" y="278.938627" style="fill: #ff0000; stroke: #ff0000"/>
     <use xlink:href="#m5367e93d31" x="346.460364" y="280.092424" style="fill: #ff0000; stroke: #ff0000"/>
     <use xlink:href="#m5367e93d31" x="347.141545" y="279.932825" style="fill: #ff0000; stroke: #ff0000"/>
     <use xlink:href="#m5367e93d31" x="347.822727" y="279.393327" style="fill: #ff0000; stroke: #ff0000"/>
     <use xlink:href="#m5367e93d31" x="348.503909" y="274.964806" style="fill: #ff0000; stroke: #ff0000"/>
     <use xlink:href="#m5367e93d31" x="349.185091" y="264.214776" style="fill: #ff0000; stroke: #ff0000"/>
     <use xlink:href="#m5367e93d31" x="349.866273" y="247.112594" style="fill: #ff0000; stroke: #ff0000"/>
     <use xlink:href="#m5367e93d31" x="350.547455" y="227.042757" style="fill: #ff0000; stroke: #ff0000"/>
     <use xlink:href="#m5367e93d31" x="351.228636" y="205.94417" style="fill: #ff0000; stroke: #ff0000"/>
     <use xlink:href="#m5367e93d31" x="351.909818" y="187.628372" style="fill: #ff0000; stroke: #ff0000"/>
     <use xlink:href="#m5367e93d31" x="352.591" y="173.903809" style="fill: #ff0000; stroke: #ff0000"/>
     <use xlink:href="#m5367e93d31" x="353.272182" y="165.780367" style="fill: #ff0000; stroke: #ff0000"/>
     <use xlink:href="#m5367e93d31" x="353.953364" y="161.597554" style="fill: #ff0000; stroke: #ff0000"/>
     <use xlink:href="#m5367e93d31" x="354.634545" y="160.261476" style="fill: #ff0000; stroke: #ff0000"/>
     <use xlink:href="#m5367e93d31" x="355.315727" y="159.216724" style="fill: #ff0000; stroke: #ff0000"/>
     <use xlink:href="#m5367e93d31" x="355.996909" y="159.122571" style="fill: #ff0000; stroke: #ff0000"/>
     <use xlink:href="#m5367e93d31" x="356.678091" y="159.698353" style="fill: #ff0000; stroke: #ff0000"/>
     <use xlink:href="#m5367e93d31" x="357.359273" y="159.270121" style="fill: #ff0000; stroke: #ff0000"/>
     <use xlink:href="#m5367e93d31" x="358.040455" y="158.296154" style="fill: #ff0000; stroke: #ff0000"/>
     <use xlink:href="#m5367e93d31" x="358.721636" y="159.242753" style="fill: #ff0000; stroke: #ff0000"/>
     <use xlink:href="#m5367e93d31" x="359.402818" y="160.319099" style="fill: #ff0000; stroke: #ff0000"/>
     <use xlink:href="#m5367e93d31" x="360.084" y="160.396882" style="fill: #ff0000; stroke: #ff0000"/>
     <use xlink:href="#m5367e93d31" x="360.765182" y="160.127384" style="fill: #ff0000; stroke: #ff0000"/>
     <use xlink:href="#m5367e93d31" x="361.446364" y="157.060439" style="fill: #ff0000; stroke: #ff0000"/>
     <use xlink:href="#m5367e93d31" x="362.127545" y="147.248497" style="fill: #ff0000; stroke: #ff0000"/>
     <use xlink:href="#m5367e93d31" x="362.808727" y="131.560859" style="fill: #ff0000; stroke: #ff0000"/>
     <use xlink:href="#m5367e93d31" x="363.489909" y="111.685264" style="fill: #ff0000; stroke: #ff0000"/>
     <use xlink:href="#m5367e93d31" x="364.171091" y="90.758717" style="fill: #ff0000; stroke: #ff0000"/>
     <use xlink:href="#m5367e93d31" x="364.852273" y="71.430781" style="fill: #ff0000; stroke: #ff0000"/>
     <use xlink:href="#m5367e93d31" x="365.533455" y="56.857184" style="fill: #ff0000; stroke: #ff0000"/>
     <use xlink:href="#m5367e93d31" x="366.214636" y="47.64177" style="fill: #ff0000; stroke: #ff0000"/>
     <use xlink:href="#m5367e93d31" x="366.895818" y="43.042725" style="fill: #ff0000; stroke: #ff0000"/>
     <use xlink:href="#m5367e93d31" x="367.577" y="40.613138" style="fill: #ff0000; stroke: #ff0000"/>
     <use xlink:href="#m5367e93d31" x="368.258182" y="40.214091" style="fill: #ff0000; stroke: #ff0000"/>
     <use xlink:href="#m5367e93d31" x="368.939364" y="40.156274" style="fill: #ff0000; stroke: #ff0000"/>
     <use xlink:href="#m5367e93d31" x="369.620545" y="39.311425" style="fill: #ff0000; stroke: #ff0000"/>
     <use xlink:href="#m5367e93d31" x="370.301727" y="39.596366" style="fill: #ff0000; stroke: #ff0000"/>
     <use xlink:href="#m5367e93d31" x="370.982909" y="40.633999" style="fill: #ff0000; stroke: #ff0000"/>
     <use xlink:href="#m5367e93d31" x="371.664091" y="39.965459" style="fill: #ff0000; stroke: #ff0000"/>
     <use xlink:href="#m5367e93d31" x="372.345273" y="38.751954" style="fill: #ff0000; stroke: #ff0000"/>
     <use xlink:href="#m5367e93d31" x="373.026455" y="38.541514" style="fill: #ff0000; stroke: #ff0000"/>
     <use xlink:href="#m5367e93d31" x="373.707636" y="38.559164" style="fill: #ff0000; stroke: #ff0000"/>
     <use xlink:href="#m5367e93d31" x="374.388818" y="40.774148" style="fill: #ff0000; stroke: #ff0000"/>
     <use xlink:href="#m5367e93d31" x="375.07" y="49.212595" style="fill: #ff0000; stroke: #ff0000"/>
     <use xlink:href="#m5367e93d31" x="375.751182" y="64.2864" style="fill: #ff0000; stroke: #ff0000"/>
     <use xlink:href="#m5367e93d31" x="376.432364" y="83.451968" style="fill: #ff0000; stroke: #ff0000"/>
     <use xlink:href="#m5367e93d31" x="377.113545" y="104.555932" style="fill: #ff0000; stroke: #ff0000"/>
     <use xlink:href="#m5367e93d31" x="377.794727" y="124.297887" style="fill: #ff0000; stroke: #ff0000"/>
     <use xlink:href="#m5367e93d31" x="378.475909" y="139.728909" style="fill: #ff0000; stroke: #ff0000"/>
     <use xlink:href="#m5367e93d31" x="379.157091" y="149.751711" style="fill: #ff0000; stroke: #ff0000"/>
     <use xlink:href="#m5367e93d31" x="379.838273" y="155.452171" style="fill: #ff0000; stroke: #ff0000"/>
     <use xlink:href="#m5367e93d31" x="380.519455" y="157.501941" style="fill: #ff0000; stroke: #ff0000"/>
     <use xlink:href="#m5367e93d31" x="381.200636" y="158.852725" style="fill: #ff0000; stroke: #ff0000"/>
     <use xlink:href="#m5367e93d31" x="381.881818" y="159.341654" style="fill: #ff0000; stroke: #ff0000"/>
     <use xlink:href="#m5367e93d31" x="382.563" y="158.716599" style="fill: #ff0000; stroke: #ff0000"/>
     <use xlink:href="#m5367e93d31" x="383.244182" y="158.971378" style="fill: #ff0000; stroke: #ff0000"/>
     <use xlink:href="#m5367e93d31" x="383.925364" y="159.949131" style="fill: #ff0000; stroke: #ff0000"/>
     <use xlink:href="#m5367e93d31" x="384.606545" y="159.556824" style="fill: #ff0000; stroke: #ff0000"/>
     <use xlink:href="#m5367e93d31" x="385.287727" y="158.356607" style="fill: #ff0000; stroke: #ff0000"/>
     <use xlink:href="#m5367e93d31" x="385.968909" y="158.077986" style="fill: #ff0000; stroke: #ff0000"/>
     <use xlink:href="#m5367e93d31" x="386.650091" y="157.66947" style="fill: #ff0000; stroke: #ff0000"/>
     <use xlink:href="#m5367e93d31" x="387.331273" y="159.330027" style="fill: #ff0000; stroke: #ff0000"/>
     <use xlink:href="#m5367e93d31" x="388.012455" y="166.442079" style="fill: #ff0000; stroke: #ff0000"/>
     <use xlink:href="#m5367e93d31" x="388.693636" y="180.24929" style="fill: #ff0000; stroke: #ff0000"/>
     <use xlink:href="#m5367e93d31" x="389.374818" y="198.84972" style="fill: #ff0000; stroke: #ff0000"/>
     <use xlink:href="#m5367e93d31" x="390.056" y="219.760409" style="fill: #ff0000; stroke: #ff0000"/>
     <use xlink:href="#m5367e93d31" x="390.737182" y="239.932968" style="fill: #ff0000; stroke: #ff0000"/>
     <use xlink:href="#m5367e93d31" x="391.418364" y="256.491781" style="fill: #ff0000; stroke: #ff0000"/>
     <use xlink:href="#m5367e93d31" x="392.099545" y="267.60026" style="fill: #ff0000; stroke: #ff0000"/>
     <use xlink:href="#m5367e93d31" x="392.780727" y="273.855888" style="fill: #ff0000; stroke: #ff0000"/>
     <use xlink:href="#m5367e93d31" x="393.461909" y="277.270306" style="fill: #ff0000; stroke: #ff0000"/>
     <use xlink:href="#m5367e93d31" x="394.143091" y="278.108235" style="fill: #ff0000; stroke: #ff0000"/>
     <use xlink:href="#m5367e93d31" x="394.824273" y="278.361962" style="fill: #ff0000; stroke: #ff0000"/>
     <use xlink:href="#m5367e93d31" x="395.505455" y="279.1929" style="fill: #ff0000; stroke: #ff0000"/>
     <use xlink:href="#m5367e93d31" x="396.186636" y="279.212746" style="fill: #ff0000; stroke: #ff0000"/>
     <use xlink:href="#m5367e93d31" x="396.867818" y="277.985451" style="fill: #ff0000; stroke: #ff0000"/>
     <use xlink:href="#m5367e93d31" x="397.549" y="278.472318" style="fill: #ff0000; stroke: #ff0000"/>
     <use xlink:href="#m5367e93d31" x="398.230182" y="279.361436" style="fill: #ff0000; stroke: #ff0000"/>
     <use xlink:href="#m5367e93d31" x="398.911364" y="279.932595" style="fill: #ff0000; stroke: #ff0000"/>
     <use xlink:href="#m5367e93d31" x="399.592545" y="280.290804" style="fill: #ff0000; stroke: #ff0000"/>
     <use xlink:href="#m5367e93d31" x="400.273727" y="279.709295" style="fill: #ff0000; stroke: #ff0000"/>
     <use xlink:href="#m5367e93d31" x="400.954909" y="273.71509" style="fill: #ff0000; stroke: #ff0000"/>
     <use xlink:href="#m5367e93d31" x="401.636091" y="261.495649" style="fill: #ff0000; stroke: #ff0000"/>
     <use xlink:href="#m5367e93d31" x="402.317273" y="243.801337" style="fill: #ff0000; stroke: #ff0000"/>
     <use xlink:href="#m5367e93d31" x="402.998455" y="223.16157" style="fill: #ff0000; stroke: #ff0000"/>
     <use xlink:href="#m5367e93d31" x="403.679636" y="202.409021" style="fill: #ff0000; stroke: #ff0000"/>
     <use xlink:href="#m5367e93d31" x="404.360818" y="184.965245" style="fill: #ff0000; stroke: #ff0000"/>
     <use xlink:href="#m5367e93d31" x="405.042" y="172.465008" style="fill: #ff0000; stroke: #ff0000"/>
     <use xlink:href="#m5367e93d31" x="405.723182" y="165.000246" style="fill: #ff0000; stroke: #ff0000"/>
     <use xlink:href="#m5367e93d31" x="406.404364" y="161.795084" style="fill: #ff0000; stroke: #ff0000"/>
     <use xlink:href="#m5367e93d31" x="407.085545" y="160.062857" style="fill: #ff0000; stroke: #ff0000"/>
     <use xlink:href="#m5367e93d31" x="407.766727" y="158.975577" style="fill: #ff0000; stroke: #ff0000"/>
     <use xlink:href="#m5367e93d31" x="408.447909" y="159.698683" style="fill: #ff0000; stroke: #ff0000"/>
     <use xlink:href="#m5367e93d31" x="409.129091" y="159.672216" style="fill: #ff0000; stroke: #ff0000"/>
     <use xlink:href="#m5367e93d31" x="409.810273" y="158.603429" style="fill: #ff0000; stroke: #ff0000"/>
     <use xlink:href="#m5367e93d31" x="410.491455" y="158.493555" style="fill: #ff0000; stroke: #ff0000"/>
     <use xlink:href="#m5367e93d31" x="411.172636" y="159.83432" style="fill: #ff0000; stroke: #ff0000"/>
     <use xlink:href="#m5367e93d31" x="411.853818" y="159.995399" style="fill: #ff0000; stroke: #ff0000"/>
     <use xlink:href="#m5367e93d31" x="412.535" y="160.862182" style="fill: #ff0000; stroke: #ff0000"/>
     <use xlink:href="#m5367e93d31" x="413.216182" y="160.571817" style="fill: #ff0000; stroke: #ff0000"/>
     <use xlink:href="#m5367e93d31" x="413.897364" y="156.110883" style="fill: #ff0000; stroke: #ff0000"/>
     <use xlink:href="#m5367e93d31" x="414.578545" y="144.867681" style="fill: #ff0000; stroke: #ff0000"/>
     <use xlink:href="#m5367e93d31" x="415.259727" y="128.262009" style="fill: #ff0000; stroke: #ff0000"/>
     <use xlink:href="#m5367e93d31" x="415.940909" y="107.895554" style="fill: #ff0000; stroke: #ff0000"/>
     <use xlink:href="#m5367e93d31" x="416.622091" y="87.090896" style="fill: #ff0000; stroke: #ff0000"/>
     <use xlink:href="#m5367e93d31" x="417.303273" y="68.555041" style="fill: #ff0000; stroke: #ff0000"/>
     <use xlink:href="#m5367e93d31" x="417.984455" y="55.117104" style="fill: #ff0000; stroke: #ff0000"/>
     <use xlink:href="#m5367e93d31" x="418.665636" y="47.169206" style="fill: #ff0000; stroke: #ff0000"/>
     <use xlink:href="#m5367e93d31" x="419.346818" y="42.430551" style="fill: #ff0000; stroke: #ff0000"/>
     <use xlink:href="#m5367e93d31" x="420.028" y="40.85043" style="fill: #ff0000; stroke: #ff0000"/>
     <use xlink:href="#m5367e93d31" x="420.709182" y="40.425091" style="fill: #ff0000; stroke: #ff0000"/>
     <use xlink:href="#m5367e93d31" x="421.390364" y="39.682733" style="fill: #ff0000; stroke: #ff0000"/>
     <use xlink:href="#m5367e93d31" x="422.071545" y="39.151178" style="fill: #ff0000; stroke: #ff0000"/>
     <use xlink:href="#m5367e93d31" x="422.752727" y="40.438383" style="fill: #ff0000; stroke: #ff0000"/>
     <use xlink:href="#m5367e93d31" x="423.433909" y="40.365422" style="fill: #ff0000; stroke: #ff0000"/>
     <use xlink:href="#m5367e93d31" x="424.115091" y="39.541131" style="fill: #ff0000; stroke: #ff0000"/>
     <use xlink:href="#m5367e93d31" x="424.796273" y="38.826276" style="fill: #ff0000; stroke: #ff0000"/>
     <use xlink:href="#m5367e93d31" x="425.477455" y="38.404134" style="fill: #ff0000; stroke: #ff0000"/>
     <use xlink:href="#m5367e93d31" x="426.158636" y="37.804613" style="fill: #ff0000; stroke: #ff0000"/>
     <use xlink:href="#m5367e93d31" x="426.839818" y="41.526605" style="fill: #ff0000; stroke: #ff0000"/>
     <use xlink:href="#m5367e93d31" x="427.521" y="51.450373" style="fill: #ff0000; stroke: #ff0000"/>
     <use xlink:href="#m5367e93d31" x="428.202182" y="67.438505" style="fill: #ff0000; stroke: #ff0000"/>
     <use xlink:href="#m5367e93d31" x="428.883364" y="87.125366" style="fill: #ff0000; stroke: #ff0000"/>
     <use xlink:href="#m5367e93d31" x="429.564545" y="108.397663" style="fill: #ff0000; stroke: #ff0000"/>
     <use xlink:href="#m5367e93d31" x="430.245727" y="127.129913" style="fill: #ff0000; stroke: #ff0000"/>
     <use xlink:href="#m5367e93d31" x="430.926909" y="141.623708" style="fill: #ff0000; stroke: #ff0000"/>
     <use xlink:href="#m5367e93d31" x="431.608091" y="150.773161" style="fill: #ff0000; stroke: #ff0000"/>
     <use xlink:href="#m5367e93d31" x="432.289273" y="155.375312" style="fill: #ff0000; stroke: #ff0000"/>
     <use xlink:href="#m5367e93d31" x="432.970455" y="157.781581" style="fill: #ff0000; stroke: #ff0000"/>
    </g>
   </g>
   <g id="patch_3">
    <path d="M 75.35 303.64 
L 75.35 14.76 
" style="fill: none; stroke: #000000; stroke-width: 0.8; stroke-linejoin: miter; stroke-linecap: square"/>
   </g>
   <g id="patch_4">
    <path d="M 450 303.64 
L 450 14.76 
" style="fill: none; stroke: #000000; stroke-width: 0.8; stroke-linejoin: miter; stroke-linecap: square"/>
   </g>
   <g id="patch_5">
    <path d="M 75.35 303.64 
L 450 303.64 
" style="fill: none; stroke: #000000; stroke-width: 0.8; stroke-linejoin: miter; stroke-linecap: square"/>
   </g>
   <g id="patch_6">
    <path d="M 75.35 14.76 
L 450 14.76 
" style="fill: none; stroke: #000000; stroke-width: 0.8; stroke-linejoin: miter; stroke-linecap: square"/>
   </g>
   <g id="legend_1">
    <g id="patch_7">
     <path d="M 194.921094 298.64 
L 330.428906 298.64 
Q 332.428906 298.64 332.428906 296.64 
L 332.428906 253.605625 
Q 332.428906 251.605625 330.428906 251.605625 
L 194.921094 251.605625 
Q 192.921094 251.605625 192.921094 253.605625 
L 192.921094 296.64 
Q 192.921094 298.64 194.921094 298.64 
z
" style="fill: #ffffff; opacity: 0.8; stroke: #cccccc; stroke-linejoin: miter"/>
    </g>
    <g id="line2d_17">
     <path d="M 196.921094 259.704062 
L 206.921094 259.704062 
L 216.921094 259.704062 
" style="fill: none; stroke: #000000; stroke-width: 1.5; stroke-linecap: square"/>
    </g>
    <g id="text_16">
     <!-- consistent -->
     <g transform="translate(224.921094 263.204062) scale(0.1 -0.1)">
      <defs>
       <path id="DejaVuSans-6f" d="M 1959 3097 
Q 1497 3097 1228 2736 
Q 959 2375 959 1747 
Q 959 1119 1226 758 
Q 1494 397 1959 397 
Q 2419 397 2687 759 
Q 2956 1122 2956 1747 
Q 2956 2369 2687 2733 
Q 2419 3097 1959 3097 
z
M 1959 3584 
Q 2709 3584 3137 3096 
Q 3566 2609 3566 1747 
Q 3566 888 3137 398 
Q 2709 -91 1959 -91 
Q 1206 -91 779 398 
Q 353 888 353 1747 
Q 353 2609 779 3096 
Q 1206 3584 1959 3584 
z
" transform="scale(0.015625)"/>
      </defs>
      <use xlink:href="#DejaVuSans-63"/>
      <use xlink:href="#DejaVuSans-6f" x="54.980469"/>
      <use xlink:href="#DejaVuSans-6e" x="116.162109"/>
      <use xlink:href="#DejaVuSans-73" x="179.541016"/>
      <use xlink:href="#DejaVuSans-69" x="231.640625"/>
      <use xlink:href="#DejaVuSans-73" x="259.423828"/>
      <use xlink:href="#DejaVuSans-74" x="311.523438"/>
      <use xlink:href="#DejaVuSans-65" x="350.732422"/>
      <use xlink:href="#DejaVuSans-6e" x="412.255859"/>
      <use xlink:href="#DejaVuSans-74" x="475.634766"/>
     </g>
    </g>
    <g id="line2d_18">
     <path d="M 196.921094 274.382187 
L 206.921094 274.382187 
L 216.921094 274.382187 
" style="fill: none; stroke-dasharray: 5.55,2.4; stroke-dashoffset: 0; stroke: #0000ff; stroke-width: 1.5"/>
    </g>
    <g id="text_17">
     <!-- lumped -->
     <g transform="translate(224.921094 277.882187) scale(0.1 -0.1)">
      <defs>
       <path id="DejaVuSans-75" d="M 544 1381 
L 544 3500 
L 1119 3500 
L 1119 1403 
Q 1119 906 1312 657 
Q 1506 409 1894 409 
Q 2359 409 2629 706 
Q 2900 1003 2900 1516 
L 2900 3500 
L 3475 3500 
L 3475 0 
L 2900 0 
L 2900 538 
Q 2691 219 2414 64 
Q 2138 -91 1772 -91 
Q 1169 -91 856 284 
Q 544 659 544 1381 
z
M 1991 3584 
L 1991 3584 
z
" transform="scale(0.015625)"/>
      </defs>
      <use xlink:href="#DejaVuSans-6c"/>
      <use xlink:href="#DejaVuSans-75" x="27.783203"/>
      <use xlink:href="#DejaVuSans-6d" x="91.162109"/>
      <use xlink:href="#DejaVuSans-70" x="188.574219"/>
      <use xlink:href="#DejaVuSans-65" x="252.050781"/>
      <use xlink:href="#DejaVuSans-64" x="313.574219"/>
     </g>
    </g>
    <g id="line2d_19">
     <g>
      <use xlink:href="#m5367e93d31" x="206.921094" y="289.060312" style="fill: #ff0000; stroke: #ff0000"/>
     </g>
    </g>
    <g id="text_18">
     <!-- lump preconditioned -->
     <g transform="translate(224.921094 292.560312) scale(0.1 -0.1)">
      <defs>
       <path id="DejaVuSans-72" d="M 2631 2963 
Q 2534 3019 2420 3045 
Q 2306 3072 2169 3072 
Q 1681 3072 1420 2755 
Q 1159 2438 1159 1844 
L 1159 0 
L 581 0 
L 581 3500 
L 1159 3500 
L 1159 2956 
Q 1341 3275 1631 3429 
Q 1922 3584 2338 3584 
Q 2397 3584 2469 3576 
Q 2541 3569 2628 3553 
L 2631 2963 
z
" transform="scale(0.015625)"/>
      </defs>
      <use xlink:href="#DejaVuSans-6c"/>
      <use xlink:href="#DejaVuSans-75" x="27.783203"/>
      <use xlink:href="#DejaVuSans-6d" x="91.162109"/>
      <use xlink:href="#DejaVuSans-70" x="188.574219"/>
      <use xlink:href="#DejaVuSans-20" x="252.050781"/>
      <use xlink:href="#DejaVuSans-70" x="283.837891"/>
      <use xlink:href="#DejaVuSans-72" x="347.314453"/>
      <use xlink:href="#DejaVuSans-65" x="386.177734"/>
      <use xlink:href="#DejaVuSans-63" x="447.701172"/>
      <use xlink:href="#DejaVuSans-6f" x="502.681641"/>
      <use xlink:href="#DejaVuSans-6e" x="563.863281"/>
      <use xlink:href="#DejaVuSans-64" x="627.242188"/>
      <use xlink:href="#DejaVuSans-69" x="690.71875"/>
      <use xlink:href="#DejaVuSans-74" x="718.501953"/>
      <use xlink:href="#DejaVuSans-69" x="757.710938"/>
      <use xlink:href="#DejaVuSans-6f" x="785.494141"/>
      <use xlink:href="#DejaVuSans-6e" x="846.675781"/>
      <use xlink:href="#DejaVuSans-65" x="910.054688"/>
      <use xlink:href="#DejaVuSans-64" x="971.578125"/>
     </g>
    </g>
   </g>
  </g>
 </g>
 <defs>
  <clipPath id="p50c4ca392e">
   <rect x="75.35" y="14.76" width="374.65" height="288.88"/>
  </clipPath>
 </defs>
</svg>
