<?xml version="1.0" encoding="utf-8" standalone="no"?>
<!DOCTYPE svg PUBLIC "-//W3C//DTD SVG 1.1//EN"
  "http://www.w3.org/Graphics/SVG/1.1/DTD/svg11.dtd">
<svg xmlns:xlink="http://www.w3.org/1999/xlink" width="460.8pt" height="345.6pt" viewBox="0 0 460.8 345.6" xmlns="http://www.w3.org/2000/svg" version="1.1">
 <metadata>
  <rdf:RDF xmlns:dc="http://purl.org/dc/elements/1.1/" xmlns:cc="http://creativecommons.org/ns#" xmlns:rdf="http://www.w3.org/1999/02/22-rdf-syntax-ns#">
   <cc:Work>
    <dc:type rdf:resource="http://purl.org/dc/dcmitype/StillImage"/>
    <dc:date>2024-03-04T14:31:04.171173</dc:date>
    <dc:format>image/svg+xml</dc:format>
    <dc:creator>
     <cc:Agent>
      <dc:title>Matplotlib v3.8.3, https://matplotlib.org/</dc:title>
     </cc:Agent>
    </dc:creator>
   </cc:Work>
  </rdf:RDF>
 </metadata>
 <defs>
  <style type="text/css">*{stroke-linejoin: round; stroke-linecap: butt}</style>
 </defs>
 <g id="figure_1">
  <g id="patch_1">
   <path d="M 0 345.6 
L 460.8 345.6 
L 460.8 0 
L 0 0 
z
" style="fill: #ffffff"/>
  </g>
  <g id="axes_1">
   <g id="patch_2">
    <path d="M 75.35 303.64 
L 450 303.64 
L 450 10.8 
L 75.35 10.8 
z
" style="fill: #ffffff"/>
   </g>
   <g id="matplotlib.axis_1">
    <g id="xtick_1">
     <g id="line2d_1">
      <defs>
       <path id="m0afcc4e862" d="M 0 0 
L 0 3.5 
" style="stroke: #000000; stroke-width: 0.8"/>
      </defs>
      <g>
       <use xlink:href="#m0afcc4e862" x="92.379545" y="303.64" style="stroke: #000000; stroke-width: 0.8"/>
      </g>
     </g>
     <g id="text_1">
      <!-- 0.0 -->
      <g transform="translate(84.427983 318.238437) scale(0.1 -0.1)">
       <defs>
        <path id="DejaVuSans-30" d="M 2034 4250 
Q 1547 4250 1301 3770 
Q 1056 3291 1056 2328 
Q 1056 1369 1301 889 
Q 1547 409 2034 409 
Q 2525 409 2770 889 
Q 3016 1369 3016 2328 
Q 3016 3291 2770 3770 
Q 2525 4250 2034 4250 
z
M 2034 4750 
Q 2819 4750 3233 4129 
Q 3647 3509 3647 2328 
Q 3647 1150 3233 529 
Q 2819 -91 2034 -91 
Q 1250 -91 836 529 
Q 422 1150 422 2328 
Q 422 3509 836 4129 
Q 1250 4750 2034 4750 
z
" transform="scale(0.015625)"/>
        <path id="DejaVuSans-2e" d="M 684 794 
L 1344 794 
L 1344 0 
L 684 0 
L 684 794 
z
" transform="scale(0.015625)"/>
       </defs>
       <use xlink:href="#DejaVuSans-30"/>
       <use xlink:href="#DejaVuSans-2e" x="63.623047"/>
       <use xlink:href="#DejaVuSans-30" x="95.410156"/>
      </g>
     </g>
    </g>
    <g id="xtick_2">
     <g id="line2d_2">
      <g>
       <use xlink:href="#m0afcc4e862" x="160.497727" y="303.64" style="stroke: #000000; stroke-width: 0.8"/>
      </g>
     </g>
     <g id="text_2">
      <!-- 0.2 -->
      <g transform="translate(152.546165 318.238437) scale(0.1 -0.1)">
       <defs>
        <path id="DejaVuSans-32" d="M 1228 531 
L 3431 531 
L 3431 0 
L 469 0 
L 469 531 
Q 828 903 1448 1529 
Q 2069 2156 2228 2338 
Q 2531 2678 2651 2914 
Q 2772 3150 2772 3378 
Q 2772 3750 2511 3984 
Q 2250 4219 1831 4219 
Q 1534 4219 1204 4116 
Q 875 4013 500 3803 
L 500 4441 
Q 881 4594 1212 4672 
Q 1544 4750 1819 4750 
Q 2544 4750 2975 4387 
Q 3406 4025 3406 3419 
Q 3406 3131 3298 2873 
Q 3191 2616 2906 2266 
Q 2828 2175 2409 1742 
Q 1991 1309 1228 531 
z
" transform="scale(0.015625)"/>
       </defs>
       <use xlink:href="#DejaVuSans-30"/>
       <use xlink:href="#DejaVuSans-2e" x="63.623047"/>
       <use xlink:href="#DejaVuSans-32" x="95.410156"/>
      </g>
     </g>
    </g>
    <g id="xtick_3">
     <g id="line2d_3">
      <g>
       <use xlink:href="#m0afcc4e862" x="228.615909" y="303.64" style="stroke: #000000; stroke-width: 0.8"/>
      </g>
     </g>
     <g id="text_3">
      <!-- 0.4 -->
      <g transform="translate(220.664347 318.238437) scale(0.1 -0.1)">
       <defs>
        <path id="DejaVuSans-34" d="M 2419 4116 
L 825 1625 
L 2419 1625 
L 2419 4116 
z
M 2253 4666 
L 3047 4666 
L 3047 1625 
L 3713 1625 
L 3713 1100 
L 3047 1100 
L 3047 0 
L 2419 0 
L 2419 1100 
L 313 1100 
L 313 1709 
L 2253 4666 
z
" transform="scale(0.015625)"/>
       </defs>
       <use xlink:href="#DejaVuSans-30"/>
       <use xlink:href="#DejaVuSans-2e" x="63.623047"/>
       <use xlink:href="#DejaVuSans-34" x="95.410156"/>
      </g>
     </g>
    </g>
    <g id="xtick_4">
     <g id="line2d_4">
      <g>
       <use xlink:href="#m0afcc4e862" x="296.734091" y="303.64" style="stroke: #000000; stroke-width: 0.8"/>
      </g>
     </g>
     <g id="text_4">
      <!-- 0.6 -->
      <g transform="translate(288.782528 318.238437) scale(0.1 -0.1)">
       <defs>
        <path id="DejaVuSans-36" d="M 2113 2584 
Q 1688 2584 1439 2293 
Q 1191 2003 1191 1497 
Q 1191 994 1439 701 
Q 1688 409 2113 409 
Q 2538 409 2786 701 
Q 3034 994 3034 1497 
Q 3034 2003 2786 2293 
Q 2538 2584 2113 2584 
z
M 3366 4563 
L 3366 3988 
Q 3128 4100 2886 4159 
Q 2644 4219 2406 4219 
Q 1781 4219 1451 3797 
Q 1122 3375 1075 2522 
Q 1259 2794 1537 2939 
Q 1816 3084 2150 3084 
Q 2853 3084 3261 2657 
Q 3669 2231 3669 1497 
Q 3669 778 3244 343 
Q 2819 -91 2113 -91 
Q 1303 -91 875 529 
Q 447 1150 447 2328 
Q 447 3434 972 4092 
Q 1497 4750 2381 4750 
Q 2619 4750 2861 4703 
Q 3103 4656 3366 4563 
z
" transform="scale(0.015625)"/>
       </defs>
       <use xlink:href="#DejaVuSans-30"/>
       <use xlink:href="#DejaVuSans-2e" x="63.623047"/>
       <use xlink:href="#DejaVuSans-36" x="95.410156"/>
      </g>
     </g>
    </g>
    <g id="xtick_5">
     <g id="line2d_5">
      <g>
       <use xlink:href="#m0afcc4e862" x="364.852273" y="303.64" style="stroke: #000000; stroke-width: 0.8"/>
      </g>
     </g>
     <g id="text_5">
      <!-- 0.8 -->
      <g transform="translate(356.90071 318.238437) scale(0.1 -0.1)">
       <defs>
        <path id="DejaVuSans-38" d="M 2034 2216 
Q 1584 2216 1326 1975 
Q 1069 1734 1069 1313 
Q 1069 891 1326 650 
Q 1584 409 2034 409 
Q 2484 409 2743 651 
Q 3003 894 3003 1313 
Q 3003 1734 2745 1975 
Q 2488 2216 2034 2216 
z
M 1403 2484 
Q 997 2584 770 2862 
Q 544 3141 544 3541 
Q 544 4100 942 4425 
Q 1341 4750 2034 4750 
Q 2731 4750 3128 4425 
Q 3525 4100 3525 3541 
Q 3525 3141 3298 2862 
Q 3072 2584 2669 2484 
Q 3125 2378 3379 2068 
Q 3634 1759 3634 1313 
Q 3634 634 3220 271 
Q 2806 -91 2034 -91 
Q 1263 -91 848 271 
Q 434 634 434 1313 
Q 434 1759 690 2068 
Q 947 2378 1403 2484 
z
M 1172 3481 
Q 1172 3119 1398 2916 
Q 1625 2713 2034 2713 
Q 2441 2713 2670 2916 
Q 2900 3119 2900 3481 
Q 2900 3844 2670 4047 
Q 2441 4250 2034 4250 
Q 1625 4250 1398 4047 
Q 1172 3844 1172 3481 
z
" transform="scale(0.015625)"/>
       </defs>
       <use xlink:href="#DejaVuSans-30"/>
       <use xlink:href="#DejaVuSans-2e" x="63.623047"/>
       <use xlink:href="#DejaVuSans-38" x="95.410156"/>
      </g>
     </g>
    </g>
    <g id="xtick_6">
     <g id="line2d_6">
      <g>
       <use xlink:href="#m0afcc4e862" x="432.970455" y="303.64" style="stroke: #000000; stroke-width: 0.8"/>
      </g>
     </g>
     <g id="text_6">
      <!-- 1.0 -->
      <g transform="translate(425.018892 318.238437) scale(0.1 -0.1)">
       <defs>
        <path id="DejaVuSans-31" d="M 794 531 
L 1825 531 
L 1825 4091 
L 703 3866 
L 703 4441 
L 1819 4666 
L 2450 4666 
L 2450 531 
L 3481 531 
L 3481 0 
L 794 0 
L 794 531 
z
" transform="scale(0.015625)"/>
       </defs>
       <use xlink:href="#DejaVuSans-31"/>
       <use xlink:href="#DejaVuSans-2e" x="63.623047"/>
       <use xlink:href="#DejaVuSans-30" x="95.410156"/>
      </g>
     </g>
    </g>
    <g id="text_7">
     <!-- time (s) -->
     <g transform="translate(243.283594 331.916562) scale(0.1 -0.1)">
      <defs>
       <path id="DejaVuSans-74" d="M 1172 4494 
L 1172 3500 
L 2356 3500 
L 2356 3053 
L 1172 3053 
L 1172 1153 
Q 1172 725 1289 603 
Q 1406 481 1766 481 
L 2356 481 
L 2356 0 
L 1766 0 
Q 1100 0 847 248 
Q 594 497 594 1153 
L 594 3053 
L 172 3053 
L 172 3500 
L 594 3500 
L 594 4494 
L 1172 4494 
z
" transform="scale(0.015625)"/>
       <path id="DejaVuSans-69" d="M 603 3500 
L 1178 3500 
L 1178 0 
L 603 0 
L 603 3500 
z
M 603 4863 
L 1178 4863 
L 1178 4134 
L 603 4134 
L 603 4863 
z
" transform="scale(0.015625)"/>
       <path id="DejaVuSans-6d" d="M 3328 2828 
Q 3544 3216 3844 3400 
Q 4144 3584 4550 3584 
Q 5097 3584 5394 3201 
Q 5691 2819 5691 2113 
L 5691 0 
L 5113 0 
L 5113 2094 
Q 5113 2597 4934 2840 
Q 4756 3084 4391 3084 
Q 3944 3084 3684 2787 
Q 3425 2491 3425 1978 
L 3425 0 
L 2847 0 
L 2847 2094 
Q 2847 2600 2669 2842 
Q 2491 3084 2119 3084 
Q 1678 3084 1418 2786 
Q 1159 2488 1159 1978 
L 1159 0 
L 581 0 
L 581 3500 
L 1159 3500 
L 1159 2956 
Q 1356 3278 1631 3431 
Q 1906 3584 2284 3584 
Q 2666 3584 2933 3390 
Q 3200 3197 3328 2828 
z
" transform="scale(0.015625)"/>
       <path id="DejaVuSans-65" d="M 3597 1894 
L 3597 1613 
L 953 1613 
Q 991 1019 1311 708 
Q 1631 397 2203 397 
Q 2534 397 2845 478 
Q 3156 559 3463 722 
L 3463 178 
Q 3153 47 2828 -22 
Q 2503 -91 2169 -91 
Q 1331 -91 842 396 
Q 353 884 353 1716 
Q 353 2575 817 3079 
Q 1281 3584 2069 3584 
Q 2775 3584 3186 3129 
Q 3597 2675 3597 1894 
z
M 3022 2063 
Q 3016 2534 2758 2815 
Q 2500 3097 2075 3097 
Q 1594 3097 1305 2825 
Q 1016 2553 972 2059 
L 3022 2063 
z
" transform="scale(0.015625)"/>
       <path id="DejaVuSans-20" transform="scale(0.015625)"/>
       <path id="DejaVuSans-28" d="M 1984 4856 
Q 1566 4138 1362 3434 
Q 1159 2731 1159 2009 
Q 1159 1288 1364 580 
Q 1569 -128 1984 -844 
L 1484 -844 
Q 1016 -109 783 600 
Q 550 1309 550 2009 
Q 550 2706 781 3412 
Q 1013 4119 1484 4856 
L 1984 4856 
z
" transform="scale(0.015625)"/>
       <path id="DejaVuSans-73" d="M 2834 3397 
L 2834 2853 
Q 2591 2978 2328 3040 
Q 2066 3103 1784 3103 
Q 1356 3103 1142 2972 
Q 928 2841 928 2578 
Q 928 2378 1081 2264 
Q 1234 2150 1697 2047 
L 1894 2003 
Q 2506 1872 2764 1633 
Q 3022 1394 3022 966 
Q 3022 478 2636 193 
Q 2250 -91 1575 -91 
Q 1294 -91 989 -36 
Q 684 19 347 128 
L 347 722 
Q 666 556 975 473 
Q 1284 391 1588 391 
Q 1994 391 2212 530 
Q 2431 669 2431 922 
Q 2431 1156 2273 1281 
Q 2116 1406 1581 1522 
L 1381 1569 
Q 847 1681 609 1914 
Q 372 2147 372 2553 
Q 372 3047 722 3315 
Q 1072 3584 1716 3584 
Q 2034 3584 2315 3537 
Q 2597 3491 2834 3397 
z
" transform="scale(0.015625)"/>
       <path id="DejaVuSans-29" d="M 513 4856 
L 1013 4856 
Q 1481 4119 1714 3412 
Q 1947 2706 1947 2009 
Q 1947 1309 1714 600 
Q 1481 -109 1013 -844 
L 513 -844 
Q 928 -128 1133 580 
Q 1338 1288 1338 2009 
Q 1338 2731 1133 3434 
Q 928 4138 513 4856 
z
" transform="scale(0.015625)"/>
      </defs>
      <use xlink:href="#DejaVuSans-74"/>
      <use xlink:href="#DejaVuSans-69" x="39.208984"/>
      <use xlink:href="#DejaVuSans-6d" x="66.992188"/>
      <use xlink:href="#DejaVuSans-65" x="164.404297"/>
      <use xlink:href="#DejaVuSans-20" x="225.927734"/>
      <use xlink:href="#DejaVuSans-28" x="257.714844"/>
      <use xlink:href="#DejaVuSans-73" x="296.728516"/>
      <use xlink:href="#DejaVuSans-29" x="348.828125"/>
     </g>
    </g>
   </g>
   <g id="matplotlib.axis_2">
    <g id="ytick_1">
     <g id="line2d_7">
      <defs>
       <path id="m9a84eaff86" d="M 0 0 
L -3.5 0 
" style="stroke: #000000; stroke-width: 0.8"/>
      </defs>
      <g>
       <use xlink:href="#m9a84eaff86" x="75.35" y="276.351547" style="stroke: #000000; stroke-width: 0.8"/>
      </g>
     </g>
     <g id="text_8">
      <!-- −0.0075 -->
      <g transform="translate(24.979688 280.150766) scale(0.1 -0.1)">
       <defs>
        <path id="DejaVuSans-2212" d="M 678 2272 
L 4684 2272 
L 4684 1741 
L 678 1741 
L 678 2272 
z
" transform="scale(0.015625)"/>
        <path id="DejaVuSans-37" d="M 525 4666 
L 3525 4666 
L 3525 4397 
L 1831 0 
L 1172 0 
L 2766 4134 
L 525 4134 
L 525 4666 
z
" transform="scale(0.015625)"/>
        <path id="DejaVuSans-35" d="M 691 4666 
L 3169 4666 
L 3169 4134 
L 1269 4134 
L 1269 2991 
Q 1406 3038 1543 3061 
Q 1681 3084 1819 3084 
Q 2600 3084 3056 2656 
Q 3513 2228 3513 1497 
Q 3513 744 3044 326 
Q 2575 -91 1722 -91 
Q 1428 -91 1123 -41 
Q 819 9 494 109 
L 494 744 
Q 775 591 1075 516 
Q 1375 441 1709 441 
Q 2250 441 2565 725 
Q 2881 1009 2881 1497 
Q 2881 1984 2565 2268 
Q 2250 2553 1709 2553 
Q 1456 2553 1204 2497 
Q 953 2441 691 2322 
L 691 4666 
z
" transform="scale(0.015625)"/>
       </defs>
       <use xlink:href="#DejaVuSans-2212"/>
       <use xlink:href="#DejaVuSans-30" x="83.789062"/>
       <use xlink:href="#DejaVuSans-2e" x="147.412109"/>
       <use xlink:href="#DejaVuSans-30" x="179.199219"/>
       <use xlink:href="#DejaVuSans-30" x="242.822266"/>
       <use xlink:href="#DejaVuSans-37" x="306.445312"/>
       <use xlink:href="#DejaVuSans-35" x="370.068359"/>
      </g>
     </g>
    </g>
    <g id="ytick_2">
     <g id="line2d_8">
      <g>
       <use xlink:href="#m9a84eaff86" x="75.35" y="236.640857" style="stroke: #000000; stroke-width: 0.8"/>
      </g>
     </g>
     <g id="text_9">
      <!-- −0.0050 -->
      <g transform="translate(24.979688 240.440076) scale(0.1 -0.1)">
       <use xlink:href="#DejaVuSans-2212"/>
       <use xlink:href="#DejaVuSans-30" x="83.789062"/>
       <use xlink:href="#DejaVuSans-2e" x="147.412109"/>
       <use xlink:href="#DejaVuSans-30" x="179.199219"/>
       <use xlink:href="#DejaVuSans-30" x="242.822266"/>
       <use xlink:href="#DejaVuSans-35" x="306.445312"/>
       <use xlink:href="#DejaVuSans-30" x="370.068359"/>
      </g>
     </g>
    </g>
    <g id="ytick_3">
     <g id="line2d_9">
      <g>
       <use xlink:href="#m9a84eaff86" x="75.35" y="196.930168" style="stroke: #000000; stroke-width: 0.8"/>
      </g>
     </g>
     <g id="text_10">
      <!-- −0.0025 -->
      <g transform="translate(24.979688 200.729387) scale(0.1 -0.1)">
       <use xlink:href="#DejaVuSans-2212"/>
       <use xlink:href="#DejaVuSans-30" x="83.789062"/>
       <use xlink:href="#DejaVuSans-2e" x="147.412109"/>
       <use xlink:href="#DejaVuSans-30" x="179.199219"/>
       <use xlink:href="#DejaVuSans-30" x="242.822266"/>
       <use xlink:href="#DejaVuSans-32" x="306.445312"/>
       <use xlink:href="#DejaVuSans-35" x="370.068359"/>
      </g>
     </g>
    </g>
    <g id="ytick_4">
     <g id="line2d_10">
      <g>
       <use xlink:href="#m9a84eaff86" x="75.35" y="157.219478" style="stroke: #000000; stroke-width: 0.8"/>
      </g>
     </g>
     <g id="text_11">
      <!-- 0.0000 -->
      <g transform="translate(33.359375 161.018697) scale(0.1 -0.1)">
       <use xlink:href="#DejaVuSans-30"/>
       <use xlink:href="#DejaVuSans-2e" x="63.623047"/>
       <use xlink:href="#DejaVuSans-30" x="95.410156"/>
       <use xlink:href="#DejaVuSans-30" x="159.033203"/>
       <use xlink:href="#DejaVuSans-30" x="222.65625"/>
       <use xlink:href="#DejaVuSans-30" x="286.279297"/>
      </g>
     </g>
    </g>
    <g id="ytick_5">
     <g id="line2d_11">
      <g>
       <use xlink:href="#m9a84eaff86" x="75.35" y="117.508789" style="stroke: #000000; stroke-width: 0.8"/>
      </g>
     </g>
     <g id="text_12">
      <!-- 0.0025 -->
      <g transform="translate(33.359375 121.308007) scale(0.1 -0.1)">
       <use xlink:href="#DejaVuSans-30"/>
       <use xlink:href="#DejaVuSans-2e" x="63.623047"/>
       <use xlink:href="#DejaVuSans-30" x="95.410156"/>
       <use xlink:href="#DejaVuSans-30" x="159.033203"/>
       <use xlink:href="#DejaVuSans-32" x="222.65625"/>
       <use xlink:href="#DejaVuSans-35" x="286.279297"/>
      </g>
     </g>
    </g>
    <g id="ytick_6">
     <g id="line2d_12">
      <g>
       <use xlink:href="#m9a84eaff86" x="75.35" y="77.798099" style="stroke: #000000; stroke-width: 0.8"/>
      </g>
     </g>
     <g id="text_13">
      <!-- 0.0050 -->
      <g transform="translate(33.359375 81.597318) scale(0.1 -0.1)">
       <use xlink:href="#DejaVuSans-30"/>
       <use xlink:href="#DejaVuSans-2e" x="63.623047"/>
       <use xlink:href="#DejaVuSans-30" x="95.410156"/>
       <use xlink:href="#DejaVuSans-30" x="159.033203"/>
       <use xlink:href="#DejaVuSans-35" x="222.65625"/>
       <use xlink:href="#DejaVuSans-30" x="286.279297"/>
      </g>
     </g>
    </g>
    <g id="ytick_7">
     <g id="line2d_13">
      <g>
       <use xlink:href="#m9a84eaff86" x="75.35" y="38.087409" style="stroke: #000000; stroke-width: 0.8"/>
      </g>
     </g>
     <g id="text_14">
      <!-- 0.0075 -->
      <g transform="translate(33.359375 41.886628) scale(0.1 -0.1)">
       <use xlink:href="#DejaVuSans-30"/>
       <use xlink:href="#DejaVuSans-2e" x="63.623047"/>
       <use xlink:href="#DejaVuSans-30" x="95.410156"/>
       <use xlink:href="#DejaVuSans-30" x="159.033203"/>
       <use xlink:href="#DejaVuSans-37" x="222.65625"/>
       <use xlink:href="#DejaVuSans-35" x="286.279297"/>
      </g>
     </g>
    </g>
    <g id="text_15">
     <!-- Fyx -->
     <g transform="translate(18.9 165.558281) rotate(-90) scale(0.1 -0.1)">
      <defs>
       <path id="DejaVuSans-46" d="M 628 4666 
L 3309 4666 
L 3309 4134 
L 1259 4134 
L 1259 2759 
L 3109 2759 
L 3109 2228 
L 1259 2228 
L 1259 0 
L 628 0 
L 628 4666 
z
" transform="scale(0.015625)"/>
       <path id="DejaVuSans-79" d="M 2059 -325 
Q 1816 -950 1584 -1140 
Q 1353 -1331 966 -1331 
L 506 -1331 
L 506 -850 
L 844 -850 
Q 1081 -850 1212 -737 
Q 1344 -625 1503 -206 
L 1606 56 
L 191 3500 
L 800 3500 
L 1894 763 
L 2988 3500 
L 3597 3500 
L 2059 -325 
z
" transform="scale(0.015625)"/>
       <path id="DejaVuSans-78" d="M 3513 3500 
L 2247 1797 
L 3578 0 
L 2900 0 
L 1881 1375 
L 863 0 
L 184 0 
L 1544 1831 
L 300 3500 
L 978 3500 
L 1906 2253 
L 2834 3500 
L 3513 3500 
z
" transform="scale(0.015625)"/>
      </defs>
      <use xlink:href="#DejaVuSans-46"/>
      <use xlink:href="#DejaVuSans-79" x="48.394531"/>
      <use xlink:href="#DejaVuSans-78" x="107.574219"/>
     </g>
    </g>
   </g>
   <g id="line2d_14">
    <path d="M 95.785455 70.268901 
L 99.191364 62.949218 
L 102.597273 56.791855 
L 106.003182 52.026272 
L 109.409091 48.838374 
L 112.815 47.362265 
L 116.220909 47.674766 
L 119.626818 49.792112 
L 123.032727 53.668317 
L 126.438636 59.195076 
L 129.844545 66.20363 
L 133.250455 74.469642 
L 136.656364 83.722484 
L 140.062273 93.660162 
L 143.468182 103.970275 
L 146.874091 114.35577 
L 150.28 124.562494 
L 153.685909 134.404126 
L 157.091818 143.779857 
L 160.497727 152.681321 
L 163.903636 161.187403 
L 167.309545 169.447777 
L 170.715455 177.657532 
L 174.121364 186.025872 
L 177.527273 194.741924 
L 180.933182 203.940938 
L 184.339091 213.674817 
L 187.745 223.891513 
L 191.150909 234.427637 
L 194.556818 245.016808 
L 197.962727 255.313097 
L 201.368636 264.925347 
L 204.774545 273.455733 
L 208.180455 280.535532 
L 211.586364 285.852813 
L 214.992273 289.169606 
L 218.398182 290.329091 
L 221.804091 289.255307 
L 225.21 285.948667 
L 228.615909 280.480206 
L 232.021818 272.986417 
L 235.427727 263.665219 
L 238.833636 252.772324 
L 242.239545 240.61635 
L 245.645455 227.550589 
L 249.051364 213.959516 
L 252.457273 200.239029 
L 255.863182 186.770963 
L 259.269091 173.894321 
L 262.675 161.877455 
L 266.080909 150.896334 
L 269.486818 141.023615 
L 272.892727 132.231249 
L 276.298636 124.406485 
L 279.704545 117.378215 
L 283.110455 110.948791 
L 286.516364 104.92609 
L 289.922273 99.151543 
L 293.328182 93.521379 
L 296.734091 87.999705 
L 300.14 82.623031 
L 303.545909 77.496424 
L 306.951818 72.78209 
L 310.357727 68.681815 
L 313.763636 65.415474 
L 317.169545 63.198282 
L 320.575455 62.219505 
L 323.981364 62.624825 
L 327.387273 64.503757 
L 330.793182 67.882568 
L 334.199091 72.722493 
L 337.605 78.922629 
L 341.010909 86.326728 
L 344.416818 94.733126 
L 347.822727 103.907056 
L 351.228636 113.594558 
L 354.634545 123.537115 
L 358.040455 133.486014 
L 361.446364 143.215332 
L 364.852273 152.532476 
L 368.258182 161.285342 
L 371.664091 169.365503 
L 375.07 176.707283 
L 378.475909 183.28311 
L 381.881818 189.095988 
L 385.287727 194.17027 
L 388.693636 198.542039 
L 392.099545 202.250332 
L 395.505455 205.330168 
L 398.911364 207.80804 
L 402.317273 209.700124 
L 405.723182 211.013103 
L 409.129091 211.747219 
L 412.535 211.900896 
L 415.940909 211.476138 
L 419.346818 210.483846 
L 422.752727 208.948275 
L 426.158636 206.909959 
L 429.564545 204.426731 
L 432.970455 201.572702 
" clip-path="url(#pb21cee288b)" style="fill: none; stroke-dasharray: 5.55,2.4; stroke-dashoffset: 0; stroke: #ff0000; stroke-width: 1.5"/>
   </g>
   <g id="line2d_15">
    <path d="M 95.785455 244.170039 
L 99.191364 251.489718 
L 102.597273 257.647073 
L 106.003182 262.412647 
L 109.409091 265.600536 
L 112.815 267.076636 
L 116.220909 266.764128 
L 119.626818 264.646777 
L 123.032727 260.770571 
L 126.438636 255.243816 
L 129.844545 248.23527 
L 133.250455 239.969272 
L 136.656364 230.716453 
L 140.062273 220.778807 
L 143.468182 210.468738 
L 146.874091 200.083302 
L 150.28 189.876652 
L 153.685909 180.035108 
L 157.091818 170.659472 
L 160.497727 161.758103 
L 163.903636 153.252104 
L 167.309545 144.991789 
L 170.715455 136.782057 
L 174.121364 128.413696 
L 177.527273 119.697578 
L 180.933182 110.498457 
L 184.339091 100.764446 
L 187.745 90.547613 
L 191.150909 80.011374 
L 194.556818 69.422131 
L 197.962727 59.125835 
L 201.368636 49.513651 
L 204.774545 40.983403 
L 208.180455 33.903797 
L 211.586364 28.586744 
L 214.992273 25.270184 
L 218.398182 24.110909 
L 221.804091 25.184853 
L 225.21 28.491585 
L 228.615909 33.96006 
L 232.021818 41.453785 
L 235.427727 50.774851 
L 238.833636 61.667563 
L 242.239545 73.823325 
L 245.645455 86.888871 
L 249.051364 100.47975 
L 252.457273 114.200083 
L 255.863182 127.668046 
L 259.269091 140.544639 
L 262.675 152.561506 
L 266.080909 163.542665 
L 269.486818 173.415445 
L 272.892727 182.207878 
L 276.298636 190.032703 
L 279.704545 197.061018 
L 283.110455 203.490468 
L 286.516364 209.513175 
L 289.922273 215.287711 
L 293.328182 220.917853 
L 296.734091 226.439496 
L 300.14 231.816135 
L 303.545909 236.942704 
L 306.951818 241.656999 
L 310.357727 245.757237 
L 313.763636 249.023542 
L 317.169545 251.2407 
L 320.575455 252.219449 
L 323.981364 251.814107 
L 327.387273 249.935161 
L 330.793182 246.556346 
L 334.199091 241.716426 
L 337.605 235.516301 
L 341.010909 228.112219 
L 344.416818 219.705839 
L 347.822727 210.531927 
L 351.228636 200.844439 
L 354.634545 190.901891 
L 358.040455 180.952995 
L 361.446364 171.223675 
L 364.852273 161.906523 
L 368.258182 153.153647 
L 371.664091 145.073476 
L 375.07 137.731687 
L 378.475909 131.155853 
L 381.881818 125.34297 
L 385.287727 120.268685 
L 388.693636 115.896914 
L 392.099545 112.188621 
L 395.505455 109.108784 
L 398.911364 106.630911 
L 402.317273 104.738826 
L 405.723182 103.425847 
L 409.129091 102.691731 
L 412.535 102.538055 
L 415.940909 102.962816 
L 419.346818 103.955111 
L 422.752727 105.490685 
L 426.158636 107.529004 
L 429.564545 110.012232 
L 432.970455 112.86626 
" clip-path="url(#pb21cee288b)" style="fill: none; stroke-dasharray: 5.55,2.4; stroke-dashoffset: 0; stroke: #0000ff; stroke-width: 1.5"/>
   </g>
   <g id="line2d_16">
    <path d="M 95.785455 81.882093 
L 99.191364 76.070039 
L 102.597273 71.178488 
L 106.003182 67.357322 
L 109.409091 64.728788 
L 112.815 63.383202 
L 116.220909 63.376402 
L 119.626818 64.728509 
L 123.032727 67.423555 
L 126.438636 71.409701 
L 129.844545 76.600115 
L 133.250455 82.874977 
L 136.656364 90.085359 
L 140.062273 98.059787 
L 143.468182 106.613878 
L 146.874091 115.562761 
L 150.28 124.735002 
L 153.685909 133.986082 
L 157.091818 143.209092 
L 160.497727 152.340664 
L 163.903636 161.360824 
L 167.309545 170.28646 
L 170.715455 179.159048 
L 174.121364 188.028178 
L 177.527273 196.933101 
L 180.933182 205.884947 
L 184.339091 214.852286 
L 187.745 223.752389 
L 191.150909 232.449797 
L 194.556818 240.762763 
L 197.962727 248.476718 
L 201.368636 255.362576 
L 204.774545 261.196586 
L 208.180455 265.778317 
L 211.586364 268.944104 
L 214.992273 270.574765 
L 218.398182 270.597967 
L 221.804091 268.986762 
L 225.21 265.756242 
L 228.615909 260.960047 
L 232.021818 254.687797 
L 235.427727 247.063657 
L 238.833636 238.245479 
L 242.239545 228.423371 
L 245.645455 217.816303 
L 249.051364 206.665529 
L 252.457273 195.224184 
L 255.863182 183.743388 
L 259.269091 172.456293 
L 262.675 161.562401 
L 266.080909 151.214913 
L 269.486818 141.51346 
L 272.892727 132.50359 
L 276.298636 124.183056 
L 279.704545 116.513716 
L 283.110455 109.437055 
L 286.516364 102.890943 
L 289.922273 96.825261 
L 293.328182 91.214357 
L 296.734091 86.064835 
L 300.14 81.417972 
L 303.545909 77.346827 
L 306.951818 73.948883 
L 310.357727 71.335569 
L 313.763636 69.620299 
L 317.169545 68.906606 
L 320.575455 69.277679 
L 323.981364 70.788149 
L 327.387273 73.458539 
L 330.793182 77.272361 
L 334.199091 82.175695 
L 337.605 88.07895 
L 341.010909 94.860565 
L 344.416818 102.372409 
L 347.822727 110.446608 
L 351.228636 118.903446 
L 354.634545 127.55985 
L 358.040455 136.237849 
L 361.446364 144.772336 
L 364.852273 153.017473 
L 368.258182 160.851233 
L 371.664091 168.177752 
L 375.07 174.927442 
L 378.475909 181.055094 
L 381.881818 186.536372 
L 385.287727 191.363307 
L 388.693636 195.539436 
L 392.099545 199.075211 
L 395.505455 201.984226 
L 398.911364 204.28064 
L 402.317273 205.977957 
L 405.723182 207.089165 
L 409.129091 207.627994 
L 412.535 207.610974 
L 415.940909 207.059829 
L 419.346818 206.003788 
L 422.752727 204.481393 
L 426.158636 202.541473 
L 429.564545 200.243103 
L 432.970455 197.654459 
" clip-path="url(#pb21cee288b)" style="fill: none; stroke-dasharray: 5.55,2.4; stroke-dashoffset: 0; stroke: #008000; stroke-width: 1.5"/>
   </g>
   <g id="line2d_17">
    <path d="M 95.785455 232.556879 
L 99.191364 238.368938 
L 102.597273 243.260496 
L 106.003182 247.081671 
L 109.409091 249.710215 
L 112.815 251.05581 
L 116.220909 251.062617 
L 119.626818 249.710514 
L 123.032727 247.015469 
L 126.438636 243.02932 
L 129.844545 237.838897 
L 133.250455 231.564021 
L 136.656364 224.353617 
L 140.062273 216.379157 
L 143.468182 207.825021 
L 146.874091 198.87608 
L 150.28 189.703764 
L 153.685909 180.452597 
L 157.091818 171.229491 
L 160.497727 162.097824 
L 163.903636 153.077581 
L 167.309545 144.151886 
L 170.715455 135.279275 
L 174.121364 126.410167 
L 177.527273 117.50531 
L 180.933182 108.553571 
L 184.339091 99.586364 
L 187.745 90.686398 
L 191.150909 81.989105 
L 194.556818 73.676211 
L 197.962727 65.962263 
L 201.368636 59.076339 
L 204.774545 53.242192 
L 208.180455 48.660267 
L 211.586364 45.494252 
L 214.992273 43.863358 
L 218.398182 43.839946 
L 221.804091 45.45099 
L 225.21 48.681419 
L 228.615909 53.4776 
L 232.021818 59.749914 
L 235.427727 67.374186 
L 238.833636 76.192547 
L 242.239545 86.014867 
L 245.645455 96.622149 
L 249.051364 107.773117 
L 252.457273 119.214617 
L 255.863182 130.695515 
L 259.269091 141.982659 
L 262.675 152.87655 
L 266.080909 163.224 
L 269.486818 172.925393 
L 272.892727 181.935195 
L 276.298636 190.255669 
L 279.704545 197.924963 
L 283.110455 205.001599 
L 286.516364 211.547705 
L 289.922273 217.613397 
L 293.328182 223.224324 
L 296.734091 228.373876 
L 300.14 233.020775 
L 303.545909 237.091957 
L 306.951818 240.48994 
L 310.357727 243.103292 
L 313.763636 244.818598 
L 317.169545 245.532324 
L 320.575455 245.16128 
L 323.981364 243.650831 
L 327.387273 240.980455 
L 330.793182 237.166638 
L 334.199091 232.263299 
L 337.605 226.360033 
L 341.010909 219.578402 
L 344.416818 212.066539 
L 347.822727 203.992322 
L 351.228636 195.53547 
L 354.634545 186.879057 
L 358.040455 178.201054 
L 361.446364 169.666571 
L 364.852273 161.42144 
L 368.258182 153.58769 
L 371.664091 146.261182 
L 375.07 139.5115 
L 378.475909 133.383856 
L 381.881818 127.902583 
L 385.287727 123.07565 
L 388.693636 118.899523 
L 392.099545 115.363749 
L 395.505455 112.454734 
L 398.911364 110.158322 
L 402.317273 108.461005 
L 405.723182 107.349799 
L 409.129091 106.810968 
L 412.535 106.827987 
L 415.940909 107.37913 
L 419.346818 108.435167 
L 422.752727 109.957559 
L 426.158636 111.897477 
L 429.564545 114.195846 
L 432.970455 116.784491 
" clip-path="url(#pb21cee288b)" style="fill: none; stroke-dasharray: 5.55,2.4; stroke-dashoffset: 0; stroke: #bfbf00; stroke-width: 1.5"/>
   </g>
   <g id="line2d_18">
    <path d="M 92.379545 157.219478 
L 95.785455 157.219478 
L 99.191364 157.219478 
L 102.597273 157.219478 
L 106.003182 157.219478 
L 109.409091 157.219478 
L 112.815 157.219478 
L 116.220909 157.219478 
L 119.626818 157.219478 
L 123.032727 157.219478 
L 126.438636 157.219478 
L 129.844545 157.219478 
L 133.250455 157.219478 
L 136.656364 157.219478 
L 140.062273 157.219478 
L 143.468182 157.219478 
L 146.874091 157.219478 
L 150.28 157.219478 
L 153.685909 157.219478 
L 157.091818 157.219478 
L 160.497727 157.219478 
L 163.903636 157.219478 
L 167.309545 157.219478 
L 170.715455 157.219478 
L 174.121364 157.219478 
L 177.527273 157.219478 
L 180.933182 157.219478 
L 184.339091 157.219478 
L 187.745 157.219478 
L 191.150909 157.219478 
L 194.556818 157.219478 
L 197.962727 157.219478 
L 201.368636 157.219478 
L 204.774545 157.219478 
L 208.180455 157.219478 
L 211.586364 157.219478 
L 214.992273 157.219478 
L 218.398182 157.219478 
L 221.804091 157.219478 
L 225.21 157.219478 
L 228.615909 157.219478 
L 232.021818 157.219478 
L 235.427727 157.219478 
L 238.833636 157.219478 
L 242.239545 157.219478 
L 245.645455 157.219478 
L 249.051364 157.219478 
L 252.457273 157.219478 
L 255.863182 157.219478 
L 259.269091 157.219478 
L 262.675 157.219478 
L 266.080909 157.219478 
L 269.486818 157.219478 
L 272.892727 157.219478 
L 276.298636 157.219478 
L 279.704545 157.219478 
L 283.110455 157.219478 
L 286.516364 157.219478 
L 289.922273 157.219478 
L 293.328182 157.219478 
L 296.734091 157.219478 
L 300.14 157.219478 
L 303.545909 157.219478 
L 306.951818 157.219478 
L 310.357727 157.219478 
L 313.763636 157.219478 
L 317.169545 157.219478 
L 320.575455 157.219478 
L 323.981364 157.219478 
L 327.387273 157.219478 
L 330.793182 157.219478 
L 334.199091 157.219478 
L 337.605 157.219478 
L 341.010909 157.219478 
L 344.416818 157.219478 
L 347.822727 157.219478 
L 351.228636 157.219478 
L 354.634545 157.219478 
L 358.040455 157.219478 
L 361.446364 157.219478 
L 364.852273 157.219478 
L 368.258182 157.219478 
L 371.664091 157.219478 
L 375.07 157.219478 
L 378.475909 157.219478 
L 381.881818 157.219478 
L 385.287727 157.219478 
L 388.693636 157.219478 
L 392.099545 157.219478 
L 395.505455 157.219478 
L 398.911364 157.219478 
L 402.317273 157.219478 
L 405.723182 157.219478 
L 409.129091 157.219478 
L 412.535 157.219478 
L 415.940909 157.219478 
L 419.346818 157.219478 
L 422.752727 157.219478 
L 426.158636 157.219478 
L 429.564545 157.219478 
L 432.970455 157.219478 
" clip-path="url(#pb21cee288b)" style="fill: none; stroke: #000000; stroke-width: 2; stroke-linecap: square"/>
   </g>
   <g id="line2d_19">
    <defs>
     <path id="mef61c03df7" d="M 0 2.5 
C 0.663008 2.5 1.29895 2.236584 1.767767 1.767767 
C 2.236584 1.29895 2.5 0.663008 2.5 0 
C 2.5 -0.663008 2.236584 -1.29895 1.767767 -1.767767 
C 1.29895 -2.236584 0.663008 -2.5 0 -2.5 
C -0.663008 -2.5 -1.29895 -2.236584 -1.767767 -1.767767 
C -2.236584 -1.29895 -2.5 -0.663008 -2.5 0 
C -2.5 0.663008 -2.236584 1.29895 -1.767767 1.767767 
C -1.29895 2.236584 -0.663008 2.5 0 2.5 
z
" style="stroke: #000000"/>
    </defs>
    <g clip-path="url(#pb21cee288b)">
     <use xlink:href="#mef61c03df7" x="95.785455" y="157.219478" style="fill-opacity: 0; stroke: #000000"/>
     <use xlink:href="#mef61c03df7" x="99.191364" y="157.219478" style="fill-opacity: 0; stroke: #000000"/>
     <use xlink:href="#mef61c03df7" x="102.597273" y="157.219478" style="fill-opacity: 0; stroke: #000000"/>
     <use xlink:href="#mef61c03df7" x="106.003182" y="157.219478" style="fill-opacity: 0; stroke: #000000"/>
     <use xlink:href="#mef61c03df7" x="109.409091" y="157.219478" style="fill-opacity: 0; stroke: #000000"/>
     <use xlink:href="#mef61c03df7" x="112.815" y="157.219478" style="fill-opacity: 0; stroke: #000000"/>
     <use xlink:href="#mef61c03df7" x="116.220909" y="157.219478" style="fill-opacity: 0; stroke: #000000"/>
     <use xlink:href="#mef61c03df7" x="119.626818" y="157.219478" style="fill-opacity: 0; stroke: #000000"/>
     <use xlink:href="#mef61c03df7" x="123.032727" y="157.219478" style="fill-opacity: 0; stroke: #000000"/>
     <use xlink:href="#mef61c03df7" x="126.438636" y="157.219478" style="fill-opacity: 0; stroke: #000000"/>
     <use xlink:href="#mef61c03df7" x="129.844545" y="157.219478" style="fill-opacity: 0; stroke: #000000"/>
     <use xlink:href="#mef61c03df7" x="133.250455" y="157.219478" style="fill-opacity: 0; stroke: #000000"/>
     <use xlink:href="#mef61c03df7" x="136.656364" y="157.219478" style="fill-opacity: 0; stroke: #000000"/>
     <use xlink:href="#mef61c03df7" x="140.062273" y="157.219478" style="fill-opacity: 0; stroke: #000000"/>
     <use xlink:href="#mef61c03df7" x="143.468182" y="157.219478" style="fill-opacity: 0; stroke: #000000"/>
     <use xlink:href="#mef61c03df7" x="146.874091" y="157.219478" style="fill-opacity: 0; stroke: #000000"/>
     <use xlink:href="#mef61c03df7" x="150.28" y="157.219478" style="fill-opacity: 0; stroke: #000000"/>
     <use xlink:href="#mef61c03df7" x="153.685909" y="157.219478" style="fill-opacity: 0; stroke: #000000"/>
     <use xlink:href="#mef61c03df7" x="157.091818" y="157.219478" style="fill-opacity: 0; stroke: #000000"/>
     <use xlink:href="#mef61c03df7" x="160.497727" y="157.219478" style="fill-opacity: 0; stroke: #000000"/>
     <use xlink:href="#mef61c03df7" x="163.903636" y="157.219478" style="fill-opacity: 0; stroke: #000000"/>
     <use xlink:href="#mef61c03df7" x="167.309545" y="157.219478" style="fill-opacity: 0; stroke: #000000"/>
     <use xlink:href="#mef61c03df7" x="170.715455" y="157.219478" style="fill-opacity: 0; stroke: #000000"/>
     <use xlink:href="#mef61c03df7" x="174.121364" y="157.219478" style="fill-opacity: 0; stroke: #000000"/>
     <use xlink:href="#mef61c03df7" x="177.527273" y="157.219478" style="fill-opacity: 0; stroke: #000000"/>
     <use xlink:href="#mef61c03df7" x="180.933182" y="157.219478" style="fill-opacity: 0; stroke: #000000"/>
     <use xlink:href="#mef61c03df7" x="184.339091" y="157.219478" style="fill-opacity: 0; stroke: #000000"/>
     <use xlink:href="#mef61c03df7" x="187.745" y="157.219478" style="fill-opacity: 0; stroke: #000000"/>
     <use xlink:href="#mef61c03df7" x="191.150909" y="157.219478" style="fill-opacity: 0; stroke: #000000"/>
     <use xlink:href="#mef61c03df7" x="194.556818" y="157.219478" style="fill-opacity: 0; stroke: #000000"/>
     <use xlink:href="#mef61c03df7" x="197.962727" y="157.219478" style="fill-opacity: 0; stroke: #000000"/>
     <use xlink:href="#mef61c03df7" x="201.368636" y="157.219478" style="fill-opacity: 0; stroke: #000000"/>
     <use xlink:href="#mef61c03df7" x="204.774545" y="157.219478" style="fill-opacity: 0; stroke: #000000"/>
     <use xlink:href="#mef61c03df7" x="208.180455" y="157.219478" style="fill-opacity: 0; stroke: #000000"/>
     <use xlink:href="#mef61c03df7" x="211.586364" y="157.219478" style="fill-opacity: 0; stroke: #000000"/>
     <use xlink:href="#mef61c03df7" x="214.992273" y="157.219478" style="fill-opacity: 0; stroke: #000000"/>
     <use xlink:href="#mef61c03df7" x="218.398182" y="157.219478" style="fill-opacity: 0; stroke: #000000"/>
     <use xlink:href="#mef61c03df7" x="221.804091" y="157.219478" style="fill-opacity: 0; stroke: #000000"/>
     <use xlink:href="#mef61c03df7" x="225.21" y="157.219478" style="fill-opacity: 0; stroke: #000000"/>
     <use xlink:href="#mef61c03df7" x="228.615909" y="157.219478" style="fill-opacity: 0; stroke: #000000"/>
     <use xlink:href="#mef61c03df7" x="232.021818" y="157.219478" style="fill-opacity: 0; stroke: #000000"/>
     <use xlink:href="#mef61c03df7" x="235.427727" y="157.219478" style="fill-opacity: 0; stroke: #000000"/>
     <use xlink:href="#mef61c03df7" x="238.833636" y="157.219478" style="fill-opacity: 0; stroke: #000000"/>
     <use xlink:href="#mef61c03df7" x="242.239545" y="157.219478" style="fill-opacity: 0; stroke: #000000"/>
     <use xlink:href="#mef61c03df7" x="245.645455" y="157.219478" style="fill-opacity: 0; stroke: #000000"/>
     <use xlink:href="#mef61c03df7" x="249.051364" y="157.219478" style="fill-opacity: 0; stroke: #000000"/>
     <use xlink:href="#mef61c03df7" x="252.457273" y="157.219478" style="fill-opacity: 0; stroke: #000000"/>
     <use xlink:href="#mef61c03df7" x="255.863182" y="157.219478" style="fill-opacity: 0; stroke: #000000"/>
     <use xlink:href="#mef61c03df7" x="259.269091" y="157.219478" style="fill-opacity: 0; stroke: #000000"/>
     <use xlink:href="#mef61c03df7" x="262.675" y="157.219478" style="fill-opacity: 0; stroke: #000000"/>
     <use xlink:href="#mef61c03df7" x="266.080909" y="157.219478" style="fill-opacity: 0; stroke: #000000"/>
     <use xlink:href="#mef61c03df7" x="269.486818" y="157.219478" style="fill-opacity: 0; stroke: #000000"/>
     <use xlink:href="#mef61c03df7" x="272.892727" y="157.219478" style="fill-opacity: 0; stroke: #000000"/>
     <use xlink:href="#mef61c03df7" x="276.298636" y="157.219478" style="fill-opacity: 0; stroke: #000000"/>
     <use xlink:href="#mef61c03df7" x="279.704545" y="157.219478" style="fill-opacity: 0; stroke: #000000"/>
     <use xlink:href="#mef61c03df7" x="283.110455" y="157.219478" style="fill-opacity: 0; stroke: #000000"/>
     <use xlink:href="#mef61c03df7" x="286.516364" y="157.219478" style="fill-opacity: 0; stroke: #000000"/>
     <use xlink:href="#mef61c03df7" x="289.922273" y="157.219478" style="fill-opacity: 0; stroke: #000000"/>
     <use xlink:href="#mef61c03df7" x="293.328182" y="157.219478" style="fill-opacity: 0; stroke: #000000"/>
     <use xlink:href="#mef61c03df7" x="296.734091" y="157.219478" style="fill-opacity: 0; stroke: #000000"/>
     <use xlink:href="#mef61c03df7" x="300.14" y="157.219478" style="fill-opacity: 0; stroke: #000000"/>
     <use xlink:href="#mef61c03df7" x="303.545909" y="157.219478" style="fill-opacity: 0; stroke: #000000"/>
     <use xlink:href="#mef61c03df7" x="306.951818" y="157.219478" style="fill-opacity: 0; stroke: #000000"/>
     <use xlink:href="#mef61c03df7" x="310.357727" y="157.219478" style="fill-opacity: 0; stroke: #000000"/>
     <use xlink:href="#mef61c03df7" x="313.763636" y="157.219478" style="fill-opacity: 0; stroke: #000000"/>
     <use xlink:href="#mef61c03df7" x="317.169545" y="157.219478" style="fill-opacity: 0; stroke: #000000"/>
     <use xlink:href="#mef61c03df7" x="320.575455" y="157.219478" style="fill-opacity: 0; stroke: #000000"/>
     <use xlink:href="#mef61c03df7" x="323.981364" y="157.219478" style="fill-opacity: 0; stroke: #000000"/>
     <use xlink:href="#mef61c03df7" x="327.387273" y="157.219478" style="fill-opacity: 0; stroke: #000000"/>
     <use xlink:href="#mef61c03df7" x="330.793182" y="157.219478" style="fill-opacity: 0; stroke: #000000"/>
     <use xlink:href="#mef61c03df7" x="334.199091" y="157.219478" style="fill-opacity: 0; stroke: #000000"/>
     <use xlink:href="#mef61c03df7" x="337.605" y="157.219478" style="fill-opacity: 0; stroke: #000000"/>
     <use xlink:href="#mef61c03df7" x="341.010909" y="157.219478" style="fill-opacity: 0; stroke: #000000"/>
     <use xlink:href="#mef61c03df7" x="344.416818" y="157.219478" style="fill-opacity: 0; stroke: #000000"/>
     <use xlink:href="#mef61c03df7" x="347.822727" y="157.219478" style="fill-opacity: 0; stroke: #000000"/>
     <use xlink:href="#mef61c03df7" x="351.228636" y="157.219478" style="fill-opacity: 0; stroke: #000000"/>
     <use xlink:href="#mef61c03df7" x="354.634545" y="157.219478" style="fill-opacity: 0; stroke: #000000"/>
     <use xlink:href="#mef61c03df7" x="358.040455" y="157.219478" style="fill-opacity: 0; stroke: #000000"/>
     <use xlink:href="#mef61c03df7" x="361.446364" y="157.219478" style="fill-opacity: 0; stroke: #000000"/>
     <use xlink:href="#mef61c03df7" x="364.852273" y="157.219478" style="fill-opacity: 0; stroke: #000000"/>
     <use xlink:href="#mef61c03df7" x="368.258182" y="157.219478" style="fill-opacity: 0; stroke: #000000"/>
     <use xlink:href="#mef61c03df7" x="371.664091" y="157.219478" style="fill-opacity: 0; stroke: #000000"/>
     <use xlink:href="#mef61c03df7" x="375.07" y="157.219478" style="fill-opacity: 0; stroke: #000000"/>
     <use xlink:href="#mef61c03df7" x="378.475909" y="157.219478" style="fill-opacity: 0; stroke: #000000"/>
     <use xlink:href="#mef61c03df7" x="381.881818" y="157.219478" style="fill-opacity: 0; stroke: #000000"/>
     <use xlink:href="#mef61c03df7" x="385.287727" y="157.219478" style="fill-opacity: 0; stroke: #000000"/>
     <use xlink:href="#mef61c03df7" x="388.693636" y="157.219478" style="fill-opacity: 0; stroke: #000000"/>
     <use xlink:href="#mef61c03df7" x="392.099545" y="157.219478" style="fill-opacity: 0; stroke: #000000"/>
     <use xlink:href="#mef61c03df7" x="395.505455" y="157.219478" style="fill-opacity: 0; stroke: #000000"/>
     <use xlink:href="#mef61c03df7" x="398.911364" y="157.219478" style="fill-opacity: 0; stroke: #000000"/>
     <use xlink:href="#mef61c03df7" x="402.317273" y="157.219478" style="fill-opacity: 0; stroke: #000000"/>
     <use xlink:href="#mef61c03df7" x="405.723182" y="157.219478" style="fill-opacity: 0; stroke: #000000"/>
     <use xlink:href="#mef61c03df7" x="409.129091" y="157.219478" style="fill-opacity: 0; stroke: #000000"/>
     <use xlink:href="#mef61c03df7" x="412.535" y="157.219478" style="fill-opacity: 0; stroke: #000000"/>
     <use xlink:href="#mef61c03df7" x="415.940909" y="157.219478" style="fill-opacity: 0; stroke: #000000"/>
     <use xlink:href="#mef61c03df7" x="419.346818" y="157.219478" style="fill-opacity: 0; stroke: #000000"/>
     <use xlink:href="#mef61c03df7" x="422.752727" y="157.219478" style="fill-opacity: 0; stroke: #000000"/>
     <use xlink:href="#mef61c03df7" x="426.158636" y="157.219478" style="fill-opacity: 0; stroke: #000000"/>
     <use xlink:href="#mef61c03df7" x="429.564545" y="157.219478" style="fill-opacity: 0; stroke: #000000"/>
     <use xlink:href="#mef61c03df7" x="432.970455" y="157.219478" style="fill-opacity: 0; stroke: #000000"/>
    </g>
   </g>
   <g id="patch_3">
    <path d="M 75.35 303.64 
L 75.35 10.8 
" style="fill: none; stroke: #000000; stroke-width: 0.8; stroke-linejoin: miter; stroke-linecap: square"/>
   </g>
   <g id="patch_4">
    <path d="M 450 303.64 
L 450 10.8 
" style="fill: none; stroke: #000000; stroke-width: 0.8; stroke-linejoin: miter; stroke-linecap: square"/>
   </g>
   <g id="patch_5">
    <path d="M 75.35 303.64 
L 450 303.64 
" style="fill: none; stroke: #000000; stroke-width: 0.8; stroke-linejoin: miter; stroke-linecap: square"/>
   </g>
   <g id="patch_6">
    <path d="M 75.35 10.8 
L 450 10.8 
" style="fill: none; stroke: #000000; stroke-width: 0.8; stroke-linejoin: miter; stroke-linecap: square"/>
   </g>
   <g id="legend_1">
    <g id="patch_7">
     <path d="M 343.317187 106.86875 
L 443 106.86875 
Q 445 106.86875 445 104.86875 
L 445 17.8 
Q 445 15.8 443 15.8 
L 343.317187 15.8 
Q 341.317187 15.8 341.317187 17.8 
L 341.317187 104.86875 
Q 341.317187 106.86875 343.317187 106.86875 
z
" style="fill: #ffffff; opacity: 0.8; stroke: #cccccc; stroke-linejoin: miter"/>
    </g>
    <g id="line2d_20">
     <path d="M 345.317187 23.898438 
L 355.317187 23.898438 
L 365.317187 23.898438 
" style="fill: none; stroke-dasharray: 5.55,2.4; stroke-dashoffset: 0; stroke: #ff0000; stroke-width: 1.5"/>
    </g>
    <g id="text_16">
     <!-- A -->
     <g transform="translate(373.317187 27.398438) scale(0.1 -0.1)">
      <defs>
       <path id="DejaVuSans-41" d="M 2188 4044 
L 1331 1722 
L 3047 1722 
L 2188 4044 
z
M 1831 4666 
L 2547 4666 
L 4325 0 
L 3669 0 
L 3244 1197 
L 1141 1197 
L 716 0 
L 50 0 
L 1831 4666 
z
" transform="scale(0.015625)"/>
      </defs>
      <use xlink:href="#DejaVuSans-41"/>
     </g>
    </g>
    <g id="line2d_21">
     <path d="M 345.317187 38.576563 
L 355.317187 38.576563 
L 365.317187 38.576563 
" style="fill: none; stroke-dasharray: 5.55,2.4; stroke-dashoffset: 0; stroke: #0000ff; stroke-width: 1.5"/>
    </g>
    <g id="text_17">
     <!-- B -->
     <g transform="translate(373.317187 42.076563) scale(0.1 -0.1)">
      <defs>
       <path id="DejaVuSans-42" d="M 1259 2228 
L 1259 519 
L 2272 519 
Q 2781 519 3026 730 
Q 3272 941 3272 1375 
Q 3272 1813 3026 2020 
Q 2781 2228 2272 2228 
L 1259 2228 
z
M 1259 4147 
L 1259 2741 
L 2194 2741 
Q 2656 2741 2882 2914 
Q 3109 3088 3109 3444 
Q 3109 3797 2882 3972 
Q 2656 4147 2194 4147 
L 1259 4147 
z
M 628 4666 
L 2241 4666 
Q 2963 4666 3353 4366 
Q 3744 4066 3744 3513 
Q 3744 3084 3544 2831 
Q 3344 2578 2956 2516 
Q 3422 2416 3680 2098 
Q 3938 1781 3938 1306 
Q 3938 681 3513 340 
Q 3088 0 2303 0 
L 628 0 
L 628 4666 
z
" transform="scale(0.015625)"/>
      </defs>
      <use xlink:href="#DejaVuSans-42"/>
     </g>
    </g>
    <g id="line2d_22">
     <path d="M 345.317187 53.254688 
L 355.317187 53.254688 
L 365.317187 53.254688 
" style="fill: none; stroke-dasharray: 5.55,2.4; stroke-dashoffset: 0; stroke: #008000; stroke-width: 1.5"/>
    </g>
    <g id="text_18">
     <!-- C -->
     <g transform="translate(373.317187 56.754688) scale(0.1 -0.1)">
      <defs>
       <path id="DejaVuSans-43" d="M 4122 4306 
L 4122 3641 
Q 3803 3938 3442 4084 
Q 3081 4231 2675 4231 
Q 1875 4231 1450 3742 
Q 1025 3253 1025 2328 
Q 1025 1406 1450 917 
Q 1875 428 2675 428 
Q 3081 428 3442 575 
Q 3803 722 4122 1019 
L 4122 359 
Q 3791 134 3420 21 
Q 3050 -91 2638 -91 
Q 1578 -91 968 557 
Q 359 1206 359 2328 
Q 359 3453 968 4101 
Q 1578 4750 2638 4750 
Q 3056 4750 3426 4639 
Q 3797 4528 4122 4306 
z
" transform="scale(0.015625)"/>
      </defs>
      <use xlink:href="#DejaVuSans-43"/>
     </g>
    </g>
    <g id="line2d_23">
     <path d="M 345.317187 67.932813 
L 355.317187 67.932813 
L 365.317187 67.932813 
" style="fill: none; stroke-dasharray: 5.55,2.4; stroke-dashoffset: 0; stroke: #bfbf00; stroke-width: 1.5"/>
    </g>
    <g id="text_19">
     <!-- D -->
     <g transform="translate(373.317187 71.432813) scale(0.1 -0.1)">
      <defs>
       <path id="DejaVuSans-44" d="M 1259 4147 
L 1259 519 
L 2022 519 
Q 2988 519 3436 956 
Q 3884 1394 3884 2338 
Q 3884 3275 3436 3711 
Q 2988 4147 2022 4147 
L 1259 4147 
z
M 628 4666 
L 1925 4666 
Q 3281 4666 3915 4102 
Q 4550 3538 4550 2338 
Q 4550 1131 3912 565 
Q 3275 0 1925 0 
L 628 0 
L 628 4666 
z
" transform="scale(0.015625)"/>
      </defs>
      <use xlink:href="#DejaVuSans-44"/>
     </g>
    </g>
    <g id="line2d_24">
     <path d="M 345.317187 82.610938 
L 355.317187 82.610938 
L 365.317187 82.610938 
" style="fill: none; stroke: #000000; stroke-width: 2; stroke-linecap: square"/>
    </g>
    <g id="text_20">
     <!-- target -->
     <g transform="translate(373.317187 86.110938) scale(0.1 -0.1)">
      <defs>
       <path id="DejaVuSans-61" d="M 2194 1759 
Q 1497 1759 1228 1600 
Q 959 1441 959 1056 
Q 959 750 1161 570 
Q 1363 391 1709 391 
Q 2188 391 2477 730 
Q 2766 1069 2766 1631 
L 2766 1759 
L 2194 1759 
z
M 3341 1997 
L 3341 0 
L 2766 0 
L 2766 531 
Q 2569 213 2275 61 
Q 1981 -91 1556 -91 
Q 1019 -91 701 211 
Q 384 513 384 1019 
Q 384 1609 779 1909 
Q 1175 2209 1959 2209 
L 2766 2209 
L 2766 2266 
Q 2766 2663 2505 2880 
Q 2244 3097 1772 3097 
Q 1472 3097 1187 3025 
Q 903 2953 641 2809 
L 641 3341 
Q 956 3463 1253 3523 
Q 1550 3584 1831 3584 
Q 2591 3584 2966 3190 
Q 3341 2797 3341 1997 
z
" transform="scale(0.015625)"/>
       <path id="DejaVuSans-72" d="M 2631 2963 
Q 2534 3019 2420 3045 
Q 2306 3072 2169 3072 
Q 1681 3072 1420 2755 
Q 1159 2438 1159 1844 
L 1159 0 
L 581 0 
L 581 3500 
L 1159 3500 
L 1159 2956 
Q 1341 3275 1631 3429 
Q 1922 3584 2338 3584 
Q 2397 3584 2469 3576 
Q 2541 3569 2628 3553 
L 2631 2963 
z
" transform="scale(0.015625)"/>
       <path id="DejaVuSans-67" d="M 2906 1791 
Q 2906 2416 2648 2759 
Q 2391 3103 1925 3103 
Q 1463 3103 1205 2759 
Q 947 2416 947 1791 
Q 947 1169 1205 825 
Q 1463 481 1925 481 
Q 2391 481 2648 825 
Q 2906 1169 2906 1791 
z
M 3481 434 
Q 3481 -459 3084 -895 
Q 2688 -1331 1869 -1331 
Q 1566 -1331 1297 -1286 
Q 1028 -1241 775 -1147 
L 775 -588 
Q 1028 -725 1275 -790 
Q 1522 -856 1778 -856 
Q 2344 -856 2625 -561 
Q 2906 -266 2906 331 
L 2906 616 
Q 2728 306 2450 153 
Q 2172 0 1784 0 
Q 1141 0 747 490 
Q 353 981 353 1791 
Q 353 2603 747 3093 
Q 1141 3584 1784 3584 
Q 2172 3584 2450 3431 
Q 2728 3278 2906 2969 
L 2906 3500 
L 3481 3500 
L 3481 434 
z
" transform="scale(0.015625)"/>
      </defs>
      <use xlink:href="#DejaVuSans-74"/>
      <use xlink:href="#DejaVuSans-61" x="39.208984"/>
      <use xlink:href="#DejaVuSans-72" x="100.488281"/>
      <use xlink:href="#DejaVuSans-67" x="139.851562"/>
      <use xlink:href="#DejaVuSans-65" x="203.328125"/>
      <use xlink:href="#DejaVuSans-74" x="264.851562"/>
     </g>
    </g>
    <g id="line2d_25">
     <g>
      <use xlink:href="#mef61c03df7" x="355.317187" y="97.289063" style="fill-opacity: 0; stroke: #000000"/>
     </g>
    </g>
    <g id="text_21">
     <!-- homogenized -->
     <g transform="translate(373.317187 100.789063) scale(0.1 -0.1)">
      <defs>
       <path id="DejaVuSans-68" d="M 3513 2113 
L 3513 0 
L 2938 0 
L 2938 2094 
Q 2938 2591 2744 2837 
Q 2550 3084 2163 3084 
Q 1697 3084 1428 2787 
Q 1159 2491 1159 1978 
L 1159 0 
L 581 0 
L 581 4863 
L 1159 4863 
L 1159 2956 
Q 1366 3272 1645 3428 
Q 1925 3584 2291 3584 
Q 2894 3584 3203 3211 
Q 3513 2838 3513 2113 
z
" transform="scale(0.015625)"/>
       <path id="DejaVuSans-6f" d="M 1959 3097 
Q 1497 3097 1228 2736 
Q 959 2375 959 1747 
Q 959 1119 1226 758 
Q 1494 397 1959 397 
Q 2419 397 2687 759 
Q 2956 1122 2956 1747 
Q 2956 2369 2687 2733 
Q 2419 3097 1959 3097 
z
M 1959 3584 
Q 2709 3584 3137 3096 
Q 3566 2609 3566 1747 
Q 3566 888 3137 398 
Q 2709 -91 1959 -91 
Q 1206 -91 779 398 
Q 353 888 353 1747 
Q 353 2609 779 3096 
Q 1206 3584 1959 3584 
z
" transform="scale(0.015625)"/>
       <path id="DejaVuSans-6e" d="M 3513 2113 
L 3513 0 
L 2938 0 
L 2938 2094 
Q 2938 2591 2744 2837 
Q 2550 3084 2163 3084 
Q 1697 3084 1428 2787 
Q 1159 2491 1159 1978 
L 1159 0 
L 581 0 
L 581 3500 
L 1159 3500 
L 1159 2956 
Q 1366 3272 1645 3428 
Q 1925 3584 2291 3584 
Q 2894 3584 3203 3211 
Q 3513 2838 3513 2113 
z
" transform="scale(0.015625)"/>
       <path id="DejaVuSans-7a" d="M 353 3500 
L 3084 3500 
L 3084 2975 
L 922 459 
L 3084 459 
L 3084 0 
L 275 0 
L 275 525 
L 2438 3041 
L 353 3041 
L 353 3500 
z
" transform="scale(0.015625)"/>
       <path id="DejaVuSans-64" d="M 2906 2969 
L 2906 4863 
L 3481 4863 
L 3481 0 
L 2906 0 
L 2906 525 
Q 2725 213 2448 61 
Q 2172 -91 1784 -91 
Q 1150 -91 751 415 
Q 353 922 353 1747 
Q 353 2572 751 3078 
Q 1150 3584 1784 3584 
Q 2172 3584 2448 3432 
Q 2725 3281 2906 2969 
z
M 947 1747 
Q 947 1113 1208 752 
Q 1469 391 1925 391 
Q 2381 391 2643 752 
Q 2906 1113 2906 1747 
Q 2906 2381 2643 2742 
Q 2381 3103 1925 3103 
Q 1469 3103 1208 2742 
Q 947 2381 947 1747 
z
" transform="scale(0.015625)"/>
      </defs>
      <use xlink:href="#DejaVuSans-68"/>
      <use xlink:href="#DejaVuSans-6f" x="63.378906"/>
      <use xlink:href="#DejaVuSans-6d" x="124.560547"/>
      <use xlink:href="#DejaVuSans-6f" x="221.972656"/>
      <use xlink:href="#DejaVuSans-67" x="283.154297"/>
      <use xlink:href="#DejaVuSans-65" x="346.630859"/>
      <use xlink:href="#DejaVuSans-6e" x="408.154297"/>
      <use xlink:href="#DejaVuSans-69" x="471.533203"/>
      <use xlink:href="#DejaVuSans-7a" x="499.316406"/>
      <use xlink:href="#DejaVuSans-65" x="551.806641"/>
      <use xlink:href="#DejaVuSans-64" x="613.330078"/>
     </g>
    </g>
   </g>
  </g>
 </g>
 <defs>
  <clipPath id="pb21cee288b">
   <rect x="75.35" y="10.8" width="374.65" height="292.84"/>
  </clipPath>
 </defs>
</svg>
