<?xml version="1.0" encoding="utf-8" standalone="no"?>
<!DOCTYPE svg PUBLIC "-//W3C//DTD SVG 1.1//EN"
  "http://www.w3.org/Graphics/SVG/1.1/DTD/svg11.dtd">
<svg xmlns:xlink="http://www.w3.org/1999/xlink" width="460.8pt" height="345.6pt" viewBox="0 0 460.8 345.6" xmlns="http://www.w3.org/2000/svg" version="1.1">
 <metadata>
  <rdf:RDF xmlns:dc="http://purl.org/dc/elements/1.1/" xmlns:cc="http://creativecommons.org/ns#" xmlns:rdf="http://www.w3.org/1999/02/22-rdf-syntax-ns#">
   <cc:Work>
    <dc:type rdf:resource="http://purl.org/dc/dcmitype/StillImage"/>
    <dc:date>2024-03-04T11:32:17.851260</dc:date>
    <dc:format>image/svg+xml</dc:format>
    <dc:creator>
     <cc:Agent>
      <dc:title>Matplotlib v3.8.3, https://matplotlib.org/</dc:title>
     </cc:Agent>
    </dc:creator>
   </cc:Work>
  </rdf:RDF>
 </metadata>
 <defs>
  <style type="text/css">*{stroke-linejoin: round; stroke-linecap: butt}</style>
 </defs>
 <g id="figure_1">
  <g id="patch_1">
   <path d="M 0 345.6 
L 460.8 345.6 
L 460.8 0 
L 0 0 
z
" style="fill: #ffffff"/>
  </g>
  <g id="axes_1">
   <g id="patch_2">
    <path d="M 75.35 303.64 
L 450 303.64 
L 450 14.76 
L 75.35 14.76 
z
" style="fill: #ffffff"/>
   </g>
   <g id="matplotlib.axis_1">
    <g id="xtick_1">
     <g id="line2d_1">
      <defs>
       <path id="mf62d93f6bd" d="M 0 0 
L 0 3.5 
" style="stroke: #000000; stroke-width: 0.8"/>
      </defs>
      <g>
       <use xlink:href="#mf62d93f6bd" x="92.379545" y="303.64" style="stroke: #000000; stroke-width: 0.8"/>
      </g>
     </g>
     <g id="text_1">
      <!-- 0 -->
      <g transform="translate(89.198295 318.238437) scale(0.1 -0.1)">
       <defs>
        <path id="DejaVuSans-30" d="M 2034 4250 
Q 1547 4250 1301 3770 
Q 1056 3291 1056 2328 
Q 1056 1369 1301 889 
Q 1547 409 2034 409 
Q 2525 409 2770 889 
Q 3016 1369 3016 2328 
Q 3016 3291 2770 3770 
Q 2525 4250 2034 4250 
z
M 2034 4750 
Q 2819 4750 3233 4129 
Q 3647 3509 3647 2328 
Q 3647 1150 3233 529 
Q 2819 -91 2034 -91 
Q 1250 -91 836 529 
Q 422 1150 422 2328 
Q 422 3509 836 4129 
Q 1250 4750 2034 4750 
z
" transform="scale(0.015625)"/>
       </defs>
       <use xlink:href="#DejaVuSans-30"/>
      </g>
     </g>
    </g>
    <g id="xtick_2">
     <g id="line2d_2">
      <g>
       <use xlink:href="#mf62d93f6bd" x="160.497727" y="303.64" style="stroke: #000000; stroke-width: 0.8"/>
      </g>
     </g>
     <g id="text_2">
      <!-- 1 -->
      <g transform="translate(157.316477 318.238437) scale(0.1 -0.1)">
       <defs>
        <path id="DejaVuSans-31" d="M 794 531 
L 1825 531 
L 1825 4091 
L 703 3866 
L 703 4441 
L 1819 4666 
L 2450 4666 
L 2450 531 
L 3481 531 
L 3481 0 
L 794 0 
L 794 531 
z
" transform="scale(0.015625)"/>
       </defs>
       <use xlink:href="#DejaVuSans-31"/>
      </g>
     </g>
    </g>
    <g id="xtick_3">
     <g id="line2d_3">
      <g>
       <use xlink:href="#mf62d93f6bd" x="228.615909" y="303.64" style="stroke: #000000; stroke-width: 0.8"/>
      </g>
     </g>
     <g id="text_3">
      <!-- 2 -->
      <g transform="translate(225.434659 318.238437) scale(0.1 -0.1)">
       <defs>
        <path id="DejaVuSans-32" d="M 1228 531 
L 3431 531 
L 3431 0 
L 469 0 
L 469 531 
Q 828 903 1448 1529 
Q 2069 2156 2228 2338 
Q 2531 2678 2651 2914 
Q 2772 3150 2772 3378 
Q 2772 3750 2511 3984 
Q 2250 4219 1831 4219 
Q 1534 4219 1204 4116 
Q 875 4013 500 3803 
L 500 4441 
Q 881 4594 1212 4672 
Q 1544 4750 1819 4750 
Q 2544 4750 2975 4387 
Q 3406 4025 3406 3419 
Q 3406 3131 3298 2873 
Q 3191 2616 2906 2266 
Q 2828 2175 2409 1742 
Q 1991 1309 1228 531 
z
" transform="scale(0.015625)"/>
       </defs>
       <use xlink:href="#DejaVuSans-32"/>
      </g>
     </g>
    </g>
    <g id="xtick_4">
     <g id="line2d_4">
      <g>
       <use xlink:href="#mf62d93f6bd" x="296.734091" y="303.64" style="stroke: #000000; stroke-width: 0.8"/>
      </g>
     </g>
     <g id="text_4">
      <!-- 3 -->
      <g transform="translate(293.552841 318.238437) scale(0.1 -0.1)">
       <defs>
        <path id="DejaVuSans-33" d="M 2597 2516 
Q 3050 2419 3304 2112 
Q 3559 1806 3559 1356 
Q 3559 666 3084 287 
Q 2609 -91 1734 -91 
Q 1441 -91 1130 -33 
Q 819 25 488 141 
L 488 750 
Q 750 597 1062 519 
Q 1375 441 1716 441 
Q 2309 441 2620 675 
Q 2931 909 2931 1356 
Q 2931 1769 2642 2001 
Q 2353 2234 1838 2234 
L 1294 2234 
L 1294 2753 
L 1863 2753 
Q 2328 2753 2575 2939 
Q 2822 3125 2822 3475 
Q 2822 3834 2567 4026 
Q 2313 4219 1838 4219 
Q 1578 4219 1281 4162 
Q 984 4106 628 3988 
L 628 4550 
Q 988 4650 1302 4700 
Q 1616 4750 1894 4750 
Q 2613 4750 3031 4423 
Q 3450 4097 3450 3541 
Q 3450 3153 3228 2886 
Q 3006 2619 2597 2516 
z
" transform="scale(0.015625)"/>
       </defs>
       <use xlink:href="#DejaVuSans-33"/>
      </g>
     </g>
    </g>
    <g id="xtick_5">
     <g id="line2d_5">
      <g>
       <use xlink:href="#mf62d93f6bd" x="364.852273" y="303.64" style="stroke: #000000; stroke-width: 0.8"/>
      </g>
     </g>
     <g id="text_5">
      <!-- 4 -->
      <g transform="translate(361.671023 318.238437) scale(0.1 -0.1)">
       <defs>
        <path id="DejaVuSans-34" d="M 2419 4116 
L 825 1625 
L 2419 1625 
L 2419 4116 
z
M 2253 4666 
L 3047 4666 
L 3047 1625 
L 3713 1625 
L 3713 1100 
L 3047 1100 
L 3047 0 
L 2419 0 
L 2419 1100 
L 313 1100 
L 313 1709 
L 2253 4666 
z
" transform="scale(0.015625)"/>
       </defs>
       <use xlink:href="#DejaVuSans-34"/>
      </g>
     </g>
    </g>
    <g id="xtick_6">
     <g id="line2d_6">
      <g>
       <use xlink:href="#mf62d93f6bd" x="432.970455" y="303.64" style="stroke: #000000; stroke-width: 0.8"/>
      </g>
     </g>
     <g id="text_6">
      <!-- 5 -->
      <g transform="translate(429.789205 318.238437) scale(0.1 -0.1)">
       <defs>
        <path id="DejaVuSans-35" d="M 691 4666 
L 3169 4666 
L 3169 4134 
L 1269 4134 
L 1269 2991 
Q 1406 3038 1543 3061 
Q 1681 3084 1819 3084 
Q 2600 3084 3056 2656 
Q 3513 2228 3513 1497 
Q 3513 744 3044 326 
Q 2575 -91 1722 -91 
Q 1428 -91 1123 -41 
Q 819 9 494 109 
L 494 744 
Q 775 591 1075 516 
Q 1375 441 1709 441 
Q 2250 441 2565 725 
Q 2881 1009 2881 1497 
Q 2881 1984 2565 2268 
Q 2250 2553 1709 2553 
Q 1456 2553 1204 2497 
Q 953 2441 691 2322 
L 691 4666 
z
" transform="scale(0.015625)"/>
       </defs>
       <use xlink:href="#DejaVuSans-35"/>
      </g>
     </g>
    </g>
    <g id="text_7">
     <!-- time (s) -->
     <g transform="translate(243.283594 331.916562) scale(0.1 -0.1)">
      <defs>
       <path id="DejaVuSans-74" d="M 1172 4494 
L 1172 3500 
L 2356 3500 
L 2356 3053 
L 1172 3053 
L 1172 1153 
Q 1172 725 1289 603 
Q 1406 481 1766 481 
L 2356 481 
L 2356 0 
L 1766 0 
Q 1100 0 847 248 
Q 594 497 594 1153 
L 594 3053 
L 172 3053 
L 172 3500 
L 594 3500 
L 594 4494 
L 1172 4494 
z
" transform="scale(0.015625)"/>
       <path id="DejaVuSans-69" d="M 603 3500 
L 1178 3500 
L 1178 0 
L 603 0 
L 603 3500 
z
M 603 4863 
L 1178 4863 
L 1178 4134 
L 603 4134 
L 603 4863 
z
" transform="scale(0.015625)"/>
       <path id="DejaVuSans-6d" d="M 3328 2828 
Q 3544 3216 3844 3400 
Q 4144 3584 4550 3584 
Q 5097 3584 5394 3201 
Q 5691 2819 5691 2113 
L 5691 0 
L 5113 0 
L 5113 2094 
Q 5113 2597 4934 2840 
Q 4756 3084 4391 3084 
Q 3944 3084 3684 2787 
Q 3425 2491 3425 1978 
L 3425 0 
L 2847 0 
L 2847 2094 
Q 2847 2600 2669 2842 
Q 2491 3084 2119 3084 
Q 1678 3084 1418 2786 
Q 1159 2488 1159 1978 
L 1159 0 
L 581 0 
L 581 3500 
L 1159 3500 
L 1159 2956 
Q 1356 3278 1631 3431 
Q 1906 3584 2284 3584 
Q 2666 3584 2933 3390 
Q 3200 3197 3328 2828 
z
" transform="scale(0.015625)"/>
       <path id="DejaVuSans-65" d="M 3597 1894 
L 3597 1613 
L 953 1613 
Q 991 1019 1311 708 
Q 1631 397 2203 397 
Q 2534 397 2845 478 
Q 3156 559 3463 722 
L 3463 178 
Q 3153 47 2828 -22 
Q 2503 -91 2169 -91 
Q 1331 -91 842 396 
Q 353 884 353 1716 
Q 353 2575 817 3079 
Q 1281 3584 2069 3584 
Q 2775 3584 3186 3129 
Q 3597 2675 3597 1894 
z
M 3022 2063 
Q 3016 2534 2758 2815 
Q 2500 3097 2075 3097 
Q 1594 3097 1305 2825 
Q 1016 2553 972 2059 
L 3022 2063 
z
" transform="scale(0.015625)"/>
       <path id="DejaVuSans-20" transform="scale(0.015625)"/>
       <path id="DejaVuSans-28" d="M 1984 4856 
Q 1566 4138 1362 3434 
Q 1159 2731 1159 2009 
Q 1159 1288 1364 580 
Q 1569 -128 1984 -844 
L 1484 -844 
Q 1016 -109 783 600 
Q 550 1309 550 2009 
Q 550 2706 781 3412 
Q 1013 4119 1484 4856 
L 1984 4856 
z
" transform="scale(0.015625)"/>
       <path id="DejaVuSans-73" d="M 2834 3397 
L 2834 2853 
Q 2591 2978 2328 3040 
Q 2066 3103 1784 3103 
Q 1356 3103 1142 2972 
Q 928 2841 928 2578 
Q 928 2378 1081 2264 
Q 1234 2150 1697 2047 
L 1894 2003 
Q 2506 1872 2764 1633 
Q 3022 1394 3022 966 
Q 3022 478 2636 193 
Q 2250 -91 1575 -91 
Q 1294 -91 989 -36 
Q 684 19 347 128 
L 347 722 
Q 666 556 975 473 
Q 1284 391 1588 391 
Q 1994 391 2212 530 
Q 2431 669 2431 922 
Q 2431 1156 2273 1281 
Q 2116 1406 1581 1522 
L 1381 1569 
Q 847 1681 609 1914 
Q 372 2147 372 2553 
Q 372 3047 722 3315 
Q 1072 3584 1716 3584 
Q 2034 3584 2315 3537 
Q 2597 3491 2834 3397 
z
" transform="scale(0.015625)"/>
       <path id="DejaVuSans-29" d="M 513 4856 
L 1013 4856 
Q 1481 4119 1714 3412 
Q 1947 2706 1947 2009 
Q 1947 1309 1714 600 
Q 1481 -109 1013 -844 
L 513 -844 
Q 928 -128 1133 580 
Q 1338 1288 1338 2009 
Q 1338 2731 1133 3434 
Q 928 4138 513 4856 
z
" transform="scale(0.015625)"/>
      </defs>
      <use xlink:href="#DejaVuSans-74"/>
      <use xlink:href="#DejaVuSans-69" x="39.208984"/>
      <use xlink:href="#DejaVuSans-6d" x="66.992188"/>
      <use xlink:href="#DejaVuSans-65" x="164.404297"/>
      <use xlink:href="#DejaVuSans-20" x="225.927734"/>
      <use xlink:href="#DejaVuSans-28" x="257.714844"/>
      <use xlink:href="#DejaVuSans-73" x="296.728516"/>
      <use xlink:href="#DejaVuSans-29" x="348.828125"/>
     </g>
    </g>
   </g>
   <g id="matplotlib.axis_2">
    <g id="ytick_1">
     <g id="line2d_7">
      <defs>
       <path id="mf8cc6a0591" d="M 0 0 
L -3.5 0 
" style="stroke: #000000; stroke-width: 0.8"/>
      </defs>
      <g>
       <use xlink:href="#mf8cc6a0591" x="75.35" y="303.64" style="stroke: #000000; stroke-width: 0.8"/>
      </g>
     </g>
     <g id="text_8">
      <!-- −0.0015 -->
      <g transform="translate(24.979688 307.439219) scale(0.1 -0.1)">
       <defs>
        <path id="DejaVuSans-2212" d="M 678 2272 
L 4684 2272 
L 4684 1741 
L 678 1741 
L 678 2272 
z
" transform="scale(0.015625)"/>
        <path id="DejaVuSans-2e" d="M 684 794 
L 1344 794 
L 1344 0 
L 684 0 
L 684 794 
z
" transform="scale(0.015625)"/>
       </defs>
       <use xlink:href="#DejaVuSans-2212"/>
       <use xlink:href="#DejaVuSans-30" x="83.789062"/>
       <use xlink:href="#DejaVuSans-2e" x="147.412109"/>
       <use xlink:href="#DejaVuSans-30" x="179.199219"/>
       <use xlink:href="#DejaVuSans-30" x="242.822266"/>
       <use xlink:href="#DejaVuSans-31" x="306.445312"/>
       <use xlink:href="#DejaVuSans-35" x="370.068359"/>
      </g>
     </g>
    </g>
    <g id="ytick_2">
     <g id="line2d_8">
      <g>
       <use xlink:href="#mf8cc6a0591" x="75.35" y="255.493333" style="stroke: #000000; stroke-width: 0.8"/>
      </g>
     </g>
     <g id="text_9">
      <!-- −0.0010 -->
      <g transform="translate(24.979688 259.292552) scale(0.1 -0.1)">
       <use xlink:href="#DejaVuSans-2212"/>
       <use xlink:href="#DejaVuSans-30" x="83.789062"/>
       <use xlink:href="#DejaVuSans-2e" x="147.412109"/>
       <use xlink:href="#DejaVuSans-30" x="179.199219"/>
       <use xlink:href="#DejaVuSans-30" x="242.822266"/>
       <use xlink:href="#DejaVuSans-31" x="306.445312"/>
       <use xlink:href="#DejaVuSans-30" x="370.068359"/>
      </g>
     </g>
    </g>
    <g id="ytick_3">
     <g id="line2d_9">
      <g>
       <use xlink:href="#mf8cc6a0591" x="75.35" y="207.346667" style="stroke: #000000; stroke-width: 0.8"/>
      </g>
     </g>
     <g id="text_10">
      <!-- −0.0005 -->
      <g transform="translate(24.979688 211.145885) scale(0.1 -0.1)">
       <use xlink:href="#DejaVuSans-2212"/>
       <use xlink:href="#DejaVuSans-30" x="83.789062"/>
       <use xlink:href="#DejaVuSans-2e" x="147.412109"/>
       <use xlink:href="#DejaVuSans-30" x="179.199219"/>
       <use xlink:href="#DejaVuSans-30" x="242.822266"/>
       <use xlink:href="#DejaVuSans-30" x="306.445312"/>
       <use xlink:href="#DejaVuSans-35" x="370.068359"/>
      </g>
     </g>
    </g>
    <g id="ytick_4">
     <g id="line2d_10">
      <g>
       <use xlink:href="#mf8cc6a0591" x="75.35" y="159.2" style="stroke: #000000; stroke-width: 0.8"/>
      </g>
     </g>
     <g id="text_11">
      <!-- 0.0000 -->
      <g transform="translate(33.359375 162.999219) scale(0.1 -0.1)">
       <use xlink:href="#DejaVuSans-30"/>
       <use xlink:href="#DejaVuSans-2e" x="63.623047"/>
       <use xlink:href="#DejaVuSans-30" x="95.410156"/>
       <use xlink:href="#DejaVuSans-30" x="159.033203"/>
       <use xlink:href="#DejaVuSans-30" x="222.65625"/>
       <use xlink:href="#DejaVuSans-30" x="286.279297"/>
      </g>
     </g>
    </g>
    <g id="ytick_5">
     <g id="line2d_11">
      <g>
       <use xlink:href="#mf8cc6a0591" x="75.35" y="111.053333" style="stroke: #000000; stroke-width: 0.8"/>
      </g>
     </g>
     <g id="text_12">
      <!-- 0.0005 -->
      <g transform="translate(33.359375 114.852552) scale(0.1 -0.1)">
       <use xlink:href="#DejaVuSans-30"/>
       <use xlink:href="#DejaVuSans-2e" x="63.623047"/>
       <use xlink:href="#DejaVuSans-30" x="95.410156"/>
       <use xlink:href="#DejaVuSans-30" x="159.033203"/>
       <use xlink:href="#DejaVuSans-30" x="222.65625"/>
       <use xlink:href="#DejaVuSans-35" x="286.279297"/>
      </g>
     </g>
    </g>
    <g id="ytick_6">
     <g id="line2d_12">
      <g>
       <use xlink:href="#mf8cc6a0591" x="75.35" y="62.906667" style="stroke: #000000; stroke-width: 0.8"/>
      </g>
     </g>
     <g id="text_13">
      <!-- 0.0010 -->
      <g transform="translate(33.359375 66.705885) scale(0.1 -0.1)">
       <use xlink:href="#DejaVuSans-30"/>
       <use xlink:href="#DejaVuSans-2e" x="63.623047"/>
       <use xlink:href="#DejaVuSans-30" x="95.410156"/>
       <use xlink:href="#DejaVuSans-30" x="159.033203"/>
       <use xlink:href="#DejaVuSans-31" x="222.65625"/>
       <use xlink:href="#DejaVuSans-30" x="286.279297"/>
      </g>
     </g>
    </g>
    <g id="ytick_7">
     <g id="line2d_13">
      <g>
       <use xlink:href="#mf8cc6a0591" x="75.35" y="14.76" style="stroke: #000000; stroke-width: 0.8"/>
      </g>
     </g>
     <g id="text_14">
      <!-- 0.0015 -->
      <g transform="translate(33.359375 18.559219) scale(0.1 -0.1)">
       <use xlink:href="#DejaVuSans-30"/>
       <use xlink:href="#DejaVuSans-2e" x="63.623047"/>
       <use xlink:href="#DejaVuSans-30" x="95.410156"/>
       <use xlink:href="#DejaVuSans-30" x="159.033203"/>
       <use xlink:href="#DejaVuSans-31" x="222.65625"/>
       <use xlink:href="#DejaVuSans-35" x="286.279297"/>
      </g>
     </g>
    </g>
    <g id="text_15">
     <!-- displacement (mm) -->
     <g transform="translate(18.9 208.128125) rotate(-90) scale(0.1 -0.1)">
      <defs>
       <path id="DejaVuSans-64" d="M 2906 2969 
L 2906 4863 
L 3481 4863 
L 3481 0 
L 2906 0 
L 2906 525 
Q 2725 213 2448 61 
Q 2172 -91 1784 -91 
Q 1150 -91 751 415 
Q 353 922 353 1747 
Q 353 2572 751 3078 
Q 1150 3584 1784 3584 
Q 2172 3584 2448 3432 
Q 2725 3281 2906 2969 
z
M 947 1747 
Q 947 1113 1208 752 
Q 1469 391 1925 391 
Q 2381 391 2643 752 
Q 2906 1113 2906 1747 
Q 2906 2381 2643 2742 
Q 2381 3103 1925 3103 
Q 1469 3103 1208 2742 
Q 947 2381 947 1747 
z
" transform="scale(0.015625)"/>
       <path id="DejaVuSans-70" d="M 1159 525 
L 1159 -1331 
L 581 -1331 
L 581 3500 
L 1159 3500 
L 1159 2969 
Q 1341 3281 1617 3432 
Q 1894 3584 2278 3584 
Q 2916 3584 3314 3078 
Q 3713 2572 3713 1747 
Q 3713 922 3314 415 
Q 2916 -91 2278 -91 
Q 1894 -91 1617 61 
Q 1341 213 1159 525 
z
M 3116 1747 
Q 3116 2381 2855 2742 
Q 2594 3103 2138 3103 
Q 1681 3103 1420 2742 
Q 1159 2381 1159 1747 
Q 1159 1113 1420 752 
Q 1681 391 2138 391 
Q 2594 391 2855 752 
Q 3116 1113 3116 1747 
z
" transform="scale(0.015625)"/>
       <path id="DejaVuSans-6c" d="M 603 4863 
L 1178 4863 
L 1178 0 
L 603 0 
L 603 4863 
z
" transform="scale(0.015625)"/>
       <path id="DejaVuSans-61" d="M 2194 1759 
Q 1497 1759 1228 1600 
Q 959 1441 959 1056 
Q 959 750 1161 570 
Q 1363 391 1709 391 
Q 2188 391 2477 730 
Q 2766 1069 2766 1631 
L 2766 1759 
L 2194 1759 
z
M 3341 1997 
L 3341 0 
L 2766 0 
L 2766 531 
Q 2569 213 2275 61 
Q 1981 -91 1556 -91 
Q 1019 -91 701 211 
Q 384 513 384 1019 
Q 384 1609 779 1909 
Q 1175 2209 1959 2209 
L 2766 2209 
L 2766 2266 
Q 2766 2663 2505 2880 
Q 2244 3097 1772 3097 
Q 1472 3097 1187 3025 
Q 903 2953 641 2809 
L 641 3341 
Q 956 3463 1253 3523 
Q 1550 3584 1831 3584 
Q 2591 3584 2966 3190 
Q 3341 2797 3341 1997 
z
" transform="scale(0.015625)"/>
       <path id="DejaVuSans-63" d="M 3122 3366 
L 3122 2828 
Q 2878 2963 2633 3030 
Q 2388 3097 2138 3097 
Q 1578 3097 1268 2742 
Q 959 2388 959 1747 
Q 959 1106 1268 751 
Q 1578 397 2138 397 
Q 2388 397 2633 464 
Q 2878 531 3122 666 
L 3122 134 
Q 2881 22 2623 -34 
Q 2366 -91 2075 -91 
Q 1284 -91 818 406 
Q 353 903 353 1747 
Q 353 2603 823 3093 
Q 1294 3584 2113 3584 
Q 2378 3584 2631 3529 
Q 2884 3475 3122 3366 
z
" transform="scale(0.015625)"/>
       <path id="DejaVuSans-6e" d="M 3513 2113 
L 3513 0 
L 2938 0 
L 2938 2094 
Q 2938 2591 2744 2837 
Q 2550 3084 2163 3084 
Q 1697 3084 1428 2787 
Q 1159 2491 1159 1978 
L 1159 0 
L 581 0 
L 581 3500 
L 1159 3500 
L 1159 2956 
Q 1366 3272 1645 3428 
Q 1925 3584 2291 3584 
Q 2894 3584 3203 3211 
Q 3513 2838 3513 2113 
z
" transform="scale(0.015625)"/>
      </defs>
      <use xlink:href="#DejaVuSans-64"/>
      <use xlink:href="#DejaVuSans-69" x="63.476562"/>
      <use xlink:href="#DejaVuSans-73" x="91.259766"/>
      <use xlink:href="#DejaVuSans-70" x="143.359375"/>
      <use xlink:href="#DejaVuSans-6c" x="206.835938"/>
      <use xlink:href="#DejaVuSans-61" x="234.619141"/>
      <use xlink:href="#DejaVuSans-63" x="295.898438"/>
      <use xlink:href="#DejaVuSans-65" x="350.878906"/>
      <use xlink:href="#DejaVuSans-6d" x="412.402344"/>
      <use xlink:href="#DejaVuSans-65" x="509.814453"/>
      <use xlink:href="#DejaVuSans-6e" x="571.337891"/>
      <use xlink:href="#DejaVuSans-74" x="634.716797"/>
      <use xlink:href="#DejaVuSans-20" x="673.925781"/>
      <use xlink:href="#DejaVuSans-28" x="705.712891"/>
      <use xlink:href="#DejaVuSans-6d" x="744.726562"/>
      <use xlink:href="#DejaVuSans-6d" x="842.138672"/>
      <use xlink:href="#DejaVuSans-29" x="939.550781"/>
     </g>
    </g>
   </g>
   <g id="line2d_14">
    <path d="M 92.379545 159.2 
L 97.147818 159.157448 
L 97.829 159.005578 
L 98.510182 158.468158 
L 99.191364 156.901338 
L 99.872545 153.115298 
L 100.553727 145.507538 
L 101.234909 132.770346 
L 101.916091 114.96449 
L 103.278455 73.470237 
L 103.959636 56.296646 
L 104.640818 44.677965 
L 105.322 39.141487 
L 106.003182 38.240994 
L 106.684364 39.110899 
L 107.365545 39.683915 
L 108.727909 40.345764 
L 109.409091 40.145095 
L 110.090273 39.651334 
L 110.771455 40.309425 
L 112.133818 43.47689 
L 112.815 46.580383 
L 113.496182 53.419455 
L 114.177364 63.618864 
L 114.858545 77.197172 
L 116.220909 116.029412 
L 116.902091 135.430199 
L 117.583273 151.384951 
L 118.264455 161.843076 
L 118.945636 165.337318 
L 119.626818 164.09753 
L 120.989182 158.596102 
L 121.670364 157.565597 
L 122.351545 158.428955 
L 125.076273 163.315643 
L 125.757455 166.502655 
L 126.438636 172.371295 
L 127.119818 180.96582 
L 127.801 192.880799 
L 128.482182 208.338501 
L 130.525727 264.039119 
L 131.206909 278.120937 
L 131.888091 286.744618 
L 132.569273 288.944614 
L 133.250455 285.85574 
L 133.931636 280.782917 
L 134.612818 276.809708 
L 135.294 275.142195 
L 135.975182 275.299372 
L 136.656364 276.405683 
L 137.337545 277.172676 
L 138.018727 275.643734 
L 138.699909 271.250848 
L 139.381091 265.200259 
L 140.062273 257.716381 
L 140.743455 247.481388 
L 141.424636 233.968421 
L 142.787 200.069186 
L 144.149364 164.642901 
L 144.830545 153.149002 
L 145.511727 147.16878 
L 146.192909 146.410282 
L 146.874091 150.457999 
L 147.555273 156.67589 
L 148.236455 161.434059 
L 148.917636 163.206238 
L 149.598818 161.978831 
L 150.28 158.051585 
L 150.961182 153.162667 
L 152.323545 145.1474 
L 153.004727 139.50945 
L 153.685909 131.502218 
L 154.367091 119.910639 
L 155.729455 86.182888 
L 157.091818 52.13251 
L 157.773 38.203933 
L 158.454182 28.920069 
L 159.135364 24.998373 
L 159.816545 26.235346 
L 160.497727 31.573924 
L 161.860091 44.549818 
L 162.541273 48.263967 
L 163.222455 48.44978 
L 163.903636 46.575303 
L 164.584818 46.232447 
L 165.266 49.065119 
L 165.947182 55.18809 
L 166.628364 65.283974 
L 167.990727 92.978958 
L 171.396636 166.986877 
L 172.077818 174.758232 
L 172.759 176.97235 
L 173.440182 173.542534 
L 174.802545 160.193717 
L 175.483727 155.664559 
L 176.164909 154.306856 
L 176.846091 157.613487 
L 178.208455 172.076253 
L 180.252 196.621016 
L 180.933182 206.116318 
L 181.614364 218.655891 
L 182.976727 252.758122 
L 183.657909 269.951571 
L 184.339091 283.986326 
L 185.020273 292.941324 
L 185.701455 296.127911 
L 186.382636 294.670819 
L 187.063818 289.722354 
L 188.426182 275.505444 
L 189.107364 269.604767 
L 189.788545 265.22432 
L 190.469727 263.622688 
L 191.150909 264.164673 
L 191.832091 263.391457 
L 192.513273 259.132282 
L 193.194455 250.792549 
L 193.875636 237.649059 
L 195.919182 186.70316 
L 197.281545 160.16169 
L 197.962727 150.487735 
L 198.643909 143.803107 
L 199.325091 140.429272 
L 200.006273 141.094018 
L 200.687455 145.751123 
L 202.049818 160.110082 
L 202.731 163.555071 
L 203.412182 162.025425 
L 204.093364 155.918628 
L 204.774545 145.849662 
L 206.136909 122.969067 
L 208.180455 91.203522 
L 208.861636 78.442329 
L 210.905182 34.223335 
L 211.586364 23.390385 
L 212.267545 17.913267 
L 212.948727 19.454888 
L 213.629909 26.016595 
L 215.673455 51.438846 
L 216.354636 56.395949 
L 217.035818 58.88053 
L 217.717 60.626343 
L 218.398182 63.164627 
L 219.079364 67.108087 
L 219.760545 73.692076 
L 220.441727 84.638661 
L 221.122909 99.810272 
L 223.166455 153.171867 
L 223.847636 165.441099 
L 224.528818 173.050054 
L 225.21 176.845009 
L 225.891182 177.623972 
L 226.572364 176.445601 
L 227.253545 173.622763 
L 229.297091 159.806216 
L 229.978273 158.269447 
L 230.659455 162.018484 
L 231.340636 171.815837 
L 232.703 199.594367 
L 234.065364 227.075371 
L 236.108909 259.15157 
L 237.471273 283.793588 
L 238.152455 294.317352 
L 238.833636 300.875052 
L 239.514818 301.176425 
L 240.196 295.757113 
L 240.877182 286.602024 
L 242.239545 264.980251 
L 242.920727 257.153133 
L 243.601909 252.450444 
L 244.283091 250.377739 
L 244.964273 248.948027 
L 245.645455 245.447142 
L 246.326636 238.575798 
L 247.007818 228.011882 
L 247.689 213.70812 
L 249.732545 162.965535 
L 250.413727 149.510646 
L 251.094909 139.961244 
L 251.776091 135.39648 
L 252.457273 136.45171 
L 255.182 153.764593 
L 255.863182 155.029128 
L 256.544364 153.925883 
L 257.225545 150.891549 
L 257.906727 144.295705 
L 258.587909 132.723523 
L 259.950273 100.680727 
L 260.631455 84.035037 
L 261.312636 70.277065 
L 262.675 51.498022 
L 264.718545 26.969752 
L 265.399727 20.174533 
L 266.080909 17.569282 
L 266.762091 20.78293 
L 267.443273 29.406513 
L 269.486818 64.827655 
L 270.168 72.367829 
L 270.849182 76.123923 
L 271.530364 78.200989 
L 272.211545 80.890237 
L 272.892727 85.93302 
L 273.573909 94.886738 
L 274.255091 108.232236 
L 276.979818 172.766094 
L 277.661 181.907792 
L 278.342182 185.482887 
L 279.023364 184.984614 
L 279.704545 181.699385 
L 281.066909 169.086007 
L 281.748091 164.916506 
L 282.429273 163.679819 
L 283.110455 165.455295 
L 283.791636 171.474281 
L 284.472818 180.940325 
L 285.154 192.147967 
L 286.516364 220.569505 
L 287.878727 252.807334 
L 288.559909 266.559574 
L 289.241091 276.542805 
L 289.922273 283.187411 
L 290.603455 287.320231 
L 292.647 295.699256 
L 293.328182 295.102963 
L 294.009364 289.441643 
L 294.690545 279.349354 
L 296.734091 240.756923 
L 297.415273 233.809469 
L 298.096455 230.574596 
L 298.777636 228.24495 
L 299.458818 224.710978 
L 300.14 218.078513 
L 300.821182 206.818714 
L 302.183545 173.551468 
L 302.864727 156.558363 
L 303.545909 142.502557 
L 304.227091 133.038332 
L 304.908273 128.928973 
L 305.589455 129.664671 
L 306.270636 134.304038 
L 307.633 147.367243 
L 308.314182 151.464361 
L 308.995364 153.236367 
L 309.676545 151.175018 
L 310.357727 144.235237 
L 311.038909 134.123908 
L 311.720091 121.60827 
L 315.126 48.262082 
L 315.807182 37.924049 
L 316.488364 30.065645 
L 317.169545 25.198579 
L 317.850727 23.801405 
L 318.531909 25.058934 
L 319.213091 27.512364 
L 319.894273 30.529777 
L 320.575455 34.803152 
L 321.256636 41.533066 
L 321.937818 51.28816 
L 323.981364 90.040315 
L 324.662545 97.78115 
L 325.343727 101.654653 
L 326.024909 104.166701 
L 326.706091 107.760695 
L 327.387273 115.344148 
L 328.068455 128.652734 
L 330.112 178.078012 
L 330.793182 189.069478 
L 331.474364 193.569938 
L 332.155545 192.198353 
L 332.836727 187.246976 
L 334.199091 172.830233 
L 334.880273 167.787247 
L 335.561455 166.831222 
L 336.242636 169.809404 
L 336.923818 176.752918 
L 337.605 187.867874 
L 338.967364 217.491366 
L 341.010909 263.418263 
L 341.692091 275.515094 
L 342.373273 284.496399 
L 343.054455 291.117618 
L 343.735636 295.409543 
L 344.416818 296.040531 
L 345.098 293.935084 
L 345.779182 290.723186 
L 346.460364 285.426389 
L 347.822727 269.930192 
L 348.503909 261.401678 
L 349.866273 240.217325 
L 351.228636 217.379762 
L 351.909818 208.62411 
L 352.591 202.467564 
L 353.953364 193.875886 
L 354.634545 186.701059 
L 355.315727 174.248006 
L 356.678091 140.732777 
L 357.359273 127.529822 
L 358.040455 120.456998 
L 358.721636 120.582906 
L 359.402818 126.736015 
L 360.765182 143.519898 
L 361.446364 149.030468 
L 362.127545 150.34574 
L 362.808727 146.641965 
L 363.489909 138.666331 
L 364.171091 126.78872 
L 366.214636 78.876496 
L 367.577 49.128314 
L 368.258182 38.120202 
L 368.939364 29.709548 
L 369.620545 23.984082 
L 370.301727 21.682624 
L 370.982909 22.184568 
L 371.664091 24.597899 
L 372.345273 29.435539 
L 373.707636 43.994503 
L 375.07 62.657601 
L 378.475909 113.262078 
L 379.838273 128.750954 
L 381.200636 141.380214 
L 381.881818 149.438025 
L 382.563 160.50884 
L 384.606545 197.703253 
L 385.287727 202.386976 
L 385.968909 199.009764 
L 386.650091 190.281595 
L 388.012455 170.453553 
L 388.693636 167.527219 
L 389.374818 172.188243 
L 390.056 182.299969 
L 390.737182 195.97449 
L 394.143091 274.733596 
L 394.824273 285.74071 
L 395.505455 292.674273 
L 396.186636 296.355251 
L 396.867818 297.829268 
L 397.549 296.634048 
L 398.230182 292.279221 
L 399.592545 279.16269 
L 400.273727 270.649384 
L 405.042 200.594678 
L 406.404364 184.165755 
L 409.129091 153.408414 
L 411.172636 124.754994 
L 411.853818 118.452089 
L 412.535 117.35063 
L 413.216182 121.529171 
L 413.897364 129.934205 
L 414.578545 139.951636 
L 415.259727 146.738123 
L 415.940909 146.549392 
L 416.622091 138.257977 
L 417.303273 122.345591 
L 419.346818 63.990504 
L 420.028 49.636265 
L 420.709182 38.606705 
L 421.390364 29.997527 
L 422.071545 23.342854 
L 422.752727 19.472621 
L 423.433909 19.17176 
L 424.115091 22.214027 
L 424.796273 27.82626 
L 426.158636 43.733369 
L 427.521 62.220466 
L 430.926909 113.582022 
L 432.970455 139.547848 
L 432.970455 139.547848 
" clip-path="url(#p974eef0b94)" style="fill: none; stroke: #000000; stroke-width: 1.5; stroke-linecap: square"/>
   </g>
   <g id="line2d_15">
    <path d="M 92.379545 159.2 
L 96.466636 159.165068 
L 97.147818 159.043467 
L 97.829 158.627795 
L 98.510182 157.458877 
L 99.191364 154.717731 
L 99.872545 149.297727 
L 100.553727 140.171731 
L 101.234909 126.961978 
L 103.959636 60.22997 
L 104.640818 49.921232 
L 105.322 43.871556 
L 106.003182 41.098534 
L 106.684364 40.263696 
L 107.365545 40.269611 
L 109.409091 40.901601 
L 110.090273 41.571395 
L 110.771455 42.916936 
L 111.452636 45.267902 
L 112.133818 49.122442 
L 112.815 55.031671 
L 113.496182 63.380404 
L 114.177364 74.25138 
L 115.539727 101.729857 
L 116.902091 129.692243 
L 117.583273 140.833103 
L 118.264455 149.111945 
L 118.945636 154.52149 
L 119.626818 157.558334 
L 120.308 158.988129 
L 120.989182 159.593939 
L 121.670364 160.00218 
L 122.351545 160.636024 
L 123.032727 161.778263 
L 123.713909 163.671017 
L 124.395091 166.585974 
L 125.076273 170.83312 
L 125.757455 176.708951 
L 126.438636 184.410258 
L 127.119818 193.945384 
L 128.482182 217.273689 
L 129.844545 241.88048 
L 130.525727 252.64451 
L 131.206909 261.513543 
L 131.888091 268.186696 
L 132.569273 272.686834 
L 133.250455 275.293793 
L 133.931636 276.417038 
L 134.612818 276.454625 
L 135.294 275.683216 
L 135.975182 274.206015 
L 136.656364 271.961171 
L 137.337545 268.773279 
L 138.018727 264.423524 
L 138.699909 258.719328 
L 139.381091 251.554002 
L 140.743455 233.102142 
L 144.149364 181.044579 
L 144.830545 173.62348 
L 145.511727 167.847799 
L 146.192909 163.589039 
L 146.874091 160.538456 
L 148.236455 156.337283 
L 148.917636 154.288267 
L 149.598818 151.749944 
L 150.28 148.421033 
L 150.961182 144.079085 
L 151.642364 138.580816 
L 152.323545 131.868128 
L 153.685909 115.068214 
L 157.091818 67.215097 
L 157.773 59.899791 
L 158.454182 54.070614 
L 159.135364 49.812899 
L 159.816545 47.095189 
L 160.497727 45.80565 
L 161.178909 45.799021 
L 161.860091 46.941261 
L 162.541273 49.140569 
L 163.222455 52.358094 
L 163.903636 56.597748 
L 164.584818 61.880063 
L 165.947182 75.536809 
L 167.309545 92.638604 
L 170.034273 128.998107 
L 171.396636 143.452469 
L 172.077818 149.159172 
L 173.440182 157.907774 
L 176.164909 171.831917 
L 176.846091 176.21656 
L 177.527273 181.372131 
L 178.889636 194.222893 
L 180.252 210.013188 
L 182.976727 243.485949 
L 184.339091 256.613422 
L 185.020273 261.461277 
L 185.701455 265.012329 
L 186.382636 267.23347 
L 187.063818 268.143129 
L 187.745 267.793843 
L 188.426182 266.254621 
L 189.107364 263.597313 
L 189.788545 259.889828 
L 190.469727 255.197087 
L 191.832091 243.149137 
L 193.194455 228.258436 
L 196.600364 187.935537 
L 197.962727 174.581978 
L 199.325091 163.80905 
L 201.368636 150.631308 
L 202.731 141.643053 
L 204.093364 130.929543 
L 205.455727 117.989301 
L 210.224 68.432946 
L 210.905182 63.464936 
L 211.586364 59.553538 
L 212.267545 56.786995 
L 212.948727 55.210658 
L 213.629909 54.831642 
L 214.311091 55.625791 
L 214.992273 57.545229 
L 215.673455 60.524872 
L 216.354636 64.486737 
L 217.717 74.988689 
L 219.079364 88.186874 
L 224.528818 145.248187 
L 225.891182 156.320444 
L 229.978273 186.842727 
L 231.340636 198.913546 
L 236.108909 244.258142 
L 236.790091 249.14902 
L 237.471273 253.177668 
L 238.152455 256.238975 
L 238.833636 258.259983 
L 239.514818 259.200417 
L 240.196 259.051086 
L 240.877182 257.830811 
L 241.558364 255.582636 
L 242.239545 252.37 
L 242.920727 248.273368 
L 244.283091 237.819416 
L 245.645455 225.113123 
L 251.094909 171.019385 
L 253.138455 154.298109 
L 256.544364 127.12441 
L 259.269091 102.546134 
L 261.312636 84.421429 
L 262.675 74.362047 
L 263.356182 70.338734 
L 264.037364 67.132715 
L 264.718545 64.826203 
L 265.399727 63.475783 
L 266.080909 63.1114 
L 266.762091 63.736823 
L 267.443273 65.331238 
L 268.124455 67.851633 
L 268.805636 71.235619 
L 269.486818 75.40444 
L 270.849182 85.718144 
L 272.211545 97.953022 
L 277.661 149.976332 
L 280.385727 172.657797 
L 283.791636 201.053517 
L 287.197545 229.875774 
L 288.559909 239.490935 
L 289.241091 243.452612 
L 289.922273 246.717063 
L 290.603455 249.202632 
L 291.284636 250.846722 
L 291.965818 251.608036 
L 292.647 251.467586 
L 293.328182 250.428581 
L 294.009364 248.51536 
L 294.690545 245.771556 
L 295.371727 242.257701 
L 296.734091 233.229432 
L 298.096455 222.140519 
L 300.821182 196.859275 
L 304.227091 165.532212 
L 307.633 136.790887 
L 313.082455 92.237511 
L 314.444818 83.008681 
L 315.807182 75.847909 
L 316.488364 73.25027 
L 317.169545 71.395514 
L 317.850727 70.329742 
L 318.531909 70.081006 
L 319.213091 70.6585 
L 319.894273 72.052661 
L 320.575455 74.23607 
L 321.256636 77.165051 
L 321.937818 80.781817 
L 323.300182 89.792724 
L 324.662545 100.628488 
L 327.387273 125.110992 
L 331.474364 161.848448 
L 335.561455 196.138216 
L 338.286182 217.7554 
L 339.648545 227.365446 
L 341.010909 235.44152 
L 341.692091 238.715054 
L 342.373273 241.386016 
L 343.054455 243.395665 
L 343.735636 244.697349 
L 344.416818 245.258535 
L 345.098 245.06212 
L 345.779182 244.106964 
L 346.460364 242.407698 
L 347.141545 239.993855 
L 347.822727 236.908405 
L 349.185091 228.949732 
L 350.547455 219.062026 
L 352.591 201.905858 
L 360.084 136.111717 
L 363.489909 108.816847 
L 365.533455 94.435911 
L 366.895818 86.521239 
L 368.258182 80.530492 
L 368.939364 78.401299 
L 369.620545 76.912127 
L 370.301727 76.096872 
L 370.982909 75.977108 
L 371.664091 76.56118 
L 372.345273 77.843926 
L 373.026455 79.806981 
L 373.707636 82.419643 
L 374.388818 85.640229 
L 375.751182 93.694284 
L 377.113545 103.488936 
L 379.157091 120.307185 
L 387.331273 190.768877 
L 389.374818 206.634318 
L 391.418364 220.720658 
L 392.780727 228.521922 
L 394.143091 234.556285 
L 394.824273 236.783899 
L 395.505455 238.427583 
L 396.186636 239.453993 
L 396.867818 239.839502 
L 397.549 239.571259 
L 398.230182 238.647765 
L 398.911364 237.078952 
L 399.592545 234.885769 
L 400.273727 232.099339 
L 401.636091 224.914314 
L 402.998455 215.922039 
L 405.042 200.045988 
L 408.447909 170.719762 
L 412.535 135.92337 
L 415.259727 114.698624 
L 417.303273 100.810116 
L 418.665636 93.079054 
L 420.028 86.993812 
L 420.709182 84.679653 
L 421.390364 82.90335 
L 422.071545 81.696662 
L 422.752727 81.08371 
L 423.433909 81.079903 
L 424.115091 81.691219 
L 424.796273 82.913884 
L 425.477455 84.734457 
L 426.158636 87.130293 
L 426.839818 90.070375 
L 428.202182 97.424291 
L 429.564545 106.428536 
L 431.608091 122.128194 
L 432.970455 133.477223 
L 432.970455 133.477223 
" clip-path="url(#p974eef0b94)" style="fill: none; stroke-dasharray: 5.55,2.4; stroke-dashoffset: 0; stroke: #0000ff; stroke-width: 1.5"/>
   </g>
   <g id="patch_3">
    <path d="M 75.35 303.64 
L 75.35 14.76 
" style="fill: none; stroke: #000000; stroke-width: 0.8; stroke-linejoin: miter; stroke-linecap: square"/>
   </g>
   <g id="patch_4">
    <path d="M 450 303.64 
L 450 14.76 
" style="fill: none; stroke: #000000; stroke-width: 0.8; stroke-linejoin: miter; stroke-linecap: square"/>
   </g>
   <g id="patch_5">
    <path d="M 75.35 303.64 
L 450 303.64 
" style="fill: none; stroke: #000000; stroke-width: 0.8; stroke-linejoin: miter; stroke-linecap: square"/>
   </g>
   <g id="patch_6">
    <path d="M 75.35 14.76 
L 450 14.76 
" style="fill: none; stroke: #000000; stroke-width: 0.8; stroke-linejoin: miter; stroke-linecap: square"/>
   </g>
   <g id="legend_1">
    <g id="patch_7">
     <path d="M 223.455469 52.11625 
L 301.894531 52.11625 
Q 303.894531 52.11625 303.894531 50.11625 
L 303.894531 21.76 
Q 303.894531 19.76 301.894531 19.76 
L 223.455469 19.76 
Q 221.455469 19.76 221.455469 21.76 
L 221.455469 50.11625 
Q 221.455469 52.11625 223.455469 52.11625 
z
" style="fill: #ffffff; opacity: 0.8; stroke: #cccccc; stroke-linejoin: miter"/>
    </g>
    <g id="line2d_16">
     <path d="M 225.455469 27.858437 
L 235.455469 27.858437 
L 245.455469 27.858437 
" style="fill: none; stroke: #000000; stroke-width: 1.5; stroke-linecap: square"/>
    </g>
    <g id="text_16">
     <!-- newmark -->
     <g transform="translate(253.455469 31.358437) scale(0.1 -0.1)">
      <defs>
       <path id="DejaVuSans-77" d="M 269 3500 
L 844 3500 
L 1563 769 
L 2278 3500 
L 2956 3500 
L 3675 769 
L 4391 3500 
L 4966 3500 
L 4050 0 
L 3372 0 
L 2619 2869 
L 1863 0 
L 1184 0 
L 269 3500 
z
" transform="scale(0.015625)"/>
       <path id="DejaVuSans-72" d="M 2631 2963 
Q 2534 3019 2420 3045 
Q 2306 3072 2169 3072 
Q 1681 3072 1420 2755 
Q 1159 2438 1159 1844 
L 1159 0 
L 581 0 
L 581 3500 
L 1159 3500 
L 1159 2956 
Q 1341 3275 1631 3429 
Q 1922 3584 2338 3584 
Q 2397 3584 2469 3576 
Q 2541 3569 2628 3553 
L 2631 2963 
z
" transform="scale(0.015625)"/>
       <path id="DejaVuSans-6b" d="M 581 4863 
L 1159 4863 
L 1159 1991 
L 2875 3500 
L 3609 3500 
L 1753 1863 
L 3688 0 
L 2938 0 
L 1159 1709 
L 1159 0 
L 581 0 
L 581 4863 
z
" transform="scale(0.015625)"/>
      </defs>
      <use xlink:href="#DejaVuSans-6e"/>
      <use xlink:href="#DejaVuSans-65" x="63.378906"/>
      <use xlink:href="#DejaVuSans-77" x="124.902344"/>
      <use xlink:href="#DejaVuSans-6d" x="206.689453"/>
      <use xlink:href="#DejaVuSans-61" x="304.101562"/>
      <use xlink:href="#DejaVuSans-72" x="365.380859"/>
      <use xlink:href="#DejaVuSans-6b" x="406.494141"/>
     </g>
    </g>
    <g id="line2d_17">
     <path d="M 225.455469 42.536563 
L 235.455469 42.536563 
L 245.455469 42.536563 
" style="fill: none; stroke-dasharray: 5.55,2.4; stroke-dashoffset: 0; stroke: #0000ff; stroke-width: 1.5"/>
    </g>
    <g id="text_17">
     <!-- hht -->
     <g transform="translate(253.455469 46.036563) scale(0.1 -0.1)">
      <defs>
       <path id="DejaVuSans-68" d="M 3513 2113 
L 3513 0 
L 2938 0 
L 2938 2094 
Q 2938 2591 2744 2837 
Q 2550 3084 2163 3084 
Q 1697 3084 1428 2787 
Q 1159 2491 1159 1978 
L 1159 0 
L 581 0 
L 581 4863 
L 1159 4863 
L 1159 2956 
Q 1366 3272 1645 3428 
Q 1925 3584 2291 3584 
Q 2894 3584 3203 3211 
Q 3513 2838 3513 2113 
z
" transform="scale(0.015625)"/>
      </defs>
      <use xlink:href="#DejaVuSans-68"/>
      <use xlink:href="#DejaVuSans-68" x="63.378906"/>
      <use xlink:href="#DejaVuSans-74" x="126.757812"/>
     </g>
    </g>
   </g>
  </g>
 </g>
 <defs>
  <clipPath id="p974eef0b94">
   <rect x="75.35" y="14.76" width="374.65" height="288.88"/>
  </clipPath>
 </defs>
</svg>
