<?xml version="1.0" encoding="utf-8" standalone="no"?>
<!DOCTYPE svg PUBLIC "-//W3C//DTD SVG 1.1//EN"
  "http://www.w3.org/Graphics/SVG/1.1/DTD/svg11.dtd">
<svg xmlns:xlink="http://www.w3.org/1999/xlink" width="460.8pt" height="345.6pt" viewBox="0 0 460.8 345.6" xmlns="http://www.w3.org/2000/svg" version="1.1">
 <metadata>
  <rdf:RDF xmlns:dc="http://purl.org/dc/elements/1.1/" xmlns:cc="http://creativecommons.org/ns#" xmlns:rdf="http://www.w3.org/1999/02/22-rdf-syntax-ns#">
   <cc:Work>
    <dc:type rdf:resource="http://purl.org/dc/dcmitype/StillImage"/>
    <dc:date>2024-03-05T07:52:25.307769</dc:date>
    <dc:format>image/svg+xml</dc:format>
    <dc:creator>
     <cc:Agent>
      <dc:title>Matplotlib v3.8.3, https://matplotlib.org/</dc:title>
     </cc:Agent>
    </dc:creator>
   </cc:Work>
  </rdf:RDF>
 </metadata>
 <defs>
  <style type="text/css">*{stroke-linejoin: round; stroke-linecap: butt}</style>
 </defs>
 <g id="figure_1">
  <g id="patch_1">
   <path d="M 0 345.6 
L 460.8 345.6 
L 460.8 0 
L 0 0 
z
" style="fill: #ffffff"/>
  </g>
  <g id="axes_1">
   <g id="patch_2">
    <path d="M 75.35 303.64 
L 450 303.64 
L 450 14.76 
L 75.35 14.76 
z
" style="fill: #ffffff"/>
   </g>
   <g id="matplotlib.axis_1">
    <g id="xtick_1">
     <g id="line2d_1">
      <defs>
       <path id="m2bcee3c194" d="M 0 0 
L 0 3.5 
" style="stroke: #000000; stroke-width: 0.8"/>
      </defs>
      <g>
       <use xlink:href="#m2bcee3c194" x="92.379545" y="303.64" style="stroke: #000000; stroke-width: 0.8"/>
      </g>
     </g>
     <g id="text_1">
      <!-- 0 -->
      <g transform="translate(89.198295 318.238437) scale(0.1 -0.1)">
       <defs>
        <path id="DejaVuSans-30" d="M 2034 4250 
Q 1547 4250 1301 3770 
Q 1056 3291 1056 2328 
Q 1056 1369 1301 889 
Q 1547 409 2034 409 
Q 2525 409 2770 889 
Q 3016 1369 3016 2328 
Q 3016 3291 2770 3770 
Q 2525 4250 2034 4250 
z
M 2034 4750 
Q 2819 4750 3233 4129 
Q 3647 3509 3647 2328 
Q 3647 1150 3233 529 
Q 2819 -91 2034 -91 
Q 1250 -91 836 529 
Q 422 1150 422 2328 
Q 422 3509 836 4129 
Q 1250 4750 2034 4750 
z
" transform="scale(0.015625)"/>
       </defs>
       <use xlink:href="#DejaVuSans-30"/>
      </g>
     </g>
    </g>
    <g id="xtick_2">
     <g id="line2d_2">
      <g>
       <use xlink:href="#m2bcee3c194" x="160.497727" y="303.64" style="stroke: #000000; stroke-width: 0.8"/>
      </g>
     </g>
     <g id="text_2">
      <!-- 1 -->
      <g transform="translate(157.316477 318.238437) scale(0.1 -0.1)">
       <defs>
        <path id="DejaVuSans-31" d="M 794 531 
L 1825 531 
L 1825 4091 
L 703 3866 
L 703 4441 
L 1819 4666 
L 2450 4666 
L 2450 531 
L 3481 531 
L 3481 0 
L 794 0 
L 794 531 
z
" transform="scale(0.015625)"/>
       </defs>
       <use xlink:href="#DejaVuSans-31"/>
      </g>
     </g>
    </g>
    <g id="xtick_3">
     <g id="line2d_3">
      <g>
       <use xlink:href="#m2bcee3c194" x="228.615909" y="303.64" style="stroke: #000000; stroke-width: 0.8"/>
      </g>
     </g>
     <g id="text_3">
      <!-- 2 -->
      <g transform="translate(225.434659 318.238437) scale(0.1 -0.1)">
       <defs>
        <path id="DejaVuSans-32" d="M 1228 531 
L 3431 531 
L 3431 0 
L 469 0 
L 469 531 
Q 828 903 1448 1529 
Q 2069 2156 2228 2338 
Q 2531 2678 2651 2914 
Q 2772 3150 2772 3378 
Q 2772 3750 2511 3984 
Q 2250 4219 1831 4219 
Q 1534 4219 1204 4116 
Q 875 4013 500 3803 
L 500 4441 
Q 881 4594 1212 4672 
Q 1544 4750 1819 4750 
Q 2544 4750 2975 4387 
Q 3406 4025 3406 3419 
Q 3406 3131 3298 2873 
Q 3191 2616 2906 2266 
Q 2828 2175 2409 1742 
Q 1991 1309 1228 531 
z
" transform="scale(0.015625)"/>
       </defs>
       <use xlink:href="#DejaVuSans-32"/>
      </g>
     </g>
    </g>
    <g id="xtick_4">
     <g id="line2d_4">
      <g>
       <use xlink:href="#m2bcee3c194" x="296.734091" y="303.64" style="stroke: #000000; stroke-width: 0.8"/>
      </g>
     </g>
     <g id="text_4">
      <!-- 3 -->
      <g transform="translate(293.552841 318.238437) scale(0.1 -0.1)">
       <defs>
        <path id="DejaVuSans-33" d="M 2597 2516 
Q 3050 2419 3304 2112 
Q 3559 1806 3559 1356 
Q 3559 666 3084 287 
Q 2609 -91 1734 -91 
Q 1441 -91 1130 -33 
Q 819 25 488 141 
L 488 750 
Q 750 597 1062 519 
Q 1375 441 1716 441 
Q 2309 441 2620 675 
Q 2931 909 2931 1356 
Q 2931 1769 2642 2001 
Q 2353 2234 1838 2234 
L 1294 2234 
L 1294 2753 
L 1863 2753 
Q 2328 2753 2575 2939 
Q 2822 3125 2822 3475 
Q 2822 3834 2567 4026 
Q 2313 4219 1838 4219 
Q 1578 4219 1281 4162 
Q 984 4106 628 3988 
L 628 4550 
Q 988 4650 1302 4700 
Q 1616 4750 1894 4750 
Q 2613 4750 3031 4423 
Q 3450 4097 3450 3541 
Q 3450 3153 3228 2886 
Q 3006 2619 2597 2516 
z
" transform="scale(0.015625)"/>
       </defs>
       <use xlink:href="#DejaVuSans-33"/>
      </g>
     </g>
    </g>
    <g id="xtick_5">
     <g id="line2d_5">
      <g>
       <use xlink:href="#m2bcee3c194" x="364.852273" y="303.64" style="stroke: #000000; stroke-width: 0.8"/>
      </g>
     </g>
     <g id="text_5">
      <!-- 4 -->
      <g transform="translate(361.671023 318.238437) scale(0.1 -0.1)">
       <defs>
        <path id="DejaVuSans-34" d="M 2419 4116 
L 825 1625 
L 2419 1625 
L 2419 4116 
z
M 2253 4666 
L 3047 4666 
L 3047 1625 
L 3713 1625 
L 3713 1100 
L 3047 1100 
L 3047 0 
L 2419 0 
L 2419 1100 
L 313 1100 
L 313 1709 
L 2253 4666 
z
" transform="scale(0.015625)"/>
       </defs>
       <use xlink:href="#DejaVuSans-34"/>
      </g>
     </g>
    </g>
    <g id="xtick_6">
     <g id="line2d_6">
      <g>
       <use xlink:href="#m2bcee3c194" x="432.970455" y="303.64" style="stroke: #000000; stroke-width: 0.8"/>
      </g>
     </g>
     <g id="text_6">
      <!-- 5 -->
      <g transform="translate(429.789205 318.238437) scale(0.1 -0.1)">
       <defs>
        <path id="DejaVuSans-35" d="M 691 4666 
L 3169 4666 
L 3169 4134 
L 1269 4134 
L 1269 2991 
Q 1406 3038 1543 3061 
Q 1681 3084 1819 3084 
Q 2600 3084 3056 2656 
Q 3513 2228 3513 1497 
Q 3513 744 3044 326 
Q 2575 -91 1722 -91 
Q 1428 -91 1123 -41 
Q 819 9 494 109 
L 494 744 
Q 775 591 1075 516 
Q 1375 441 1709 441 
Q 2250 441 2565 725 
Q 2881 1009 2881 1497 
Q 2881 1984 2565 2268 
Q 2250 2553 1709 2553 
Q 1456 2553 1204 2497 
Q 953 2441 691 2322 
L 691 4666 
z
" transform="scale(0.015625)"/>
       </defs>
       <use xlink:href="#DejaVuSans-35"/>
      </g>
     </g>
    </g>
    <g id="text_7">
     <!-- time (s) -->
     <g transform="translate(243.283594 331.916562) scale(0.1 -0.1)">
      <defs>
       <path id="DejaVuSans-74" d="M 1172 4494 
L 1172 3500 
L 2356 3500 
L 2356 3053 
L 1172 3053 
L 1172 1153 
Q 1172 725 1289 603 
Q 1406 481 1766 481 
L 2356 481 
L 2356 0 
L 1766 0 
Q 1100 0 847 248 
Q 594 497 594 1153 
L 594 3053 
L 172 3053 
L 172 3500 
L 594 3500 
L 594 4494 
L 1172 4494 
z
" transform="scale(0.015625)"/>
       <path id="DejaVuSans-69" d="M 603 3500 
L 1178 3500 
L 1178 0 
L 603 0 
L 603 3500 
z
M 603 4863 
L 1178 4863 
L 1178 4134 
L 603 4134 
L 603 4863 
z
" transform="scale(0.015625)"/>
       <path id="DejaVuSans-6d" d="M 3328 2828 
Q 3544 3216 3844 3400 
Q 4144 3584 4550 3584 
Q 5097 3584 5394 3201 
Q 5691 2819 5691 2113 
L 5691 0 
L 5113 0 
L 5113 2094 
Q 5113 2597 4934 2840 
Q 4756 3084 4391 3084 
Q 3944 3084 3684 2787 
Q 3425 2491 3425 1978 
L 3425 0 
L 2847 0 
L 2847 2094 
Q 2847 2600 2669 2842 
Q 2491 3084 2119 3084 
Q 1678 3084 1418 2786 
Q 1159 2488 1159 1978 
L 1159 0 
L 581 0 
L 581 3500 
L 1159 3500 
L 1159 2956 
Q 1356 3278 1631 3431 
Q 1906 3584 2284 3584 
Q 2666 3584 2933 3390 
Q 3200 3197 3328 2828 
z
" transform="scale(0.015625)"/>
       <path id="DejaVuSans-65" d="M 3597 1894 
L 3597 1613 
L 953 1613 
Q 991 1019 1311 708 
Q 1631 397 2203 397 
Q 2534 397 2845 478 
Q 3156 559 3463 722 
L 3463 178 
Q 3153 47 2828 -22 
Q 2503 -91 2169 -91 
Q 1331 -91 842 396 
Q 353 884 353 1716 
Q 353 2575 817 3079 
Q 1281 3584 2069 3584 
Q 2775 3584 3186 3129 
Q 3597 2675 3597 1894 
z
M 3022 2063 
Q 3016 2534 2758 2815 
Q 2500 3097 2075 3097 
Q 1594 3097 1305 2825 
Q 1016 2553 972 2059 
L 3022 2063 
z
" transform="scale(0.015625)"/>
       <path id="DejaVuSans-20" transform="scale(0.015625)"/>
       <path id="DejaVuSans-28" d="M 1984 4856 
Q 1566 4138 1362 3434 
Q 1159 2731 1159 2009 
Q 1159 1288 1364 580 
Q 1569 -128 1984 -844 
L 1484 -844 
Q 1016 -109 783 600 
Q 550 1309 550 2009 
Q 550 2706 781 3412 
Q 1013 4119 1484 4856 
L 1984 4856 
z
" transform="scale(0.015625)"/>
       <path id="DejaVuSans-73" d="M 2834 3397 
L 2834 2853 
Q 2591 2978 2328 3040 
Q 2066 3103 1784 3103 
Q 1356 3103 1142 2972 
Q 928 2841 928 2578 
Q 928 2378 1081 2264 
Q 1234 2150 1697 2047 
L 1894 2003 
Q 2506 1872 2764 1633 
Q 3022 1394 3022 966 
Q 3022 478 2636 193 
Q 2250 -91 1575 -91 
Q 1294 -91 989 -36 
Q 684 19 347 128 
L 347 722 
Q 666 556 975 473 
Q 1284 391 1588 391 
Q 1994 391 2212 530 
Q 2431 669 2431 922 
Q 2431 1156 2273 1281 
Q 2116 1406 1581 1522 
L 1381 1569 
Q 847 1681 609 1914 
Q 372 2147 372 2553 
Q 372 3047 722 3315 
Q 1072 3584 1716 3584 
Q 2034 3584 2315 3537 
Q 2597 3491 2834 3397 
z
" transform="scale(0.015625)"/>
       <path id="DejaVuSans-29" d="M 513 4856 
L 1013 4856 
Q 1481 4119 1714 3412 
Q 1947 2706 1947 2009 
Q 1947 1309 1714 600 
Q 1481 -109 1013 -844 
L 513 -844 
Q 928 -128 1133 580 
Q 1338 1288 1338 2009 
Q 1338 2731 1133 3434 
Q 928 4138 513 4856 
z
" transform="scale(0.015625)"/>
      </defs>
      <use xlink:href="#DejaVuSans-74"/>
      <use xlink:href="#DejaVuSans-69" x="39.208984"/>
      <use xlink:href="#DejaVuSans-6d" x="66.992188"/>
      <use xlink:href="#DejaVuSans-65" x="164.404297"/>
      <use xlink:href="#DejaVuSans-20" x="225.927734"/>
      <use xlink:href="#DejaVuSans-28" x="257.714844"/>
      <use xlink:href="#DejaVuSans-73" x="296.728516"/>
      <use xlink:href="#DejaVuSans-29" x="348.828125"/>
     </g>
    </g>
   </g>
   <g id="matplotlib.axis_2">
    <g id="ytick_1">
     <g id="line2d_7">
      <defs>
       <path id="meb1e2f6b78" d="M 0 0 
L -3.5 0 
" style="stroke: #000000; stroke-width: 0.8"/>
      </defs>
      <g>
       <use xlink:href="#meb1e2f6b78" x="75.35" y="303.64" style="stroke: #000000; stroke-width: 0.8"/>
      </g>
     </g>
     <g id="text_8">
      <!-- −0.0015 -->
      <g transform="translate(24.979688 307.439219) scale(0.1 -0.1)">
       <defs>
        <path id="DejaVuSans-2212" d="M 678 2272 
L 4684 2272 
L 4684 1741 
L 678 1741 
L 678 2272 
z
" transform="scale(0.015625)"/>
        <path id="DejaVuSans-2e" d="M 684 794 
L 1344 794 
L 1344 0 
L 684 0 
L 684 794 
z
" transform="scale(0.015625)"/>
       </defs>
       <use xlink:href="#DejaVuSans-2212"/>
       <use xlink:href="#DejaVuSans-30" x="83.789062"/>
       <use xlink:href="#DejaVuSans-2e" x="147.412109"/>
       <use xlink:href="#DejaVuSans-30" x="179.199219"/>
       <use xlink:href="#DejaVuSans-30" x="242.822266"/>
       <use xlink:href="#DejaVuSans-31" x="306.445312"/>
       <use xlink:href="#DejaVuSans-35" x="370.068359"/>
      </g>
     </g>
    </g>
    <g id="ytick_2">
     <g id="line2d_8">
      <g>
       <use xlink:href="#meb1e2f6b78" x="75.35" y="255.493333" style="stroke: #000000; stroke-width: 0.8"/>
      </g>
     </g>
     <g id="text_9">
      <!-- −0.0010 -->
      <g transform="translate(24.979688 259.292552) scale(0.1 -0.1)">
       <use xlink:href="#DejaVuSans-2212"/>
       <use xlink:href="#DejaVuSans-30" x="83.789062"/>
       <use xlink:href="#DejaVuSans-2e" x="147.412109"/>
       <use xlink:href="#DejaVuSans-30" x="179.199219"/>
       <use xlink:href="#DejaVuSans-30" x="242.822266"/>
       <use xlink:href="#DejaVuSans-31" x="306.445312"/>
       <use xlink:href="#DejaVuSans-30" x="370.068359"/>
      </g>
     </g>
    </g>
    <g id="ytick_3">
     <g id="line2d_9">
      <g>
       <use xlink:href="#meb1e2f6b78" x="75.35" y="207.346667" style="stroke: #000000; stroke-width: 0.8"/>
      </g>
     </g>
     <g id="text_10">
      <!-- −0.0005 -->
      <g transform="translate(24.979688 211.145885) scale(0.1 -0.1)">
       <use xlink:href="#DejaVuSans-2212"/>
       <use xlink:href="#DejaVuSans-30" x="83.789062"/>
       <use xlink:href="#DejaVuSans-2e" x="147.412109"/>
       <use xlink:href="#DejaVuSans-30" x="179.199219"/>
       <use xlink:href="#DejaVuSans-30" x="242.822266"/>
       <use xlink:href="#DejaVuSans-30" x="306.445312"/>
       <use xlink:href="#DejaVuSans-35" x="370.068359"/>
      </g>
     </g>
    </g>
    <g id="ytick_4">
     <g id="line2d_10">
      <g>
       <use xlink:href="#meb1e2f6b78" x="75.35" y="159.2" style="stroke: #000000; stroke-width: 0.8"/>
      </g>
     </g>
     <g id="text_11">
      <!-- 0.0000 -->
      <g transform="translate(33.359375 162.999219) scale(0.1 -0.1)">
       <use xlink:href="#DejaVuSans-30"/>
       <use xlink:href="#DejaVuSans-2e" x="63.623047"/>
       <use xlink:href="#DejaVuSans-30" x="95.410156"/>
       <use xlink:href="#DejaVuSans-30" x="159.033203"/>
       <use xlink:href="#DejaVuSans-30" x="222.65625"/>
       <use xlink:href="#DejaVuSans-30" x="286.279297"/>
      </g>
     </g>
    </g>
    <g id="ytick_5">
     <g id="line2d_11">
      <g>
       <use xlink:href="#meb1e2f6b78" x="75.35" y="111.053333" style="stroke: #000000; stroke-width: 0.8"/>
      </g>
     </g>
     <g id="text_12">
      <!-- 0.0005 -->
      <g transform="translate(33.359375 114.852552) scale(0.1 -0.1)">
       <use xlink:href="#DejaVuSans-30"/>
       <use xlink:href="#DejaVuSans-2e" x="63.623047"/>
       <use xlink:href="#DejaVuSans-30" x="95.410156"/>
       <use xlink:href="#DejaVuSans-30" x="159.033203"/>
       <use xlink:href="#DejaVuSans-30" x="222.65625"/>
       <use xlink:href="#DejaVuSans-35" x="286.279297"/>
      </g>
     </g>
    </g>
    <g id="ytick_6">
     <g id="line2d_12">
      <g>
       <use xlink:href="#meb1e2f6b78" x="75.35" y="62.906667" style="stroke: #000000; stroke-width: 0.8"/>
      </g>
     </g>
     <g id="text_13">
      <!-- 0.0010 -->
      <g transform="translate(33.359375 66.705885) scale(0.1 -0.1)">
       <use xlink:href="#DejaVuSans-30"/>
       <use xlink:href="#DejaVuSans-2e" x="63.623047"/>
       <use xlink:href="#DejaVuSans-30" x="95.410156"/>
       <use xlink:href="#DejaVuSans-30" x="159.033203"/>
       <use xlink:href="#DejaVuSans-31" x="222.65625"/>
       <use xlink:href="#DejaVuSans-30" x="286.279297"/>
      </g>
     </g>
    </g>
    <g id="ytick_7">
     <g id="line2d_13">
      <g>
       <use xlink:href="#meb1e2f6b78" x="75.35" y="14.76" style="stroke: #000000; stroke-width: 0.8"/>
      </g>
     </g>
     <g id="text_14">
      <!-- 0.0015 -->
      <g transform="translate(33.359375 18.559219) scale(0.1 -0.1)">
       <use xlink:href="#DejaVuSans-30"/>
       <use xlink:href="#DejaVuSans-2e" x="63.623047"/>
       <use xlink:href="#DejaVuSans-30" x="95.410156"/>
       <use xlink:href="#DejaVuSans-30" x="159.033203"/>
       <use xlink:href="#DejaVuSans-31" x="222.65625"/>
       <use xlink:href="#DejaVuSans-35" x="286.279297"/>
      </g>
     </g>
    </g>
    <g id="text_15">
     <!-- displacement (mm) -->
     <g transform="translate(18.9 208.128125) rotate(-90) scale(0.1 -0.1)">
      <defs>
       <path id="DejaVuSans-64" d="M 2906 2969 
L 2906 4863 
L 3481 4863 
L 3481 0 
L 2906 0 
L 2906 525 
Q 2725 213 2448 61 
Q 2172 -91 1784 -91 
Q 1150 -91 751 415 
Q 353 922 353 1747 
Q 353 2572 751 3078 
Q 1150 3584 1784 3584 
Q 2172 3584 2448 3432 
Q 2725 3281 2906 2969 
z
M 947 1747 
Q 947 1113 1208 752 
Q 1469 391 1925 391 
Q 2381 391 2643 752 
Q 2906 1113 2906 1747 
Q 2906 2381 2643 2742 
Q 2381 3103 1925 3103 
Q 1469 3103 1208 2742 
Q 947 2381 947 1747 
z
" transform="scale(0.015625)"/>
       <path id="DejaVuSans-70" d="M 1159 525 
L 1159 -1331 
L 581 -1331 
L 581 3500 
L 1159 3500 
L 1159 2969 
Q 1341 3281 1617 3432 
Q 1894 3584 2278 3584 
Q 2916 3584 3314 3078 
Q 3713 2572 3713 1747 
Q 3713 922 3314 415 
Q 2916 -91 2278 -91 
Q 1894 -91 1617 61 
Q 1341 213 1159 525 
z
M 3116 1747 
Q 3116 2381 2855 2742 
Q 2594 3103 2138 3103 
Q 1681 3103 1420 2742 
Q 1159 2381 1159 1747 
Q 1159 1113 1420 752 
Q 1681 391 2138 391 
Q 2594 391 2855 752 
Q 3116 1113 3116 1747 
z
" transform="scale(0.015625)"/>
       <path id="DejaVuSans-6c" d="M 603 4863 
L 1178 4863 
L 1178 0 
L 603 0 
L 603 4863 
z
" transform="scale(0.015625)"/>
       <path id="DejaVuSans-61" d="M 2194 1759 
Q 1497 1759 1228 1600 
Q 959 1441 959 1056 
Q 959 750 1161 570 
Q 1363 391 1709 391 
Q 2188 391 2477 730 
Q 2766 1069 2766 1631 
L 2766 1759 
L 2194 1759 
z
M 3341 1997 
L 3341 0 
L 2766 0 
L 2766 531 
Q 2569 213 2275 61 
Q 1981 -91 1556 -91 
Q 1019 -91 701 211 
Q 384 513 384 1019 
Q 384 1609 779 1909 
Q 1175 2209 1959 2209 
L 2766 2209 
L 2766 2266 
Q 2766 2663 2505 2880 
Q 2244 3097 1772 3097 
Q 1472 3097 1187 3025 
Q 903 2953 641 2809 
L 641 3341 
Q 956 3463 1253 3523 
Q 1550 3584 1831 3584 
Q 2591 3584 2966 3190 
Q 3341 2797 3341 1997 
z
" transform="scale(0.015625)"/>
       <path id="DejaVuSans-63" d="M 3122 3366 
L 3122 2828 
Q 2878 2963 2633 3030 
Q 2388 3097 2138 3097 
Q 1578 3097 1268 2742 
Q 959 2388 959 1747 
Q 959 1106 1268 751 
Q 1578 397 2138 397 
Q 2388 397 2633 464 
Q 2878 531 3122 666 
L 3122 134 
Q 2881 22 2623 -34 
Q 2366 -91 2075 -91 
Q 1284 -91 818 406 
Q 353 903 353 1747 
Q 353 2603 823 3093 
Q 1294 3584 2113 3584 
Q 2378 3584 2631 3529 
Q 2884 3475 3122 3366 
z
" transform="scale(0.015625)"/>
       <path id="DejaVuSans-6e" d="M 3513 2113 
L 3513 0 
L 2938 0 
L 2938 2094 
Q 2938 2591 2744 2837 
Q 2550 3084 2163 3084 
Q 1697 3084 1428 2787 
Q 1159 2491 1159 1978 
L 1159 0 
L 581 0 
L 581 3500 
L 1159 3500 
L 1159 2956 
Q 1366 3272 1645 3428 
Q 1925 3584 2291 3584 
Q 2894 3584 3203 3211 
Q 3513 2838 3513 2113 
z
" transform="scale(0.015625)"/>
      </defs>
      <use xlink:href="#DejaVuSans-64"/>
      <use xlink:href="#DejaVuSans-69" x="63.476562"/>
      <use xlink:href="#DejaVuSans-73" x="91.259766"/>
      <use xlink:href="#DejaVuSans-70" x="143.359375"/>
      <use xlink:href="#DejaVuSans-6c" x="206.835938"/>
      <use xlink:href="#DejaVuSans-61" x="234.619141"/>
      <use xlink:href="#DejaVuSans-63" x="295.898438"/>
      <use xlink:href="#DejaVuSans-65" x="350.878906"/>
      <use xlink:href="#DejaVuSans-6d" x="412.402344"/>
      <use xlink:href="#DejaVuSans-65" x="509.814453"/>
      <use xlink:href="#DejaVuSans-6e" x="571.337891"/>
      <use xlink:href="#DejaVuSans-74" x="634.716797"/>
      <use xlink:href="#DejaVuSans-20" x="673.925781"/>
      <use xlink:href="#DejaVuSans-28" x="705.712891"/>
      <use xlink:href="#DejaVuSans-6d" x="744.726562"/>
      <use xlink:href="#DejaVuSans-6d" x="842.138672"/>
      <use xlink:href="#DejaVuSans-29" x="939.550781"/>
     </g>
    </g>
   </g>
   <g id="line2d_14">
    <path d="M 92.379545 159.2 
L 99.055127 159.135614 
L 99.259482 158.627287 
L 99.531955 157.299661 
L 99.940664 153.875356 
L 100.417491 147.709182 
L 101.030555 136.346018 
L 101.711736 119.179239 
L 102.529155 92.665568 
L 103.346573 69.175491 
L 104.095873 53.659424 
L 104.708936 45.257168 
L 105.185764 41.389015 
L 105.526355 40.115495 
L 105.798827 39.886684 
L 106.411891 39.85499 
L 107.910491 39.855513 
L 111.180164 39.883709 
L 111.520755 39.865868 
L 111.929464 39.68489 
L 112.133818 39.859916 
L 112.338173 40.393192 
L 112.610645 41.713567 
L 113.019355 45.104406 
L 113.496182 51.23061 
L 114.109245 62.522399 
L 114.858545 81.555567 
L 116.833973 138.911888 
L 117.515155 150.455826 
L 118.0601 156.280434 
L 118.400691 158.274646 
L 118.741282 159.006699 
L 119.081873 159.174228 
L 120.103645 159.197608 
L 124.0545 159.215431 
L 124.395091 159.265227 
L 124.735682 159.052007 
L 125.008155 158.963818 
L 125.212509 159.158852 
L 125.484982 159.951339 
L 125.825573 161.942932 
L 126.234282 165.848648 
L 126.779227 173.742988 
L 127.392291 186.380196 
L 128.005355 202.875424 
L 129.708309 253.70892 
L 130.389491 266.718497 
L 131.002555 274.417446 
L 131.411264 277.248054 
L 131.751855 278.191524 
L 132.092445 278.475417 
L 132.841745 278.544219 
L 136.452009 278.54298 
L 136.928836 278.558511 
L 137.405664 278.46546 
L 137.678136 278.652757 
L 138.018727 278.83835 
L 138.2912 278.657565 
L 138.495555 278.086029 
L 138.836145 276.387614 
L 139.176736 273.412912 
L 139.721682 266.396763 
L 140.334745 254.647458 
L 140.947809 239.167536 
L 142.991355 179.758916 
L 143.604418 169.143342 
L 144.149364 162.75459 
L 144.558073 160.320442 
L 144.898664 159.532266 
L 145.239255 159.280802 
L 145.7842 159.20288 
L 150.007527 159.16983 
L 150.348118 159.092654 
L 150.824945 159.399149 
L 151.097418 159.579805 
L 151.369891 159.305361 
L 151.642364 158.569904 
L 151.914836 157.066512 
L 152.391664 152.711144 
L 152.800373 147.100763 
L 153.481555 134.089793 
L 154.0265 119.947583 
L 156.138164 59.183468 
L 156.819345 47.962185 
L 157.296173 42.924528 
L 157.704882 40.834533 
L 158.045473 40.160529 
L 158.454182 39.915298 
L 159.067245 39.85929 
L 161.383264 39.860031 
L 161.791973 39.848366 
L 162.336918 39.870227 
L 162.745627 39.802478 
L 163.358691 40.009351 
L 163.563045 39.905076 
L 164.107991 39.488571 
L 164.380464 39.565818 
L 164.584818 39.948316 
L 164.857291 41.140747 
L 165.266 44.123353 
L 165.674709 48.795282 
L 166.287773 59.147661 
L 166.900836 73.087886 
L 167.718255 98.837978 
L 168.740027 129.016383 
L 169.421209 143.514578 
L 170.102391 153.538382 
L 170.5111 156.942276 
L 170.851691 158.339122 
L 171.192282 158.921522 
L 171.464755 159.091453 
L 172.282173 159.195855 
L 173.372064 159.205324 
L 176.028673 159.23411 
L 176.369264 159.373359 
L 176.914209 158.963358 
L 177.391036 158.75183 
L 177.595391 159.088864 
L 177.867864 160.126586 
L 178.276573 162.74728 
L 178.617164 166.293891 
L 179.162109 174.617635 
L 179.775173 186.981988 
L 180.456355 206.782728 
L 181.818718 248.213986 
L 182.568018 263.941154 
L 183.181082 272.834789 
L 183.589791 276.204698 
L 183.930382 277.59863 
L 184.270973 278.241248 
L 184.679682 278.463129 
L 185.4971 278.544964 
L 186.859464 278.543193 
L 187.200055 278.532873 
L 187.540645 278.580502 
L 187.881236 278.518914 
L 188.358064 278.541771 
L 188.834891 278.603533 
L 189.311718 278.386523 
L 189.856664 278.658627 
L 190.401609 279.098448 
L 190.605964 278.821406 
L 190.946555 277.652688 
L 191.287145 275.657096 
L 191.627736 272.342235 
L 192.172682 264.419027 
L 192.785745 252.553741 
L 193.398809 235.468403 
L 195.033645 186.410829 
L 195.782945 171.589412 
L 196.327891 164.305011 
L 196.7366 161.256804 
L 197.077191 160.042821 
L 197.417782 159.478359 
L 197.826491 159.286411 
L 198.303318 159.19882 
L 198.643909 159.206858 
L 199.256973 159.195496 
L 199.665682 159.193789 
L 199.870036 159.155745 
L 200.4831 159.217954 
L 201.368636 159.23116 
L 201.709227 159.302894 
L 202.254173 159.069648 
L 202.662882 159.105077 
L 202.935355 159.334091 
L 203.344064 159.803758 
L 203.548418 159.682777 
L 203.820891 159.113167 
L 204.161482 157.737432 
L 204.502073 155.250588 
L 204.9789 149.368067 
L 205.660082 137.878187 
L 206.205027 124.504667 
L 208.657282 55.91266 
L 209.270345 46.488051 
L 209.747173 42.368469 
L 210.087764 40.935043 
L 210.496473 40.166522 
L 210.768945 39.994953 
L 211.7226 39.853664 
L 211.995073 39.881112 
L 212.403782 39.827014 
L 212.880609 39.86884 
L 213.629909 39.82387 
L 214.242973 39.849662 
L 214.583564 39.748954 
L 215.196627 39.939168 
L 215.741573 39.979652 
L 216.490873 39.259967 
L 216.695227 39.469307 
L 217.035818 40.311715 
L 217.308291 41.583621 
L 217.648882 44.483631 
L 218.193827 51.532398 
L 218.738773 60.990798 
L 219.283718 74.420492 
L 221.667855 141.756919 
L 222.280918 151.668135 
L 222.757745 156.146544 
L 223.166455 158.052819 
L 223.575164 158.835096 
L 224.120109 159.147114 
L 224.528818 159.186268 
L 224.869409 159.218676 
L 225.550591 159.203123 
L 226.231773 159.170277 
L 226.504245 159.141578 
L 227.049191 159.276816 
L 227.662255 159.137643 
L 228.411555 159.40374 
L 228.615909 159.434098 
L 228.888382 159.190573 
L 229.433327 158.578587 
L 229.637682 158.664432 
L 229.910155 159.030154 
L 230.182627 159.783156 
L 230.4551 161.332932 
L 230.863809 165.350471 
L 231.476873 173.902235 
L 232.021818 184.613436 
L 232.634882 201.950368 
L 234.269718 250.726598 
L 235.019018 265.906708 
L 235.563964 273.198863 
L 235.972673 276.216825 
L 236.381382 277.723642 
L 236.653855 278.120637 
L 237.1988 278.514267 
L 238.629282 278.53221 
L 238.901755 278.495379 
L 239.514818 278.581223 
L 239.923527 278.450171 
L 240.468473 278.595761 
L 241.149655 278.517097 
L 241.626482 278.28748 
L 241.898955 278.51943 
L 242.4439 279.135845 
L 242.716373 279.071466 
L 242.988845 278.822738 
L 243.261318 278.064986 
L 243.533791 276.418588 
L 243.9425 272.45431 
L 244.555564 264.009241 
L 245.100509 253.285361 
L 245.781691 233.794155 
L 247.348409 187.200335 
L 248.165827 170.789493 
L 248.710773 163.983642 
L 249.119482 161.280715 
L 249.528191 159.931228 
L 249.800664 159.559353 
L 250.413727 159.235858 
L 251.231145 159.241061 
L 254.228345 159.128718 
L 254.637055 158.9152 
L 254.841409 159.060098 
L 255.454473 159.730458 
L 255.863182 159.7661 
L 256.067536 159.586165 
L 256.271891 159.051969 
L 256.544364 157.589797 
L 256.953073 153.914868 
L 257.566136 145.928845 
L 258.111082 135.70336 
L 258.724145 118.876676 
L 260.563336 64.873184 
L 261.312636 50.450966 
L 261.789464 44.763744 
L 262.198173 41.984707 
L 262.606882 40.683127 
L 262.947473 40.180064 
L 263.4243 39.932306 
L 265.467845 39.867468 
L 266.285264 39.882039 
L 266.966445 39.731404 
L 267.238918 39.93029 
L 267.579509 40.170545 
L 267.783864 40.077637 
L 268.601282 39.299846 
L 268.941873 39.198476 
L 269.146227 39.380567 
L 269.350582 39.972157 
L 269.691173 41.914015 
L 270.168 46.644896 
L 270.781064 55.082094 
L 271.257891 64.835957 
L 271.939073 84.275888 
L 273.505791 130.813852 
L 274.255091 146.297318 
L 274.800036 153.559928 
L 275.276864 156.990689 
L 275.685573 158.352255 
L 276.026164 158.833137 
L 276.639227 159.183178 
L 276.9117 159.154857 
L 277.184173 159.131737 
L 277.933473 159.162545 
L 278.342182 159.184031 
L 279.432073 159.196336 
L 279.977018 159.043737 
L 280.726318 159.481024 
L 281.952445 158.4626 
L 282.1568 158.560973 
L 282.361155 159.013037 
L 282.633627 160.286506 
L 282.974218 163.032888 
L 283.587282 170.10913 
L 284.064109 177.976485 
L 284.609055 191.193991 
L 285.562709 221.127555 
L 286.516364 248.318789 
L 287.333782 265.521162 
L 287.878727 272.838319 
L 288.287436 275.903978 
L 288.696145 277.459705 
L 289.104855 278.201828 
L 289.377327 278.337478 
L 290.3991 278.481534 
L 290.739691 278.53382 
L 291.284636 278.574509 
L 292.510764 278.566017 
L 292.919473 278.747209 
L 293.191945 278.508598 
L 293.600655 278.234922 
L 293.941245 278.450022 
L 295.167373 279.319291 
L 295.371727 278.997076 
L 295.576082 278.247213 
L 295.916673 275.971952 
L 296.461618 270.38041 
L 296.938445 263.686308 
L 297.415273 253.827424 
L 298.096455 234.454923 
L 299.663173 187.939911 
L 300.412473 172.286752 
L 300.957418 165.019663 
L 301.434245 161.548822 
L 301.774836 160.331815 
L 302.319782 159.431096 
L 302.592255 159.293457 
L 303.069082 159.26704 
L 303.545909 159.163387 
L 304.158973 159.233921 
L 304.840155 159.183278 
L 305.248864 159.097916 
L 305.521336 159.232614 
L 305.861927 159.430372 
L 306.1344 159.234672 
L 306.543109 158.932828 
L 306.815582 158.989435 
L 307.564882 159.550084 
L 308.109827 160.049715 
L 308.314182 160.001294 
L 308.450418 159.736989 
L 308.722891 158.549694 
L 309.063482 156.01546 
L 309.676545 149.52829 
L 310.153373 142.038227 
L 310.698318 129.414349 
L 311.515736 104.25969 
L 312.605627 72.108576 
L 313.423045 54.218553 
L 313.967991 46.445015 
L 314.3767 43.103625 
L 314.853527 40.97076 
L 315.126 40.48866 
L 315.943418 39.87496 
L 318.463791 39.856885 
L 318.804382 39.617462 
L 319.008736 39.697445 
L 319.553682 40.09583 
L 319.962391 40.042317 
L 320.575455 39.588901 
L 321.1204 38.951792 
L 321.324755 38.915324 
L 321.529109 39.280324 
L 321.801582 40.491747 
L 322.210291 43.6302 
L 322.755236 49.375823 
L 323.232064 56.858954 
L 323.777009 69.504382 
L 324.526309 92.459409 
L 325.684318 126.745394 
L 326.501736 144.752868 
L 327.046682 152.482398 
L 327.455391 155.945292 
L 327.8641 157.715406 
L 328.272809 158.705543 
L 328.681518 158.976616 
L 329.703291 159.218039 
L 330.8613 159.246014 
L 331.201891 159.356515 
L 331.542482 159.106674 
L 331.814955 158.974754 
L 332.087427 159.096407 
L 332.564255 159.392674 
L 333.041082 159.383477 
L 333.790382 158.728288 
L 334.267209 158.156137 
L 334.403445 158.188263 
L 334.6078 158.599658 
L 334.880273 159.843109 
L 335.3571 163.526123 
L 335.833927 168.542863 
L 336.310755 176.048971 
L 336.8557 188.710674 
L 337.673118 213.897183 
L 338.763009 245.92581 
L 339.580427 263.981319 
L 340.125373 271.694226 
L 340.6022 275.628727 
L 340.942791 277.060988 
L 341.419618 278.028371 
L 341.896445 278.44384 
L 343.054455 278.527452 
L 343.803755 278.523333 
L 344.144345 278.356596 
L 344.3487 278.468855 
L 344.689291 278.715555 
L 345.029882 278.709744 
L 345.642945 278.354404 
L 345.983536 278.322932 
L 346.392245 278.494245 
L 346.732836 278.834582 
L 347.414018 279.682126 
L 347.618373 279.362766 
L 347.890845 278.245904 
L 348.299555 275.448708 
L 348.912618 269.355885 
L 349.389445 261.80477 
L 349.934391 249.203492 
L 350.819927 221.806871 
L 351.909818 190.278455 
L 352.659118 173.951008 
L 353.204064 166.058346 
L 353.680891 162.292549 
L 354.0896 160.492708 
L 354.430191 159.811085 
L 354.8389 159.460918 
L 355.315727 159.248378 
L 356.746209 159.212586 
L 357.223036 159.024945 
L 357.699864 159.363613 
L 358.040455 159.351246 
L 358.857873 158.968346 
L 359.3347 159.053578 
L 359.675291 159.306927 
L 360.492709 160.418858 
L 360.560827 160.356133 
L 360.765182 159.792605 
L 361.105773 158.104574 
L 361.5826 154.464684 
L 362.059427 149.252303 
L 362.536255 141.265343 
L 363.0812 128.147835 
L 364.307327 89.965683 
L 365.260982 64.484701 
L 365.874045 52.381022 
L 366.418991 45.469915 
L 366.8277 42.584583 
L 367.304527 40.916181 
L 367.713236 40.231774 
L 368.190064 39.966857 
L 368.598773 39.911378 
L 369.0756 39.900735 
L 369.416191 39.720233 
L 369.8249 39.914325 
L 370.165491 40.042748 
L 371.051027 39.703393 
L 372.209036 40.057792 
L 372.685864 39.878117 
L 373.094573 39.099175 
L 373.435164 38.616635 
L 373.5714 38.621375 
L 373.775755 39.00377 
L 374.116345 40.562262 
L 374.593173 43.86023 
L 375.07 48.800967 
L 375.546827 56.286863 
L 376.091773 68.875108 
L 376.977309 96.260448 
L 378.0672 127.860815 
L 378.884618 145.527635 
L 379.429564 152.772838 
L 379.906391 156.399809 
L 380.3151 157.955467 
L 380.723809 158.691584 
L 380.996282 158.928787 
L 381.745582 159.239255 
L 381.949936 159.270711 
L 382.563 159.084349 
L 383.107945 159.379706 
L 383.448536 159.205076 
L 383.925364 159.012557 
L 384.265955 159.130446 
L 384.742782 159.339195 
L 385.492082 159.396808 
L 385.696436 159.299712 
L 385.968909 158.837328 
L 386.377618 157.991705 
L 386.581973 157.920025 
L 386.786327 158.202849 
L 387.0588 159.174733 
L 387.535627 162.064748 
L 388.012455 166.402642 
L 388.489282 173.013008 
L 389.034227 184.483688 
L 389.715409 204.509808 
L 391.214009 248.749723 
L 391.963309 264.667284 
L 392.508255 272.09101 
L 392.985082 275.634179 
L 393.461909 277.44309 
L 393.8025 277.979579 
L 394.211209 278.407627 
L 395.641691 278.603377 
L 396.0504 278.364697 
L 396.390991 278.475564 
L 396.867818 278.695183 
L 397.276527 278.634912 
L 397.753355 278.42988 
L 398.707009 278.380169 
L 398.979482 278.802046 
L 399.524427 279.892306 
L 399.660664 279.861115 
L 399.865018 279.511752 
L 400.205609 278.252853 
L 400.682436 275.250153 
L 401.159264 270.680909 
L 401.636091 263.717094 
L 402.112918 253.373858 
L 402.7941 233.357979 
L 404.224582 190.925448 
L 405.042 173.102343 
L 405.586945 165.792737 
L 405.995655 162.550391 
L 406.404364 160.759716 
L 406.813073 159.830503 
L 407.494255 159.277528 
L 407.834845 159.14151 
L 408.652264 159.246258 
L 409.129091 159.040135 
L 409.401564 159.116228 
L 409.810273 159.344355 
L 410.2871 159.305464 
L 411.513227 158.837894 
L 411.717582 158.94715 
L 411.990055 159.402478 
L 412.603118 160.570249 
L 412.739355 160.548435 
L 412.943709 160.16073 
L 413.2843 158.916108 
L 413.693009 156.484901 
L 414.169836 152.245115 
L 414.646664 145.675671 
L 415.123491 135.866952 
L 415.804673 116.383275 
L 417.371391 69.931494 
L 418.120691 53.923951 
L 418.597518 47.275824 
L 419.074345 43.263481 
L 419.483055 41.491018 
L 419.959882 40.387139 
L 420.232355 40.094545 
L 420.572945 40.093115 
L 420.845418 40.022311 
L 421.5266 39.737544 
L 422.003427 39.978639 
L 422.412136 39.965453 
L 422.957082 39.688628 
L 424.183209 40.057269 
L 424.728155 40.2091 
L 424.932509 39.91085 
L 425.681809 38.475705 
L 425.818045 38.52082 
L 426.0224 38.88288 
L 426.362991 40.111451 
L 426.7717 42.506573 
L 427.248527 46.667262 
L 427.725355 53.245502 
L 428.202182 62.979664 
L 428.883364 82.585921 
L 430.5182 130.647989 
L 431.199382 145.00243 
L 431.744327 152.432683 
L 432.221155 156.087458 
L 432.629864 157.801957 
L 432.970455 158.405617 
L 432.970455 158.405617 
" clip-path="url(#pc123d6a768)" style="fill: none; stroke: #000000; stroke-width: 1.5; stroke-linecap: square"/>
   </g>
   <g id="line2d_15">
    <path d="M 92.379545 159.2 
L 98.442064 159.104681 
L 98.714536 158.88243 
L 98.987009 158.372989 
L 99.3276 157.094531 
L 99.668191 154.86994 
L 100.0769 150.745841 
L 100.621845 142.623173 
L 101.234909 129.845733 
L 102.052327 107.277359 
L 103.482809 66.833737 
L 104.163991 53.60277 
L 104.777055 45.755621 
L 105.253882 42.23698 
L 105.662591 40.726721 
L 106.003182 40.174043 
L 106.411891 39.938927 
L 107.093073 39.872425 
L 110.5671 39.919542 
L 111.043927 40.091387 
L 111.384518 40.410294 
L 111.725109 41.036202 
L 112.0657 42.13397 
L 112.474409 44.325051 
L 112.951236 48.439443 
L 113.496182 55.584694 
L 114.109245 66.95444 
L 114.926664 86.904582 
L 116.833973 135.397133 
L 117.515155 146.692024 
L 118.0601 152.64998 
L 118.536927 155.88967 
L 119.013755 157.721008 
L 119.422464 158.533266 
L 119.831173 158.928731 
L 120.376118 159.130528 
L 121.397891 159.196919 
L 123.3052 159.309899 
L 123.850145 159.586454 
L 124.258855 160.071197 
L 124.667564 160.978318 
L 125.076273 162.522125 
L 125.484982 164.937861 
L 125.961809 169.154689 
L 126.506755 176.139543 
L 127.187936 188.294009 
L 128.073473 208.770499 
L 129.912664 252.406515 
L 130.661964 264.49113 
L 131.275027 271.033848 
L 131.819973 274.65669 
L 132.2968 276.537032 
L 132.773627 277.589427 
L 133.250455 278.124561 
L 133.7954 278.391787 
L 134.612818 278.504634 
L 135.770827 278.444894 
L 136.383891 278.227259 
L 136.860718 277.811867 
L 137.269427 277.141238 
L 137.678136 276.021325 
L 138.086845 274.272027 
L 138.563673 271.180778 
L 139.108618 265.926229 
L 139.721682 257.502441 
L 140.470982 243.63102 
L 141.628991 217.090642 
L 142.923236 188.583447 
L 143.672536 176.301654 
L 144.353718 168.573555 
L 144.966782 164.146035 
L 145.511727 161.775608 
L 145.988555 160.55848 
L 146.465382 159.869721 
L 147.010327 159.471524 
L 147.759627 159.247458 
L 149.053873 158.909837 
L 149.5307 158.553415 
L 150.007527 157.883616 
L 150.416236 156.920152 
L 150.893064 155.140899 
L 151.369891 152.417244 
L 151.914836 147.840179 
L 152.5279 140.510179 
L 153.209082 129.551377 
L 154.162736 110.159502 
L 156.206282 67.302758 
L 156.955582 56.200839 
L 157.636764 49.150116 
L 158.249827 45.010198 
L 158.794773 42.707378 
L 159.339718 41.334673 
L 159.884664 40.580375 
L 160.429609 40.209151 
L 161.042673 40.069674 
L 161.655736 40.152536 
L 162.200682 40.453385 
L 162.677509 40.990558 
L 163.154336 41.92316 
L 163.631164 43.428624 
L 164.107991 45.712986 
L 164.652936 49.546996 
L 165.266 55.732115 
L 165.947182 65.140735 
L 166.832718 81.015774 
L 169.829918 138.488557 
L 170.579218 147.155171 
L 171.192282 152.010438 
L 171.805345 155.195147 
L 172.350291 156.962448 
L 172.895236 158.03331 
L 173.440182 158.661273 
L 174.2576 159.215246 
L 175.075018 159.806961 
L 175.619964 160.507047 
L 176.096791 161.510355 
L 176.573618 163.052616 
L 177.118564 165.710718 
L 177.663509 169.583029 
L 178.276573 175.662273 
L 178.957755 184.720378 
L 179.843291 199.801244 
L 183.044845 258.091637 
L 183.794145 266.304982 
L 184.475327 271.419176 
L 185.088391 274.428367 
L 185.633336 276.130413 
L 186.178282 277.162261 
L 186.723227 277.710931 
L 187.200055 277.890254 
L 187.676882 277.823629 
L 188.153709 277.496049 
L 188.630536 276.847428 
L 189.107364 275.777013 
L 189.584191 274.151714 
L 190.129136 271.419386 
L 190.674082 267.538052 
L 191.287145 261.575113 
L 192.036445 251.848006 
L 192.9901 236.007319 
L 196.055418 181.922704 
L 196.872836 172.756234 
L 197.554018 167.417114 
L 198.167082 164.137963 
L 198.780145 161.978787 
L 199.393209 160.604031 
L 200.074391 159.609922 
L 201.368636 157.884967 
L 201.913582 156.702555 
L 202.458527 154.937773 
L 203.003473 152.364401 
L 203.616536 148.235961 
L 204.297718 141.839047 
L 205.047018 132.449302 
L 206.000673 117.3059 
L 209.270345 62.132674 
L 210.087764 53.42613 
L 210.768945 48.294107 
L 211.382009 45.108503 
L 211.995073 43.023406 
L 212.540018 41.898118 
L 213.016845 41.365123 
L 213.425555 41.198598 
L 213.834264 41.286143 
L 214.242973 41.636389 
L 214.651682 42.278082 
L 215.128509 43.457968 
L 215.673455 45.495661 
L 216.2184 48.427486 
L 216.831464 52.99118 
L 217.512645 59.817917 
L 218.330064 70.484663 
L 219.419955 88.126178 
L 221.940327 130.396062 
L 222.825864 141.183195 
L 223.575164 147.895749 
L 224.256345 152.235097 
L 224.937527 155.211877 
L 225.618709 157.212704 
L 226.436127 158.903338 
L 227.594136 161.282169 
L 228.2072 163.137235 
L 228.820264 165.785772 
L 229.433327 169.499112 
L 230.114509 175.136322 
L 230.863809 183.350909 
L 231.749345 195.652378 
L 233.111709 218.222067 
L 234.814664 245.847889 
L 235.768318 257.933052 
L 236.585736 265.630296 
L 237.266918 270.217449 
L 237.9481 273.349598 
L 238.561164 275.123972 
L 239.037991 275.92472 
L 239.4467 276.25106 
L 239.787291 276.281897 
L 240.127882 276.094378 
L 240.536591 275.570286 
L 241.013418 274.512012 
L 241.558364 272.635815 
L 242.103309 269.939138 
L 242.716373 265.78257 
L 243.397555 259.627953 
L 244.214973 250.060079 
L 245.236745 235.201672 
L 248.574536 183.92652 
L 249.460073 174.757614 
L 250.209373 169.055483 
L 250.958673 164.982914 
L 251.707973 162.130567 
L 252.661627 159.481451 
L 253.819636 156.272288 
L 254.500818 153.657125 
L 255.182 150.04994 
L 255.863182 145.151914 
L 256.612482 138.048898 
L 257.498018 127.308287 
L 258.656027 110.185691 
L 261.312636 69.743447 
L 262.266291 58.987562 
L 263.083709 52.148248 
L 263.764891 48.070916 
L 264.377955 45.537712 
L 264.9229 44.090493 
L 265.399727 43.388248 
L 265.740318 43.191289 
L 266.080909 43.243132 
L 266.4215 43.545539 
L 266.830209 44.249734 
L 267.307036 45.570171 
L 267.851982 47.79533 
L 268.465045 51.305752 
L 269.146227 56.56967 
L 269.963645 64.854637 
L 270.9173 77.034292 
L 272.347782 98.630185 
L 274.186973 125.877801 
L 275.208745 137.869738 
L 276.094282 145.762964 
L 276.9117 151.103532 
L 277.729118 154.967924 
L 278.682773 158.350748 
L 280.113255 163.290515 
L 280.862555 166.815218 
L 281.611855 171.543869 
L 282.361155 177.770906 
L 283.246691 187.213597 
L 284.336582 201.606997 
L 288.1512 254.834558 
L 289.036736 262.955396 
L 289.786036 267.98886 
L 290.467218 271.17568 
L 291.012164 272.842881 
L 291.488991 273.699719 
L 291.8977 274.004674 
L 292.238291 273.960693 
L 292.578882 273.644769 
L 292.987591 272.899647 
L 293.464418 271.506791 
L 294.009364 269.18635 
L 294.622427 265.587951 
L 295.371727 259.696694 
L 296.189145 251.395926 
L 297.210918 238.5893 
L 298.981991 212.864176 
L 300.548709 191.385881 
L 301.570482 180.15693 
L 302.456018 172.629355 
L 303.341555 166.981851 
L 304.227091 162.739508 
L 307.019936 150.588657 
L 307.837355 145.09764 
L 308.654773 138.000315 
L 309.608427 127.592515 
L 310.834555 111.424904 
L 313.899873 69.625991 
L 314.853527 59.966577 
L 315.670945 53.680375 
L 316.420245 49.556915 
L 317.033309 47.306291 
L 317.510136 46.225062 
L 317.918845 45.750878 
L 318.259436 45.670514 
L 318.600027 45.875771 
L 318.940618 46.368719 
L 319.349327 47.346153 
L 319.894273 49.32193 
L 320.507336 52.495919 
L 321.188518 57.239832 
L 322.005936 64.619301 
L 322.959591 75.358278 
L 324.321955 93.533784 
L 326.774209 126.513478 
L 327.8641 138.06503 
L 328.817755 145.935868 
L 329.771409 151.943621 
L 330.8613 157.284533 
L 332.768609 166.29433 
L 333.654145 171.864864 
L 334.539682 179.001431 
L 335.493336 188.641968 
L 336.651345 202.780713 
L 340.534082 252.411473 
L 341.487736 260.756384 
L 342.305155 265.997024 
L 342.986336 269.00235 
L 343.531282 270.531687 
L 344.008109 271.243719 
L 344.3487 271.398118 
L 344.621173 271.309687 
L 344.961764 270.933599 
L 345.370473 270.090195 
L 345.8473 268.559113 
L 346.460364 265.711005 
L 347.141545 261.373022 
L 347.958964 254.561427 
L 348.912618 244.583568 
L 350.206864 228.415322 
L 353.204064 189.988298 
L 354.293955 179.170841 
L 355.315727 171.198036 
L 356.3375 164.962482 
L 357.972336 156.674658 
L 359.130345 150.234817 
L 360.084 143.563643 
L 361.037655 135.195365 
L 362.127545 123.474101 
L 363.626145 104.577688 
L 366.010282 74.503027 
L 367.100173 63.570633 
L 367.985709 56.740877 
L 368.735009 52.528228 
L 369.348073 50.168986 
L 369.893018 48.891516 
L 370.301727 48.437066 
L 370.642318 48.387236 
L 370.914791 48.562611 
L 371.255382 49.051311 
L 371.664091 50.034186 
L 372.209036 52.020141 
L 372.8221 55.178054 
L 373.5714 60.348195 
L 374.456936 68.217712 
L 375.546827 80.131018 
L 377.3179 102.514728 
L 379.225209 125.823168 
L 380.383218 137.457258 
L 381.473109 146.229222 
L 382.563 153.238242 
L 386.037027 174.074456 
L 387.0588 182.767596 
L 388.148691 194.023719 
L 389.647291 212.087645 
L 392.235782 243.535527 
L 393.325673 254.057558 
L 394.211209 260.659936 
L 394.960509 264.736432 
L 395.573573 267.005966 
L 396.0504 268.101239 
L 396.459109 268.57232 
L 396.7997 268.634885 
L 397.072173 268.468893 
L 397.412764 267.99135 
L 397.821473 267.022465 
L 398.366418 265.060825 
L 398.979482 261.947802 
L 399.728782 256.876138 
L 400.614318 249.209706 
L 401.704209 237.688813 
L 403.475282 216.143892 
L 405.450709 192.793324 
L 406.676836 180.772223 
L 407.834845 171.570184 
L 409.060973 163.608872 
L 411.853818 146.205665 
L 412.943709 137.371165 
L 414.101718 126.00297 
L 415.600318 108.765269 
L 418.5294 74.498835 
L 419.619291 64.518061 
L 420.504827 58.291378 
L 421.254127 54.492773 
L 421.867191 52.432055 
L 422.344018 51.492385 
L 422.752727 51.151889 
L 423.0252 51.163825 
L 423.365791 51.447535 
L 423.7745 52.181446 
L 424.251327 53.577302 
L 424.796273 55.875786 
L 425.477455 59.776777 
L 426.294873 65.882889 
L 427.316645 75.43981 
L 428.679009 90.608069 
L 432.084918 129.638386 
L 432.970455 137.890422 
L 432.970455 137.890422 
" clip-path="url(#pc123d6a768)" style="fill: none; stroke-dasharray: 5.55,2.4; stroke-dashoffset: 0; stroke: #0000ff; stroke-width: 1.5"/>
   </g>
   <g id="patch_3">
    <path d="M 75.35 303.64 
L 75.35 14.76 
" style="fill: none; stroke: #000000; stroke-width: 0.8; stroke-linejoin: miter; stroke-linecap: square"/>
   </g>
   <g id="patch_4">
    <path d="M 450 303.64 
L 450 14.76 
" style="fill: none; stroke: #000000; stroke-width: 0.8; stroke-linejoin: miter; stroke-linecap: square"/>
   </g>
   <g id="patch_5">
    <path d="M 75.35 303.64 
L 450 303.64 
" style="fill: none; stroke: #000000; stroke-width: 0.8; stroke-linejoin: miter; stroke-linecap: square"/>
   </g>
   <g id="patch_6">
    <path d="M 75.35 14.76 
L 450 14.76 
" style="fill: none; stroke: #000000; stroke-width: 0.8; stroke-linejoin: miter; stroke-linecap: square"/>
   </g>
   <g id="legend_1">
    <g id="patch_7">
     <path d="M 364.560938 298.64 
L 443 298.64 
Q 445 298.64 445 296.64 
L 445 268.28375 
Q 445 266.28375 443 266.28375 
L 364.560938 266.28375 
Q 362.560938 266.28375 362.560938 268.28375 
L 362.560938 296.64 
Q 362.560938 298.64 364.560938 298.64 
z
" style="fill: #ffffff; opacity: 0.8; stroke: #cccccc; stroke-linejoin: miter"/>
    </g>
    <g id="line2d_16">
     <path d="M 366.560938 274.382187 
L 376.560938 274.382187 
L 386.560938 274.382187 
" style="fill: none; stroke: #000000; stroke-width: 1.5; stroke-linecap: square"/>
    </g>
    <g id="text_16">
     <!-- newmark -->
     <g transform="translate(394.560938 277.882187) scale(0.1 -0.1)">
      <defs>
       <path id="DejaVuSans-77" d="M 269 3500 
L 844 3500 
L 1563 769 
L 2278 3500 
L 2956 3500 
L 3675 769 
L 4391 3500 
L 4966 3500 
L 4050 0 
L 3372 0 
L 2619 2869 
L 1863 0 
L 1184 0 
L 269 3500 
z
" transform="scale(0.015625)"/>
       <path id="DejaVuSans-72" d="M 2631 2963 
Q 2534 3019 2420 3045 
Q 2306 3072 2169 3072 
Q 1681 3072 1420 2755 
Q 1159 2438 1159 1844 
L 1159 0 
L 581 0 
L 581 3500 
L 1159 3500 
L 1159 2956 
Q 1341 3275 1631 3429 
Q 1922 3584 2338 3584 
Q 2397 3584 2469 3576 
Q 2541 3569 2628 3553 
L 2631 2963 
z
" transform="scale(0.015625)"/>
       <path id="DejaVuSans-6b" d="M 581 4863 
L 1159 4863 
L 1159 1991 
L 2875 3500 
L 3609 3500 
L 1753 1863 
L 3688 0 
L 2938 0 
L 1159 1709 
L 1159 0 
L 581 0 
L 581 4863 
z
" transform="scale(0.015625)"/>
      </defs>
      <use xlink:href="#DejaVuSans-6e"/>
      <use xlink:href="#DejaVuSans-65" x="63.378906"/>
      <use xlink:href="#DejaVuSans-77" x="124.902344"/>
      <use xlink:href="#DejaVuSans-6d" x="206.689453"/>
      <use xlink:href="#DejaVuSans-61" x="304.101562"/>
      <use xlink:href="#DejaVuSans-72" x="365.380859"/>
      <use xlink:href="#DejaVuSans-6b" x="406.494141"/>
     </g>
    </g>
    <g id="line2d_17">
     <path d="M 366.560938 289.060312 
L 376.560938 289.060312 
L 386.560938 289.060312 
" style="fill: none; stroke-dasharray: 5.55,2.4; stroke-dashoffset: 0; stroke: #0000ff; stroke-width: 1.5"/>
    </g>
    <g id="text_17">
     <!-- hht -->
     <g transform="translate(394.560938 292.560312) scale(0.1 -0.1)">
      <defs>
       <path id="DejaVuSans-68" d="M 3513 2113 
L 3513 0 
L 2938 0 
L 2938 2094 
Q 2938 2591 2744 2837 
Q 2550 3084 2163 3084 
Q 1697 3084 1428 2787 
Q 1159 2491 1159 1978 
L 1159 0 
L 581 0 
L 581 4863 
L 1159 4863 
L 1159 2956 
Q 1366 3272 1645 3428 
Q 1925 3584 2291 3584 
Q 2894 3584 3203 3211 
Q 3513 2838 3513 2113 
z
" transform="scale(0.015625)"/>
      </defs>
      <use xlink:href="#DejaVuSans-68"/>
      <use xlink:href="#DejaVuSans-68" x="63.378906"/>
      <use xlink:href="#DejaVuSans-74" x="126.757812"/>
     </g>
    </g>
   </g>
  </g>
 </g>
 <defs>
  <clipPath id="pc123d6a768">
   <rect x="75.35" y="14.76" width="374.65" height="288.88"/>
  </clipPath>
 </defs>
</svg>
