<?xml version="1.0" encoding="utf-8" standalone="no"?>
<!DOCTYPE svg PUBLIC "-//W3C//DTD SVG 1.1//EN"
  "http://www.w3.org/Graphics/SVG/1.1/DTD/svg11.dtd">
<svg xmlns:xlink="http://www.w3.org/1999/xlink" width="460.8pt" height="345.6pt" viewBox="0 0 460.8 345.6" xmlns="http://www.w3.org/2000/svg" version="1.1">
 <metadata>
  <rdf:RDF xmlns:dc="http://purl.org/dc/elements/1.1/" xmlns:cc="http://creativecommons.org/ns#" xmlns:rdf="http://www.w3.org/1999/02/22-rdf-syntax-ns#">
   <cc:Work>
    <dc:type rdf:resource="http://purl.org/dc/dcmitype/StillImage"/>
    <dc:date>2024-03-04T14:31:04.025593</dc:date>
    <dc:format>image/svg+xml</dc:format>
    <dc:creator>
     <cc:Agent>
      <dc:title>Matplotlib v3.8.3, https://matplotlib.org/</dc:title>
     </cc:Agent>
    </dc:creator>
   </cc:Work>
  </rdf:RDF>
 </metadata>
 <defs>
  <style type="text/css">*{stroke-linejoin: round; stroke-linecap: butt}</style>
 </defs>
 <g id="figure_1">
  <g id="patch_1">
   <path d="M 0 345.6 
L 460.8 345.6 
L 460.8 0 
L 0 0 
z
" style="fill: #ffffff"/>
  </g>
  <g id="axes_1">
   <g id="patch_2">
    <path d="M 59.42 303.64 
L 450 303.64 
L 450 10.8 
L 59.42 10.8 
z
" style="fill: #ffffff"/>
   </g>
   <g id="matplotlib.axis_1">
    <g id="xtick_1">
     <g id="line2d_1">
      <defs>
       <path id="m0e08ee4a00" d="M 0 0 
L 0 3.5 
" style="stroke: #000000; stroke-width: 0.8"/>
      </defs>
      <g>
       <use xlink:href="#m0e08ee4a00" x="77.173636" y="303.64" style="stroke: #000000; stroke-width: 0.8"/>
      </g>
     </g>
     <g id="text_1">
      <!-- 0.0 -->
      <g transform="translate(69.222074 318.238437) scale(0.1 -0.1)">
       <defs>
        <path id="DejaVuSans-30" d="M 2034 4250 
Q 1547 4250 1301 3770 
Q 1056 3291 1056 2328 
Q 1056 1369 1301 889 
Q 1547 409 2034 409 
Q 2525 409 2770 889 
Q 3016 1369 3016 2328 
Q 3016 3291 2770 3770 
Q 2525 4250 2034 4250 
z
M 2034 4750 
Q 2819 4750 3233 4129 
Q 3647 3509 3647 2328 
Q 3647 1150 3233 529 
Q 2819 -91 2034 -91 
Q 1250 -91 836 529 
Q 422 1150 422 2328 
Q 422 3509 836 4129 
Q 1250 4750 2034 4750 
z
" transform="scale(0.015625)"/>
        <path id="DejaVuSans-2e" d="M 684 794 
L 1344 794 
L 1344 0 
L 684 0 
L 684 794 
z
" transform="scale(0.015625)"/>
       </defs>
       <use xlink:href="#DejaVuSans-30"/>
       <use xlink:href="#DejaVuSans-2e" x="63.623047"/>
       <use xlink:href="#DejaVuSans-30" x="95.410156"/>
      </g>
     </g>
    </g>
    <g id="xtick_2">
     <g id="line2d_2">
      <g>
       <use xlink:href="#m0e08ee4a00" x="148.188182" y="303.64" style="stroke: #000000; stroke-width: 0.8"/>
      </g>
     </g>
     <g id="text_2">
      <!-- 0.2 -->
      <g transform="translate(140.236619 318.238437) scale(0.1 -0.1)">
       <defs>
        <path id="DejaVuSans-32" d="M 1228 531 
L 3431 531 
L 3431 0 
L 469 0 
L 469 531 
Q 828 903 1448 1529 
Q 2069 2156 2228 2338 
Q 2531 2678 2651 2914 
Q 2772 3150 2772 3378 
Q 2772 3750 2511 3984 
Q 2250 4219 1831 4219 
Q 1534 4219 1204 4116 
Q 875 4013 500 3803 
L 500 4441 
Q 881 4594 1212 4672 
Q 1544 4750 1819 4750 
Q 2544 4750 2975 4387 
Q 3406 4025 3406 3419 
Q 3406 3131 3298 2873 
Q 3191 2616 2906 2266 
Q 2828 2175 2409 1742 
Q 1991 1309 1228 531 
z
" transform="scale(0.015625)"/>
       </defs>
       <use xlink:href="#DejaVuSans-30"/>
       <use xlink:href="#DejaVuSans-2e" x="63.623047"/>
       <use xlink:href="#DejaVuSans-32" x="95.410156"/>
      </g>
     </g>
    </g>
    <g id="xtick_3">
     <g id="line2d_3">
      <g>
       <use xlink:href="#m0e08ee4a00" x="219.202727" y="303.64" style="stroke: #000000; stroke-width: 0.8"/>
      </g>
     </g>
     <g id="text_3">
      <!-- 0.4 -->
      <g transform="translate(211.251165 318.238437) scale(0.1 -0.1)">
       <defs>
        <path id="DejaVuSans-34" d="M 2419 4116 
L 825 1625 
L 2419 1625 
L 2419 4116 
z
M 2253 4666 
L 3047 4666 
L 3047 1625 
L 3713 1625 
L 3713 1100 
L 3047 1100 
L 3047 0 
L 2419 0 
L 2419 1100 
L 313 1100 
L 313 1709 
L 2253 4666 
z
" transform="scale(0.015625)"/>
       </defs>
       <use xlink:href="#DejaVuSans-30"/>
       <use xlink:href="#DejaVuSans-2e" x="63.623047"/>
       <use xlink:href="#DejaVuSans-34" x="95.410156"/>
      </g>
     </g>
    </g>
    <g id="xtick_4">
     <g id="line2d_4">
      <g>
       <use xlink:href="#m0e08ee4a00" x="290.217273" y="303.64" style="stroke: #000000; stroke-width: 0.8"/>
      </g>
     </g>
     <g id="text_4">
      <!-- 0.6 -->
      <g transform="translate(282.26571 318.238437) scale(0.1 -0.1)">
       <defs>
        <path id="DejaVuSans-36" d="M 2113 2584 
Q 1688 2584 1439 2293 
Q 1191 2003 1191 1497 
Q 1191 994 1439 701 
Q 1688 409 2113 409 
Q 2538 409 2786 701 
Q 3034 994 3034 1497 
Q 3034 2003 2786 2293 
Q 2538 2584 2113 2584 
z
M 3366 4563 
L 3366 3988 
Q 3128 4100 2886 4159 
Q 2644 4219 2406 4219 
Q 1781 4219 1451 3797 
Q 1122 3375 1075 2522 
Q 1259 2794 1537 2939 
Q 1816 3084 2150 3084 
Q 2853 3084 3261 2657 
Q 3669 2231 3669 1497 
Q 3669 778 3244 343 
Q 2819 -91 2113 -91 
Q 1303 -91 875 529 
Q 447 1150 447 2328 
Q 447 3434 972 4092 
Q 1497 4750 2381 4750 
Q 2619 4750 2861 4703 
Q 3103 4656 3366 4563 
z
" transform="scale(0.015625)"/>
       </defs>
       <use xlink:href="#DejaVuSans-30"/>
       <use xlink:href="#DejaVuSans-2e" x="63.623047"/>
       <use xlink:href="#DejaVuSans-36" x="95.410156"/>
      </g>
     </g>
    </g>
    <g id="xtick_5">
     <g id="line2d_5">
      <g>
       <use xlink:href="#m0e08ee4a00" x="361.231818" y="303.64" style="stroke: #000000; stroke-width: 0.8"/>
      </g>
     </g>
     <g id="text_5">
      <!-- 0.8 -->
      <g transform="translate(353.280256 318.238437) scale(0.1 -0.1)">
       <defs>
        <path id="DejaVuSans-38" d="M 2034 2216 
Q 1584 2216 1326 1975 
Q 1069 1734 1069 1313 
Q 1069 891 1326 650 
Q 1584 409 2034 409 
Q 2484 409 2743 651 
Q 3003 894 3003 1313 
Q 3003 1734 2745 1975 
Q 2488 2216 2034 2216 
z
M 1403 2484 
Q 997 2584 770 2862 
Q 544 3141 544 3541 
Q 544 4100 942 4425 
Q 1341 4750 2034 4750 
Q 2731 4750 3128 4425 
Q 3525 4100 3525 3541 
Q 3525 3141 3298 2862 
Q 3072 2584 2669 2484 
Q 3125 2378 3379 2068 
Q 3634 1759 3634 1313 
Q 3634 634 3220 271 
Q 2806 -91 2034 -91 
Q 1263 -91 848 271 
Q 434 634 434 1313 
Q 434 1759 690 2068 
Q 947 2378 1403 2484 
z
M 1172 3481 
Q 1172 3119 1398 2916 
Q 1625 2713 2034 2713 
Q 2441 2713 2670 2916 
Q 2900 3119 2900 3481 
Q 2900 3844 2670 4047 
Q 2441 4250 2034 4250 
Q 1625 4250 1398 4047 
Q 1172 3844 1172 3481 
z
" transform="scale(0.015625)"/>
       </defs>
       <use xlink:href="#DejaVuSans-30"/>
       <use xlink:href="#DejaVuSans-2e" x="63.623047"/>
       <use xlink:href="#DejaVuSans-38" x="95.410156"/>
      </g>
     </g>
    </g>
    <g id="xtick_6">
     <g id="line2d_6">
      <g>
       <use xlink:href="#m0e08ee4a00" x="432.246364" y="303.64" style="stroke: #000000; stroke-width: 0.8"/>
      </g>
     </g>
     <g id="text_6">
      <!-- 1.0 -->
      <g transform="translate(424.294801 318.238437) scale(0.1 -0.1)">
       <defs>
        <path id="DejaVuSans-31" d="M 794 531 
L 1825 531 
L 1825 4091 
L 703 3866 
L 703 4441 
L 1819 4666 
L 2450 4666 
L 2450 531 
L 3481 531 
L 3481 0 
L 794 0 
L 794 531 
z
" transform="scale(0.015625)"/>
       </defs>
       <use xlink:href="#DejaVuSans-31"/>
       <use xlink:href="#DejaVuSans-2e" x="63.623047"/>
       <use xlink:href="#DejaVuSans-30" x="95.410156"/>
      </g>
     </g>
    </g>
    <g id="text_7">
     <!-- time (s) -->
     <g transform="translate(235.318594 331.916562) scale(0.1 -0.1)">
      <defs>
       <path id="DejaVuSans-74" d="M 1172 4494 
L 1172 3500 
L 2356 3500 
L 2356 3053 
L 1172 3053 
L 1172 1153 
Q 1172 725 1289 603 
Q 1406 481 1766 481 
L 2356 481 
L 2356 0 
L 1766 0 
Q 1100 0 847 248 
Q 594 497 594 1153 
L 594 3053 
L 172 3053 
L 172 3500 
L 594 3500 
L 594 4494 
L 1172 4494 
z
" transform="scale(0.015625)"/>
       <path id="DejaVuSans-69" d="M 603 3500 
L 1178 3500 
L 1178 0 
L 603 0 
L 603 3500 
z
M 603 4863 
L 1178 4863 
L 1178 4134 
L 603 4134 
L 603 4863 
z
" transform="scale(0.015625)"/>
       <path id="DejaVuSans-6d" d="M 3328 2828 
Q 3544 3216 3844 3400 
Q 4144 3584 4550 3584 
Q 5097 3584 5394 3201 
Q 5691 2819 5691 2113 
L 5691 0 
L 5113 0 
L 5113 2094 
Q 5113 2597 4934 2840 
Q 4756 3084 4391 3084 
Q 3944 3084 3684 2787 
Q 3425 2491 3425 1978 
L 3425 0 
L 2847 0 
L 2847 2094 
Q 2847 2600 2669 2842 
Q 2491 3084 2119 3084 
Q 1678 3084 1418 2786 
Q 1159 2488 1159 1978 
L 1159 0 
L 581 0 
L 581 3500 
L 1159 3500 
L 1159 2956 
Q 1356 3278 1631 3431 
Q 1906 3584 2284 3584 
Q 2666 3584 2933 3390 
Q 3200 3197 3328 2828 
z
" transform="scale(0.015625)"/>
       <path id="DejaVuSans-65" d="M 3597 1894 
L 3597 1613 
L 953 1613 
Q 991 1019 1311 708 
Q 1631 397 2203 397 
Q 2534 397 2845 478 
Q 3156 559 3463 722 
L 3463 178 
Q 3153 47 2828 -22 
Q 2503 -91 2169 -91 
Q 1331 -91 842 396 
Q 353 884 353 1716 
Q 353 2575 817 3079 
Q 1281 3584 2069 3584 
Q 2775 3584 3186 3129 
Q 3597 2675 3597 1894 
z
M 3022 2063 
Q 3016 2534 2758 2815 
Q 2500 3097 2075 3097 
Q 1594 3097 1305 2825 
Q 1016 2553 972 2059 
L 3022 2063 
z
" transform="scale(0.015625)"/>
       <path id="DejaVuSans-20" transform="scale(0.015625)"/>
       <path id="DejaVuSans-28" d="M 1984 4856 
Q 1566 4138 1362 3434 
Q 1159 2731 1159 2009 
Q 1159 1288 1364 580 
Q 1569 -128 1984 -844 
L 1484 -844 
Q 1016 -109 783 600 
Q 550 1309 550 2009 
Q 550 2706 781 3412 
Q 1013 4119 1484 4856 
L 1984 4856 
z
" transform="scale(0.015625)"/>
       <path id="DejaVuSans-73" d="M 2834 3397 
L 2834 2853 
Q 2591 2978 2328 3040 
Q 2066 3103 1784 3103 
Q 1356 3103 1142 2972 
Q 928 2841 928 2578 
Q 928 2378 1081 2264 
Q 1234 2150 1697 2047 
L 1894 2003 
Q 2506 1872 2764 1633 
Q 3022 1394 3022 966 
Q 3022 478 2636 193 
Q 2250 -91 1575 -91 
Q 1294 -91 989 -36 
Q 684 19 347 128 
L 347 722 
Q 666 556 975 473 
Q 1284 391 1588 391 
Q 1994 391 2212 530 
Q 2431 669 2431 922 
Q 2431 1156 2273 1281 
Q 2116 1406 1581 1522 
L 1381 1569 
Q 847 1681 609 1914 
Q 372 2147 372 2553 
Q 372 3047 722 3315 
Q 1072 3584 1716 3584 
Q 2034 3584 2315 3537 
Q 2597 3491 2834 3397 
z
" transform="scale(0.015625)"/>
       <path id="DejaVuSans-29" d="M 513 4856 
L 1013 4856 
Q 1481 4119 1714 3412 
Q 1947 2706 1947 2009 
Q 1947 1309 1714 600 
Q 1481 -109 1013 -844 
L 513 -844 
Q 928 -128 1133 580 
Q 1338 1288 1338 2009 
Q 1338 2731 1133 3434 
Q 928 4138 513 4856 
z
" transform="scale(0.015625)"/>
      </defs>
      <use xlink:href="#DejaVuSans-74"/>
      <use xlink:href="#DejaVuSans-69" x="39.208984"/>
      <use xlink:href="#DejaVuSans-6d" x="66.992188"/>
      <use xlink:href="#DejaVuSans-65" x="164.404297"/>
      <use xlink:href="#DejaVuSans-20" x="225.927734"/>
      <use xlink:href="#DejaVuSans-28" x="257.714844"/>
      <use xlink:href="#DejaVuSans-73" x="296.728516"/>
      <use xlink:href="#DejaVuSans-29" x="348.828125"/>
     </g>
    </g>
   </g>
   <g id="matplotlib.axis_2">
    <g id="ytick_1">
     <g id="line2d_7">
      <defs>
       <path id="m90bbf99966" d="M 0 0 
L -3.5 0 
" style="stroke: #000000; stroke-width: 0.8"/>
      </defs>
      <g>
       <use xlink:href="#m90bbf99966" x="59.42" y="260.519831" style="stroke: #000000; stroke-width: 0.8"/>
      </g>
     </g>
     <g id="text_8">
      <!-- −200 -->
      <g transform="translate(24.952813 264.31905) scale(0.1 -0.1)">
       <defs>
        <path id="DejaVuSans-2212" d="M 678 2272 
L 4684 2272 
L 4684 1741 
L 678 1741 
L 678 2272 
z
" transform="scale(0.015625)"/>
       </defs>
       <use xlink:href="#DejaVuSans-2212"/>
       <use xlink:href="#DejaVuSans-32" x="83.789062"/>
       <use xlink:href="#DejaVuSans-30" x="147.412109"/>
       <use xlink:href="#DejaVuSans-30" x="211.035156"/>
      </g>
     </g>
    </g>
    <g id="ytick_2">
     <g id="line2d_8">
      <g>
       <use xlink:href="#m90bbf99966" x="59.42" y="204.538909" style="stroke: #000000; stroke-width: 0.8"/>
      </g>
     </g>
     <g id="text_9">
      <!-- −100 -->
      <g transform="translate(24.952813 208.338128) scale(0.1 -0.1)">
       <use xlink:href="#DejaVuSans-2212"/>
       <use xlink:href="#DejaVuSans-31" x="83.789062"/>
       <use xlink:href="#DejaVuSans-30" x="147.412109"/>
       <use xlink:href="#DejaVuSans-30" x="211.035156"/>
      </g>
     </g>
    </g>
    <g id="ytick_3">
     <g id="line2d_9">
      <g>
       <use xlink:href="#m90bbf99966" x="59.42" y="148.557987" style="stroke: #000000; stroke-width: 0.8"/>
      </g>
     </g>
     <g id="text_10">
      <!-- 0 -->
      <g transform="translate(46.0575 152.357206) scale(0.1 -0.1)">
       <use xlink:href="#DejaVuSans-30"/>
      </g>
     </g>
    </g>
    <g id="ytick_4">
     <g id="line2d_10">
      <g>
       <use xlink:href="#m90bbf99966" x="59.42" y="92.577065" style="stroke: #000000; stroke-width: 0.8"/>
      </g>
     </g>
     <g id="text_11">
      <!-- 100 -->
      <g transform="translate(33.3325 96.376284) scale(0.1 -0.1)">
       <use xlink:href="#DejaVuSans-31"/>
       <use xlink:href="#DejaVuSans-30" x="63.623047"/>
       <use xlink:href="#DejaVuSans-30" x="127.246094"/>
      </g>
     </g>
    </g>
    <g id="ytick_5">
     <g id="line2d_11">
      <g>
       <use xlink:href="#m90bbf99966" x="59.42" y="36.596143" style="stroke: #000000; stroke-width: 0.8"/>
      </g>
     </g>
     <g id="text_12">
      <!-- 200 -->
      <g transform="translate(33.3325 40.395362) scale(0.1 -0.1)">
       <use xlink:href="#DejaVuSans-32"/>
       <use xlink:href="#DejaVuSans-30" x="63.623047"/>
       <use xlink:href="#DejaVuSans-30" x="127.246094"/>
      </g>
     </g>
    </g>
    <g id="text_13">
     <!-- Pxy -->
     <g transform="translate(18.873125 166.153594) rotate(-90) scale(0.1 -0.1)">
      <defs>
       <path id="DejaVuSans-50" d="M 1259 4147 
L 1259 2394 
L 2053 2394 
Q 2494 2394 2734 2622 
Q 2975 2850 2975 3272 
Q 2975 3691 2734 3919 
Q 2494 4147 2053 4147 
L 1259 4147 
z
M 628 4666 
L 2053 4666 
Q 2838 4666 3239 4311 
Q 3641 3956 3641 3272 
Q 3641 2581 3239 2228 
Q 2838 1875 2053 1875 
L 1259 1875 
L 1259 0 
L 628 0 
L 628 4666 
z
" transform="scale(0.015625)"/>
       <path id="DejaVuSans-78" d="M 3513 3500 
L 2247 1797 
L 3578 0 
L 2900 0 
L 1881 1375 
L 863 0 
L 184 0 
L 1544 1831 
L 300 3500 
L 978 3500 
L 1906 2253 
L 2834 3500 
L 3513 3500 
z
" transform="scale(0.015625)"/>
       <path id="DejaVuSans-79" d="M 2059 -325 
Q 1816 -950 1584 -1140 
Q 1353 -1331 966 -1331 
L 506 -1331 
L 506 -850 
L 844 -850 
Q 1081 -850 1212 -737 
Q 1344 -625 1503 -206 
L 1606 56 
L 191 3500 
L 800 3500 
L 1894 763 
L 2988 3500 
L 3597 3500 
L 2059 -325 
z
" transform="scale(0.015625)"/>
      </defs>
      <use xlink:href="#DejaVuSans-50"/>
      <use xlink:href="#DejaVuSans-78" x="60.302734"/>
      <use xlink:href="#DejaVuSans-79" x="119.482422"/>
     </g>
    </g>
   </g>
   <g id="line2d_12">
    <path d="M 80.724364 58.332305 
L 84.275091 52.310688 
L 87.825818 47.212963 
L 91.376545 43.134015 
L 94.927273 40.155479 
L 98.478 38.345349 
L 102.028727 37.757892 
L 105.579455 38.433687 
L 109.130182 40.399604 
L 112.680909 43.668571 
L 116.231636 48.238988 
L 119.782364 54.093733 
L 123.333091 61.198797 
L 126.883818 69.501748 
L 130.434545 78.930376 
L 133.985273 89.392011 
L 137.536 100.774001 
L 141.086727 112.945622 
L 144.637455 125.761367 
L 148.188182 139.065058 
L 151.738909 152.693942 
L 155.289636 166.481852 
L 158.840364 180.260883 
L 162.391091 193.861616 
L 165.941818 207.112646 
L 169.492545 219.840559 
L 173.043273 231.871469 
L 176.594 243.034691 
L 180.144727 253.168231 
L 183.695455 262.12506 
L 187.246182 269.77877 
L 190.796909 276.027444 
L 194.347636 280.795182 
L 197.898364 284.031437 
L 201.449091 285.708826 
L 204.999818 285.820248 
L 208.550545 284.376073 
L 212.101273 281.401856 
L 215.652 276.93681 
L 219.202727 271.033018 
L 222.753455 263.755309 
L 226.304182 255.181642 
L 229.854909 245.403849 
L 233.405636 234.52857 
L 236.956364 222.678164 
L 240.507091 209.991299 
L 244.057818 196.622861 
L 247.608545 182.742779 
L 251.159273 168.533462 
L 254.71 154.185721 
L 258.260727 139.89343 
L 261.811455 125.84754 
L 265.362182 112.230315 
L 268.912909 99.210716 
L 272.463636 86.941536 
L 276.014364 75.558403 
L 279.565091 65.18024 
L 283.115818 55.910404 
L 286.666545 47.837708 
L 290.217273 41.036777 
L 293.768 35.567556 
L 297.318727 31.474197 
L 300.869455 28.783721 
L 304.420182 27.504926 
L 307.970909 27.627844 
L 311.521636 29.123864 
L 315.072364 31.946437 
L 318.623091 36.032202 
L 322.173818 41.302297 
L 325.724545 47.663732 
L 329.275273 55.010757 
L 332.826 63.226245 
L 336.376727 72.183179 
L 339.927455 81.74634 
L 343.478182 91.774269 
L 347.028909 102.121539 
L 350.579636 112.641311 
L 354.130364 123.188086 
L 357.681091 133.620534 
L 361.231818 143.804229 
L 364.782545 153.614152 
L 368.333273 162.936808 
L 371.884 171.671873 
L 375.434727 179.733326 
L 378.985455 187.050073 
L 382.536182 193.566134 
L 386.086909 199.240467 
L 389.637636 204.046542 
L 393.188364 207.971759 
L 396.739091 211.016776 
L 400.289818 213.194825 
L 403.840545 214.531007 
L 407.391273 215.061588 
L 410.942 214.833256 
L 414.492727 213.902305 
L 418.043455 212.333693 
L 421.594182 210.199932 
L 425.144909 207.579779 
L 428.695636 204.556713 
L 432.246364 201.217208 
" clip-path="url(#p58b52eb5e7)" style="fill: none; stroke-dasharray: 5.55,2.4; stroke-dashoffset: 0; stroke: #ff0000; stroke-width: 1.5"/>
   </g>
   <g id="line2d_13">
    <path d="M 80.724364 57.006535 
L 84.275091 50.792642 
L 87.825818 45.478065 
L 91.376545 41.173241 
L 94.927273 37.979132 
L 98.478 35.984197 
L 102.028727 35.261413 
L 105.579455 35.865586 
L 109.130182 37.831161 
L 112.680909 41.170754 
L 116.231636 45.874561 
L 119.782364 51.910733 
L 123.333091 59.2267 
L 126.883818 67.751244 
L 130.434545 77.396967 
L 133.985273 88.062666 
L 137.536 99.635089 
L 141.086727 111.989776 
L 144.637455 124.991011 
L 148.188182 138.49138 
L 151.738909 152.331729 
L 155.289636 166.34238 
L 158.840364 180.34609 
L 162.391091 194.162644 
L 165.941818 207.61427 
L 169.492545 220.530629 
L 173.043273 232.752215 
L 176.594 244.131508 
L 180.144727 254.532113 
L 183.695455 263.826857 
L 187.246182 271.896179 
L 190.796909 278.627907 
L 194.347636 283.918926 
L 197.898364 287.678545 
L 201.449091 289.832837 
L 204.999818 290.329091 
L 208.550545 289.1396 
L 212.101273 286.264291 
L 215.652 281.73198 
L 219.202727 275.600257 
L 222.753455 267.9541 
L 226.304182 258.903398 
L 229.854909 248.579554 
L 233.405636 237.131381 
L 236.956364 224.720563 
L 240.507091 211.517019 
L 244.057818 197.6946 
L 247.608545 183.427594 
L 251.159273 168.888415 
L 254.71 154.246652 
L 258.260727 139.669346 
L 261.811455 125.321923 
L 265.362182 111.368997 
L 268.912909 97.974209 
L 272.463636 85.298551 
L 276.014364 73.497131 
L 279.565091 62.714871 
L 283.115818 53.081937 
L 286.666545 44.709781 
L 290.217273 37.688366 
L 293.768 32.084793 
L 297.318727 27.943133 
L 300.869455 25.285072 
L 304.420182 24.110909 
L 307.970909 24.40061 
L 311.521636 26.114763 
L 315.072364 29.195517 
L 318.623091 33.567626 
L 322.173818 39.13979 
L 325.724545 45.806376 
L 329.275273 53.449532 
L 332.826 61.941605 
L 336.376727 71.147718 
L 339.927455 80.928341 
L 343.478182 91.141708 
L 347.028909 101.645973 
L 350.579636 112.301068 
L 354.130364 122.97026 
L 357.681091 133.521481 
L 361.231818 143.82852 
L 364.782545 153.772165 
L 368.333273 163.241378 
L 371.884 172.134567 
L 375.434727 180.36092 
L 378.985455 187.841793 
L 382.536182 194.512036 
L 386.086909 200.32117 
L 389.637636 205.234302 
L 393.188364 209.232669 
L 396.739091 212.313764 
L 400.289818 214.490986 
L 403.840545 215.792845 
L 407.391273 216.261727 
L 410.942 215.952317 
L 414.492727 214.929745 
L 418.043455 213.267573 
L 421.594182 211.045705 
L 425.144909 208.34834 
L 428.695636 205.262019 
L 432.246364 201.873825 
" clip-path="url(#p58b52eb5e7)" style="fill: none; stroke-dasharray: 5.55,2.4; stroke-dashoffset: 0; stroke: #0000ff; stroke-width: 1.5"/>
   </g>
   <g id="line2d_14">
    <path d="M 80.724364 57.383764 
L 84.275091 51.377133 
L 87.825818 46.2887 
L 91.376545 42.20844 
L 94.927273 39.214508 
L 98.478 37.372876 
L 102.028727 36.737235 
L 105.579455 37.349053 
L 109.130182 39.237644 
L 112.680909 42.420135 
L 116.231636 46.901205 
L 119.782364 52.672493 
L 123.333091 59.711631 
L 126.883818 67.980869 
L 130.434545 77.425349 
L 133.985273 87.971146 
L 137.536 99.523263 
L 141.086727 111.96393 
L 144.637455 125.151644 
L 148.188182 138.921533 
L 151.738909 153.087556 
L 155.289636 167.446811 
L 158.840364 181.78575 
L 162.391091 195.887646 
L 165.941818 209.540281 
L 169.492545 222.542853 
L 173.043273 234.711349 
L 176.594 245.8821 
L 180.144727 255.91364 
L 183.695455 264.687296 
L 187.246182 272.106922 
L 190.796909 278.09811 
L 194.347636 282.60702 
L 197.898364 285.598902 
L 201.449091 287.056411 
L 204.999818 286.977891 
L 208.550545 285.375824 
L 212.101273 282.275609 
L 215.652 277.714776 
L 219.202727 271.742634 
L 222.753455 264.420321 
L 226.304182 255.821171 
L 229.854909 246.031302 
L 233.405636 235.150299 
L 236.956364 223.291853 
L 240.507091 210.584148 
L 244.057818 197.169806 
L 247.608545 183.205197 
L 251.159273 168.859012 
L 254.71 154.310097 
L 258.260727 139.744671 
L 261.811455 125.353087 
L 265.362182 111.32626 
L 268.912909 97.851806 
L 272.463636 85.109927 
L 276.014364 73.269105 
L 279.565091 62.481831 
L 283.115818 52.880698 
L 286.666545 44.57526 
L 290.217273 37.649982 
L 293.768 32.163467 
L 297.318727 28.148949 
L 300.869455 25.615835 
L 304.420182 24.551929 
L 307.970909 24.92595 
L 311.521636 26.689962 
L 315.072364 29.781495 
L 318.623091 34.125232 
L 322.173818 39.6343 
L 325.724545 46.21124 
L 329.275273 53.748833 
L 332.826 62.130901 
L 336.376727 71.233266 
L 339.927455 80.924936 
L 343.478182 91.069603 
L 347.028909 101.527458 
L 350.579636 112.15726 
L 354.130364 122.818602 
L 357.681091 133.374239 
L 361.231818 143.692371 
L 364.782545 153.648772 
L 368.333273 163.128702 
L 371.884 172.028554 
L 375.434727 180.257241 
L 378.985455 187.737328 
L 382.536182 194.405914 
L 386.086909 200.215269 
L 389.637636 205.133188 
L 393.188364 209.143059 
L 396.739091 212.2436 
L 400.289818 214.448282 
L 403.840545 215.784463 
L 407.391273 216.292274 
L 410.942 216.023326 
L 414.492727 215.039282 
L 418.043455 213.410357 
L 421.594182 211.213749 
L 425.144909 208.532009 
L 428.695636 205.451361 
L 432.246364 202.059959 
" clip-path="url(#p58b52eb5e7)" style="fill: none; stroke-dasharray: 5.55,2.4; stroke-dashoffset: 0; stroke: #008000; stroke-width: 1.5"/>
   </g>
   <g id="line2d_15">
    <path d="M 80.724364 57.955076 
L 84.275091 51.726198 
L 87.825818 46.402328 
L 91.376545 42.098816 
L 94.927273 38.920103 
L 98.478 36.956669 
L 102.028727 36.28207 
L 105.579455 36.95022 
L 109.130182 38.993122 
L 112.680909 42.41919 
L 116.231636 47.212344 
L 119.782364 53.331973 
L 123.333091 60.713866 
L 126.883818 69.272123 
L 130.434545 78.901993 
L 133.985273 89.483531 
L 137.536 100.885826 
L 141.086727 112.971468 
L 144.637455 125.600734 
L 148.188182 138.634905 
L 151.738909 151.938114 
L 155.289636 165.377421 
L 158.840364 178.821222 
L 162.391091 192.136614 
L 165.941818 205.186635 
L 169.492545 217.828335 
L 173.043273 229.912335 
L 176.594 241.2841 
L 180.144727 251.786703 
L 183.695455 261.264621 
L 187.246182 269.568028 
L 190.796909 276.557241 
L 194.347636 282.107088 
L 197.898364 286.11108 
L 201.449091 288.485251 
L 204.999818 289.171447 
L 208.550545 288.139849 
L 212.101273 285.390538 
L 215.652 280.954014 
L 219.202727 274.890641 
L 222.753455 267.289087 
L 226.304182 258.263868 
L 229.854909 247.952101 
L 233.405636 236.509652 
L 236.956364 224.106874 
L 240.507091 210.92417 
L 244.057818 197.147655 
L 247.608545 182.965177 
L 251.159273 168.562865 
L 254.71 154.122276 
L 258.260727 139.818106 
L 261.811455 125.816376 
L 265.362182 112.273052 
L 268.912909 99.333119 
L 272.463636 87.130159 
L 276.014364 75.786429 
L 279.565091 65.41328 
L 283.115818 56.111643 
L 286.666545 47.972229 
L 290.217273 41.075161 
L 293.768 35.488883 
L 297.318727 31.268381 
L 300.869455 28.452958 
L 304.420182 27.063906 
L 307.970909 27.102504 
L 311.521636 28.548665 
L 315.072364 31.360459 
L 318.623091 35.474596 
L 322.173818 40.807787 
L 325.724545 47.258868 
L 329.275273 54.711457 
L 332.826 63.036949 
L 336.376727 72.097631 
L 339.927455 81.749746 
L 343.478182 91.846373 
L 347.028909 102.240054 
L 350.579636 112.785119 
L 354.130364 123.339744 
L 357.681091 133.767776 
L 361.231818 143.940378 
L 364.782545 153.737544 
L 368.333273 163.049484 
L 371.884 171.777886 
L 375.434727 179.837005 
L 378.985455 187.154538 
L 382.536182 193.672255 
L 386.086909 199.346368 
L 389.637636 204.147656 
L 393.188364 208.061369 
L 396.739091 211.08694 
L 400.289818 213.23753 
L 403.840545 214.539389 
L 407.391273 215.031041 
L 410.942 214.762247 
L 414.492727 213.792769 
L 418.043455 212.190908 
L 421.594182 210.031888 
L 425.144909 207.396111 
L 428.695636 204.367371 
L 432.246364 201.031075 
" clip-path="url(#p58b52eb5e7)" style="fill: none; stroke-dasharray: 5.55,2.4; stroke-dashoffset: 0; stroke: #bfbf00; stroke-width: 1.5"/>
   </g>
   <g id="line2d_16">
    <path d="M 77.173636 64.586604 
L 80.724364 57.66942 
L 84.275091 51.551665 
L 87.825818 46.345514 
L 91.376545 42.153628 
L 94.927273 39.067306 
L 98.478 37.164773 
L 102.028727 36.509652 
L 105.579455 37.149636 
L 109.130182 39.115383 
L 112.680909 42.419663 
L 116.231636 47.056774 
L 119.782364 53.002233 
L 123.333091 60.212749 
L 126.883818 68.626496 
L 130.434545 78.163671 
L 133.985273 88.727339 
L 137.536 100.204545 
L 141.086727 112.467699 
L 144.637455 125.376189 
L 148.188182 138.778219 
L 151.738909 152.512835 
L 155.289636 166.412116 
L 158.840364 180.303486 
L 162.391091 194.01213 
L 165.941818 207.363458 
L 169.492545 220.185594 
L 173.043273 232.311842 
L 176.594 243.5831 
L 180.144727 253.850172 
L 183.695455 262.975959 
L 187.246182 270.837475 
L 190.796909 277.327675 
L 194.347636 282.357054 
L 197.898364 285.854991 
L 201.449091 287.770831 
L 204.999818 288.074669 
L 208.550545 286.757836 
L 212.101273 283.833074 
L 215.652 279.334395 
L 219.202727 273.316637 
L 222.753455 265.854704 
L 226.304182 257.04252 
L 229.854909 246.991701 
L 233.405636 235.829975 
L 236.956364 223.699364 
L 240.507091 210.754159 
L 244.057818 197.15873 
L 247.608545 183.085187 
L 251.159273 168.710939 
L 254.71 154.216186 
L 258.260727 139.781388 
L 261.811455 125.584732 
L 265.362182 111.799656 
L 268.912909 98.592463 
L 272.463636 86.120043 
L 276.014364 74.527767 
L 279.565091 63.947555 
L 283.115818 54.49617 
L 286.666545 46.273744 
L 290.217273 39.362571 
L 293.768 33.826175 
L 297.318727 29.708665 
L 300.869455 27.034396 
L 304.420182 25.807917 
L 307.970909 26.014227 
L 311.521636 27.619314 
L 315.072364 30.570977 
L 318.623091 34.799914 
L 322.173818 40.221043 
L 325.724545 46.735054 
L 329.275273 54.230145 
L 332.826 62.583925 
L 336.376727 71.665449 
L 339.927455 81.337341 
L 343.478182 91.457988 
L 347.028909 101.883756 
L 350.579636 112.47119 
L 354.130364 123.079173 
L 357.681091 133.571008 
L 361.231818 143.816375 
L 364.782545 153.693158 
L 368.333273 163.089093 
L 371.884 171.90322 
L 375.434727 180.047123 
L 378.985455 187.445933 
L 382.536182 194.039085 
L 386.086909 199.780818 
L 389.637636 204.640422 
L 393.188364 208.602214 
L 396.739091 211.66527 
L 400.289818 213.842906 
L 403.840545 215.161926 
L 407.391273 215.661657 
L 410.942 215.392786 
L 414.492727 214.416025 
L 418.043455 212.800633 
L 421.594182 210.622818 
L 425.144909 207.96406 
L 428.695636 204.909366 
L 432.246364 201.545517 
" clip-path="url(#p58b52eb5e7)" style="fill: none; stroke: #000000; stroke-width: 2; stroke-linecap: square"/>
   </g>
   <g id="line2d_17">
    <defs>
     <path id="m5e929f28c3" d="M 0 2.5 
C 0.663008 2.5 1.29895 2.236584 1.767767 1.767767 
C 2.236584 1.29895 2.5 0.663008 2.5 0 
C 2.5 -0.663008 2.236584 -1.29895 1.767767 -1.767767 
C 1.29895 -2.236584 0.663008 -2.5 0 -2.5 
C -0.663008 -2.5 -1.29895 -2.236584 -1.767767 -1.767767 
C -2.236584 -1.29895 -2.5 -0.663008 -2.5 0 
C -2.5 0.663008 -2.236584 1.29895 -1.767767 1.767767 
C -1.29895 2.236584 -0.663008 2.5 0 2.5 
z
" style="stroke: #000000"/>
    </defs>
    <g clip-path="url(#p58b52eb5e7)">
     <use xlink:href="#m5e929f28c3" x="80.724364" y="57.66942" style="fill-opacity: 0; stroke: #000000"/>
     <use xlink:href="#m5e929f28c3" x="84.275091" y="51.551665" style="fill-opacity: 0; stroke: #000000"/>
     <use xlink:href="#m5e929f28c3" x="87.825818" y="46.345514" style="fill-opacity: 0; stroke: #000000"/>
     <use xlink:href="#m5e929f28c3" x="91.376545" y="42.153628" style="fill-opacity: 0; stroke: #000000"/>
     <use xlink:href="#m5e929f28c3" x="94.927273" y="39.067306" style="fill-opacity: 0; stroke: #000000"/>
     <use xlink:href="#m5e929f28c3" x="98.478" y="37.164773" style="fill-opacity: 0; stroke: #000000"/>
     <use xlink:href="#m5e929f28c3" x="102.028727" y="36.509652" style="fill-opacity: 0; stroke: #000000"/>
     <use xlink:href="#m5e929f28c3" x="105.579455" y="37.149636" style="fill-opacity: 0; stroke: #000000"/>
     <use xlink:href="#m5e929f28c3" x="109.130182" y="39.115383" style="fill-opacity: 0; stroke: #000000"/>
     <use xlink:href="#m5e929f28c3" x="112.680909" y="42.419663" style="fill-opacity: 0; stroke: #000000"/>
     <use xlink:href="#m5e929f28c3" x="116.231636" y="47.056774" style="fill-opacity: 0; stroke: #000000"/>
     <use xlink:href="#m5e929f28c3" x="119.782364" y="53.002233" style="fill-opacity: 0; stroke: #000000"/>
     <use xlink:href="#m5e929f28c3" x="123.333091" y="60.212749" style="fill-opacity: 0; stroke: #000000"/>
     <use xlink:href="#m5e929f28c3" x="126.883818" y="68.626496" style="fill-opacity: 0; stroke: #000000"/>
     <use xlink:href="#m5e929f28c3" x="130.434545" y="78.163671" style="fill-opacity: 0; stroke: #000000"/>
     <use xlink:href="#m5e929f28c3" x="133.985273" y="88.727339" style="fill-opacity: 0; stroke: #000000"/>
     <use xlink:href="#m5e929f28c3" x="137.536" y="100.204545" style="fill-opacity: 0; stroke: #000000"/>
     <use xlink:href="#m5e929f28c3" x="141.086727" y="112.467699" style="fill-opacity: 0; stroke: #000000"/>
     <use xlink:href="#m5e929f28c3" x="144.637455" y="125.376189" style="fill-opacity: 0; stroke: #000000"/>
     <use xlink:href="#m5e929f28c3" x="148.188182" y="138.778219" style="fill-opacity: 0; stroke: #000000"/>
     <use xlink:href="#m5e929f28c3" x="151.738909" y="152.512835" style="fill-opacity: 0; stroke: #000000"/>
     <use xlink:href="#m5e929f28c3" x="155.289636" y="166.412116" style="fill-opacity: 0; stroke: #000000"/>
     <use xlink:href="#m5e929f28c3" x="158.840364" y="180.303486" style="fill-opacity: 0; stroke: #000000"/>
     <use xlink:href="#m5e929f28c3" x="162.391091" y="194.01213" style="fill-opacity: 0; stroke: #000000"/>
     <use xlink:href="#m5e929f28c3" x="165.941818" y="207.363458" style="fill-opacity: 0; stroke: #000000"/>
     <use xlink:href="#m5e929f28c3" x="169.492545" y="220.185594" style="fill-opacity: 0; stroke: #000000"/>
     <use xlink:href="#m5e929f28c3" x="173.043273" y="232.311842" style="fill-opacity: 0; stroke: #000000"/>
     <use xlink:href="#m5e929f28c3" x="176.594" y="243.5831" style="fill-opacity: 0; stroke: #000000"/>
     <use xlink:href="#m5e929f28c3" x="180.144727" y="253.850172" style="fill-opacity: 0; stroke: #000000"/>
     <use xlink:href="#m5e929f28c3" x="183.695455" y="262.975959" style="fill-opacity: 0; stroke: #000000"/>
     <use xlink:href="#m5e929f28c3" x="187.246182" y="270.837475" style="fill-opacity: 0; stroke: #000000"/>
     <use xlink:href="#m5e929f28c3" x="190.796909" y="277.327675" style="fill-opacity: 0; stroke: #000000"/>
     <use xlink:href="#m5e929f28c3" x="194.347636" y="282.357054" style="fill-opacity: 0; stroke: #000000"/>
     <use xlink:href="#m5e929f28c3" x="197.898364" y="285.854991" style="fill-opacity: 0; stroke: #000000"/>
     <use xlink:href="#m5e929f28c3" x="201.449091" y="287.770831" style="fill-opacity: 0; stroke: #000000"/>
     <use xlink:href="#m5e929f28c3" x="204.999818" y="288.074669" style="fill-opacity: 0; stroke: #000000"/>
     <use xlink:href="#m5e929f28c3" x="208.550545" y="286.757836" style="fill-opacity: 0; stroke: #000000"/>
     <use xlink:href="#m5e929f28c3" x="212.101273" y="283.833074" style="fill-opacity: 0; stroke: #000000"/>
     <use xlink:href="#m5e929f28c3" x="215.652" y="279.334395" style="fill-opacity: 0; stroke: #000000"/>
     <use xlink:href="#m5e929f28c3" x="219.202727" y="273.316637" style="fill-opacity: 0; stroke: #000000"/>
     <use xlink:href="#m5e929f28c3" x="222.753455" y="265.854704" style="fill-opacity: 0; stroke: #000000"/>
     <use xlink:href="#m5e929f28c3" x="226.304182" y="257.04252" style="fill-opacity: 0; stroke: #000000"/>
     <use xlink:href="#m5e929f28c3" x="229.854909" y="246.991701" style="fill-opacity: 0; stroke: #000000"/>
     <use xlink:href="#m5e929f28c3" x="233.405636" y="235.829975" style="fill-opacity: 0; stroke: #000000"/>
     <use xlink:href="#m5e929f28c3" x="236.956364" y="223.699364" style="fill-opacity: 0; stroke: #000000"/>
     <use xlink:href="#m5e929f28c3" x="240.507091" y="210.754159" style="fill-opacity: 0; stroke: #000000"/>
     <use xlink:href="#m5e929f28c3" x="244.057818" y="197.15873" style="fill-opacity: 0; stroke: #000000"/>
     <use xlink:href="#m5e929f28c3" x="247.608545" y="183.085187" style="fill-opacity: 0; stroke: #000000"/>
     <use xlink:href="#m5e929f28c3" x="251.159273" y="168.710939" style="fill-opacity: 0; stroke: #000000"/>
     <use xlink:href="#m5e929f28c3" x="254.71" y="154.216186" style="fill-opacity: 0; stroke: #000000"/>
     <use xlink:href="#m5e929f28c3" x="258.260727" y="139.781388" style="fill-opacity: 0; stroke: #000000"/>
     <use xlink:href="#m5e929f28c3" x="261.811455" y="125.584732" style="fill-opacity: 0; stroke: #000000"/>
     <use xlink:href="#m5e929f28c3" x="265.362182" y="111.799656" style="fill-opacity: 0; stroke: #000000"/>
     <use xlink:href="#m5e929f28c3" x="268.912909" y="98.592463" style="fill-opacity: 0; stroke: #000000"/>
     <use xlink:href="#m5e929f28c3" x="272.463636" y="86.120043" style="fill-opacity: 0; stroke: #000000"/>
     <use xlink:href="#m5e929f28c3" x="276.014364" y="74.527767" style="fill-opacity: 0; stroke: #000000"/>
     <use xlink:href="#m5e929f28c3" x="279.565091" y="63.947555" style="fill-opacity: 0; stroke: #000000"/>
     <use xlink:href="#m5e929f28c3" x="283.115818" y="54.49617" style="fill-opacity: 0; stroke: #000000"/>
     <use xlink:href="#m5e929f28c3" x="286.666545" y="46.273744" style="fill-opacity: 0; stroke: #000000"/>
     <use xlink:href="#m5e929f28c3" x="290.217273" y="39.362571" style="fill-opacity: 0; stroke: #000000"/>
     <use xlink:href="#m5e929f28c3" x="293.768" y="33.826175" style="fill-opacity: 0; stroke: #000000"/>
     <use xlink:href="#m5e929f28c3" x="297.318727" y="29.708665" style="fill-opacity: 0; stroke: #000000"/>
     <use xlink:href="#m5e929f28c3" x="300.869455" y="27.034396" style="fill-opacity: 0; stroke: #000000"/>
     <use xlink:href="#m5e929f28c3" x="304.420182" y="25.807917" style="fill-opacity: 0; stroke: #000000"/>
     <use xlink:href="#m5e929f28c3" x="307.970909" y="26.014227" style="fill-opacity: 0; stroke: #000000"/>
     <use xlink:href="#m5e929f28c3" x="311.521636" y="27.619314" style="fill-opacity: 0; stroke: #000000"/>
     <use xlink:href="#m5e929f28c3" x="315.072364" y="30.570977" style="fill-opacity: 0; stroke: #000000"/>
     <use xlink:href="#m5e929f28c3" x="318.623091" y="34.799914" style="fill-opacity: 0; stroke: #000000"/>
     <use xlink:href="#m5e929f28c3" x="322.173818" y="40.221043" style="fill-opacity: 0; stroke: #000000"/>
     <use xlink:href="#m5e929f28c3" x="325.724545" y="46.735054" style="fill-opacity: 0; stroke: #000000"/>
     <use xlink:href="#m5e929f28c3" x="329.275273" y="54.230145" style="fill-opacity: 0; stroke: #000000"/>
     <use xlink:href="#m5e929f28c3" x="332.826" y="62.583925" style="fill-opacity: 0; stroke: #000000"/>
     <use xlink:href="#m5e929f28c3" x="336.376727" y="71.665449" style="fill-opacity: 0; stroke: #000000"/>
     <use xlink:href="#m5e929f28c3" x="339.927455" y="81.337341" style="fill-opacity: 0; stroke: #000000"/>
     <use xlink:href="#m5e929f28c3" x="343.478182" y="91.457988" style="fill-opacity: 0; stroke: #000000"/>
     <use xlink:href="#m5e929f28c3" x="347.028909" y="101.883756" style="fill-opacity: 0; stroke: #000000"/>
     <use xlink:href="#m5e929f28c3" x="350.579636" y="112.47119" style="fill-opacity: 0; stroke: #000000"/>
     <use xlink:href="#m5e929f28c3" x="354.130364" y="123.079173" style="fill-opacity: 0; stroke: #000000"/>
     <use xlink:href="#m5e929f28c3" x="357.681091" y="133.571008" style="fill-opacity: 0; stroke: #000000"/>
     <use xlink:href="#m5e929f28c3" x="361.231818" y="143.816375" style="fill-opacity: 0; stroke: #000000"/>
     <use xlink:href="#m5e929f28c3" x="364.782545" y="153.693158" style="fill-opacity: 0; stroke: #000000"/>
     <use xlink:href="#m5e929f28c3" x="368.333273" y="163.089093" style="fill-opacity: 0; stroke: #000000"/>
     <use xlink:href="#m5e929f28c3" x="371.884" y="171.90322" style="fill-opacity: 0; stroke: #000000"/>
     <use xlink:href="#m5e929f28c3" x="375.434727" y="180.047123" style="fill-opacity: 0; stroke: #000000"/>
     <use xlink:href="#m5e929f28c3" x="378.985455" y="187.445933" style="fill-opacity: 0; stroke: #000000"/>
     <use xlink:href="#m5e929f28c3" x="382.536182" y="194.039085" style="fill-opacity: 0; stroke: #000000"/>
     <use xlink:href="#m5e929f28c3" x="386.086909" y="199.780818" style="fill-opacity: 0; stroke: #000000"/>
     <use xlink:href="#m5e929f28c3" x="389.637636" y="204.640422" style="fill-opacity: 0; stroke: #000000"/>
     <use xlink:href="#m5e929f28c3" x="393.188364" y="208.602214" style="fill-opacity: 0; stroke: #000000"/>
     <use xlink:href="#m5e929f28c3" x="396.739091" y="211.66527" style="fill-opacity: 0; stroke: #000000"/>
     <use xlink:href="#m5e929f28c3" x="400.289818" y="213.842906" style="fill-opacity: 0; stroke: #000000"/>
     <use xlink:href="#m5e929f28c3" x="403.840545" y="215.161926" style="fill-opacity: 0; stroke: #000000"/>
     <use xlink:href="#m5e929f28c3" x="407.391273" y="215.661657" style="fill-opacity: 0; stroke: #000000"/>
     <use xlink:href="#m5e929f28c3" x="410.942" y="215.392786" style="fill-opacity: 0; stroke: #000000"/>
     <use xlink:href="#m5e929f28c3" x="414.492727" y="214.416025" style="fill-opacity: 0; stroke: #000000"/>
     <use xlink:href="#m5e929f28c3" x="418.043455" y="212.800633" style="fill-opacity: 0; stroke: #000000"/>
     <use xlink:href="#m5e929f28c3" x="421.594182" y="210.622818" style="fill-opacity: 0; stroke: #000000"/>
     <use xlink:href="#m5e929f28c3" x="425.144909" y="207.96406" style="fill-opacity: 0; stroke: #000000"/>
     <use xlink:href="#m5e929f28c3" x="428.695636" y="204.909366" style="fill-opacity: 0; stroke: #000000"/>
     <use xlink:href="#m5e929f28c3" x="432.246364" y="201.545517" style="fill-opacity: 0; stroke: #000000"/>
    </g>
   </g>
   <g id="patch_3">
    <path d="M 59.42 303.64 
L 59.42 10.8 
" style="fill: none; stroke: #000000; stroke-width: 0.8; stroke-linejoin: miter; stroke-linecap: square"/>
   </g>
   <g id="patch_4">
    <path d="M 450 303.64 
L 450 10.8 
" style="fill: none; stroke: #000000; stroke-width: 0.8; stroke-linejoin: miter; stroke-linecap: square"/>
   </g>
   <g id="patch_5">
    <path d="M 59.42 303.64 
L 450 303.64 
" style="fill: none; stroke: #000000; stroke-width: 0.8; stroke-linejoin: miter; stroke-linecap: square"/>
   </g>
   <g id="patch_6">
    <path d="M 59.42 10.8 
L 450 10.8 
" style="fill: none; stroke: #000000; stroke-width: 0.8; stroke-linejoin: miter; stroke-linecap: square"/>
   </g>
   <g id="legend_1">
    <g id="patch_7">
     <path d="M 66.42 298.64 
L 166.102812 298.64 
Q 168.102812 298.64 168.102812 296.64 
L 168.102812 209.57125 
Q 168.102812 207.57125 166.102812 207.57125 
L 66.42 207.57125 
Q 64.42 207.57125 64.42 209.57125 
L 64.42 296.64 
Q 64.42 298.64 66.42 298.64 
z
" style="fill: #ffffff; opacity: 0.8; stroke: #cccccc; stroke-linejoin: miter"/>
    </g>
    <g id="line2d_18">
     <path d="M 68.42 215.669687 
L 78.42 215.669687 
L 88.42 215.669687 
" style="fill: none; stroke-dasharray: 5.55,2.4; stroke-dashoffset: 0; stroke: #ff0000; stroke-width: 1.5"/>
    </g>
    <g id="text_14">
     <!-- A -->
     <g transform="translate(96.42 219.169687) scale(0.1 -0.1)">
      <defs>
       <path id="DejaVuSans-41" d="M 2188 4044 
L 1331 1722 
L 3047 1722 
L 2188 4044 
z
M 1831 4666 
L 2547 4666 
L 4325 0 
L 3669 0 
L 3244 1197 
L 1141 1197 
L 716 0 
L 50 0 
L 1831 4666 
z
" transform="scale(0.015625)"/>
      </defs>
      <use xlink:href="#DejaVuSans-41"/>
     </g>
    </g>
    <g id="line2d_19">
     <path d="M 68.42 230.347812 
L 78.42 230.347812 
L 88.42 230.347812 
" style="fill: none; stroke-dasharray: 5.55,2.4; stroke-dashoffset: 0; stroke: #0000ff; stroke-width: 1.5"/>
    </g>
    <g id="text_15">
     <!-- B -->
     <g transform="translate(96.42 233.847812) scale(0.1 -0.1)">
      <defs>
       <path id="DejaVuSans-42" d="M 1259 2228 
L 1259 519 
L 2272 519 
Q 2781 519 3026 730 
Q 3272 941 3272 1375 
Q 3272 1813 3026 2020 
Q 2781 2228 2272 2228 
L 1259 2228 
z
M 1259 4147 
L 1259 2741 
L 2194 2741 
Q 2656 2741 2882 2914 
Q 3109 3088 3109 3444 
Q 3109 3797 2882 3972 
Q 2656 4147 2194 4147 
L 1259 4147 
z
M 628 4666 
L 2241 4666 
Q 2963 4666 3353 4366 
Q 3744 4066 3744 3513 
Q 3744 3084 3544 2831 
Q 3344 2578 2956 2516 
Q 3422 2416 3680 2098 
Q 3938 1781 3938 1306 
Q 3938 681 3513 340 
Q 3088 0 2303 0 
L 628 0 
L 628 4666 
z
" transform="scale(0.015625)"/>
      </defs>
      <use xlink:href="#DejaVuSans-42"/>
     </g>
    </g>
    <g id="line2d_20">
     <path d="M 68.42 245.025937 
L 78.42 245.025937 
L 88.42 245.025937 
" style="fill: none; stroke-dasharray: 5.55,2.4; stroke-dashoffset: 0; stroke: #008000; stroke-width: 1.5"/>
    </g>
    <g id="text_16">
     <!-- C -->
     <g transform="translate(96.42 248.525937) scale(0.1 -0.1)">
      <defs>
       <path id="DejaVuSans-43" d="M 4122 4306 
L 4122 3641 
Q 3803 3938 3442 4084 
Q 3081 4231 2675 4231 
Q 1875 4231 1450 3742 
Q 1025 3253 1025 2328 
Q 1025 1406 1450 917 
Q 1875 428 2675 428 
Q 3081 428 3442 575 
Q 3803 722 4122 1019 
L 4122 359 
Q 3791 134 3420 21 
Q 3050 -91 2638 -91 
Q 1578 -91 968 557 
Q 359 1206 359 2328 
Q 359 3453 968 4101 
Q 1578 4750 2638 4750 
Q 3056 4750 3426 4639 
Q 3797 4528 4122 4306 
z
" transform="scale(0.015625)"/>
      </defs>
      <use xlink:href="#DejaVuSans-43"/>
     </g>
    </g>
    <g id="line2d_21">
     <path d="M 68.42 259.704062 
L 78.42 259.704062 
L 88.42 259.704062 
" style="fill: none; stroke-dasharray: 5.55,2.4; stroke-dashoffset: 0; stroke: #bfbf00; stroke-width: 1.5"/>
    </g>
    <g id="text_17">
     <!-- D -->
     <g transform="translate(96.42 263.204062) scale(0.1 -0.1)">
      <defs>
       <path id="DejaVuSans-44" d="M 1259 4147 
L 1259 519 
L 2022 519 
Q 2988 519 3436 956 
Q 3884 1394 3884 2338 
Q 3884 3275 3436 3711 
Q 2988 4147 2022 4147 
L 1259 4147 
z
M 628 4666 
L 1925 4666 
Q 3281 4666 3915 4102 
Q 4550 3538 4550 2338 
Q 4550 1131 3912 565 
Q 3275 0 1925 0 
L 628 0 
L 628 4666 
z
" transform="scale(0.015625)"/>
      </defs>
      <use xlink:href="#DejaVuSans-44"/>
     </g>
    </g>
    <g id="line2d_22">
     <path d="M 68.42 274.382187 
L 78.42 274.382187 
L 88.42 274.382187 
" style="fill: none; stroke: #000000; stroke-width: 2; stroke-linecap: square"/>
    </g>
    <g id="text_18">
     <!-- target -->
     <g transform="translate(96.42 277.882187) scale(0.1 -0.1)">
      <defs>
       <path id="DejaVuSans-61" d="M 2194 1759 
Q 1497 1759 1228 1600 
Q 959 1441 959 1056 
Q 959 750 1161 570 
Q 1363 391 1709 391 
Q 2188 391 2477 730 
Q 2766 1069 2766 1631 
L 2766 1759 
L 2194 1759 
z
M 3341 1997 
L 3341 0 
L 2766 0 
L 2766 531 
Q 2569 213 2275 61 
Q 1981 -91 1556 -91 
Q 1019 -91 701 211 
Q 384 513 384 1019 
Q 384 1609 779 1909 
Q 1175 2209 1959 2209 
L 2766 2209 
L 2766 2266 
Q 2766 2663 2505 2880 
Q 2244 3097 1772 3097 
Q 1472 3097 1187 3025 
Q 903 2953 641 2809 
L 641 3341 
Q 956 3463 1253 3523 
Q 1550 3584 1831 3584 
Q 2591 3584 2966 3190 
Q 3341 2797 3341 1997 
z
" transform="scale(0.015625)"/>
       <path id="DejaVuSans-72" d="M 2631 2963 
Q 2534 3019 2420 3045 
Q 2306 3072 2169 3072 
Q 1681 3072 1420 2755 
Q 1159 2438 1159 1844 
L 1159 0 
L 581 0 
L 581 3500 
L 1159 3500 
L 1159 2956 
Q 1341 3275 1631 3429 
Q 1922 3584 2338 3584 
Q 2397 3584 2469 3576 
Q 2541 3569 2628 3553 
L 2631 2963 
z
" transform="scale(0.015625)"/>
       <path id="DejaVuSans-67" d="M 2906 1791 
Q 2906 2416 2648 2759 
Q 2391 3103 1925 3103 
Q 1463 3103 1205 2759 
Q 947 2416 947 1791 
Q 947 1169 1205 825 
Q 1463 481 1925 481 
Q 2391 481 2648 825 
Q 2906 1169 2906 1791 
z
M 3481 434 
Q 3481 -459 3084 -895 
Q 2688 -1331 1869 -1331 
Q 1566 -1331 1297 -1286 
Q 1028 -1241 775 -1147 
L 775 -588 
Q 1028 -725 1275 -790 
Q 1522 -856 1778 -856 
Q 2344 -856 2625 -561 
Q 2906 -266 2906 331 
L 2906 616 
Q 2728 306 2450 153 
Q 2172 0 1784 0 
Q 1141 0 747 490 
Q 353 981 353 1791 
Q 353 2603 747 3093 
Q 1141 3584 1784 3584 
Q 2172 3584 2450 3431 
Q 2728 3278 2906 2969 
L 2906 3500 
L 3481 3500 
L 3481 434 
z
" transform="scale(0.015625)"/>
      </defs>
      <use xlink:href="#DejaVuSans-74"/>
      <use xlink:href="#DejaVuSans-61" x="39.208984"/>
      <use xlink:href="#DejaVuSans-72" x="100.488281"/>
      <use xlink:href="#DejaVuSans-67" x="139.851562"/>
      <use xlink:href="#DejaVuSans-65" x="203.328125"/>
      <use xlink:href="#DejaVuSans-74" x="264.851562"/>
     </g>
    </g>
    <g id="line2d_23">
     <g>
      <use xlink:href="#m5e929f28c3" x="78.42" y="289.060312" style="fill-opacity: 0; stroke: #000000"/>
     </g>
    </g>
    <g id="text_19">
     <!-- homogenized -->
     <g transform="translate(96.42 292.560312) scale(0.1 -0.1)">
      <defs>
       <path id="DejaVuSans-68" d="M 3513 2113 
L 3513 0 
L 2938 0 
L 2938 2094 
Q 2938 2591 2744 2837 
Q 2550 3084 2163 3084 
Q 1697 3084 1428 2787 
Q 1159 2491 1159 1978 
L 1159 0 
L 581 0 
L 581 4863 
L 1159 4863 
L 1159 2956 
Q 1366 3272 1645 3428 
Q 1925 3584 2291 3584 
Q 2894 3584 3203 3211 
Q 3513 2838 3513 2113 
z
" transform="scale(0.015625)"/>
       <path id="DejaVuSans-6f" d="M 1959 3097 
Q 1497 3097 1228 2736 
Q 959 2375 959 1747 
Q 959 1119 1226 758 
Q 1494 397 1959 397 
Q 2419 397 2687 759 
Q 2956 1122 2956 1747 
Q 2956 2369 2687 2733 
Q 2419 3097 1959 3097 
z
M 1959 3584 
Q 2709 3584 3137 3096 
Q 3566 2609 3566 1747 
Q 3566 888 3137 398 
Q 2709 -91 1959 -91 
Q 1206 -91 779 398 
Q 353 888 353 1747 
Q 353 2609 779 3096 
Q 1206 3584 1959 3584 
z
" transform="scale(0.015625)"/>
       <path id="DejaVuSans-6e" d="M 3513 2113 
L 3513 0 
L 2938 0 
L 2938 2094 
Q 2938 2591 2744 2837 
Q 2550 3084 2163 3084 
Q 1697 3084 1428 2787 
Q 1159 2491 1159 1978 
L 1159 0 
L 581 0 
L 581 3500 
L 1159 3500 
L 1159 2956 
Q 1366 3272 1645 3428 
Q 1925 3584 2291 3584 
Q 2894 3584 3203 3211 
Q 3513 2838 3513 2113 
z
" transform="scale(0.015625)"/>
       <path id="DejaVuSans-7a" d="M 353 3500 
L 3084 3500 
L 3084 2975 
L 922 459 
L 3084 459 
L 3084 0 
L 275 0 
L 275 525 
L 2438 3041 
L 353 3041 
L 353 3500 
z
" transform="scale(0.015625)"/>
       <path id="DejaVuSans-64" d="M 2906 2969 
L 2906 4863 
L 3481 4863 
L 3481 0 
L 2906 0 
L 2906 525 
Q 2725 213 2448 61 
Q 2172 -91 1784 -91 
Q 1150 -91 751 415 
Q 353 922 353 1747 
Q 353 2572 751 3078 
Q 1150 3584 1784 3584 
Q 2172 3584 2448 3432 
Q 2725 3281 2906 2969 
z
M 947 1747 
Q 947 1113 1208 752 
Q 1469 391 1925 391 
Q 2381 391 2643 752 
Q 2906 1113 2906 1747 
Q 2906 2381 2643 2742 
Q 2381 3103 1925 3103 
Q 1469 3103 1208 2742 
Q 947 2381 947 1747 
z
" transform="scale(0.015625)"/>
      </defs>
      <use xlink:href="#DejaVuSans-68"/>
      <use xlink:href="#DejaVuSans-6f" x="63.378906"/>
      <use xlink:href="#DejaVuSans-6d" x="124.560547"/>
      <use xlink:href="#DejaVuSans-6f" x="221.972656"/>
      <use xlink:href="#DejaVuSans-67" x="283.154297"/>
      <use xlink:href="#DejaVuSans-65" x="346.630859"/>
      <use xlink:href="#DejaVuSans-6e" x="408.154297"/>
      <use xlink:href="#DejaVuSans-69" x="471.533203"/>
      <use xlink:href="#DejaVuSans-7a" x="499.316406"/>
      <use xlink:href="#DejaVuSans-65" x="551.806641"/>
      <use xlink:href="#DejaVuSans-64" x="613.330078"/>
     </g>
    </g>
   </g>
  </g>
 </g>
 <defs>
  <clipPath id="p58b52eb5e7">
   <rect x="59.42" y="10.8" width="390.58" height="292.84"/>
  </clipPath>
 </defs>
</svg>
