<?xml version="1.0" encoding="utf-8" standalone="no"?>
<!DOCTYPE svg PUBLIC "-//W3C//DTD SVG 1.1//EN"
  "http://www.w3.org/Graphics/SVG/1.1/DTD/svg11.dtd">
<svg xmlns:xlink="http://www.w3.org/1999/xlink" width="460.8pt" height="345.6pt" viewBox="0 0 460.8 345.6" xmlns="http://www.w3.org/2000/svg" version="1.1">
 <metadata>
  <rdf:RDF xmlns:dc="http://purl.org/dc/elements/1.1/" xmlns:cc="http://creativecommons.org/ns#" xmlns:rdf="http://www.w3.org/1999/02/22-rdf-syntax-ns#">
   <cc:Work>
    <dc:type rdf:resource="http://purl.org/dc/dcmitype/StillImage"/>
    <dc:date>2024-03-04T14:31:04.306717</dc:date>
    <dc:format>image/svg+xml</dc:format>
    <dc:creator>
     <cc:Agent>
      <dc:title>Matplotlib v3.8.3, https://matplotlib.org/</dc:title>
     </cc:Agent>
    </dc:creator>
   </cc:Work>
  </rdf:RDF>
 </metadata>
 <defs>
  <style type="text/css">*{stroke-linejoin: round; stroke-linecap: butt}</style>
 </defs>
 <g id="figure_1">
  <g id="patch_1">
   <path d="M 0 345.6 
L 460.8 345.6 
L 460.8 0 
L 0 0 
z
" style="fill: #ffffff"/>
  </g>
  <g id="axes_1">
   <g id="patch_2">
    <path d="M 59.42 303.64 
L 450 303.64 
L 450 10.8 
L 59.42 10.8 
z
" style="fill: #ffffff"/>
   </g>
   <g id="matplotlib.axis_1">
    <g id="xtick_1">
     <g id="line2d_1">
      <defs>
       <path id="m3de8799163" d="M 0 0 
L 0 3.5 
" style="stroke: #000000; stroke-width: 0.8"/>
      </defs>
      <g>
       <use xlink:href="#m3de8799163" x="77.173636" y="303.64" style="stroke: #000000; stroke-width: 0.8"/>
      </g>
     </g>
     <g id="text_1">
      <!-- 0.0 -->
      <g transform="translate(69.222074 318.238437) scale(0.1 -0.1)">
       <defs>
        <path id="DejaVuSans-30" d="M 2034 4250 
Q 1547 4250 1301 3770 
Q 1056 3291 1056 2328 
Q 1056 1369 1301 889 
Q 1547 409 2034 409 
Q 2525 409 2770 889 
Q 3016 1369 3016 2328 
Q 3016 3291 2770 3770 
Q 2525 4250 2034 4250 
z
M 2034 4750 
Q 2819 4750 3233 4129 
Q 3647 3509 3647 2328 
Q 3647 1150 3233 529 
Q 2819 -91 2034 -91 
Q 1250 -91 836 529 
Q 422 1150 422 2328 
Q 422 3509 836 4129 
Q 1250 4750 2034 4750 
z
" transform="scale(0.015625)"/>
        <path id="DejaVuSans-2e" d="M 684 794 
L 1344 794 
L 1344 0 
L 684 0 
L 684 794 
z
" transform="scale(0.015625)"/>
       </defs>
       <use xlink:href="#DejaVuSans-30"/>
       <use xlink:href="#DejaVuSans-2e" x="63.623047"/>
       <use xlink:href="#DejaVuSans-30" x="95.410156"/>
      </g>
     </g>
    </g>
    <g id="xtick_2">
     <g id="line2d_2">
      <g>
       <use xlink:href="#m3de8799163" x="148.188182" y="303.64" style="stroke: #000000; stroke-width: 0.8"/>
      </g>
     </g>
     <g id="text_2">
      <!-- 0.2 -->
      <g transform="translate(140.236619 318.238437) scale(0.1 -0.1)">
       <defs>
        <path id="DejaVuSans-32" d="M 1228 531 
L 3431 531 
L 3431 0 
L 469 0 
L 469 531 
Q 828 903 1448 1529 
Q 2069 2156 2228 2338 
Q 2531 2678 2651 2914 
Q 2772 3150 2772 3378 
Q 2772 3750 2511 3984 
Q 2250 4219 1831 4219 
Q 1534 4219 1204 4116 
Q 875 4013 500 3803 
L 500 4441 
Q 881 4594 1212 4672 
Q 1544 4750 1819 4750 
Q 2544 4750 2975 4387 
Q 3406 4025 3406 3419 
Q 3406 3131 3298 2873 
Q 3191 2616 2906 2266 
Q 2828 2175 2409 1742 
Q 1991 1309 1228 531 
z
" transform="scale(0.015625)"/>
       </defs>
       <use xlink:href="#DejaVuSans-30"/>
       <use xlink:href="#DejaVuSans-2e" x="63.623047"/>
       <use xlink:href="#DejaVuSans-32" x="95.410156"/>
      </g>
     </g>
    </g>
    <g id="xtick_3">
     <g id="line2d_3">
      <g>
       <use xlink:href="#m3de8799163" x="219.202727" y="303.64" style="stroke: #000000; stroke-width: 0.8"/>
      </g>
     </g>
     <g id="text_3">
      <!-- 0.4 -->
      <g transform="translate(211.251165 318.238437) scale(0.1 -0.1)">
       <defs>
        <path id="DejaVuSans-34" d="M 2419 4116 
L 825 1625 
L 2419 1625 
L 2419 4116 
z
M 2253 4666 
L 3047 4666 
L 3047 1625 
L 3713 1625 
L 3713 1100 
L 3047 1100 
L 3047 0 
L 2419 0 
L 2419 1100 
L 313 1100 
L 313 1709 
L 2253 4666 
z
" transform="scale(0.015625)"/>
       </defs>
       <use xlink:href="#DejaVuSans-30"/>
       <use xlink:href="#DejaVuSans-2e" x="63.623047"/>
       <use xlink:href="#DejaVuSans-34" x="95.410156"/>
      </g>
     </g>
    </g>
    <g id="xtick_4">
     <g id="line2d_4">
      <g>
       <use xlink:href="#m3de8799163" x="290.217273" y="303.64" style="stroke: #000000; stroke-width: 0.8"/>
      </g>
     </g>
     <g id="text_4">
      <!-- 0.6 -->
      <g transform="translate(282.26571 318.238437) scale(0.1 -0.1)">
       <defs>
        <path id="DejaVuSans-36" d="M 2113 2584 
Q 1688 2584 1439 2293 
Q 1191 2003 1191 1497 
Q 1191 994 1439 701 
Q 1688 409 2113 409 
Q 2538 409 2786 701 
Q 3034 994 3034 1497 
Q 3034 2003 2786 2293 
Q 2538 2584 2113 2584 
z
M 3366 4563 
L 3366 3988 
Q 3128 4100 2886 4159 
Q 2644 4219 2406 4219 
Q 1781 4219 1451 3797 
Q 1122 3375 1075 2522 
Q 1259 2794 1537 2939 
Q 1816 3084 2150 3084 
Q 2853 3084 3261 2657 
Q 3669 2231 3669 1497 
Q 3669 778 3244 343 
Q 2819 -91 2113 -91 
Q 1303 -91 875 529 
Q 447 1150 447 2328 
Q 447 3434 972 4092 
Q 1497 4750 2381 4750 
Q 2619 4750 2861 4703 
Q 3103 4656 3366 4563 
z
" transform="scale(0.015625)"/>
       </defs>
       <use xlink:href="#DejaVuSans-30"/>
       <use xlink:href="#DejaVuSans-2e" x="63.623047"/>
       <use xlink:href="#DejaVuSans-36" x="95.410156"/>
      </g>
     </g>
    </g>
    <g id="xtick_5">
     <g id="line2d_5">
      <g>
       <use xlink:href="#m3de8799163" x="361.231818" y="303.64" style="stroke: #000000; stroke-width: 0.8"/>
      </g>
     </g>
     <g id="text_5">
      <!-- 0.8 -->
      <g transform="translate(353.280256 318.238437) scale(0.1 -0.1)">
       <defs>
        <path id="DejaVuSans-38" d="M 2034 2216 
Q 1584 2216 1326 1975 
Q 1069 1734 1069 1313 
Q 1069 891 1326 650 
Q 1584 409 2034 409 
Q 2484 409 2743 651 
Q 3003 894 3003 1313 
Q 3003 1734 2745 1975 
Q 2488 2216 2034 2216 
z
M 1403 2484 
Q 997 2584 770 2862 
Q 544 3141 544 3541 
Q 544 4100 942 4425 
Q 1341 4750 2034 4750 
Q 2731 4750 3128 4425 
Q 3525 4100 3525 3541 
Q 3525 3141 3298 2862 
Q 3072 2584 2669 2484 
Q 3125 2378 3379 2068 
Q 3634 1759 3634 1313 
Q 3634 634 3220 271 
Q 2806 -91 2034 -91 
Q 1263 -91 848 271 
Q 434 634 434 1313 
Q 434 1759 690 2068 
Q 947 2378 1403 2484 
z
M 1172 3481 
Q 1172 3119 1398 2916 
Q 1625 2713 2034 2713 
Q 2441 2713 2670 2916 
Q 2900 3119 2900 3481 
Q 2900 3844 2670 4047 
Q 2441 4250 2034 4250 
Q 1625 4250 1398 4047 
Q 1172 3844 1172 3481 
z
" transform="scale(0.015625)"/>
       </defs>
       <use xlink:href="#DejaVuSans-30"/>
       <use xlink:href="#DejaVuSans-2e" x="63.623047"/>
       <use xlink:href="#DejaVuSans-38" x="95.410156"/>
      </g>
     </g>
    </g>
    <g id="xtick_6">
     <g id="line2d_6">
      <g>
       <use xlink:href="#m3de8799163" x="432.246364" y="303.64" style="stroke: #000000; stroke-width: 0.8"/>
      </g>
     </g>
     <g id="text_6">
      <!-- 1.0 -->
      <g transform="translate(424.294801 318.238437) scale(0.1 -0.1)">
       <defs>
        <path id="DejaVuSans-31" d="M 794 531 
L 1825 531 
L 1825 4091 
L 703 3866 
L 703 4441 
L 1819 4666 
L 2450 4666 
L 2450 531 
L 3481 531 
L 3481 0 
L 794 0 
L 794 531 
z
" transform="scale(0.015625)"/>
       </defs>
       <use xlink:href="#DejaVuSans-31"/>
       <use xlink:href="#DejaVuSans-2e" x="63.623047"/>
       <use xlink:href="#DejaVuSans-30" x="95.410156"/>
      </g>
     </g>
    </g>
    <g id="text_7">
     <!-- time (s) -->
     <g transform="translate(235.318594 331.916562) scale(0.1 -0.1)">
      <defs>
       <path id="DejaVuSans-74" d="M 1172 4494 
L 1172 3500 
L 2356 3500 
L 2356 3053 
L 1172 3053 
L 1172 1153 
Q 1172 725 1289 603 
Q 1406 481 1766 481 
L 2356 481 
L 2356 0 
L 1766 0 
Q 1100 0 847 248 
Q 594 497 594 1153 
L 594 3053 
L 172 3053 
L 172 3500 
L 594 3500 
L 594 4494 
L 1172 4494 
z
" transform="scale(0.015625)"/>
       <path id="DejaVuSans-69" d="M 603 3500 
L 1178 3500 
L 1178 0 
L 603 0 
L 603 3500 
z
M 603 4863 
L 1178 4863 
L 1178 4134 
L 603 4134 
L 603 4863 
z
" transform="scale(0.015625)"/>
       <path id="DejaVuSans-6d" d="M 3328 2828 
Q 3544 3216 3844 3400 
Q 4144 3584 4550 3584 
Q 5097 3584 5394 3201 
Q 5691 2819 5691 2113 
L 5691 0 
L 5113 0 
L 5113 2094 
Q 5113 2597 4934 2840 
Q 4756 3084 4391 3084 
Q 3944 3084 3684 2787 
Q 3425 2491 3425 1978 
L 3425 0 
L 2847 0 
L 2847 2094 
Q 2847 2600 2669 2842 
Q 2491 3084 2119 3084 
Q 1678 3084 1418 2786 
Q 1159 2488 1159 1978 
L 1159 0 
L 581 0 
L 581 3500 
L 1159 3500 
L 1159 2956 
Q 1356 3278 1631 3431 
Q 1906 3584 2284 3584 
Q 2666 3584 2933 3390 
Q 3200 3197 3328 2828 
z
" transform="scale(0.015625)"/>
       <path id="DejaVuSans-65" d="M 3597 1894 
L 3597 1613 
L 953 1613 
Q 991 1019 1311 708 
Q 1631 397 2203 397 
Q 2534 397 2845 478 
Q 3156 559 3463 722 
L 3463 178 
Q 3153 47 2828 -22 
Q 2503 -91 2169 -91 
Q 1331 -91 842 396 
Q 353 884 353 1716 
Q 353 2575 817 3079 
Q 1281 3584 2069 3584 
Q 2775 3584 3186 3129 
Q 3597 2675 3597 1894 
z
M 3022 2063 
Q 3016 2534 2758 2815 
Q 2500 3097 2075 3097 
Q 1594 3097 1305 2825 
Q 1016 2553 972 2059 
L 3022 2063 
z
" transform="scale(0.015625)"/>
       <path id="DejaVuSans-20" transform="scale(0.015625)"/>
       <path id="DejaVuSans-28" d="M 1984 4856 
Q 1566 4138 1362 3434 
Q 1159 2731 1159 2009 
Q 1159 1288 1364 580 
Q 1569 -128 1984 -844 
L 1484 -844 
Q 1016 -109 783 600 
Q 550 1309 550 2009 
Q 550 2706 781 3412 
Q 1013 4119 1484 4856 
L 1984 4856 
z
" transform="scale(0.015625)"/>
       <path id="DejaVuSans-73" d="M 2834 3397 
L 2834 2853 
Q 2591 2978 2328 3040 
Q 2066 3103 1784 3103 
Q 1356 3103 1142 2972 
Q 928 2841 928 2578 
Q 928 2378 1081 2264 
Q 1234 2150 1697 2047 
L 1894 2003 
Q 2506 1872 2764 1633 
Q 3022 1394 3022 966 
Q 3022 478 2636 193 
Q 2250 -91 1575 -91 
Q 1294 -91 989 -36 
Q 684 19 347 128 
L 347 722 
Q 666 556 975 473 
Q 1284 391 1588 391 
Q 1994 391 2212 530 
Q 2431 669 2431 922 
Q 2431 1156 2273 1281 
Q 2116 1406 1581 1522 
L 1381 1569 
Q 847 1681 609 1914 
Q 372 2147 372 2553 
Q 372 3047 722 3315 
Q 1072 3584 1716 3584 
Q 2034 3584 2315 3537 
Q 2597 3491 2834 3397 
z
" transform="scale(0.015625)"/>
       <path id="DejaVuSans-29" d="M 513 4856 
L 1013 4856 
Q 1481 4119 1714 3412 
Q 1947 2706 1947 2009 
Q 1947 1309 1714 600 
Q 1481 -109 1013 -844 
L 513 -844 
Q 928 -128 1133 580 
Q 1338 1288 1338 2009 
Q 1338 2731 1133 3434 
Q 928 4138 513 4856 
z
" transform="scale(0.015625)"/>
      </defs>
      <use xlink:href="#DejaVuSans-74"/>
      <use xlink:href="#DejaVuSans-69" x="39.208984"/>
      <use xlink:href="#DejaVuSans-6d" x="66.992188"/>
      <use xlink:href="#DejaVuSans-65" x="164.404297"/>
      <use xlink:href="#DejaVuSans-20" x="225.927734"/>
      <use xlink:href="#DejaVuSans-28" x="257.714844"/>
      <use xlink:href="#DejaVuSans-73" x="296.728516"/>
      <use xlink:href="#DejaVuSans-29" x="348.828125"/>
     </g>
    </g>
   </g>
   <g id="matplotlib.axis_2">
    <g id="ytick_1">
     <g id="line2d_7">
      <defs>
       <path id="m75240b625b" d="M 0 0 
L -3.5 0 
" style="stroke: #000000; stroke-width: 0.8"/>
      </defs>
      <g>
       <use xlink:href="#m75240b625b" x="59.42" y="273.375761" style="stroke: #000000; stroke-width: 0.8"/>
      </g>
     </g>
     <g id="text_8">
      <!-- −300 -->
      <g transform="translate(24.952813 277.17498) scale(0.1 -0.1)">
       <defs>
        <path id="DejaVuSans-2212" d="M 678 2272 
L 4684 2272 
L 4684 1741 
L 678 1741 
L 678 2272 
z
" transform="scale(0.015625)"/>
        <path id="DejaVuSans-33" d="M 2597 2516 
Q 3050 2419 3304 2112 
Q 3559 1806 3559 1356 
Q 3559 666 3084 287 
Q 2609 -91 1734 -91 
Q 1441 -91 1130 -33 
Q 819 25 488 141 
L 488 750 
Q 750 597 1062 519 
Q 1375 441 1716 441 
Q 2309 441 2620 675 
Q 2931 909 2931 1356 
Q 2931 1769 2642 2001 
Q 2353 2234 1838 2234 
L 1294 2234 
L 1294 2753 
L 1863 2753 
Q 2328 2753 2575 2939 
Q 2822 3125 2822 3475 
Q 2822 3834 2567 4026 
Q 2313 4219 1838 4219 
Q 1578 4219 1281 4162 
Q 984 4106 628 3988 
L 628 4550 
Q 988 4650 1302 4700 
Q 1616 4750 1894 4750 
Q 2613 4750 3031 4423 
Q 3450 4097 3450 3541 
Q 3450 3153 3228 2886 
Q 3006 2619 2597 2516 
z
" transform="scale(0.015625)"/>
       </defs>
       <use xlink:href="#DejaVuSans-2212"/>
       <use xlink:href="#DejaVuSans-33" x="83.789062"/>
       <use xlink:href="#DejaVuSans-30" x="147.412109"/>
       <use xlink:href="#DejaVuSans-30" x="211.035156"/>
      </g>
     </g>
    </g>
    <g id="ytick_2">
     <g id="line2d_8">
      <g>
       <use xlink:href="#m75240b625b" x="59.42" y="233.199679" style="stroke: #000000; stroke-width: 0.8"/>
      </g>
     </g>
     <g id="text_9">
      <!-- −200 -->
      <g transform="translate(24.952813 236.998898) scale(0.1 -0.1)">
       <use xlink:href="#DejaVuSans-2212"/>
       <use xlink:href="#DejaVuSans-32" x="83.789062"/>
       <use xlink:href="#DejaVuSans-30" x="147.412109"/>
       <use xlink:href="#DejaVuSans-30" x="211.035156"/>
      </g>
     </g>
    </g>
    <g id="ytick_3">
     <g id="line2d_9">
      <g>
       <use xlink:href="#m75240b625b" x="59.42" y="193.023597" style="stroke: #000000; stroke-width: 0.8"/>
      </g>
     </g>
     <g id="text_10">
      <!-- −100 -->
      <g transform="translate(24.952813 196.822816) scale(0.1 -0.1)">
       <use xlink:href="#DejaVuSans-2212"/>
       <use xlink:href="#DejaVuSans-31" x="83.789062"/>
       <use xlink:href="#DejaVuSans-30" x="147.412109"/>
       <use xlink:href="#DejaVuSans-30" x="211.035156"/>
      </g>
     </g>
    </g>
    <g id="ytick_4">
     <g id="line2d_10">
      <g>
       <use xlink:href="#m75240b625b" x="59.42" y="152.847515" style="stroke: #000000; stroke-width: 0.8"/>
      </g>
     </g>
     <g id="text_11">
      <!-- 0 -->
      <g transform="translate(46.0575 156.646734) scale(0.1 -0.1)">
       <use xlink:href="#DejaVuSans-30"/>
      </g>
     </g>
    </g>
    <g id="ytick_5">
     <g id="line2d_11">
      <g>
       <use xlink:href="#m75240b625b" x="59.42" y="112.671434" style="stroke: #000000; stroke-width: 0.8"/>
      </g>
     </g>
     <g id="text_12">
      <!-- 100 -->
      <g transform="translate(33.3325 116.470652) scale(0.1 -0.1)">
       <use xlink:href="#DejaVuSans-31"/>
       <use xlink:href="#DejaVuSans-30" x="63.623047"/>
       <use xlink:href="#DejaVuSans-30" x="127.246094"/>
      </g>
     </g>
    </g>
    <g id="ytick_6">
     <g id="line2d_12">
      <g>
       <use xlink:href="#m75240b625b" x="59.42" y="72.495352" style="stroke: #000000; stroke-width: 0.8"/>
      </g>
     </g>
     <g id="text_13">
      <!-- 200 -->
      <g transform="translate(33.3325 76.294571) scale(0.1 -0.1)">
       <use xlink:href="#DejaVuSans-32"/>
       <use xlink:href="#DejaVuSans-30" x="63.623047"/>
       <use xlink:href="#DejaVuSans-30" x="127.246094"/>
      </g>
     </g>
    </g>
    <g id="ytick_7">
     <g id="line2d_13">
      <g>
       <use xlink:href="#m75240b625b" x="59.42" y="32.31927" style="stroke: #000000; stroke-width: 0.8"/>
      </g>
     </g>
     <g id="text_14">
      <!-- 300 -->
      <g transform="translate(33.3325 36.118489) scale(0.1 -0.1)">
       <use xlink:href="#DejaVuSans-33"/>
       <use xlink:href="#DejaVuSans-30" x="63.623047"/>
       <use xlink:href="#DejaVuSans-30" x="127.246094"/>
      </g>
     </g>
    </g>
    <g id="text_15">
     <!-- Pyy -->
     <g transform="translate(18.873125 166.153594) rotate(-90) scale(0.1 -0.1)">
      <defs>
       <path id="DejaVuSans-50" d="M 1259 4147 
L 1259 2394 
L 2053 2394 
Q 2494 2394 2734 2622 
Q 2975 2850 2975 3272 
Q 2975 3691 2734 3919 
Q 2494 4147 2053 4147 
L 1259 4147 
z
M 628 4666 
L 2053 4666 
Q 2838 4666 3239 4311 
Q 3641 3956 3641 3272 
Q 3641 2581 3239 2228 
Q 2838 1875 2053 1875 
L 1259 1875 
L 1259 0 
L 628 0 
L 628 4666 
z
" transform="scale(0.015625)"/>
       <path id="DejaVuSans-79" d="M 2059 -325 
Q 1816 -950 1584 -1140 
Q 1353 -1331 966 -1331 
L 506 -1331 
L 506 -850 
L 844 -850 
Q 1081 -850 1212 -737 
Q 1344 -625 1503 -206 
L 1606 56 
L 191 3500 
L 800 3500 
L 1894 763 
L 2988 3500 
L 3597 3500 
L 2059 -325 
z
" transform="scale(0.015625)"/>
      </defs>
      <use xlink:href="#DejaVuSans-50"/>
      <use xlink:href="#DejaVuSans-79" x="60.302734"/>
      <use xlink:href="#DejaVuSans-79" x="119.482422"/>
     </g>
    </g>
   </g>
   <g id="line2d_14">
    <path d="M 80.724364 164.919949 
L 84.275091 157.536666 
L 87.825818 148.615246 
L 91.376545 138.783742 
L 94.927273 128.762102 
L 98.478 119.319516 
L 102.028727 111.228038 
L 105.579455 105.21497 
L 109.130182 101.916597 
L 112.680909 101.835859 
L 116.231636 105.306509 
L 119.782364 112.465981 
L 123.333091 123.238834 
L 126.883818 137.331945 
L 130.434545 154.241922 
L 133.985273 173.274451 
L 137.536 193.574765 
L 141.086727 214.16813 
L 144.637455 234.009095 
L 148.188182 252.037955 
L 151.738909 267.242063 
L 155.289636 278.718379 
L 158.840364 285.732232 
L 162.391091 287.766677 
L 165.941818 284.557458 
L 169.492545 276.110661 
L 173.043273 262.702621 
L 176.594 244.863773 
L 180.144727 223.348986 
L 183.695455 199.096971 
L 187.246182 173.180909 
L 190.796909 146.752451 
L 194.347636 120.981608 
L 197.898364 96.995719 
L 201.449091 75.821146 
L 204.999818 58.331295 
L 208.550545 45.204026 
L 212.101273 36.890628 
L 215.652 33.597528 
L 219.202727 35.281062 
L 222.753455 41.654953 
L 226.304182 52.209682 
L 229.854909 66.242579 
L 233.405636 82.897236 
L 236.956364 101.210511 
L 240.507091 120.165086 
L 244.057818 138.74516 
L 247.608545 155.992378 
L 251.159273 171.058763 
L 254.71 183.253194 
L 258.260727 192.078152 
L 261.811455 197.254059 
L 265.362182 198.729565 
L 268.912909 196.677346 
L 272.463636 191.47616 
L 276.014364 183.680724 
L 279.565091 173.981518 
L 283.115818 163.156991 
L 286.666545 152.021074 
L 290.217273 141.369432 
L 293.768 131.928254 
L 297.318727 124.309421 
L 300.869455 118.975243 
L 304.420182 116.214917 
L 307.970909 116.133598 
L 311.521636 118.653877 
L 315.072364 123.528634 
L 318.623091 130.363748 
L 322.173818 138.648798 
L 325.724545 147.793688 
L 329.275273 157.168919 
L 332.826 166.147154 
L 336.376727 174.143652 
L 339.927455 180.653282 
L 343.478182 185.282011 
L 347.028909 187.771088 
L 350.579636 188.012525 
L 354.130364 186.054964 
L 357.681091 182.099505 
L 361.231818 176.48564 
L 364.782545 169.66803 
L 368.333273 162.185475 
L 371.884 154.623964 
L 375.434727 147.576244 
L 378.985455 141.600646 
L 382.536182 137.182045 
L 386.086909 134.697763 
L 389.637636 134.390837 
L 393.188364 136.352557 
L 396.739091 140.515499 
L 400.289818 146.657484 
L 403.840545 154.416126 
L 407.391273 163.31289 
L 410.942 172.784892 
L 414.492727 182.222216 
L 418.043455 191.008119 
L 421.594182 198.559431 
L 425.144909 204.364475 
L 428.695636 208.01611 
L 432.246364 209.23788 
" clip-path="url(#p933882546d)" style="fill: none; stroke-dasharray: 5.55,2.4; stroke-dashoffset: 0; stroke: #ff0000; stroke-width: 1.5"/>
   </g>
   <g id="line2d_15">
    <path d="M 80.724364 247.04091 
L 84.275091 249.898509 
L 87.825818 248.513118 
L 91.376545 243.164284 
L 94.927273 234.336108 
L 98.478 222.682925 
L 102.028727 208.985139 
L 105.579455 194.098362 
L 109.130182 178.899421 
L 112.680909 164.23287 
L 116.231636 150.861464 
L 119.782364 139.423651 
L 123.333091 130.400597 
L 126.883818 124.094632 
L 130.434545 120.620311 
L 133.985273 119.908473 
L 137.536 121.722656 
L 141.086727 125.686075 
L 144.637455 131.316205 
L 148.188182 138.063342 
L 151.738909 145.349553 
L 155.289636 152.605434 
L 158.840364 159.303493 
L 162.391091 164.988064 
L 165.941818 169.301778 
L 169.492545 172.007718 
L 173.043273 173.005165 
L 176.594 172.336308 
L 180.144727 170.181905 
L 183.695455 166.845455 
L 187.246182 162.727185 
L 190.796909 158.290401 
L 194.347636 154.023233 
L 197.898364 150.398677 
L 201.449091 147.835574 
L 204.999818 146.662921 
L 208.550545 147.089916 
L 212.101273 149.18405 
L 215.652 152.859326 
L 219.202727 157.87616 
L 222.753455 163.853612 
L 226.304182 170.293535 
L 229.854909 176.615064 
L 233.405636 182.196855 
L 236.956364 186.423673 
L 240.507091 188.733554 
L 244.057818 188.661746 
L 247.608545 185.878116 
L 251.159273 180.215443 
L 254.71 171.687001 
L 258.260727 160.492709 
L 261.811455 147.013863 
L 265.362182 131.796892 
L 268.912909 115.526948 
L 272.463636 98.992489 
L 276.014364 83.042602 
L 279.565091 68.539496 
L 283.115818 56.309134 
L 286.666545 47.093162 
L 290.217273 41.504952 
L 293.768 39.99204 
L 297.318727 42.806654 
L 300.869455 49.98577 
L 304.420182 61.341985 
L 307.970909 76.466367 
L 311.521636 94.743996 
L 315.072364 115.382192 
L 318.623091 137.4504 
L 322.173818 159.929737 
L 325.724545 181.769285 
L 329.275273 201.945643 
L 332.826 219.521925 
L 336.376727 233.702369 
L 339.927455 243.87896 
L 343.478182 249.66701 
L 347.028909 250.927289 
L 350.579636 247.773274 
L 354.130364 240.563004 
L 357.681091 229.876145 
L 361.231818 216.477802 
L 364.782545 201.271491 
L 368.333273 185.244306 
L 371.884 169.407719 
L 375.434727 154.737597 
L 378.985455 142.116925 
L 382.536182 132.284489 
L 386.086909 125.792354 
L 389.637636 122.974459 
L 393.188364 123.928047 
L 396.739091 128.50896 
L 400.289818 136.341086 
L 403.840545 146.839442 
L 407.391273 159.245662 
L 410.942 172.673921 
L 414.492727 186.164701 
L 418.043455 198.74334 
L 421.594182 209.479925 
L 425.144909 217.54694 
L 428.695636 222.271121 
L 432.246364 223.176257 
" clip-path="url(#p933882546d)" style="fill: none; stroke-dasharray: 5.55,2.4; stroke-dashoffset: 0; stroke: #0000ff; stroke-width: 1.5"/>
   </g>
   <g id="line2d_16">
    <path d="M 80.724364 158.174826 
L 84.275091 149.997652 
L 87.825818 140.514508 
L 91.376545 130.385502 
L 94.927273 120.353124 
L 98.478 111.197599 
L 102.028727 103.688631 
L 105.579455 98.536093 
L 109.130182 96.342487 
L 112.680909 97.560133 
L 116.231636 102.45605 
L 119.782364 111.087388 
L 123.333091 123.289729 
L 126.883818 138.679759 
L 130.434545 156.672484 
L 133.985273 176.511713 
L 137.536 197.311032 
L 141.086727 218.10152 
L 144.637455 237.882201 
L 148.188182 255.669761 
L 151.738909 270.545127 
L 155.289636 281.695791 
L 158.840364 288.453726 
L 162.391091 290.329091 
L 165.941818 287.039522 
L 169.492545 278.533735 
L 173.043273 265.006992 
L 176.594 246.905278 
L 180.144727 224.915113 
L 183.695455 199.937048 
L 187.246182 173.042713 
L 190.796909 145.417627 
L 194.347636 118.294124 
L 197.898364 92.880231 
L 201.449091 70.290694 
L 204.999818 51.485593 
L 208.550545 37.220574 
L 212.101273 28.011002 
L 215.652 24.110909 
L 219.202727 25.50653 
L 222.753455 31.923557 
L 226.304182 42.846944 
L 229.854909 57.551947 
L 233.405636 75.144974 
L 236.956364 94.612724 
L 240.507091 114.877778 
L 244.057818 134.858408 
L 247.608545 153.529702 
L 251.159273 169.98239 
L 254.71 183.475186 
L 258.260727 193.476219 
L 261.811455 199.68967 
L 265.362182 202.065013 
L 268.912909 200.788183 
L 272.463636 196.2561 
L 276.014364 189.037831 
L 279.565091 179.826777 
L 283.115818 169.388669 
L 286.666545 158.509716 
L 290.217273 147.948345 
L 293.768 138.392866 
L 297.318727 130.426338 
L 300.869455 124.499289 
L 304.420182 120.910589 
L 307.970909 119.796751 
L 311.521636 121.129951 
L 315.072364 124.724998 
L 318.623091 130.25519 
L 322.173818 137.276495 
L 325.724545 145.258849 
L 329.275273 153.622732 
L 332.826 161.778654 
L 336.376727 169.166902 
L 339.927455 175.29487 
L 343.478182 179.769491 
L 347.028909 182.322664 
L 350.579636 182.828069 
L 354.130364 181.308372 
L 357.681091 177.932375 
L 361.231818 173.002361 
L 364.782545 166.932423 
L 368.333273 160.21919 
L 371.884 153.406861 
L 375.434727 147.04886 
L 378.985455 141.66874 
L 382.536182 137.723052 
L 386.086909 135.568796 
L 389.637636 135.437792 
L 393.188364 137.419783 
L 396.739091 141.455462 
L 400.289818 147.339851 
L 403.840545 154.735716 
L 407.391273 163.195992 
L 410.942 172.193581 
L 414.492727 181.156411 
L 418.043455 189.505352 
L 421.594182 196.692442 
L 425.144909 202.236907 
L 428.695636 205.75664 
L 432.246364 206.993134 
" clip-path="url(#p933882546d)" style="fill: none; stroke-dasharray: 5.55,2.4; stroke-dashoffset: 0; stroke: #008000; stroke-width: 1.5"/>
   </g>
   <g id="line2d_17">
    <path d="M 80.724364 253.786032 
L 84.275091 257.437524 
L 87.825818 256.613856 
L 91.376545 251.562523 
L 94.927273 242.745087 
L 98.478 230.804842 
L 102.028727 216.524545 
L 105.579455 200.777239 
L 109.130182 184.47353 
L 112.680909 168.508596 
L 116.231636 153.711923 
L 119.782364 140.802245 
L 123.333091 130.349702 
L 126.883818 122.746818 
L 130.434545 118.18975 
L 133.985273 116.671211 
L 137.536 117.986389 
L 141.086727 121.752684 
L 144.637455 127.443099 
L 148.188182 134.431536 
L 151.738909 142.046489 
L 155.289636 149.628021 
L 158.840364 156.581999 
L 162.391091 162.42565 
L 165.941818 166.819714 
L 169.492545 169.584644 
L 173.043273 170.700794 
L 176.594 170.294803 
L 180.144727 168.615778 
L 183.695455 166.005379 
L 187.246182 162.865382 
L 190.796909 159.625226 
L 194.347636 156.710717 
L 197.898364 154.514165 
L 201.449091 153.366027 
L 204.999818 153.508622 
L 208.550545 155.073368 
L 212.101273 158.063677 
L 215.652 162.345945 
L 219.202727 167.650691 
L 222.753455 173.585009 
L 226.304182 179.656272 
L 229.854909 185.305696 
L 233.405636 189.949117 
L 236.956364 193.02146 
L 240.507091 194.020862 
L 244.057818 192.548497 
L 247.608545 188.340792 
L 251.159273 181.291816 
L 254.71 171.465008 
L 258.260727 159.094642 
L 261.811455 144.578252 
L 265.362182 128.461443 
L 268.912909 111.416111 
L 272.463636 94.212549 
L 276.014364 77.685496 
L 279.565091 62.694237 
L 283.115818 50.077455 
L 286.666545 40.60452 
L 290.217273 34.926039 
L 293.768 33.527428 
L 297.318727 36.689738 
L 300.869455 44.461724 
L 304.420182 56.646313 
L 307.970909 72.803214 
L 311.521636 92.267923 
L 315.072364 114.185828 
L 318.623091 137.558958 
L 322.173818 161.302041 
L 325.724545 184.304124 
L 329.275273 205.491829 
L 332.826 223.890425 
L 336.376727 238.679119 
L 339.927455 249.237373 
L 343.478182 255.17953 
L 347.028909 256.375714 
L 350.579636 252.95773 
L 354.130364 245.309597 
L 357.681091 234.043275 
L 361.231818 219.96108 
L 364.782545 204.007098 
L 368.333273 187.210591 
L 371.884 170.624822 
L 375.434727 155.264982 
L 378.985455 142.04883 
L 382.536182 131.743481 
L 386.086909 124.921321 
L 389.637636 121.927504 
L 393.188364 122.86082 
L 396.739091 127.568997 
L 400.289818 135.658719 
L 403.840545 146.519852 
L 407.391273 159.36256 
L 410.942 173.265232 
L 414.492727 187.230506 
L 418.043455 200.246107 
L 421.594182 211.346914 
L 425.144909 219.674507 
L 428.695636 224.530591 
L 432.246364 225.421003 
" clip-path="url(#p933882546d)" style="fill: none; stroke-dasharray: 5.55,2.4; stroke-dashoffset: 0; stroke: #bfbf00; stroke-width: 1.5"/>
   </g>
   <g id="line2d_18">
    <path d="M 77.173636 205.076422 
L 80.724364 205.980429 
L 84.275091 203.717588 
L 87.825818 198.564182 
L 91.376545 190.974013 
L 94.927273 181.549105 
L 98.478 171.001221 
L 102.028727 160.106588 
L 105.579455 149.656666 
L 109.130182 140.408009 
L 112.680909 133.034365 
L 116.231636 128.083987 
L 119.782364 125.944816 
L 123.333091 126.819716 
L 126.883818 130.713288 
L 130.434545 137.431117 
L 133.985273 146.591462 
L 137.536 157.648711 
L 141.086727 169.927102 
L 144.637455 182.66265 
L 148.188182 195.050649 
L 151.738909 206.295808 
L 155.289636 215.661906 
L 158.840364 222.517863 
L 162.391091 226.37737 
L 165.941818 226.929618 
L 169.492545 224.059189 
L 173.043273 217.853893 
L 176.594 208.60004 
L 180.144727 196.765446 
L 183.695455 182.971213 
L 187.246182 167.954047 
L 190.796909 152.521426 
L 194.347636 137.50242 
L 197.898364 123.697198 
L 201.449091 111.82836 
L 204.999818 102.497108 
L 208.550545 96.146971 
L 212.101273 93.037339 
L 215.652 93.228427 
L 219.202727 96.578611 
L 222.753455 102.754283 
L 226.304182 111.251608 
L 229.854909 121.428821 
L 233.405636 132.547046 
L 236.956364 143.817092 
L 240.507091 154.44932 
L 244.057818 163.703453 
L 247.608545 170.935247 
L 251.159273 175.637103 
L 254.71 177.470097 
L 258.260727 176.28543 
L 261.811455 172.133961 
L 265.362182 165.263228 
L 268.912909 156.102147 
L 272.463636 145.234324 
L 276.014364 133.361663 
L 279.565091 121.260507 
L 283.115818 109.733062 
L 286.666545 99.557118 
L 290.217273 91.437192 
L 293.768 85.960147 
L 297.318727 83.558038 
L 300.869455 84.480507 
L 304.420182 88.778451 
L 307.970909 96.299982 
L 311.521636 106.698937 
L 315.072364 119.455413 
L 318.623091 133.907074 
L 322.173818 149.289268 
L 325.724545 164.781486 
L 329.275273 179.557281 
L 332.826 192.83454 
L 336.376727 203.92301 
L 339.927455 212.266121 
L 343.478182 217.47451 
L 347.028909 219.349189 
L 350.579636 217.8929 
L 354.130364 213.308984 
L 357.681091 205.987825 
L 361.231818 196.481721 
L 364.782545 185.469761 
L 368.333273 173.71489 
L 371.884 162.015841 
L 375.434727 151.156921 
L 378.985455 141.858785 
L 382.536182 134.733267 
L 386.086909 130.245059 
L 389.637636 128.682648 
L 393.188364 130.140302 
L 396.739091 134.51223 
L 400.289818 141.499285 
L 403.840545 150.627784 
L 407.391273 161.279276 
L 410.942 172.729406 
L 414.492727 184.193458 
L 418.043455 194.87573 
L 421.594182 204.019678 
L 425.144909 210.955707 
L 428.695636 215.143616 
L 432.246364 216.207068 
" clip-path="url(#p933882546d)" style="fill: none; stroke: #000000; stroke-width: 2; stroke-linecap: square"/>
   </g>
   <g id="line2d_19">
    <defs>
     <path id="mde3ca751c2" d="M 0 2.5 
C 0.663008 2.5 1.29895 2.236584 1.767767 1.767767 
C 2.236584 1.29895 2.5 0.663008 2.5 0 
C 2.5 -0.663008 2.236584 -1.29895 1.767767 -1.767767 
C 1.29895 -2.236584 0.663008 -2.5 0 -2.5 
C -0.663008 -2.5 -1.29895 -2.236584 -1.767767 -1.767767 
C -2.236584 -1.29895 -2.5 -0.663008 -2.5 0 
C -2.5 0.663008 -2.236584 1.29895 -1.767767 1.767767 
C -1.29895 2.236584 -0.663008 2.5 0 2.5 
z
" style="stroke: #000000"/>
    </defs>
    <g clip-path="url(#p933882546d)">
     <use xlink:href="#mde3ca751c2" x="80.724364" y="205.980429" style="fill-opacity: 0; stroke: #000000"/>
     <use xlink:href="#mde3ca751c2" x="84.275091" y="203.717588" style="fill-opacity: 0; stroke: #000000"/>
     <use xlink:href="#mde3ca751c2" x="87.825818" y="198.564182" style="fill-opacity: 0; stroke: #000000"/>
     <use xlink:href="#mde3ca751c2" x="91.376545" y="190.974013" style="fill-opacity: 0; stroke: #000000"/>
     <use xlink:href="#mde3ca751c2" x="94.927273" y="181.549105" style="fill-opacity: 0; stroke: #000000"/>
     <use xlink:href="#mde3ca751c2" x="98.478" y="171.001221" style="fill-opacity: 0; stroke: #000000"/>
     <use xlink:href="#mde3ca751c2" x="102.028727" y="160.106588" style="fill-opacity: 0; stroke: #000000"/>
     <use xlink:href="#mde3ca751c2" x="105.579455" y="149.656666" style="fill-opacity: 0; stroke: #000000"/>
     <use xlink:href="#mde3ca751c2" x="109.130182" y="140.408009" style="fill-opacity: 0; stroke: #000000"/>
     <use xlink:href="#mde3ca751c2" x="112.680909" y="133.034365" style="fill-opacity: 0; stroke: #000000"/>
     <use xlink:href="#mde3ca751c2" x="116.231636" y="128.083987" style="fill-opacity: 0; stroke: #000000"/>
     <use xlink:href="#mde3ca751c2" x="119.782364" y="125.944816" style="fill-opacity: 0; stroke: #000000"/>
     <use xlink:href="#mde3ca751c2" x="123.333091" y="126.819716" style="fill-opacity: 0; stroke: #000000"/>
     <use xlink:href="#mde3ca751c2" x="126.883818" y="130.713288" style="fill-opacity: 0; stroke: #000000"/>
     <use xlink:href="#mde3ca751c2" x="130.434545" y="137.431117" style="fill-opacity: 0; stroke: #000000"/>
     <use xlink:href="#mde3ca751c2" x="133.985273" y="146.591462" style="fill-opacity: 0; stroke: #000000"/>
     <use xlink:href="#mde3ca751c2" x="137.536" y="157.648711" style="fill-opacity: 0; stroke: #000000"/>
     <use xlink:href="#mde3ca751c2" x="141.086727" y="169.927102" style="fill-opacity: 0; stroke: #000000"/>
     <use xlink:href="#mde3ca751c2" x="144.637455" y="182.66265" style="fill-opacity: 0; stroke: #000000"/>
     <use xlink:href="#mde3ca751c2" x="148.188182" y="195.050649" style="fill-opacity: 0; stroke: #000000"/>
     <use xlink:href="#mde3ca751c2" x="151.738909" y="206.295808" style="fill-opacity: 0; stroke: #000000"/>
     <use xlink:href="#mde3ca751c2" x="155.289636" y="215.661906" style="fill-opacity: 0; stroke: #000000"/>
     <use xlink:href="#mde3ca751c2" x="158.840364" y="222.517863" style="fill-opacity: 0; stroke: #000000"/>
     <use xlink:href="#mde3ca751c2" x="162.391091" y="226.37737" style="fill-opacity: 0; stroke: #000000"/>
     <use xlink:href="#mde3ca751c2" x="165.941818" y="226.929618" style="fill-opacity: 0; stroke: #000000"/>
     <use xlink:href="#mde3ca751c2" x="169.492545" y="224.059189" style="fill-opacity: 0; stroke: #000000"/>
     <use xlink:href="#mde3ca751c2" x="173.043273" y="217.853893" style="fill-opacity: 0; stroke: #000000"/>
     <use xlink:href="#mde3ca751c2" x="176.594" y="208.60004" style="fill-opacity: 0; stroke: #000000"/>
     <use xlink:href="#mde3ca751c2" x="180.144727" y="196.765446" style="fill-opacity: 0; stroke: #000000"/>
     <use xlink:href="#mde3ca751c2" x="183.695455" y="182.971213" style="fill-opacity: 0; stroke: #000000"/>
     <use xlink:href="#mde3ca751c2" x="187.246182" y="167.954047" style="fill-opacity: 0; stroke: #000000"/>
     <use xlink:href="#mde3ca751c2" x="190.796909" y="152.521426" style="fill-opacity: 0; stroke: #000000"/>
     <use xlink:href="#mde3ca751c2" x="194.347636" y="137.50242" style="fill-opacity: 0; stroke: #000000"/>
     <use xlink:href="#mde3ca751c2" x="197.898364" y="123.697198" style="fill-opacity: 0; stroke: #000000"/>
     <use xlink:href="#mde3ca751c2" x="201.449091" y="111.82836" style="fill-opacity: 0; stroke: #000000"/>
     <use xlink:href="#mde3ca751c2" x="204.999818" y="102.497108" style="fill-opacity: 0; stroke: #000000"/>
     <use xlink:href="#mde3ca751c2" x="208.550545" y="96.146971" style="fill-opacity: 0; stroke: #000000"/>
     <use xlink:href="#mde3ca751c2" x="212.101273" y="93.037339" style="fill-opacity: 0; stroke: #000000"/>
     <use xlink:href="#mde3ca751c2" x="215.652" y="93.228427" style="fill-opacity: 0; stroke: #000000"/>
     <use xlink:href="#mde3ca751c2" x="219.202727" y="96.578611" style="fill-opacity: 0; stroke: #000000"/>
     <use xlink:href="#mde3ca751c2" x="222.753455" y="102.754283" style="fill-opacity: 0; stroke: #000000"/>
     <use xlink:href="#mde3ca751c2" x="226.304182" y="111.251608" style="fill-opacity: 0; stroke: #000000"/>
     <use xlink:href="#mde3ca751c2" x="229.854909" y="121.428821" style="fill-opacity: 0; stroke: #000000"/>
     <use xlink:href="#mde3ca751c2" x="233.405636" y="132.547046" style="fill-opacity: 0; stroke: #000000"/>
     <use xlink:href="#mde3ca751c2" x="236.956364" y="143.817092" style="fill-opacity: 0; stroke: #000000"/>
     <use xlink:href="#mde3ca751c2" x="240.507091" y="154.44932" style="fill-opacity: 0; stroke: #000000"/>
     <use xlink:href="#mde3ca751c2" x="244.057818" y="163.703453" style="fill-opacity: 0; stroke: #000000"/>
     <use xlink:href="#mde3ca751c2" x="247.608545" y="170.935247" style="fill-opacity: 0; stroke: #000000"/>
     <use xlink:href="#mde3ca751c2" x="251.159273" y="175.637103" style="fill-opacity: 0; stroke: #000000"/>
     <use xlink:href="#mde3ca751c2" x="254.71" y="177.470097" style="fill-opacity: 0; stroke: #000000"/>
     <use xlink:href="#mde3ca751c2" x="258.260727" y="176.28543" style="fill-opacity: 0; stroke: #000000"/>
     <use xlink:href="#mde3ca751c2" x="261.811455" y="172.133961" style="fill-opacity: 0; stroke: #000000"/>
     <use xlink:href="#mde3ca751c2" x="265.362182" y="165.263228" style="fill-opacity: 0; stroke: #000000"/>
     <use xlink:href="#mde3ca751c2" x="268.912909" y="156.102147" style="fill-opacity: 0; stroke: #000000"/>
     <use xlink:href="#mde3ca751c2" x="272.463636" y="145.234324" style="fill-opacity: 0; stroke: #000000"/>
     <use xlink:href="#mde3ca751c2" x="276.014364" y="133.361663" style="fill-opacity: 0; stroke: #000000"/>
     <use xlink:href="#mde3ca751c2" x="279.565091" y="121.260507" style="fill-opacity: 0; stroke: #000000"/>
     <use xlink:href="#mde3ca751c2" x="283.115818" y="109.733062" style="fill-opacity: 0; stroke: #000000"/>
     <use xlink:href="#mde3ca751c2" x="286.666545" y="99.557118" style="fill-opacity: 0; stroke: #000000"/>
     <use xlink:href="#mde3ca751c2" x="290.217273" y="91.437192" style="fill-opacity: 0; stroke: #000000"/>
     <use xlink:href="#mde3ca751c2" x="293.768" y="85.960147" style="fill-opacity: 0; stroke: #000000"/>
     <use xlink:href="#mde3ca751c2" x="297.318727" y="83.558038" style="fill-opacity: 0; stroke: #000000"/>
     <use xlink:href="#mde3ca751c2" x="300.869455" y="84.480507" style="fill-opacity: 0; stroke: #000000"/>
     <use xlink:href="#mde3ca751c2" x="304.420182" y="88.778451" style="fill-opacity: 0; stroke: #000000"/>
     <use xlink:href="#mde3ca751c2" x="307.970909" y="96.299982" style="fill-opacity: 0; stroke: #000000"/>
     <use xlink:href="#mde3ca751c2" x="311.521636" y="106.698937" style="fill-opacity: 0; stroke: #000000"/>
     <use xlink:href="#mde3ca751c2" x="315.072364" y="119.455413" style="fill-opacity: 0; stroke: #000000"/>
     <use xlink:href="#mde3ca751c2" x="318.623091" y="133.907074" style="fill-opacity: 0; stroke: #000000"/>
     <use xlink:href="#mde3ca751c2" x="322.173818" y="149.289268" style="fill-opacity: 0; stroke: #000000"/>
     <use xlink:href="#mde3ca751c2" x="325.724545" y="164.781486" style="fill-opacity: 0; stroke: #000000"/>
     <use xlink:href="#mde3ca751c2" x="329.275273" y="179.557281" style="fill-opacity: 0; stroke: #000000"/>
     <use xlink:href="#mde3ca751c2" x="332.826" y="192.83454" style="fill-opacity: 0; stroke: #000000"/>
     <use xlink:href="#mde3ca751c2" x="336.376727" y="203.92301" style="fill-opacity: 0; stroke: #000000"/>
     <use xlink:href="#mde3ca751c2" x="339.927455" y="212.266121" style="fill-opacity: 0; stroke: #000000"/>
     <use xlink:href="#mde3ca751c2" x="343.478182" y="217.47451" style="fill-opacity: 0; stroke: #000000"/>
     <use xlink:href="#mde3ca751c2" x="347.028909" y="219.349189" style="fill-opacity: 0; stroke: #000000"/>
     <use xlink:href="#mde3ca751c2" x="350.579636" y="217.8929" style="fill-opacity: 0; stroke: #000000"/>
     <use xlink:href="#mde3ca751c2" x="354.130364" y="213.308984" style="fill-opacity: 0; stroke: #000000"/>
     <use xlink:href="#mde3ca751c2" x="357.681091" y="205.987825" style="fill-opacity: 0; stroke: #000000"/>
     <use xlink:href="#mde3ca751c2" x="361.231818" y="196.481721" style="fill-opacity: 0; stroke: #000000"/>
     <use xlink:href="#mde3ca751c2" x="364.782545" y="185.469761" style="fill-opacity: 0; stroke: #000000"/>
     <use xlink:href="#mde3ca751c2" x="368.333273" y="173.71489" style="fill-opacity: 0; stroke: #000000"/>
     <use xlink:href="#mde3ca751c2" x="371.884" y="162.015841" style="fill-opacity: 0; stroke: #000000"/>
     <use xlink:href="#mde3ca751c2" x="375.434727" y="151.156921" style="fill-opacity: 0; stroke: #000000"/>
     <use xlink:href="#mde3ca751c2" x="378.985455" y="141.858785" style="fill-opacity: 0; stroke: #000000"/>
     <use xlink:href="#mde3ca751c2" x="382.536182" y="134.733267" style="fill-opacity: 0; stroke: #000000"/>
     <use xlink:href="#mde3ca751c2" x="386.086909" y="130.245059" style="fill-opacity: 0; stroke: #000000"/>
     <use xlink:href="#mde3ca751c2" x="389.637636" y="128.682648" style="fill-opacity: 0; stroke: #000000"/>
     <use xlink:href="#mde3ca751c2" x="393.188364" y="130.140302" style="fill-opacity: 0; stroke: #000000"/>
     <use xlink:href="#mde3ca751c2" x="396.739091" y="134.51223" style="fill-opacity: 0; stroke: #000000"/>
     <use xlink:href="#mde3ca751c2" x="400.289818" y="141.499285" style="fill-opacity: 0; stroke: #000000"/>
     <use xlink:href="#mde3ca751c2" x="403.840545" y="150.627784" style="fill-opacity: 0; stroke: #000000"/>
     <use xlink:href="#mde3ca751c2" x="407.391273" y="161.279276" style="fill-opacity: 0; stroke: #000000"/>
     <use xlink:href="#mde3ca751c2" x="410.942" y="172.729406" style="fill-opacity: 0; stroke: #000000"/>
     <use xlink:href="#mde3ca751c2" x="414.492727" y="184.193458" style="fill-opacity: 0; stroke: #000000"/>
     <use xlink:href="#mde3ca751c2" x="418.043455" y="194.87573" style="fill-opacity: 0; stroke: #000000"/>
     <use xlink:href="#mde3ca751c2" x="421.594182" y="204.019678" style="fill-opacity: 0; stroke: #000000"/>
     <use xlink:href="#mde3ca751c2" x="425.144909" y="210.955707" style="fill-opacity: 0; stroke: #000000"/>
     <use xlink:href="#mde3ca751c2" x="428.695636" y="215.143616" style="fill-opacity: 0; stroke: #000000"/>
     <use xlink:href="#mde3ca751c2" x="432.246364" y="216.207068" style="fill-opacity: 0; stroke: #000000"/>
    </g>
   </g>
   <g id="patch_3">
    <path d="M 59.42 303.64 
L 59.42 10.8 
" style="fill: none; stroke: #000000; stroke-width: 0.8; stroke-linejoin: miter; stroke-linecap: square"/>
   </g>
   <g id="patch_4">
    <path d="M 450 303.64 
L 450 10.8 
" style="fill: none; stroke: #000000; stroke-width: 0.8; stroke-linejoin: miter; stroke-linecap: square"/>
   </g>
   <g id="patch_5">
    <path d="M 59.42 303.64 
L 450 303.64 
" style="fill: none; stroke: #000000; stroke-width: 0.8; stroke-linejoin: miter; stroke-linecap: square"/>
   </g>
   <g id="patch_6">
    <path d="M 59.42 10.8 
L 450 10.8 
" style="fill: none; stroke: #000000; stroke-width: 0.8; stroke-linejoin: miter; stroke-linecap: square"/>
   </g>
   <g id="legend_1">
    <g id="patch_7">
     <path d="M 343.317187 106.86875 
L 443 106.86875 
Q 445 106.86875 445 104.86875 
L 445 17.8 
Q 445 15.8 443 15.8 
L 343.317187 15.8 
Q 341.317187 15.8 341.317187 17.8 
L 341.317187 104.86875 
Q 341.317187 106.86875 343.317187 106.86875 
z
" style="fill: #ffffff; opacity: 0.8; stroke: #cccccc; stroke-linejoin: miter"/>
    </g>
    <g id="line2d_20">
     <path d="M 345.317187 23.898438 
L 355.317187 23.898438 
L 365.317187 23.898438 
" style="fill: none; stroke-dasharray: 5.55,2.4; stroke-dashoffset: 0; stroke: #ff0000; stroke-width: 1.5"/>
    </g>
    <g id="text_16">
     <!-- A -->
     <g transform="translate(373.317187 27.398438) scale(0.1 -0.1)">
      <defs>
       <path id="DejaVuSans-41" d="M 2188 4044 
L 1331 1722 
L 3047 1722 
L 2188 4044 
z
M 1831 4666 
L 2547 4666 
L 4325 0 
L 3669 0 
L 3244 1197 
L 1141 1197 
L 716 0 
L 50 0 
L 1831 4666 
z
" transform="scale(0.015625)"/>
      </defs>
      <use xlink:href="#DejaVuSans-41"/>
     </g>
    </g>
    <g id="line2d_21">
     <path d="M 345.317187 38.576563 
L 355.317187 38.576563 
L 365.317187 38.576563 
" style="fill: none; stroke-dasharray: 5.55,2.4; stroke-dashoffset: 0; stroke: #0000ff; stroke-width: 1.5"/>
    </g>
    <g id="text_17">
     <!-- B -->
     <g transform="translate(373.317187 42.076563) scale(0.1 -0.1)">
      <defs>
       <path id="DejaVuSans-42" d="M 1259 2228 
L 1259 519 
L 2272 519 
Q 2781 519 3026 730 
Q 3272 941 3272 1375 
Q 3272 1813 3026 2020 
Q 2781 2228 2272 2228 
L 1259 2228 
z
M 1259 4147 
L 1259 2741 
L 2194 2741 
Q 2656 2741 2882 2914 
Q 3109 3088 3109 3444 
Q 3109 3797 2882 3972 
Q 2656 4147 2194 4147 
L 1259 4147 
z
M 628 4666 
L 2241 4666 
Q 2963 4666 3353 4366 
Q 3744 4066 3744 3513 
Q 3744 3084 3544 2831 
Q 3344 2578 2956 2516 
Q 3422 2416 3680 2098 
Q 3938 1781 3938 1306 
Q 3938 681 3513 340 
Q 3088 0 2303 0 
L 628 0 
L 628 4666 
z
" transform="scale(0.015625)"/>
      </defs>
      <use xlink:href="#DejaVuSans-42"/>
     </g>
    </g>
    <g id="line2d_22">
     <path d="M 345.317187 53.254688 
L 355.317187 53.254688 
L 365.317187 53.254688 
" style="fill: none; stroke-dasharray: 5.55,2.4; stroke-dashoffset: 0; stroke: #008000; stroke-width: 1.5"/>
    </g>
    <g id="text_18">
     <!-- C -->
     <g transform="translate(373.317187 56.754688) scale(0.1 -0.1)">
      <defs>
       <path id="DejaVuSans-43" d="M 4122 4306 
L 4122 3641 
Q 3803 3938 3442 4084 
Q 3081 4231 2675 4231 
Q 1875 4231 1450 3742 
Q 1025 3253 1025 2328 
Q 1025 1406 1450 917 
Q 1875 428 2675 428 
Q 3081 428 3442 575 
Q 3803 722 4122 1019 
L 4122 359 
Q 3791 134 3420 21 
Q 3050 -91 2638 -91 
Q 1578 -91 968 557 
Q 359 1206 359 2328 
Q 359 3453 968 4101 
Q 1578 4750 2638 4750 
Q 3056 4750 3426 4639 
Q 3797 4528 4122 4306 
z
" transform="scale(0.015625)"/>
      </defs>
      <use xlink:href="#DejaVuSans-43"/>
     </g>
    </g>
    <g id="line2d_23">
     <path d="M 345.317187 67.932813 
L 355.317187 67.932813 
L 365.317187 67.932813 
" style="fill: none; stroke-dasharray: 5.55,2.4; stroke-dashoffset: 0; stroke: #bfbf00; stroke-width: 1.5"/>
    </g>
    <g id="text_19">
     <!-- D -->
     <g transform="translate(373.317187 71.432813) scale(0.1 -0.1)">
      <defs>
       <path id="DejaVuSans-44" d="M 1259 4147 
L 1259 519 
L 2022 519 
Q 2988 519 3436 956 
Q 3884 1394 3884 2338 
Q 3884 3275 3436 3711 
Q 2988 4147 2022 4147 
L 1259 4147 
z
M 628 4666 
L 1925 4666 
Q 3281 4666 3915 4102 
Q 4550 3538 4550 2338 
Q 4550 1131 3912 565 
Q 3275 0 1925 0 
L 628 0 
L 628 4666 
z
" transform="scale(0.015625)"/>
      </defs>
      <use xlink:href="#DejaVuSans-44"/>
     </g>
    </g>
    <g id="line2d_24">
     <path d="M 345.317187 82.610938 
L 355.317187 82.610938 
L 365.317187 82.610938 
" style="fill: none; stroke: #000000; stroke-width: 2; stroke-linecap: square"/>
    </g>
    <g id="text_20">
     <!-- target -->
     <g transform="translate(373.317187 86.110938) scale(0.1 -0.1)">
      <defs>
       <path id="DejaVuSans-61" d="M 2194 1759 
Q 1497 1759 1228 1600 
Q 959 1441 959 1056 
Q 959 750 1161 570 
Q 1363 391 1709 391 
Q 2188 391 2477 730 
Q 2766 1069 2766 1631 
L 2766 1759 
L 2194 1759 
z
M 3341 1997 
L 3341 0 
L 2766 0 
L 2766 531 
Q 2569 213 2275 61 
Q 1981 -91 1556 -91 
Q 1019 -91 701 211 
Q 384 513 384 1019 
Q 384 1609 779 1909 
Q 1175 2209 1959 2209 
L 2766 2209 
L 2766 2266 
Q 2766 2663 2505 2880 
Q 2244 3097 1772 3097 
Q 1472 3097 1187 3025 
Q 903 2953 641 2809 
L 641 3341 
Q 956 3463 1253 3523 
Q 1550 3584 1831 3584 
Q 2591 3584 2966 3190 
Q 3341 2797 3341 1997 
z
" transform="scale(0.015625)"/>
       <path id="DejaVuSans-72" d="M 2631 2963 
Q 2534 3019 2420 3045 
Q 2306 3072 2169 3072 
Q 1681 3072 1420 2755 
Q 1159 2438 1159 1844 
L 1159 0 
L 581 0 
L 581 3500 
L 1159 3500 
L 1159 2956 
Q 1341 3275 1631 3429 
Q 1922 3584 2338 3584 
Q 2397 3584 2469 3576 
Q 2541 3569 2628 3553 
L 2631 2963 
z
" transform="scale(0.015625)"/>
       <path id="DejaVuSans-67" d="M 2906 1791 
Q 2906 2416 2648 2759 
Q 2391 3103 1925 3103 
Q 1463 3103 1205 2759 
Q 947 2416 947 1791 
Q 947 1169 1205 825 
Q 1463 481 1925 481 
Q 2391 481 2648 825 
Q 2906 1169 2906 1791 
z
M 3481 434 
Q 3481 -459 3084 -895 
Q 2688 -1331 1869 -1331 
Q 1566 -1331 1297 -1286 
Q 1028 -1241 775 -1147 
L 775 -588 
Q 1028 -725 1275 -790 
Q 1522 -856 1778 -856 
Q 2344 -856 2625 -561 
Q 2906 -266 2906 331 
L 2906 616 
Q 2728 306 2450 153 
Q 2172 0 1784 0 
Q 1141 0 747 490 
Q 353 981 353 1791 
Q 353 2603 747 3093 
Q 1141 3584 1784 3584 
Q 2172 3584 2450 3431 
Q 2728 3278 2906 2969 
L 2906 3500 
L 3481 3500 
L 3481 434 
z
" transform="scale(0.015625)"/>
      </defs>
      <use xlink:href="#DejaVuSans-74"/>
      <use xlink:href="#DejaVuSans-61" x="39.208984"/>
      <use xlink:href="#DejaVuSans-72" x="100.488281"/>
      <use xlink:href="#DejaVuSans-67" x="139.851562"/>
      <use xlink:href="#DejaVuSans-65" x="203.328125"/>
      <use xlink:href="#DejaVuSans-74" x="264.851562"/>
     </g>
    </g>
    <g id="line2d_25">
     <g>
      <use xlink:href="#mde3ca751c2" x="355.317187" y="97.289063" style="fill-opacity: 0; stroke: #000000"/>
     </g>
    </g>
    <g id="text_21">
     <!-- homogenized -->
     <g transform="translate(373.317187 100.789063) scale(0.1 -0.1)">
      <defs>
       <path id="DejaVuSans-68" d="M 3513 2113 
L 3513 0 
L 2938 0 
L 2938 2094 
Q 2938 2591 2744 2837 
Q 2550 3084 2163 3084 
Q 1697 3084 1428 2787 
Q 1159 2491 1159 1978 
L 1159 0 
L 581 0 
L 581 4863 
L 1159 4863 
L 1159 2956 
Q 1366 3272 1645 3428 
Q 1925 3584 2291 3584 
Q 2894 3584 3203 3211 
Q 3513 2838 3513 2113 
z
" transform="scale(0.015625)"/>
       <path id="DejaVuSans-6f" d="M 1959 3097 
Q 1497 3097 1228 2736 
Q 959 2375 959 1747 
Q 959 1119 1226 758 
Q 1494 397 1959 397 
Q 2419 397 2687 759 
Q 2956 1122 2956 1747 
Q 2956 2369 2687 2733 
Q 2419 3097 1959 3097 
z
M 1959 3584 
Q 2709 3584 3137 3096 
Q 3566 2609 3566 1747 
Q 3566 888 3137 398 
Q 2709 -91 1959 -91 
Q 1206 -91 779 398 
Q 353 888 353 1747 
Q 353 2609 779 3096 
Q 1206 3584 1959 3584 
z
" transform="scale(0.015625)"/>
       <path id="DejaVuSans-6e" d="M 3513 2113 
L 3513 0 
L 2938 0 
L 2938 2094 
Q 2938 2591 2744 2837 
Q 2550 3084 2163 3084 
Q 1697 3084 1428 2787 
Q 1159 2491 1159 1978 
L 1159 0 
L 581 0 
L 581 3500 
L 1159 3500 
L 1159 2956 
Q 1366 3272 1645 3428 
Q 1925 3584 2291 3584 
Q 2894 3584 3203 3211 
Q 3513 2838 3513 2113 
z
" transform="scale(0.015625)"/>
       <path id="DejaVuSans-7a" d="M 353 3500 
L 3084 3500 
L 3084 2975 
L 922 459 
L 3084 459 
L 3084 0 
L 275 0 
L 275 525 
L 2438 3041 
L 353 3041 
L 353 3500 
z
" transform="scale(0.015625)"/>
       <path id="DejaVuSans-64" d="M 2906 2969 
L 2906 4863 
L 3481 4863 
L 3481 0 
L 2906 0 
L 2906 525 
Q 2725 213 2448 61 
Q 2172 -91 1784 -91 
Q 1150 -91 751 415 
Q 353 922 353 1747 
Q 353 2572 751 3078 
Q 1150 3584 1784 3584 
Q 2172 3584 2448 3432 
Q 2725 3281 2906 2969 
z
M 947 1747 
Q 947 1113 1208 752 
Q 1469 391 1925 391 
Q 2381 391 2643 752 
Q 2906 1113 2906 1747 
Q 2906 2381 2643 2742 
Q 2381 3103 1925 3103 
Q 1469 3103 1208 2742 
Q 947 2381 947 1747 
z
" transform="scale(0.015625)"/>
      </defs>
      <use xlink:href="#DejaVuSans-68"/>
      <use xlink:href="#DejaVuSans-6f" x="63.378906"/>
      <use xlink:href="#DejaVuSans-6d" x="124.560547"/>
      <use xlink:href="#DejaVuSans-6f" x="221.972656"/>
      <use xlink:href="#DejaVuSans-67" x="283.154297"/>
      <use xlink:href="#DejaVuSans-65" x="346.630859"/>
      <use xlink:href="#DejaVuSans-6e" x="408.154297"/>
      <use xlink:href="#DejaVuSans-69" x="471.533203"/>
      <use xlink:href="#DejaVuSans-7a" x="499.316406"/>
      <use xlink:href="#DejaVuSans-65" x="551.806641"/>
      <use xlink:href="#DejaVuSans-64" x="613.330078"/>
     </g>
    </g>
   </g>
  </g>
 </g>
 <defs>
  <clipPath id="p933882546d">
   <rect x="59.42" y="10.8" width="390.58" height="292.84"/>
  </clipPath>
 </defs>
</svg>
