<svg width="1876" height="1266" xmlns="http://www.w3.org/2000/svg" xmlns:xlink="http://www.w3.org/1999/xlink" xml:space="preserve" overflow="hidden"><g transform="translate(-747 -135)"><path d="M1007 566 1007 1300.08" stroke="#F2F2F2" stroke-width="10.3125" stroke-miterlimit="8" fill="none" fill-rule="evenodd"/><path d="M0 0 986.632 363.673" stroke="#F2F2F2" stroke-width="10.3125" stroke-miterlimit="8" fill="none" fill-rule="evenodd" transform="matrix(1 0 0 -1 1007 565.674)"/><path d="M0 0 986.633 734.081" stroke="#F2F2F2" stroke-width="10.3125" stroke-miterlimit="8" fill="none" fill-rule="evenodd" transform="matrix(1 0 0 -1 1007 1300.08)"/><path d="M1993 199 1993 569.408" stroke="#F2F2F2" stroke-width="10.3125" stroke-miterlimit="8" fill="none" fill-rule="evenodd"/><path d="M1994.13 569.867 1007.5 566.5" stroke="#F2F2F2" stroke-width="6.875" stroke-miterlimit="8" stroke-dasharray="27.5 20.625" fill="none" fill-rule="evenodd"/><path d="M908.875 603.374 908.875 1265.34 895.125 1265.34 895.125 603.374ZM881.375 610.25 902 569 922.625 610.25ZM922.625 1258.46 902 1299.71 881.375 1258.46Z" fill="#D9D9D9"/><text fill="#FFFFFF" font-family="Aptos,Aptos_MSFontService,sans-serif" font-weight="400" font-size="83" transform="matrix(-1.83697e-16 -1 1 -1.83697e-16 847.898 980)">44</text><path d="M896.125 514.033 896.125 212.375 909.875 212.375 909.875 514.033ZM923.625 507.158 903 548.408 882.375 507.158ZM882.375 219.25 903 178 923.625 219.25Z" fill="#D9D9D9"/><text fill="#FFFFFF" font-family="Aptos,Aptos_MSFontService,sans-serif" font-weight="400" font-size="83" transform="matrix(-1.83697e-16 -1 1 -1.83697e-16 847.898 408)">16</text><path d="M34.3753-6.87499 985.931-6.87465 985.931 6.87535 34.3753 6.87501ZM41.25 20.625 0 0 41.25-20.625ZM979.057-20.6247 1020.31 0.000360892 979.057 20.6253Z" fill="#D9D9D9" transform="matrix(-1 0 0 1 2027.31 1358)"/><text fill="#FFFFFF" font-family="Aptos,Aptos_MSFontService,sans-serif" font-weight="400" font-size="83" transform="matrix(1 0 0 1 1472.12 1317)">48</text><path d="M0 0 57.2444 70.7143" stroke="#F2F2F2" stroke-width="6.875" stroke-miterlimit="8" fill="none" fill-rule="evenodd" transform="matrix(-1 0 0 1 1007.74 566.5)"/><path d="M0 0 57.2444 70.7143" stroke="#F2F2F2" stroke-width="6.875" stroke-miterlimit="8" fill="none" fill-rule="evenodd" transform="matrix(-1 0 0 1 1008.74 624.5)"/><path d="M0 0 57.2444 70.7143" stroke="#F2F2F2" stroke-width="6.875" stroke-miterlimit="8" fill="none" fill-rule="evenodd" transform="matrix(-1 0 0 1 1008.74 685.5)"/><path d="M0 0 57.2444 70.7143" stroke="#F2F2F2" stroke-width="6.875" stroke-miterlimit="8" fill="none" fill-rule="evenodd" transform="matrix(-1 0 0 1 1005.74 743.5)"/><path d="M0 0 57.2444 70.7143" stroke="#F2F2F2" stroke-width="6.875" stroke-miterlimit="8" fill="none" fill-rule="evenodd" transform="matrix(-1 0 0 1 1008.74 806.5)"/><path d="M0 0 57.2444 70.7143" stroke="#F2F2F2" stroke-width="6.875" stroke-miterlimit="8" fill="none" fill-rule="evenodd" transform="matrix(-1 0 0 1 1009.74 864.5)"/><path d="M0 0 57.2444 70.7143" stroke="#F2F2F2" stroke-width="6.875" stroke-miterlimit="8" fill="none" fill-rule="evenodd" transform="matrix(-1 0 0 1 1009.74 925.5)"/><path d="M0 0 57.2444 70.7143" stroke="#F2F2F2" stroke-width="6.875" stroke-miterlimit="8" fill="none" fill-rule="evenodd" transform="matrix(-1 0 0 1 1007.74 983.5)"/><path d="M0 0 57.2444 70.7143" stroke="#F2F2F2" stroke-width="6.875" stroke-miterlimit="8" fill="none" fill-rule="evenodd" transform="matrix(-1 0 0 1 1008.74 1042.5)"/><path d="M0 0 57.2444 70.7143" stroke="#F2F2F2" stroke-width="6.875" stroke-miterlimit="8" fill="none" fill-rule="evenodd" transform="matrix(-1 0 0 1 1009.74 1100.5)"/><path d="M0 0 57.2444 70.7143" stroke="#F2F2F2" stroke-width="6.875" stroke-miterlimit="8" fill="none" fill-rule="evenodd" transform="matrix(-1 0 0 1 1009.74 1161.5)"/><path d="M0 0 57.2444 70.7143" stroke="#F2F2F2" stroke-width="6.875" stroke-miterlimit="8" fill="none" fill-rule="evenodd" transform="matrix(-1 0 0 1 1007.74 1219.5)"/><path d="M3.4375-3.41121e-06 3.43784 340.757-3.43716 340.757-3.4375 3.41121e-06ZM13.7503 336.173 0.000360892 363.673-13.7497 336.173Z" fill="#F2F2F2" transform="matrix(1 0 0 -1 2051.5 566.173)"/><path d="M2094.48 347.691 2100.08 347.691 2097.85 357.702 2110.17 357.702 2109.28 361.795 2096.96 361.795 2093.35 377.519C2092.65 380.572 2092.2 382.768 2092.01 384.105 2091.82 385.443 2091.73 386.516 2091.73 387.327 2091.73 390.677 2093.12 392.352 2095.9 392.352 2097.09 392.352 2098.35 391.9 2099.69 390.995 2101.03 390.09 2102.62 388.543 2104.45 386.354L2106.8 388.786C2104.45 391.623 2102.19 393.717 2100.01 395.068 2097.84 396.419 2095.56 397.094 2093.19 397.094 2087.54 397.094 2084.72 394.244 2084.72 388.543 2084.72 386.733 2084.95 384.828 2085.4 382.828L2090.19 361.795 2083.38 361.795 2083.99 358.998C2085.58 358.971 2086.79 358.85 2087.61 358.634 2088.44 358.418 2089.13 358.12 2089.68 357.742 2090.23 357.364 2090.74 356.823 2091.2 356.121 2091.66 355.419 2092.11 354.52 2092.54 353.426 2092.97 352.332 2093.62 350.42 2094.48 347.691Z" fill="#FFFFFF" fill-rule="evenodd"/><text fill="#000000" fill-opacity="0" font-family="Arial,Arial_MSFontService,sans-serif" font-size="49.4028" x="2083.38" y="390.919">𝑡</text><path d="M2121.72 382.879C2122.44 382.879 2123.05 382.953 2123.57 383.102 2124.09 383.251 2124.55 383.484 2124.97 383.802 2125.39 384.12 2125.76 384.532 2126.09 385.038 2126.42 385.545 2126.75 386.155 2127.09 386.87 2127.26 387.307 2127.45 387.932 2127.65 388.746 2127.85 389.561 2128.06 390.504 2128.28 391.576 2128.5 392.648 2128.71 393.83 2128.93 395.12 2129.15 396.411 2129.37 397.761 2129.59 399.171 2129.81 400.581 2130.01 402.026 2130.21 403.505 2130.41 404.984 2130.6 406.439 2130.78 407.869 2132.27 405.923 2133.61 403.952 2134.8 401.956 2135.99 399.961 2137 398.074 2137.82 396.297 2138.65 394.52 2139.28 392.901 2139.71 391.442 2140.15 389.983 2140.36 388.816 2140.34 387.942 2140.34 387.069 2140.11 386.443 2139.66 386.066 2139.2 385.689 2138.43 385.47 2137.36 385.411L2137.75 383.504 2146.24 383.504 2147.28 385.232C2145.29 390.136 2142.98 394.867 2140.33 399.424 2137.67 403.982 2134.68 408.405 2131.34 412.694 2129.9 414.421 2128.59 415.911 2127.43 417.161 2126.27 418.412 2125.19 419.49 2124.21 420.393 2123.23 421.297 2122.32 422.036 2121.47 422.612 2120.63 423.188 2119.81 423.65 2119.01 423.997 2118.22 424.345 2117.43 424.593 2116.65 424.742 2115.86 424.891 2115.04 424.985 2114.19 425.025 2113.73 425.025 2113.18 424.975 2112.54 424.876 2111.89 424.777 2111.32 424.647 2110.82 424.489L2112.31 417.966 2115.02 417.966 2115.02 418.144C2115.02 419.495 2115.57 420.17 2116.66 420.17 2118.11 420.17 2119.58 419.609 2121.07 418.487 2122.56 417.365 2124.36 415.573 2126.46 413.111 2125.8 409.338 2125.23 406.076 2124.73 403.326 2124.24 400.576 2123.78 398.233 2123.38 396.297 2122.97 394.361 2122.6 392.787 2122.26 391.576 2121.92 390.365 2121.6 389.422 2121.28 388.746 2120.96 388.071 2120.64 387.61 2120.31 387.361 2119.98 387.113 2119.63 386.989 2119.25 386.989 2118.89 386.989 2118.57 387.034 2118.27 387.123 2117.97 387.213 2117.66 387.396 2117.35 387.674 2117.03 387.952 2116.69 388.344 2116.32 388.851 2115.95 389.357 2115.5 390.017 2114.96 390.831L2112.67 389.342C2113.52 388.091 2114.31 387.049 2115.02 386.215 2115.74 385.381 2116.45 384.72 2117.15 384.234 2117.86 383.748 2118.58 383.4 2119.31 383.192 2120.05 382.983 2120.85 382.879 2121.72 382.879Z" fill="#FFFFFF" fill-rule="evenodd"/><text fill="#000000" fill-opacity="0" font-family="Arial,Arial_MSFontService,sans-serif" font-size="42.146" x="2110.82" y="419.757">𝑦</text><path d="M2182.3 378.452 2232.23 378.452 2232.23 383.842 2182.3 383.842ZM2182.3 361.633 2232.23 361.633 2232.23 367.023 2182.3 367.023Z" fill="#FFFFFF" fill-rule="evenodd"/><text fill="#000000" fill-opacity="0" font-family="Arial,Arial_MSFontService,sans-serif" font-size="22.209" x="2182.3" y="381.066">=</text><path d="M2376.03 343.922C2374.17 343.922 2372.61 344.476 2371.35 345.584 2370.09 346.692 2369.08 348.286 2368.31 350.366 2367.54 352.447 2366.99 354.979 2366.67 357.965 2366.35 360.951 2366.18 364.321 2366.18 368.077 2366.18 376.884 2367 383.349 2368.64 387.469 2370.27 391.589 2372.8 393.649 2376.23 393.649 2379.5 393.649 2381.93 391.711 2383.51 387.834 2385.09 383.957 2385.88 377.952 2385.88 369.819 2385.88 363.605 2385.48 358.573 2384.66 354.723 2383.85 350.873 2382.73 348.11 2381.28 346.435 2379.83 344.76 2378.09 343.922 2376.03 343.922ZM2330.03 343.922C2328.17 343.922 2326.61 344.476 2325.35 345.584 2324.09 346.692 2323.08 348.286 2322.31 350.366 2321.54 352.447 2320.99 354.979 2320.67 357.965 2320.35 360.951 2320.18 364.321 2320.18 368.077 2320.18 376.884 2321 383.349 2322.64 387.469 2324.27 391.589 2326.8 393.649 2330.23 393.649 2333.5 393.649 2335.93 391.711 2337.51 387.834 2339.09 383.957 2339.88 377.952 2339.88 369.819 2339.88 363.605 2339.48 358.573 2338.66 354.723 2337.85 350.873 2336.73 348.11 2335.28 346.435 2333.83 344.76 2332.09 343.922 2330.03 343.922ZM2376.23 340.477C2382.15 340.477 2386.56 342.76 2389.45 347.327 2392.34 351.893 2393.78 358.796 2393.78 368.036 2393.78 377.6 2392.24 384.835 2389.14 389.738 2386.05 394.642 2381.53 397.094 2375.59 397.094 2369.75 397.094 2365.41 394.798 2362.56 390.204 2359.71 385.611 2358.28 378.641 2358.28 369.292 2358.28 364.321 2358.72 360.025 2359.6 356.405 2360.48 352.784 2361.71 349.792 2363.29 347.428 2364.87 345.064 2366.76 343.314 2368.98 342.18 2371.2 341.045 2373.61 340.477 2376.23 340.477ZM2330.23 340.477C2336.15 340.477 2340.56 342.76 2343.45 347.327 2346.34 351.893 2347.78 358.796 2347.78 368.036 2347.78 377.6 2346.24 384.835 2343.14 389.738 2340.05 394.642 2335.53 397.094 2329.59 397.094 2323.75 397.094 2319.41 394.798 2316.56 390.204 2313.71 385.611 2312.28 378.641 2312.28 369.292 2312.28 364.321 2312.72 360.025 2313.6 356.405 2314.48 352.784 2315.71 349.792 2317.29 347.428 2318.87 345.064 2320.76 343.314 2322.98 342.18 2325.2 341.045 2327.61 340.477 2330.23 340.477ZM2287.23 340.477 2289.46 340.477C2289.3 343.071 2289.22 346.665 2289.22 351.258L2289.22 385.868C2289.22 387.435 2289.31 388.617 2289.48 389.414 2289.66 390.211 2289.97 390.86 2290.42 391.359 2290.86 391.859 2291.5 392.251 2292.34 392.535 2293.18 392.818 2294.23 393.035 2295.5 393.183 2296.77 393.332 2298.45 393.433 2300.53 393.487L2300.53 396.446 2270.58 396.446 2270.58 393.487C2273.58 393.352 2275.72 393.17 2277 392.94 2278.28 392.71 2279.26 392.366 2279.94 391.907 2280.61 391.447 2281.11 390.799 2281.42 389.961 2281.73 389.124 2281.88 387.759 2281.88 385.868L2281.88 353C2281.88 351.92 2281.7 351.129 2281.32 350.63 2280.94 350.13 2280.38 349.88 2279.66 349.88 2278.79 349.88 2277.56 350.326 2275.97 351.217 2274.37 352.109 2272.4 353.338 2270.05 354.905L2268.27 351.785Z" fill="#FFFFFF" fill-rule="evenodd"/><text fill="#000000" fill-opacity="0" font-family="Arial,Arial_MSFontService,sans-serif" font-size="56.6167" x="2268.27" y="390.017">100</text><path d="M2557.55 377.965C2552.07 378.019 2547.96 378.749 2545.23 380.154 2542.5 381.559 2541.14 383.68 2541.14 386.516 2541.14 388.057 2541.45 389.272 2542.07 390.164 2542.69 391.056 2543.48 391.67 2544.42 392.008 2545.37 392.346 2546.49 392.515 2547.79 392.515 2549.62 392.515 2551.29 392.069 2552.79 391.177 2554.29 390.286 2555.46 389.151 2556.3 387.773 2557.14 386.395 2557.55 385.03 2557.55 383.68ZM2553.18 357.013C2555.85 357.013 2558 357.438 2559.62 358.289 2561.24 359.14 2562.46 360.444 2563.27 362.2 2564.08 363.956 2564.48 366.604 2564.48 370.143L2564.48 384.247C2564.48 386.246 2564.5 387.658 2564.52 388.482 2564.55 389.306 2564.63 390.069 2564.77 390.772 2564.9 391.474 2565.11 392.035 2565.38 392.454 2565.65 392.873 2566.04 393.23 2566.57 393.528 2567.1 393.825 2567.96 394.136 2569.14 394.46L2569.14 396.446 2558.04 396.446 2558.24 390.65 2557.63 390.488C2555.28 392.893 2553.08 394.595 2551.01 395.595 2548.94 396.594 2546.75 397.094 2544.42 397.094 2542.37 397.094 2540.56 396.696 2538.99 395.899 2537.43 395.102 2536.22 393.98 2535.39 392.535 2534.55 391.089 2534.13 389.421 2534.13 387.53 2534.13 383.585 2536.08 380.539 2539.99 378.391 2543.89 376.243 2549.75 374.993 2557.55 374.642L2557.55 372.008C2557.55 369.198 2557.28 366.982 2556.74 365.361 2556.2 363.74 2555.35 362.551 2554.19 361.795 2553.03 361.038 2551.47 360.66 2549.53 360.66 2547.42 360.66 2545.73 361.214 2544.44 362.322 2543.16 363.429 2542.19 365.091 2541.55 367.307L2536.24 367.307 2536.24 362.038C2538.83 360.687 2540.99 359.694 2542.72 359.059 2544.45 358.424 2546.18 357.924 2547.91 357.56 2549.64 357.195 2551.39 357.013 2553.18 357.013ZM2507.15 344.692C2504.47 344.692 2502.46 344.746 2501.11 344.854L2501.11 369.373 2505.81 369.373C2508.86 369.373 2511.38 368.975 2513.37 368.178 2515.36 367.381 2516.88 366.057 2517.93 364.206 2518.98 362.355 2519.51 359.904 2519.51 356.85 2519.51 354.527 2519.2 352.588 2518.58 351.035 2517.96 349.481 2517.1 348.232 2516 347.286 2514.91 346.34 2513.61 345.672 2512.09 345.28 2510.58 344.888 2508.93 344.692 2507.15 344.692ZM2488.79 341.126 2508.89 341.126C2515.21 341.126 2519.92 342.335 2523.02 344.753 2526.11 347.171 2527.66 350.852 2527.66 355.797 2527.66 358.607 2527.17 361.133 2526.2 363.375 2525.22 365.618 2523.85 367.455 2522.06 368.887 2520.28 370.319 2518.17 371.346 2515.74 371.967 2513.31 372.589 2510.76 372.899 2508.08 372.899 2505.08 372.899 2502.76 372.845 2501.11 372.737L2501.11 386.192C2501.11 387.786 2501.2 389.056 2501.37 390.002 2501.55 390.947 2501.82 391.697 2502.18 392.251 2502.55 392.805 2503.04 393.237 2503.66 393.548 2504.29 393.859 2505.26 394.163 2506.58 394.46L2506.58 396.446 2488.79 396.446 2488.79 394.46C2490.47 394.028 2491.59 393.548 2492.15 393.021 2492.72 392.494 2493.09 391.745 2493.27 390.772 2493.44 389.799 2493.53 388.313 2493.53 386.314L2493.53 351.258C2493.53 349.393 2493.46 348.036 2493.33 347.185 2493.19 346.334 2492.97 345.672 2492.66 345.199 2492.35 344.726 2491.94 344.348 2491.42 344.064 2490.91 343.78 2490.03 343.463 2488.79 343.112ZM2421.63 341.126 2436.1 341.126 2450.32 380.559 2465.97 341.126 2479.66 341.126 2479.66 343.112C2478.47 343.409 2477.62 343.706 2477.09 344.003 2476.56 344.301 2476.14 344.672 2475.83 345.118 2475.52 345.564 2475.29 346.232 2475.14 347.124 2475 348.016 2474.92 349.393 2474.92 351.258L2474.92 386.314C2474.92 388.124 2474.98 389.448 2475.1 390.286 2475.23 391.123 2475.43 391.785 2475.71 392.271 2476 392.758 2476.41 393.163 2476.97 393.487 2477.52 393.811 2478.42 394.136 2479.66 394.46L2479.66 396.446 2462.76 396.446 2462.76 394.46C2464.3 394.082 2465.37 393.649 2465.97 393.163 2466.56 392.677 2466.97 391.961 2467.18 391.015 2467.4 390.069 2467.51 388.502 2467.51 386.314L2467.51 370.792C2467.51 366.712 2467.57 362.585 2467.69 358.411 2467.81 354.236 2467.95 351.379 2468.11 349.839L2467.42 349.839 2451.38 390.002 2446.71 390.002 2431.8 349.191 2431.11 349.191C2431.25 350.839 2431.38 353.824 2431.5 358.147 2431.62 362.47 2431.68 366.915 2431.68 371.481L2431.68 386.314C2431.68 388.124 2431.74 389.448 2431.86 390.286 2431.98 391.123 2432.19 391.785 2432.47 392.271 2432.75 392.758 2433.17 393.163 2433.73 393.487 2434.28 393.811 2435.18 394.136 2436.42 394.46L2436.42 396.446 2421.63 396.446 2421.63 394.46C2423.3 394.028 2424.42 393.548 2424.99 393.021 2425.56 392.494 2425.93 391.745 2426.11 390.772 2426.28 389.799 2426.37 388.313 2426.37 386.314L2426.37 351.258C2426.37 349.393 2426.3 348.036 2426.17 347.185 2426.03 346.334 2425.81 345.672 2425.5 345.199 2425.19 344.726 2424.78 344.348 2424.26 344.064 2423.75 343.78 2422.87 343.463 2421.63 343.112Z" fill="#FFFFFF" fill-rule="evenodd"/><text fill="#000000" fill-opacity="0" font-family="Arial,Arial_MSFontService,sans-serif" font-size="55.9683" x="2421.63" y="390.098">MPa</text></g></svg>