<svg width="816" height="400" xmlns="http://www.w3.org/2000/svg" xmlns:xlink="http://www.w3.org/1999/xlink" xml:space="preserve" overflow="hidden"><g transform="translate(-232 -160)"><g><g><g><g><path d="M142.179 104.324 141.983 108.502 141.407 112.683 140.479 116.794 139.223 120.804 137.667 124.682 135.833 128.394 133.747 131.911 131.433 135.199 128.914 138.227 126.213 140.962 123.355 143.374 120.361 145.427 117.255 147.088 114.057 148.32 110.794 149.088 107.562 149.347 104.395 149.601 104.524 149.581 101.381 150.32 101.494 150.285 98.4013 151.478 98.4977 151.434 95.479 153.047 95.5602 152.998 92.641 155 92.7091 154.948 89.9139 157.306 89.9717 157.252 87.325 159.934 87.374 159.88 84.9007 162.854 84.9428 162.798 82.6677 166.031 82.704 165.974 80.652 169.434 80.6834 169.375 78.879 173.029 78.9062 172.968 77.3743 176.783 77.3968 176.72 76.1623 180.664 76.1806 180.596 75.2679 184.638 75.2828 184.553 74.8014 188.502 73.0919 188.293 73.5787 184.301 74.5083 180.183 75.7635 176.173 77.3203 172.296 79.1542 168.583 81.2402 165.067 83.5544 161.779 86.0732 158.751 88.7735 156.015 91.6318 153.604 94.6256 151.551 97.7323 149.89 100.93 148.657 104.193 147.889 107.425 147.63 110.592 147.377 110.463 147.397 113.605 146.658 113.493 146.692 116.586 145.5 116.489 145.544 119.508 143.931 119.427 143.98 122.346 141.978 122.278 142.03 125.073 139.672 125.015 139.725 127.662 137.043 127.613 137.097 130.086 134.124 130.044 134.179 132.319 130.947 132.283 131.003 134.335 127.544 134.304 127.602 136.108 123.949 136.081 124.01 137.613 120.194 137.59 120.258 138.825 116.314 138.807 116.381 139.719 112.339 139.706 112.411 140.272 108.305 140.264 108.382 140.458 104.243ZM76.5802 187.705 73.6683 192.694 71.4245 187.371Z" fill="#C1E5F5" fill-rule="nonzero" fill-opacity="1" transform="matrix(1.00012 0 0 1 222.049 149.519)"/><path d="M296.491 104.666 296.491 108.022 296.491 111.272 296.491 114.311 296.491 117.034 296.491 119.335 296.491 120.295 296.491 121.109 296.491 121.766 296.491 122.251 296.491 122.552 296.491 122.655 296.491 122.759 296.491 123.059 296.491 123.545 296.491 124.201 296.491 125.016 296.491 125.975 296.491 128.277 296.491 131 296.491 134.039 296.491 136.339 294.769 136.339 294.769 134.039 294.769 131 294.769 128.277 294.769 125.975 294.769 125.016 294.769 124.201 294.769 123.545 294.769 123.059 294.769 122.759 294.769 122.655 294.769 122.552 294.769 122.251 294.769 121.766 294.769 121.109 294.769 120.295 294.769 119.335 294.769 117.034 294.769 114.311 294.769 111.272 294.769 108.022 294.769 104.666ZM298.213 135.478 295.63 140.644 293.047 135.478Z" fill="#C1E5F5" fill-rule="nonzero" fill-opacity="1" transform="matrix(1.00012 0 0 1 222.049 149.519)"/><path d="M296.874 165.133 296.865 172.877 296.841 180.381 296.823 183.966 296.803 187.398 296.78 190.648 296.754 193.685 296.726 196.479 296.696 199 296.664 201.218 296.631 203.102 296.597 204.624 296.562 205.756 296.523 206.502 296.481 206.781 296.445 207.02 296.454 206.936 296.419 207.63 296.419 207.613 296.384 208.733 296.384 208.725 296.35 210.241 296.35 210.237 296.317 212.117 296.317 212.114 296.286 214.329 296.256 216.846 296.228 219.637 296.202 222.672 296.179 225.92 296.158 229.35 296.141 232.933 296.117 240.433 296.113 243.871 294.391 243.869 294.395 240.427 294.419 232.925 294.436 229.34 294.457 225.908 294.48 222.658 294.506 219.62 294.534 216.826 294.564 214.305 294.595 212.088 294.628 210.204 294.663 208.683 294.698 207.551 294.736 206.805 294.778 206.525 294.814 206.287 294.806 206.371 294.841 205.677 294.841 205.694 294.876 204.574 294.876 204.581 294.91 203.066 294.91 203.07 294.942 201.189 294.942 201.192 294.974 198.979 295.004 196.462 295.032 193.671 295.058 190.635 295.081 187.388 295.101 183.957 295.119 180.375 295.143 172.876 295.151 165.131ZM297.836 243.012 295.247 248.175 292.67 243.006Z" fill="#C1E5F5" fill-rule="nonzero" fill-opacity="1" transform="matrix(1.00012 0 0 1 222.049 149.519)"/><path d="M141.883 104.284 141.883 122.233 141.883 131.032 141.883 139.62 141.883 147.925 141.883 155.878 141.883 163.408 141.883 170.445 141.883 173.756 141.883 176.918 141.883 179.92 141.883 182.756 141.883 185.415 141.883 187.889 141.883 190.17 141.883 192.248 141.883 194.114 141.883 195.76 141.883 197.177 141.883 198.356 141.883 199.289 141.883 199.966 141.883 200.378 141.883 200.518 141.883 200.657 141.883 201.07 141.883 201.747 141.883 202.679 141.883 203.858 141.883 205.275 141.883 206.921 141.883 208.788 141.883 210.866 141.883 213.146 141.883 215.62 141.883 218.28 141.883 221.115 141.883 224.118 141.883 227.28 141.883 230.591 141.883 237.627 141.883 245.158 141.883 253.11 141.883 261.416 141.883 270.003 141.883 278.802 141.883 292.447 140.161 292.447 140.161 278.802 140.161 270.003 140.161 261.416 140.161 253.11 140.161 245.158 140.161 237.627 140.161 230.591 140.161 227.28 140.161 224.118 140.161 221.115 140.161 218.28 140.161 215.62 140.161 213.146 140.161 210.866 140.161 208.788 140.161 206.921 140.161 205.275 140.161 203.858 140.161 202.679 140.161 201.747 140.161 201.07 140.161 200.657 140.161 200.518 140.161 200.378 140.161 199.966 140.161 199.289 140.161 198.356 140.161 197.177 140.161 195.76 140.161 194.114 140.161 192.248 140.161 190.17 140.161 187.889 140.161 185.415 140.161 182.756 140.161 179.92 140.161 176.918 140.161 173.756 140.161 170.445 140.161 163.408 140.161 155.878 140.161 147.925 140.161 139.62 140.161 131.032 140.161 122.233 140.161 104.284ZM143.605 291.586 141.022 296.752 138.439 291.586Z" fill="#C1E5F5" fill-rule="nonzero" fill-opacity="1" transform="matrix(1.00012 0 0 1 222.049 149.519)"/><path d="M296.238 164.78 296.125 167.901 295.788 171.045 295.235 174.173 294.474 177.281 293.513 180.361 292.359 183.408 291.019 186.415 289.502 189.377 287.813 192.288 285.961 195.142 283.953 197.933 281.79 200.663 277.064 205.872 271.82 210.743 266.121 215.223 260.024 219.262 253.592 222.81 250.253 224.392 246.858 225.83 243.404 227.122 239.9 228.261 236.352 229.243 232.767 230.06 229.152 230.706 225.515 231.176 221.862 231.461 218.223 231.558 214.606 231.654 214.651 231.651 211.041 231.934 211.084 231.93 207.489 232.393 207.53 232.387 203.956 233.026 203.996 233.018 200.45 233.826 200.488 233.816 196.978 234.787 197.015 234.776 193.546 235.904 193.582 235.892 190.163 237.171 190.197 237.157 186.835 238.581 186.868 238.567 183.569 240.129 183.617 240.105 177.238 243.623 177.298 243.587 171.259 247.588 171.316 247.547 165.672 251.983 165.726 251.937 160.535 256.759 160.587 256.707 155.905 261.867 155.942 261.823 153.809 264.515 153.833 264.483 151.849 267.241 151.872 267.207 150.043 270.025 150.066 269.989 148.399 272.862 148.421 272.823 146.924 275.744 146.944 275.702 145.624 278.665 145.643 278.62 144.507 281.619 144.523 281.571 143.578 284.601 143.592 284.549 142.844 287.603 142.856 287.548 142.313 290.62 142.323 290.546 142.158 292.424 140.442 292.274 140.61 290.358 141.165 287.221 141.926 284.113 142.887 281.033 144.041 277.987 145.381 274.979 146.898 272.017 148.587 269.106 150.439 266.252 152.447 263.461 154.61 260.731 159.336 255.522 164.58 250.651 170.279 246.171 176.376 242.132 182.808 238.585 186.147 237.002 189.543 235.564 192.996 234.272 196.5 233.133 200.048 232.151 203.633 231.334 207.248 230.688 210.885 230.219 214.538 229.933 218.177 229.836 221.794 229.741 221.749 229.743 225.359 229.46 225.316 229.465 228.911 229.001 228.87 229.007 232.444 228.368 232.404 228.376 235.95 227.568 235.912 227.578 239.422 226.607 239.386 226.618 242.854 225.49 242.818 225.502 246.237 224.223 246.203 224.237 249.565 222.813 249.532 222.828 252.831 221.265 252.784 221.289 259.162 217.771 259.102 217.807 265.141 213.806 265.084 213.847 270.728 209.412 270.674 209.457 275.865 204.635 275.813 204.688 280.495 199.527 280.458 199.571 282.591 196.88 282.567 196.911 284.551 194.153 284.528 194.187 286.357 191.369 286.334 191.405 288.001 188.532 287.979 188.572 289.476 185.651 289.456 185.693 290.776 182.729 290.757 182.775 291.894 179.775 291.877 179.823 292.822 176.794 292.808 176.845 293.556 173.791 293.545 173.846 294.087 170.774 294.079 170.832 294.41 167.747 294.406 167.808 294.517 164.718ZM143.933 291.656 141.022 296.645 138.778 291.323Z" fill="#C1E5F5" fill-rule="nonzero" fill-opacity="1" transform="matrix(1.00012 0 0 1 222.049 149.519)"/><path d="M141.978 104.309 141.81 110.019 141.319 115.708 140.527 121.306 139.455 126.77 138.124 132.055 136.556 137.119 134.771 141.917 132.79 146.407 130.632 150.544 128.317 154.286 125.862 157.59 123.292 160.402 121.95 161.626 120.592 162.704 119.209 163.637 117.801 164.419 116.372 165.043 114.924 165.498 113.459 165.778 112.041 165.87 110.675 165.958 110.782 165.944 109.419 166.205 109.516 166.18 108.159 166.607 108.245 166.575 106.896 167.164 106.97 167.127 105.632 167.871 105.695 167.832 104.369 168.726 104.423 168.687 103.114 169.726 103.159 169.687 101.869 170.865 101.924 170.81 99.4097 173.561 99.4652 173.493 97.0577 176.732 97.0986 176.672 94.8193 180.356 94.8503 180.301 92.7202 184.386 92.7447 184.335 90.785 188.776 90.8045 188.728 89.0368 193.48 89.0525 193.435 87.4984 198.453 87.5106 198.408 86.1915 203.649 86.2014 203.605 85.1379 209.024 85.1456 208.979 84.3599 214.531 84.3649 214.484 83.8777 220.126 83.8808 220.077 83.8402 221.459 82.1189 221.409 82.1602 220.002 82.6512 214.313 83.4438 208.715 84.5161 203.251 85.8463 197.966 87.4146 192.902 89.1991 188.104 91.1803 183.614 93.3379 179.477 95.6536 175.735 98.1089 172.431 100.679 169.62 102.02 168.395 103.379 167.318 104.762 166.384 106.169 165.602 107.598 164.979 109.047 164.522 110.511 164.243 111.93 164.151 113.295 164.063 113.189 164.077 114.551 163.816 114.454 163.841 115.811 163.413 115.726 163.446 117.075 162.857 117.001 162.894 118.339 162.15 118.276 162.189 119.601 161.294 119.548 161.334 120.857 160.295 120.811 160.334 122.102 159.156 122.047 159.211 124.561 156.461 124.506 156.528 126.913 153.289 126.872 153.349 129.151 149.665 129.12 149.72 131.25 145.635 131.226 145.686 133.185 141.245 133.166 141.293 134.934 136.541 134.918 136.587 136.472 131.568 136.46 131.612 137.779 126.372 137.769 126.416 138.832 120.997 138.825 121.042 139.611 115.49 139.605 115.537 140.093 109.895 140.09 109.944 140.257 104.258ZM85.5868 220.649 82.8529 225.737 80.4228 220.497Z" fill="#C1E5F5" fill-rule="nonzero" fill-opacity="1" transform="matrix(1.00012 0 0 1 222.049 149.519)"/><path d="M0.0474554-0.859749 2.62712-0.717361 5.22853-0.295508 7.78335 0.383504 10.2721 1.30046 12.6757 2.43659 14.9752 3.77359 17.1514 5.29351 19.1854 6.97882 21.0577 8.81222 22.7487 10.7768 24.2385 12.8559 25.5068 15.0328 26.5323 17.2911 27.2932 19.6141 27.7669 21.9841 27.9259 24.3225 28.0812 26.6052 28.0665 26.4949 28.5192 28.7597 28.4931 28.6605 29.2233 30.8896 29.189 30.8017 30.1769 32.9772 30.1369 32.8998 31.3627 35.004 31.3186 34.9359 32.7625 36.9507 32.7152 36.8906 34.3573 38.7985 34.3072 38.7449 36.1277 40.5275 36.0746 40.4797 38.0538 42.1195 37.9974 42.0766 40.1153 43.5557 40.0553 43.5175 42.2921 44.8179 42.227 44.7838 44.563 45.8883 44.493 45.8588 46.9081 46.7485 46.7994 46.7164 50.0439 47.4462 49.6658 49.1266 46.3659 48.3842 43.8615 47.4615 41.4582 46.3253 39.1586 44.9882 36.9823 43.4681 34.9483 41.7831 33.0761 39.9496 31.385 37.985 29.8952 35.906 28.627 33.729 27.6015 31.4706 26.8405 29.1477 26.3668 26.7777 26.2078 24.4393 26.0525 22.1566 26.0672 22.2669 25.6146 20.0021 25.6407 20.1013 24.9104 17.8722 24.9447 17.9601 23.9568 15.7846 23.9968 15.862 22.771 13.7578 22.8151 13.8259 21.3712 11.8111 21.4185 11.8712 19.7764 9.96351 19.8266 10.017 18.006 8.23424 18.0591 8.28207 16.08 6.6422 16.1363 6.6851 14.0184 5.20592 14.0786 5.24438 11.8418 3.94376 11.9066 3.97786 9.57064 2.87371 9.64094 2.9032 7.22565 2.01332 7.30219 2.03752 4.82743 1.37979 4.91078 1.39757 2.39638 0.989834 2.48676 0.999631-0.0474554 0.859749ZM49.2843 45.6238 54.1337 48.7619 48.7137 50.7588Z" fill="#C1E5F5" fill-rule="nonzero" fill-opacity="1" transform="matrix(1.8372e-16 1 1.00012 -1.83697e-16 363.088 253.803)"/><path d="M0.226863-0.830634 1.25885-0.548777 2.33827 0.324961 3.29307 1.59787 4.19029 3.25524 5.05801 5.29838 5.90643 7.72334 6.7391 10.5217 7.55672 13.6824 8.35896 17.1928 9.14482 21.0398 9.91303 25.2094 10.6622 29.6876 11.3908 34.46 12.0974 39.5122 12.7802 44.8297 13.4377 50.3979 14.0683 56.2022 14.6702 62.2281 15.2419 68.4602 15.7817 74.8845 16.2879 81.4859 16.7588 88.25 17.1929 95.1622 17.5884 102.208 18.2568 116.637 18.7509 131.422 19.0572 146.443 19.1622 161.578 19.2672 176.707 19.2671 176.695 19.5731 191.706 19.5728 191.694 20.0665 206.468 20.0661 206.457 20.7341 220.876 20.7337 220.867 21.1288 227.907 21.1285 227.901 21.5622 234.807 21.5618 234.801 22.0323 241.559 22.0319 241.553 22.5376 248.149 22.5371 248.142 23.0764 254.56 23.0758 254.554 23.6469 260.779 23.6462 260.772 24.2475 266.791 24.2467 266.783 24.8764 272.58 24.8755 272.572 25.532 278.132 25.5309 278.123 26.2126 283.431 26.2113 283.422 26.9164 288.464 26.9149 288.453 27.6418 293.214 27.6398 293.202 28.3869 297.667 28.3844 297.654 29.1498 301.808 29.1467 301.792 29.9288 305.621 29.9246 305.601 30.7219 309.09 30.7161 309.066 31.5268 312.2 31.5185 312.17 32.3409 314.934 32.3283 314.895 33.1607 317.275 33.1016 317.142 34.4476 319.577 32.9405 320.41 31.5593 317.912 30.6961 315.444 29.8634 312.646 29.0458 309.486 28.2436 305.975 27.4577 302.128 26.6895 297.958 25.9403 293.48 25.2117 288.708 24.5051 283.656 23.8223 278.338 23.1648 272.77 22.5342 266.966 21.9323 260.94 21.3606 254.708 20.8208 248.283 20.3146 241.682 19.8436 234.918 19.4096 228.006 19.014 220.96 18.3456 206.531 17.8515 191.746 17.5452 176.725 17.4402 161.59 17.3352 146.461 17.3353 146.473 17.0293 131.462 17.0295 131.474 16.5358 116.7 16.5363 116.711 15.8683 102.292 15.8688 102.301 15.4736 95.2613 15.4739 95.267 15.0403 88.361 15.0406 88.3667 14.5701 81.6087 14.5705 81.6149 14.0649 75.0192 14.0654 75.0257 13.5261 68.6075 13.5267 68.6144 12.9556 62.3888 12.9563 62.3957 12.3551 56.3771 12.3558 56.3847 11.7261 50.5881 11.727 50.5961 11.0705 45.036 11.0716 45.0448 10.3899 39.7365 10.3912 39.746 9.6861 34.7039 9.68766 34.7146 8.96074 29.9536 8.96269 29.9657 8.21568 25.5005 8.21813 25.5145 7.4527 21.36 7.45588 21.3763 6.6737 17.5472 6.6779 17.5667 5.88064 14.0779 5.88642 14.1018 5.07576 10.968 5.08407 10.9979 4.26166 8.23405 4.27421 8.27281 3.44175 5.89354 3.46195 5.94578 2.62111 3.96592 2.65643 4.03924 1.80888 2.4736 1.87729 2.58036 1.02472 1.44373 1.17179 1.59634 0.31586 0.903506 0.630742 1.06486-0.226863 0.830634ZM35.017 317.614 36.6024 323.168 31.2077 321.104Z" fill="#C1E5F5" fill-rule="nonzero" fill-opacity="1" transform="matrix(1.8372e-16 1 1.00012 -1.83697e-16 363.088 253.803)"/><path d="M465.258 104.284 465.258 107.697 465.258 111.004 465.258 114.096 465.258 116.866 465.258 119.207 465.258 120.183 465.258 121.012 465.258 121.68 465.258 122.174 465.258 122.48 465.258 122.585 465.258 122.69 465.258 122.996 465.258 123.49 465.258 124.158 465.258 124.987 465.258 125.963 465.258 128.304 465.258 131.074 465.258 134.166 465.258 136.581 463.536 136.581 463.536 134.166 463.536 131.074 463.536 128.304 463.536 125.963 463.536 124.987 463.536 124.158 463.536 123.49 463.536 122.996 463.536 122.69 463.536 122.585 463.536 122.48 463.536 122.174 463.536 121.68 463.536 121.012 463.536 120.183 463.536 119.207 463.536 116.866 463.536 114.096 463.536 111.004 463.536 107.697 463.536 104.284ZM466.98 135.72 464.397 140.886 461.814 135.72Z" fill="#C1E5F5" fill-rule="nonzero" fill-opacity="1" transform="matrix(1.00012 0 0 1 222.049 149.519)"/><path d="M0.0210286-0.860801 5.23385-0.733457 10.4255-0.360853 15.5346 0.240127 20.5213 1.05327 25.3456 2.06251 29.9678 3.25196 34.3482 4.60597 38.4476 6.10926 42.2267 7.74703 45.6464 9.50543 48.6689 11.3721 51.2559 13.3374 53.3676 15.3958 54.9447 17.5265 55.5371 18.6554 55.9665 19.7891 56.2317 20.9427 56.317 22.0427 56.3974 23.0786 56.3782 22.9523 56.6159 23.9863 56.5822 23.8743 56.9722 24.9042 56.9293 24.8091 57.4666 25.833 57.3966 25.7209 58.8925 27.7423 58.8014 27.6379 60.8255 29.6108 60.7455 29.5418 63.2571 31.4499 63.1886 31.4029 66.1472 33.2301 66.0883 33.1969 69.4529 34.9269 69.4016 34.9026 73.1317 36.5192 73.0858 36.5008 77.1412 37.9879 77.0991 37.9737 81.4385 39.3151 81.3987 39.3036 85.9818 40.4831 85.9435 40.4743 90.7298 41.4754 90.6923 41.4685 95.6409 42.2756 95.603 42.2703 100.674 42.8665 100.635 42.8631 105.786 43.2327 105.746 43.2308 106.635 43.2523 106.592 44.974 105.684 44.9518 100.492 44.5791 95.3826 43.9782 90.3961 43.165 85.5719 42.1559 80.9498 40.9664 76.5691 39.6125 72.4697 38.1091 68.691 36.4714 65.2709 34.713 62.2483 32.8463 59.6617 30.881 57.5497 28.8227 55.9726 26.692 55.3802 25.5631 54.9508 24.4294 54.6856 23.2758 54.6002 22.1759 54.5199 21.1398 54.539 21.2662 54.3014 20.2322 54.3354 20.3442 53.9451 19.3143 53.9879 19.4094 53.4506 18.3855 53.5211 18.4976 52.0247 16.4761 52.1158 16.5805 50.0917 14.6076 50.1717 14.6766 47.6601 12.7685 47.7286 12.8155 44.77 10.9884 44.829 11.0215 41.4643 9.29154 41.5156 9.31584 37.7854 7.69919 37.8314 7.71756 33.7762 6.23046 33.8184 6.2447 29.4789 4.90336 29.5186 4.91461 24.9354 3.73519 24.9737 3.74411 20.1874 2.74282 20.2252 2.74985 15.2764 1.94288 15.3144 1.94821 10.2438 1.35176 10.2827 1.35544 5.13083 0.985697 5.17144 0.987648-0.0210286 0.860801ZM105.816 41.5099 110.917 44.2186 105.69 46.6747Z" fill="#C1E5F5" fill-rule="nonzero" fill-opacity="1" transform="matrix(1.8372e-16 1 1.00012 -1.83697e-16 363.088 253.803)"/><path d="M142.063 104.367 141.788 107.182 140.968 110.038 139.656 112.827 137.895 115.527 135.724 118.123 133.179 120.596 130.294 122.929 127.105 125.104 123.644 127.101 119.945 128.9 116.041 130.48 111.965 131.822 107.752 132.903 103.434 133.702 99.0438 134.198 94.6498 134.367 90.2878 134.534 90.3514 134.53 86.0235 135.018 86.0836 135.01 81.8238 135.798 81.8812 135.785 77.724 136.852 77.7792 136.836 73.7582 138.159 73.8122 138.139 69.9623 139.698 70.0155 139.674 66.3699 141.447 66.4239 141.419 63.0172 143.384 63.0719 143.35 59.9384 145.487 59.9951 145.445 57.1685 147.731 57.227 147.679 54.7415 150.095 54.8019 150.03 52.6921 152.551 52.753 152.469 51.0523 155.077 51.1105 154.973 49.8533 157.645 49.9161 157.46 49.6528 158.678 47.9697 158.314 48.2533 157.001 49.5774 154.186 51.3382 151.486 53.5096 148.89 56.0549 146.417 58.9392 144.084 62.1286 141.909 65.5896 139.912 69.2887 138.113 73.1926 136.532 77.2683 135.191 81.4817 134.11 85.8 133.31 90.1899 132.815 94.5835 132.646 98.9459 132.479 98.8823 132.483 103.21 131.994 103.15 132.003 107.41 131.215 107.352 131.227 111.51 130.161 111.455 130.177 115.475 128.854 115.421 128.874 119.271 127.315 119.218 127.339 122.863 125.566 122.81 125.594 126.217 123.628 126.162 123.663 129.295 121.526 129.239 121.568 132.065 119.281 132.007 119.333 134.492 116.918 134.432 116.983 136.542 114.461 136.481 114.544 138.181 111.936 138.123 112.04 139.38 109.368 139.332 109.497 140.111 106.782 140.081 106.936 140.349 104.2ZM51.5081 158.119 48.0279 162.729 46.4278 157.179Z" fill="#C1E5F5" fill-rule="nonzero" fill-opacity="1" transform="matrix(1.00012 0 0 1 222.049 149.519)"/><path d="M314.573 17.9866C314.573 15.239 316.8 13.0115 319.548 13.0115L393.025 13.0115C395.773 13.0115 398 15.239 398 17.9866L398 37.8865C398 40.6343 395.773 42.8615 393.025 42.8615L319.548 42.8615C316.8 42.8615 314.573 40.6343 314.573 37.8865Z" stroke="#FFFFFF" stroke-width="2.29615" stroke-linecap="butt" stroke-linejoin="miter" stroke-miterlimit="8" stroke-opacity="1" fill="#0B3041" fill-rule="evenodd" fill-opacity="1" transform="matrix(1.00012 0 0 1 222.049 149.519)"/><text fill="#FFFFFF" fill-opacity="1" font-family="Aptos,Aptos_MSFontService,sans-serif" font-style="normal" font-variant="normal" font-weight="400" font-stretch="normal" font-size="36" text-anchor="start" direction="ltr" writing-mode="lr-tb" unicode-bidi="normal" text-decoration="none" transform="matrix(0.382739 0 0 0.382692 545.303 182)">Framework</text><path d="M84.1923 84.001C84.1923 81.7817 85.9913 79.9827 88.2106 79.9827L193.834 79.9827C196.053 79.9827 197.852 81.7817 197.852 84.001L197.852 100.074C197.852 102.293 196.053 104.092 193.834 104.092L88.2106 104.092C85.9913 104.092 84.1923 102.293 84.1923 100.074Z" stroke="#FFFFFF" stroke-width="1.53077" stroke-linecap="butt" stroke-linejoin="miter" stroke-miterlimit="8" stroke-opacity="1" fill="#80350E" fill-rule="evenodd" fill-opacity="1" transform="matrix(1.00012 0 0 1 222.049 149.519)"/><text fill="#FFFFFF" fill-opacity="1" font-family="Aptos,Aptos_MSFontService,sans-serif" font-style="normal" font-variant="normal" font-weight="400" font-stretch="normal" font-size="36" text-anchor="start" direction="ltr" writing-mode="lr-tb" unicode-bidi="normal" text-decoration="none" transform="matrix(0.382739 0 0 0.382692 314.14 246)">Solid Mechanics</text><path d="M396.469 84.001C396.469 81.7817 398.268 79.9827 400.487 79.9827L527.541 79.9827C529.761 79.9827 531.56 81.7817 531.56 84.001L531.56 100.074C531.56 102.293 529.761 104.092 527.541 104.092L400.487 104.092C398.268 104.092 396.469 102.293 396.469 100.074Z" stroke="#FFFFFF" stroke-width="1.53077" stroke-linecap="butt" stroke-linejoin="miter" stroke-miterlimit="8" stroke-opacity="1" fill="#80350E" fill-rule="evenodd" fill-opacity="1" transform="matrix(1.00012 0 0 1 222.049 149.519)"/><text fill="#FFFFFF" fill-opacity="1" font-family="Aptos,Aptos_MSFontService,sans-serif" font-style="normal" font-variant="normal" font-weight="400" font-stretch="normal" font-size="36" text-anchor="start" direction="ltr" writing-mode="lr-tb" unicode-bidi="normal" text-decoration="none" transform="matrix(0.382739 0 0 0.382692 626.191 246)">Chemical Reactions</text><path d="M40.5654 196.449C40.5654 194.265 42.3357 192.494 44.5197 192.494L102.051 192.494C104.235 192.494 106.006 194.265 106.006 196.449L106.006 212.267C106.006 214.451 104.235 216.221 102.051 216.221L44.5197 216.221C42.3357 216.221 40.5654 214.451 40.5654 212.267Z" stroke="#FFFFFF" stroke-width="1.53077" stroke-linecap="butt" stroke-linejoin="miter" stroke-miterlimit="8" stroke-opacity="1" fill="#80350E" fill-rule="evenodd" fill-opacity="1" transform="matrix(1.00012 0 0 1 222.049 149.519)"/><text fill="#FFFFFF" fill-opacity="1" font-family="Aptos,Aptos_MSFontService,sans-serif" font-style="normal" font-variant="normal" font-weight="400" font-stretch="normal" font-size="36" text-anchor="start" direction="ltr" writing-mode="lr-tb" unicode-bidi="normal" text-decoration="none" transform="matrix(0.382739 0 0 0.382692 271.242 358)">Contact</text><path d="M587.433 84.7028C587.433 82.5188 589.205 80.7481 591.386 80.7481L705.558 80.7481C707.74 80.7481 709.512 82.5188 709.512 84.7028L709.512 100.52C709.512 102.704 707.74 104.475 705.558 104.475L591.386 104.475C589.205 104.475 587.433 102.704 587.433 100.52Z" stroke="#FFFFFF" stroke-width="1.53077" stroke-linecap="butt" stroke-linejoin="miter" stroke-miterlimit="8" stroke-opacity="1" fill="#80350E" fill-rule="evenodd" fill-opacity="1" transform="matrix(1.00012 0 0 1 222.049 149.519)"/><text fill="#FFFFFF" fill-opacity="1" font-family="Aptos,Aptos_MSFontService,sans-serif" font-style="normal" font-variant="normal" font-weight="400" font-stretch="normal" font-size="36" text-anchor="start" direction="ltr" writing-mode="lr-tb" unicode-bidi="normal" text-decoration="none" transform="matrix(0.382739 0 0 0.382692 818.345 247)">Electromagnetics</text><path d="M55.8731 300.541C55.8731 298.357 57.6438 296.587 59.8278 296.587L222.216 296.587C224.4 296.587 226.171 298.357 226.171 300.541L226.171 316.359C226.171 318.543 224.4 320.313 222.216 320.313L59.8278 320.313C57.6438 320.313 55.8731 318.543 55.8731 316.359Z" stroke="#FFFFFF" stroke-width="1.53077" stroke-linecap="butt" stroke-linejoin="miter" stroke-miterlimit="8" stroke-opacity="1" fill="#80350E" fill-rule="evenodd" fill-opacity="1" transform="matrix(1.00012 0 0 1 222.049 149.519)"/><text fill="#FFFFFF" fill-opacity="1" font-family="Aptos,Aptos_MSFontService,sans-serif" font-style="normal" font-variant="normal" font-weight="400" font-stretch="normal" font-size="36" text-anchor="start" direction="ltr" writing-mode="lr-tb" unicode-bidi="normal" text-decoration="none" transform="matrix(0.382739 0 0 0.382692 285.48 463)">Flui</text><text fill="#FFFFFF" fill-opacity="1" font-family="Aptos,Aptos_MSFontService,sans-serif" font-style="normal" font-variant="normal" font-weight="400" font-stretch="normal" font-size="36" text-anchor="start" direction="ltr" writing-mode="lr-tb" unicode-bidi="normal" text-decoration="none" transform="matrix(0.382739 0 0 0.382692 307.201 463)">d</text><text fill="#FFFFFF" fill-opacity="1" font-family="Aptos,Aptos_MSFontService,sans-serif" font-style="normal" font-variant="normal" font-weight="400" font-stretch="normal" font-size="36" text-anchor="start" direction="ltr" writing-mode="lr-tb" unicode-bidi="normal" text-decoration="none" transform="matrix(0.382739 0 0 0.382692 317.726 463)">Structure Interaction</text><path d="M622.258 277.643C622.258 275.424 624.056 273.625 626.276 273.625L689.803 273.625C692.023 273.625 693.821 275.424 693.821 277.643L693.821 293.716C693.821 295.936 692.023 297.735 689.803 297.735L626.276 297.735C624.056 297.735 622.258 295.936 622.258 293.716Z" stroke="#FFFFFF" stroke-width="1.53077" stroke-linecap="butt" stroke-linejoin="miter" stroke-miterlimit="8" stroke-opacity="1" fill="#80350E" fill-rule="evenodd" fill-opacity="1" transform="matrix(1.00012 0 0 1 222.049 149.519)"/><text fill="#FFFFFF" fill-opacity="1" font-family="Aptos,Aptos_MSFontService,sans-serif" font-style="normal" font-variant="normal" font-weight="400" font-stretch="normal" font-size="36" text-anchor="start" direction="ltr" writing-mode="lr-tb" unicode-bidi="normal" text-decoration="none" transform="matrix(0.382739 0 0 0.382692 853.408 440)">Level Set</text><path d="M513.956 278.026C513.956 275.807 515.754 274.008 517.974 274.008L601.018 274.008C603.238 274.008 605.037 275.807 605.037 278.026L605.037 294.099C605.037 296.318 603.238 298.117 601.018 298.117L517.974 298.117C515.754 298.117 513.956 296.318 513.956 294.099Z" stroke="#FFFFFF" stroke-width="1.53077" stroke-linecap="butt" stroke-linejoin="miter" stroke-miterlimit="8" stroke-opacity="1" fill="#80350E" fill-rule="evenodd" fill-opacity="1" transform="matrix(1.00012 0 0 1 222.049 149.519)"/><text fill="#FFFFFF" fill-opacity="1" font-family="Aptos,Aptos_MSFontService,sans-serif" font-style="normal" font-variant="normal" font-weight="400" font-stretch="normal" font-size="36" text-anchor="start" direction="ltr" writing-mode="lr-tb" unicode-bidi="normal" text-decoration="none" transform="matrix(0.382739 0 0 0.382692 743.278 440)">Optimization</text><path d="M240.713 144.466C240.713 142.247 242.512 140.448 244.732 140.448L346.145 140.448C348.364 140.448 350.163 142.247 350.163 144.466L350.163 160.539C350.163 162.759 348.364 164.558 346.145 164.558L244.732 164.558C242.512 164.558 240.713 162.759 240.713 160.539Z" stroke="#FFFFFF" stroke-width="1.53077" stroke-linecap="butt" stroke-linejoin="miter" stroke-miterlimit="8" stroke-opacity="1" fill="#80350E" fill-rule="evenodd" fill-opacity="1" transform="matrix(1.00012 0 0 1 222.049 149.519)"/><text fill="#FFFFFF" fill-opacity="1" font-family="Aptos,Aptos_MSFontService,sans-serif" font-style="normal" font-variant="normal" font-weight="400" font-stretch="normal" font-size="36" text-anchor="start" direction="ltr" writing-mode="lr-tb" unicode-bidi="normal" text-decoration="none" transform="matrix(0.382739 0 0 0.382692 471.48 307)">Fluid Dynamics</text><path d="M33.6769 229.424C33.6769 227.205 35.476 225.406 37.6952 225.406L127.628 225.406C129.847 225.406 131.646 227.205 131.646 229.424L131.646 245.497C131.646 247.716 129.847 249.515 127.628 249.515L37.6952 249.515C35.476 249.515 33.6769 247.716 33.6769 245.497Z" stroke="#FFFFFF" stroke-width="1.53077" stroke-linecap="butt" stroke-linejoin="miter" stroke-miterlimit="8" stroke-opacity="1" fill="#80350E" fill-rule="evenodd" fill-opacity="1" transform="matrix(1.00012 0 0 1 222.049 149.519)"/><text fill="#FFFFFF" fill-opacity="1" font-family="Aptos,Aptos_MSFontService,sans-serif" font-style="normal" font-variant="normal" font-weight="400" font-stretch="normal" font-size="36" text-anchor="start" direction="ltr" writing-mode="lr-tb" unicode-bidi="normal" text-decoration="none" transform="matrix(0.382739 0 0 0.382692 264.546 392)">Peridynamics</text><path d="M148.102 162.07C148.102 159.851 149.901 158.052 152.12 158.052L227.511 158.052C229.73 158.052 231.529 159.851 231.529 162.07L231.529 178.143C231.529 180.363 229.73 182.162 227.511 182.162L152.12 182.162C149.901 182.162 148.102 180.363 148.102 178.143Z" stroke="#FFFFFF" stroke-width="1.53077" stroke-linecap="butt" stroke-linejoin="miter" stroke-miterlimit="8" stroke-opacity="1" fill="#80350E" fill-rule="evenodd" fill-opacity="1" transform="matrix(1.00012 0 0 1 222.049 149.519)"/><text fill="#FFFFFF" fill-opacity="1" font-family="Aptos,Aptos_MSFontService,sans-serif" font-style="normal" font-variant="normal" font-weight="400" font-stretch="normal" font-size="36" text-anchor="start" direction="ltr" writing-mode="lr-tb" unicode-bidi="normal" text-decoration="none" transform="matrix(0.382739 0 0 0.382692 377.555 324)">Phase Field</text><path d="M415.987 144.466C415.987 142.247 417.785 140.448 420.005 140.448L508.024 140.448C510.244 140.448 512.042 142.247 512.042 144.466L512.042 160.539C512.042 162.759 510.244 164.558 508.024 164.558L420.005 164.558C417.785 164.558 415.987 162.759 415.987 160.539Z" stroke="#FFFFFF" stroke-width="1.53077" stroke-linecap="butt" stroke-linejoin="miter" stroke-miterlimit="8" stroke-opacity="1" fill="#80350E" fill-rule="evenodd" fill-opacity="1" transform="matrix(1.00012 0 0 1 222.049 149.519)"/><text fill="#FFFFFF" fill-opacity="1" font-family="Aptos,Aptos_MSFontService,sans-serif" font-style="normal" font-variant="normal" font-weight="400" font-stretch="normal" font-size="36" text-anchor="start" direction="ltr" writing-mode="lr-tb" unicode-bidi="normal" text-decoration="none" transform="matrix(0.382739 0 0 0.382692 650.108 307)">Porous Flow</text><path d="M238.417 84.7028C238.417 82.5184 240.188 80.7481 242.372 80.7481L348.505 80.7481C350.689 80.7481 352.46 82.5184 352.46 84.7028L352.46 100.52C352.46 102.705 350.689 104.475 348.505 104.475L242.372 104.475C240.188 104.475 238.417 102.705 238.417 100.52Z" stroke="#FFFFFF" stroke-width="1.53077" stroke-linecap="butt" stroke-linejoin="miter" stroke-miterlimit="8" stroke-opacity="1" fill="#80350E" fill-rule="evenodd" fill-opacity="1" transform="matrix(1.00012 0 0 1 222.049 149.519)"/><text fill="#FFFFFF" fill-opacity="1" font-family="Aptos,Aptos_MSFontService,sans-serif" font-style="normal" font-variant="normal" font-weight="400" font-stretch="normal" font-size="36" text-anchor="start" direction="ltr" writing-mode="lr-tb" unicode-bidi="normal" text-decoration="none" transform="matrix(0.382739 0 0 0.382692 477.838 247)">Heat Transfer</text><path d="M513.956 240.076C513.956 237.891 515.728 236.121 517.909 236.121L575.443 236.121C577.624 236.121 579.396 237.891 579.396 240.076L579.396 255.894C579.396 258.078 577.624 259.848 575.443 259.848L517.909 259.848C515.728 259.848 513.956 258.078 513.956 255.894Z" stroke="#FFFFFF" stroke-width="1.53077" stroke-linecap="butt" stroke-linejoin="miter" stroke-miterlimit="8" stroke-opacity="1" fill="#80350E" fill-rule="evenodd" fill-opacity="1" transform="matrix(1.00012 0 0 1 222.049 149.519)"/><text fill="#FFFFFF" fill-opacity="1" font-family="Aptos,Aptos_MSFontService,sans-serif" font-style="normal" font-variant="normal" font-weight="400" font-stretch="normal" font-size="36" text-anchor="start" direction="ltr" writing-mode="lr-tb" unicode-bidi="normal" text-decoration="none" transform="matrix(0.382739 0 0 0.382692 745.475 402)">Reactor</text><path d="M597 240.076C597 237.891 598.772 236.121 600.953 236.121L708.237 236.121C710.419 236.121 712.19 237.891 712.19 240.076L712.19 255.893C712.19 258.078 710.419 259.848 708.237 259.848L600.953 259.848C598.772 259.848 597 258.078 597 255.893Z" stroke="#FFFFFF" stroke-width="1.53077" stroke-linecap="butt" stroke-linejoin="miter" stroke-miterlimit="8" stroke-opacity="1" fill="#80350E" fill-rule="evenodd" fill-opacity="1" transform="matrix(1.00012 0 0 1 222.049 149.519)"/><text fill="#FFFFFF" fill-opacity="1" font-family="Aptos,Aptos_MSFontService,sans-serif" font-style="normal" font-variant="normal" font-weight="400" font-stretch="normal" font-size="36" text-anchor="start" direction="ltr" writing-mode="lr-tb" unicode-bidi="normal" text-decoration="none" transform="matrix(0.382739 0 0 0.382692 827.952 402)">Stochastic Tools</text><path d="M230.381 251.62C230.381 249.401 232.18 247.602 234.399 247.602L356.095 247.602C358.314 247.602 360.113 249.401 360.113 251.62L360.113 267.693C360.113 269.913 358.314 271.712 356.095 271.712L234.399 271.712C232.18 271.712 230.381 269.913 230.381 267.693Z" stroke="#FFFFFF" stroke-width="1.53077" stroke-linecap="butt" stroke-linejoin="miter" stroke-miterlimit="8" stroke-opacity="1" fill="#80350E" fill-rule="evenodd" fill-opacity="1" transform="matrix(1.00012 0 0 1 222.049 149.519)"/><text fill="#FFFFFF" fill-opacity="1" font-family="Aptos,Aptos_MSFontService,sans-serif" font-style="normal" font-variant="normal" font-weight="400" font-stretch="normal" font-size="36" text-anchor="start" direction="ltr" writing-mode="lr-tb" unicode-bidi="normal" text-decoration="none" transform="matrix(0.382739 0 0 0.382692 459.887 414)">Thermal Hydraulics</text><path d="M156.904 218.709C156.904 216.489 158.703 214.69 160.922 214.69L209.524 214.69C211.743 214.69 213.542 216.489 213.542 218.709L213.542 234.782C213.542 237.001 211.743 238.8 209.524 238.8L160.922 238.8C158.703 238.8 156.904 237.001 156.904 234.782Z" stroke="#FFFFFF" stroke-width="1.53077" stroke-linecap="butt" stroke-linejoin="miter" stroke-miterlimit="8" stroke-opacity="1" fill="#80350E" fill-rule="evenodd" fill-opacity="1" transform="matrix(1.00012 0 0 1 222.049 149.519)"/><text fill="#FFFFFF" fill-opacity="1" font-family="Aptos,Aptos_MSFontService,sans-serif" font-style="normal" font-variant="normal" font-weight="400" font-stretch="normal" font-size="36" text-anchor="start" direction="ltr" writing-mode="lr-tb" unicode-bidi="normal" text-decoration="none" transform="matrix(0.382739 0 0 0.382692 390.513 381)">XFEM</text><path d="M25.6404 166.344C25.6404 164.089 27.468 162.262 29.7225 162.262L65.9505 162.262C68.205 162.262 70.0327 164.089 70.0327 166.344L70.0327 182.672C70.0327 184.926 68.205 186.754 65.9505 186.754L29.7225 186.754C27.468 186.754 25.6404 184.926 25.6404 182.672Z" stroke="#FFFFFF" stroke-width="1.53077" stroke-linecap="butt" stroke-linejoin="miter" stroke-miterlimit="8" stroke-opacity="1" fill="#80350E" fill-rule="evenodd" fill-opacity="1" transform="matrix(1.00012 0 0 1 222.049 149.519)"/><text fill="#FFFFFF" fill-opacity="1" font-family="Aptos,Aptos_MSFontService,sans-serif" font-style="normal" font-variant="normal" font-weight="400" font-stretch="normal" font-size="36" text-anchor="start" direction="ltr" writing-mode="lr-tb" unicode-bidi="normal" text-decoration="none" transform="matrix(0.382739 0 0 0.382692 256.107 329)">CZM</text><path d="M11.2894 68.3106 724.628 68.3106 724.628 345.38 11.2894 345.38Z" stroke="#FFFFFF" stroke-width="1.72212" stroke-linecap="butt" stroke-linejoin="miter" stroke-miterlimit="8" stroke-dasharray="6.88846 5.16635" stroke-opacity="1" fill="none" fill-rule="nonzero" transform="matrix(1.00012 0 0 1 222.049 149.519)"/><path d="M740.892 190.134C740.892 187.422 743.093 185.223 745.802 185.223L819.409 185.223C822.119 185.223 824.319 187.422 824.319 190.134L824.319 209.779C824.319 212.491 822.119 214.69 819.409 214.69L745.802 214.69C743.093 214.69 740.892 212.491 740.892 209.779Z" stroke="#FFFFFF" stroke-width="2.29615" stroke-linecap="butt" stroke-linejoin="miter" stroke-miterlimit="8" stroke-opacity="1" fill="#0B3041" fill-rule="evenodd" fill-opacity="1" transform="matrix(1.00012 0 0 1 222.049 149.519)"/><text fill="#FFFFFF" fill-opacity="1" font-family="Aptos,Aptos_MSFontService,sans-serif" font-style="normal" font-variant="normal" font-weight="400" font-stretch="normal" font-size="36" text-anchor="start" direction="ltr" writing-mode="lr-tb" unicode-bidi="normal" text-decoration="none" transform="matrix(0.382739 0 0 0.382692 979.183 354)">Modules</text><path d="M0.861012-0.00906391 1.15174 27.608-0.570284 27.6262-0.861012 0.00906391ZM2.86469 26.7289 0.336046 31.9221-2.30137 26.7833Z" fill="#C1E5F5" fill-rule="nonzero" fill-opacity="1" transform="matrix(-1.00012 0 0 1 590.006 494.899)"/><path d="M322.61 381.863C322.61 379.151 324.809 376.952 327.521 376.952L407.25 376.952C409.959 376.952 412.16 379.151 412.16 381.863L412.16 401.509C412.16 404.219 409.959 406.419 407.25 406.419L327.521 406.419C324.809 406.419 322.61 404.219 322.61 401.509Z" stroke="#FFFFFF" stroke-width="2.29615" stroke-linecap="butt" stroke-linejoin="miter" stroke-miterlimit="8" stroke-opacity="1" fill="#0B3041" fill-rule="evenodd" fill-opacity="1" transform="matrix(1.00012 0 0 1 222.049 149.519)"/><text fill="#FFFFFF" fill-opacity="1" font-family="Aptos,Aptos_MSFontService,sans-serif" font-style="normal" font-variant="normal" font-weight="400" font-stretch="normal" font-size="36" text-anchor="start" direction="ltr" writing-mode="lr-tb" unicode-bidi="normal" text-decoration="none" transform="matrix(0.382739 0 0 0.382692 552.263 546)">Applications</text><path d="M0.861058-2.03425e-06 0.861107 21.2043-0.861008 21.2043-0.861058 2.03425e-06ZM2.58322 20.3433 6.02664e-05 25.5096-2.58312 20.3433Z" fill="#C1E5F5" fill-rule="nonzero" fill-opacity="1" transform="matrix(-1.00012 0 0 1 578.57 192.572)"/></g></g></g></g></g></svg>