<?xml version="1.0" encoding="utf-8" standalone="no"?>
<!DOCTYPE svg PUBLIC "-//W3C//DTD SVG 1.1//EN"
  "http://www.w3.org/Graphics/SVG/1.1/DTD/svg11.dtd">
<svg xmlns:xlink="http://www.w3.org/1999/xlink" width="460.8pt" height="345.6pt" viewBox="0 0 460.8 345.6" xmlns="http://www.w3.org/2000/svg" version="1.1">
 <metadata>
  <rdf:RDF xmlns:dc="http://purl.org/dc/elements/1.1/" xmlns:cc="http://creativecommons.org/ns#" xmlns:rdf="http://www.w3.org/1999/02/22-rdf-syntax-ns#">
   <cc:Work>
    <dc:type rdf:resource="http://purl.org/dc/dcmitype/StillImage"/>
    <dc:date>2024-03-04T14:31:03.877379</dc:date>
    <dc:format>image/svg+xml</dc:format>
    <dc:creator>
     <cc:Agent>
      <dc:title>Matplotlib v3.8.3, https://matplotlib.org/</dc:title>
     </cc:Agent>
    </dc:creator>
   </cc:Work>
  </rdf:RDF>
 </metadata>
 <defs>
  <style type="text/css">*{stroke-linejoin: round; stroke-linecap: butt}</style>
 </defs>
 <g id="figure_1">
  <g id="patch_1">
   <path d="M 0 345.6 
L 460.8 345.6 
L 460.8 0 
L 0 0 
z
" style="fill: #ffffff"/>
  </g>
  <g id="axes_1">
   <g id="patch_2">
    <path d="M 47.81 303.64 
L 450 303.64 
L 450 10.8 
L 47.81 10.8 
z
" style="fill: #ffffff"/>
   </g>
   <g id="matplotlib.axis_1">
    <g id="xtick_1">
     <g id="line2d_1">
      <defs>
       <path id="m7d01d51539" d="M 0 0 
L 0 3.5 
" style="stroke: #000000; stroke-width: 0.8"/>
      </defs>
      <g>
       <use xlink:href="#m7d01d51539" x="66.091364" y="303.64" style="stroke: #000000; stroke-width: 0.8"/>
      </g>
     </g>
     <g id="text_1">
      <!-- 0.0 -->
      <g transform="translate(58.139801 318.238437) scale(0.1 -0.1)">
       <defs>
        <path id="DejaVuSans-30" d="M 2034 4250 
Q 1547 4250 1301 3770 
Q 1056 3291 1056 2328 
Q 1056 1369 1301 889 
Q 1547 409 2034 409 
Q 2525 409 2770 889 
Q 3016 1369 3016 2328 
Q 3016 3291 2770 3770 
Q 2525 4250 2034 4250 
z
M 2034 4750 
Q 2819 4750 3233 4129 
Q 3647 3509 3647 2328 
Q 3647 1150 3233 529 
Q 2819 -91 2034 -91 
Q 1250 -91 836 529 
Q 422 1150 422 2328 
Q 422 3509 836 4129 
Q 1250 4750 2034 4750 
z
" transform="scale(0.015625)"/>
        <path id="DejaVuSans-2e" d="M 684 794 
L 1344 794 
L 1344 0 
L 684 0 
L 684 794 
z
" transform="scale(0.015625)"/>
       </defs>
       <use xlink:href="#DejaVuSans-30"/>
       <use xlink:href="#DejaVuSans-2e" x="63.623047"/>
       <use xlink:href="#DejaVuSans-30" x="95.410156"/>
      </g>
     </g>
    </g>
    <g id="xtick_2">
     <g id="line2d_2">
      <g>
       <use xlink:href="#m7d01d51539" x="139.216818" y="303.64" style="stroke: #000000; stroke-width: 0.8"/>
      </g>
     </g>
     <g id="text_2">
      <!-- 0.2 -->
      <g transform="translate(131.265256 318.238437) scale(0.1 -0.1)">
       <defs>
        <path id="DejaVuSans-32" d="M 1228 531 
L 3431 531 
L 3431 0 
L 469 0 
L 469 531 
Q 828 903 1448 1529 
Q 2069 2156 2228 2338 
Q 2531 2678 2651 2914 
Q 2772 3150 2772 3378 
Q 2772 3750 2511 3984 
Q 2250 4219 1831 4219 
Q 1534 4219 1204 4116 
Q 875 4013 500 3803 
L 500 4441 
Q 881 4594 1212 4672 
Q 1544 4750 1819 4750 
Q 2544 4750 2975 4387 
Q 3406 4025 3406 3419 
Q 3406 3131 3298 2873 
Q 3191 2616 2906 2266 
Q 2828 2175 2409 1742 
Q 1991 1309 1228 531 
z
" transform="scale(0.015625)"/>
       </defs>
       <use xlink:href="#DejaVuSans-30"/>
       <use xlink:href="#DejaVuSans-2e" x="63.623047"/>
       <use xlink:href="#DejaVuSans-32" x="95.410156"/>
      </g>
     </g>
    </g>
    <g id="xtick_3">
     <g id="line2d_3">
      <g>
       <use xlink:href="#m7d01d51539" x="212.342273" y="303.64" style="stroke: #000000; stroke-width: 0.8"/>
      </g>
     </g>
     <g id="text_3">
      <!-- 0.4 -->
      <g transform="translate(204.39071 318.238437) scale(0.1 -0.1)">
       <defs>
        <path id="DejaVuSans-34" d="M 2419 4116 
L 825 1625 
L 2419 1625 
L 2419 4116 
z
M 2253 4666 
L 3047 4666 
L 3047 1625 
L 3713 1625 
L 3713 1100 
L 3047 1100 
L 3047 0 
L 2419 0 
L 2419 1100 
L 313 1100 
L 313 1709 
L 2253 4666 
z
" transform="scale(0.015625)"/>
       </defs>
       <use xlink:href="#DejaVuSans-30"/>
       <use xlink:href="#DejaVuSans-2e" x="63.623047"/>
       <use xlink:href="#DejaVuSans-34" x="95.410156"/>
      </g>
     </g>
    </g>
    <g id="xtick_4">
     <g id="line2d_4">
      <g>
       <use xlink:href="#m7d01d51539" x="285.467727" y="303.64" style="stroke: #000000; stroke-width: 0.8"/>
      </g>
     </g>
     <g id="text_4">
      <!-- 0.6 -->
      <g transform="translate(277.516165 318.238437) scale(0.1 -0.1)">
       <defs>
        <path id="DejaVuSans-36" d="M 2113 2584 
Q 1688 2584 1439 2293 
Q 1191 2003 1191 1497 
Q 1191 994 1439 701 
Q 1688 409 2113 409 
Q 2538 409 2786 701 
Q 3034 994 3034 1497 
Q 3034 2003 2786 2293 
Q 2538 2584 2113 2584 
z
M 3366 4563 
L 3366 3988 
Q 3128 4100 2886 4159 
Q 2644 4219 2406 4219 
Q 1781 4219 1451 3797 
Q 1122 3375 1075 2522 
Q 1259 2794 1537 2939 
Q 1816 3084 2150 3084 
Q 2853 3084 3261 2657 
Q 3669 2231 3669 1497 
Q 3669 778 3244 343 
Q 2819 -91 2113 -91 
Q 1303 -91 875 529 
Q 447 1150 447 2328 
Q 447 3434 972 4092 
Q 1497 4750 2381 4750 
Q 2619 4750 2861 4703 
Q 3103 4656 3366 4563 
z
" transform="scale(0.015625)"/>
       </defs>
       <use xlink:href="#DejaVuSans-30"/>
       <use xlink:href="#DejaVuSans-2e" x="63.623047"/>
       <use xlink:href="#DejaVuSans-36" x="95.410156"/>
      </g>
     </g>
    </g>
    <g id="xtick_5">
     <g id="line2d_5">
      <g>
       <use xlink:href="#m7d01d51539" x="358.593182" y="303.64" style="stroke: #000000; stroke-width: 0.8"/>
      </g>
     </g>
     <g id="text_5">
      <!-- 0.8 -->
      <g transform="translate(350.641619 318.238437) scale(0.1 -0.1)">
       <defs>
        <path id="DejaVuSans-38" d="M 2034 2216 
Q 1584 2216 1326 1975 
Q 1069 1734 1069 1313 
Q 1069 891 1326 650 
Q 1584 409 2034 409 
Q 2484 409 2743 651 
Q 3003 894 3003 1313 
Q 3003 1734 2745 1975 
Q 2488 2216 2034 2216 
z
M 1403 2484 
Q 997 2584 770 2862 
Q 544 3141 544 3541 
Q 544 4100 942 4425 
Q 1341 4750 2034 4750 
Q 2731 4750 3128 4425 
Q 3525 4100 3525 3541 
Q 3525 3141 3298 2862 
Q 3072 2584 2669 2484 
Q 3125 2378 3379 2068 
Q 3634 1759 3634 1313 
Q 3634 634 3220 271 
Q 2806 -91 2034 -91 
Q 1263 -91 848 271 
Q 434 634 434 1313 
Q 434 1759 690 2068 
Q 947 2378 1403 2484 
z
M 1172 3481 
Q 1172 3119 1398 2916 
Q 1625 2713 2034 2713 
Q 2441 2713 2670 2916 
Q 2900 3119 2900 3481 
Q 2900 3844 2670 4047 
Q 2441 4250 2034 4250 
Q 1625 4250 1398 4047 
Q 1172 3844 1172 3481 
z
" transform="scale(0.015625)"/>
       </defs>
       <use xlink:href="#DejaVuSans-30"/>
       <use xlink:href="#DejaVuSans-2e" x="63.623047"/>
       <use xlink:href="#DejaVuSans-38" x="95.410156"/>
      </g>
     </g>
    </g>
    <g id="xtick_6">
     <g id="line2d_6">
      <g>
       <use xlink:href="#m7d01d51539" x="431.718636" y="303.64" style="stroke: #000000; stroke-width: 0.8"/>
      </g>
     </g>
     <g id="text_6">
      <!-- 1.0 -->
      <g transform="translate(423.767074 318.238437) scale(0.1 -0.1)">
       <defs>
        <path id="DejaVuSans-31" d="M 794 531 
L 1825 531 
L 1825 4091 
L 703 3866 
L 703 4441 
L 1819 4666 
L 2450 4666 
L 2450 531 
L 3481 531 
L 3481 0 
L 794 0 
L 794 531 
z
" transform="scale(0.015625)"/>
       </defs>
       <use xlink:href="#DejaVuSans-31"/>
       <use xlink:href="#DejaVuSans-2e" x="63.623047"/>
       <use xlink:href="#DejaVuSans-30" x="95.410156"/>
      </g>
     </g>
    </g>
    <g id="text_7">
     <!-- time (s) -->
     <g transform="translate(229.513594 331.916562) scale(0.1 -0.1)">
      <defs>
       <path id="DejaVuSans-74" d="M 1172 4494 
L 1172 3500 
L 2356 3500 
L 2356 3053 
L 1172 3053 
L 1172 1153 
Q 1172 725 1289 603 
Q 1406 481 1766 481 
L 2356 481 
L 2356 0 
L 1766 0 
Q 1100 0 847 248 
Q 594 497 594 1153 
L 594 3053 
L 172 3053 
L 172 3500 
L 594 3500 
L 594 4494 
L 1172 4494 
z
" transform="scale(0.015625)"/>
       <path id="DejaVuSans-69" d="M 603 3500 
L 1178 3500 
L 1178 0 
L 603 0 
L 603 3500 
z
M 603 4863 
L 1178 4863 
L 1178 4134 
L 603 4134 
L 603 4863 
z
" transform="scale(0.015625)"/>
       <path id="DejaVuSans-6d" d="M 3328 2828 
Q 3544 3216 3844 3400 
Q 4144 3584 4550 3584 
Q 5097 3584 5394 3201 
Q 5691 2819 5691 2113 
L 5691 0 
L 5113 0 
L 5113 2094 
Q 5113 2597 4934 2840 
Q 4756 3084 4391 3084 
Q 3944 3084 3684 2787 
Q 3425 2491 3425 1978 
L 3425 0 
L 2847 0 
L 2847 2094 
Q 2847 2600 2669 2842 
Q 2491 3084 2119 3084 
Q 1678 3084 1418 2786 
Q 1159 2488 1159 1978 
L 1159 0 
L 581 0 
L 581 3500 
L 1159 3500 
L 1159 2956 
Q 1356 3278 1631 3431 
Q 1906 3584 2284 3584 
Q 2666 3584 2933 3390 
Q 3200 3197 3328 2828 
z
" transform="scale(0.015625)"/>
       <path id="DejaVuSans-65" d="M 3597 1894 
L 3597 1613 
L 953 1613 
Q 991 1019 1311 708 
Q 1631 397 2203 397 
Q 2534 397 2845 478 
Q 3156 559 3463 722 
L 3463 178 
Q 3153 47 2828 -22 
Q 2503 -91 2169 -91 
Q 1331 -91 842 396 
Q 353 884 353 1716 
Q 353 2575 817 3079 
Q 1281 3584 2069 3584 
Q 2775 3584 3186 3129 
Q 3597 2675 3597 1894 
z
M 3022 2063 
Q 3016 2534 2758 2815 
Q 2500 3097 2075 3097 
Q 1594 3097 1305 2825 
Q 1016 2553 972 2059 
L 3022 2063 
z
" transform="scale(0.015625)"/>
       <path id="DejaVuSans-20" transform="scale(0.015625)"/>
       <path id="DejaVuSans-28" d="M 1984 4856 
Q 1566 4138 1362 3434 
Q 1159 2731 1159 2009 
Q 1159 1288 1364 580 
Q 1569 -128 1984 -844 
L 1484 -844 
Q 1016 -109 783 600 
Q 550 1309 550 2009 
Q 550 2706 781 3412 
Q 1013 4119 1484 4856 
L 1984 4856 
z
" transform="scale(0.015625)"/>
       <path id="DejaVuSans-73" d="M 2834 3397 
L 2834 2853 
Q 2591 2978 2328 3040 
Q 2066 3103 1784 3103 
Q 1356 3103 1142 2972 
Q 928 2841 928 2578 
Q 928 2378 1081 2264 
Q 1234 2150 1697 2047 
L 1894 2003 
Q 2506 1872 2764 1633 
Q 3022 1394 3022 966 
Q 3022 478 2636 193 
Q 2250 -91 1575 -91 
Q 1294 -91 989 -36 
Q 684 19 347 128 
L 347 722 
Q 666 556 975 473 
Q 1284 391 1588 391 
Q 1994 391 2212 530 
Q 2431 669 2431 922 
Q 2431 1156 2273 1281 
Q 2116 1406 1581 1522 
L 1381 1569 
Q 847 1681 609 1914 
Q 372 2147 372 2553 
Q 372 3047 722 3315 
Q 1072 3584 1716 3584 
Q 2034 3584 2315 3537 
Q 2597 3491 2834 3397 
z
" transform="scale(0.015625)"/>
       <path id="DejaVuSans-29" d="M 513 4856 
L 1013 4856 
Q 1481 4119 1714 3412 
Q 1947 2706 1947 2009 
Q 1947 1309 1714 600 
Q 1481 -109 1013 -844 
L 513 -844 
Q 928 -128 1133 580 
Q 1338 1288 1338 2009 
Q 1338 2731 1133 3434 
Q 928 4138 513 4856 
z
" transform="scale(0.015625)"/>
      </defs>
      <use xlink:href="#DejaVuSans-74"/>
      <use xlink:href="#DejaVuSans-69" x="39.208984"/>
      <use xlink:href="#DejaVuSans-6d" x="66.992188"/>
      <use xlink:href="#DejaVuSans-65" x="164.404297"/>
      <use xlink:href="#DejaVuSans-20" x="225.927734"/>
      <use xlink:href="#DejaVuSans-28" x="257.714844"/>
      <use xlink:href="#DejaVuSans-73" x="296.728516"/>
      <use xlink:href="#DejaVuSans-29" x="348.828125"/>
     </g>
    </g>
   </g>
   <g id="matplotlib.axis_2">
    <g id="ytick_1">
     <g id="line2d_7">
      <defs>
       <path id="mfd33ac16ef" d="M 0 0 
L -3.5 0 
" style="stroke: #000000; stroke-width: 0.8"/>
      </defs>
      <g>
       <use xlink:href="#mfd33ac16ef" x="47.81" y="285.862402" style="stroke: #000000; stroke-width: 0.8"/>
      </g>
     </g>
     <g id="text_8">
      <!-- 0.8 -->
      <g transform="translate(24.906875 289.661621) scale(0.1 -0.1)">
       <use xlink:href="#DejaVuSans-30"/>
       <use xlink:href="#DejaVuSans-2e" x="63.623047"/>
       <use xlink:href="#DejaVuSans-38" x="95.410156"/>
      </g>
     </g>
    </g>
    <g id="ytick_2">
     <g id="line2d_8">
      <g>
       <use xlink:href="#mfd33ac16ef" x="47.81" y="222.750045" style="stroke: #000000; stroke-width: 0.8"/>
      </g>
     </g>
     <g id="text_9">
      <!-- 0.9 -->
      <g transform="translate(24.906875 226.549264) scale(0.1 -0.1)">
       <defs>
        <path id="DejaVuSans-39" d="M 703 97 
L 703 672 
Q 941 559 1184 500 
Q 1428 441 1663 441 
Q 2288 441 2617 861 
Q 2947 1281 2994 2138 
Q 2813 1869 2534 1725 
Q 2256 1581 1919 1581 
Q 1219 1581 811 2004 
Q 403 2428 403 3163 
Q 403 3881 828 4315 
Q 1253 4750 1959 4750 
Q 2769 4750 3195 4129 
Q 3622 3509 3622 2328 
Q 3622 1225 3098 567 
Q 2575 -91 1691 -91 
Q 1453 -91 1209 -44 
Q 966 3 703 97 
z
M 1959 2075 
Q 2384 2075 2632 2365 
Q 2881 2656 2881 3163 
Q 2881 3666 2632 3958 
Q 2384 4250 1959 4250 
Q 1534 4250 1286 3958 
Q 1038 3666 1038 3163 
Q 1038 2656 1286 2365 
Q 1534 2075 1959 2075 
z
" transform="scale(0.015625)"/>
       </defs>
       <use xlink:href="#DejaVuSans-30"/>
       <use xlink:href="#DejaVuSans-2e" x="63.623047"/>
       <use xlink:href="#DejaVuSans-39" x="95.410156"/>
      </g>
     </g>
    </g>
    <g id="ytick_3">
     <g id="line2d_9">
      <g>
       <use xlink:href="#mfd33ac16ef" x="47.81" y="159.637689" style="stroke: #000000; stroke-width: 0.8"/>
      </g>
     </g>
     <g id="text_10">
      <!-- 1.0 -->
      <g transform="translate(24.906875 163.436907) scale(0.1 -0.1)">
       <use xlink:href="#DejaVuSans-31"/>
       <use xlink:href="#DejaVuSans-2e" x="63.623047"/>
       <use xlink:href="#DejaVuSans-30" x="95.410156"/>
      </g>
     </g>
    </g>
    <g id="ytick_4">
     <g id="line2d_10">
      <g>
       <use xlink:href="#mfd33ac16ef" x="47.81" y="96.525332" style="stroke: #000000; stroke-width: 0.8"/>
      </g>
     </g>
     <g id="text_11">
      <!-- 1.1 -->
      <g transform="translate(24.906875 100.324551) scale(0.1 -0.1)">
       <use xlink:href="#DejaVuSans-31"/>
       <use xlink:href="#DejaVuSans-2e" x="63.623047"/>
       <use xlink:href="#DejaVuSans-31" x="95.410156"/>
      </g>
     </g>
    </g>
    <g id="ytick_5">
     <g id="line2d_11">
      <g>
       <use xlink:href="#mfd33ac16ef" x="47.81" y="33.412975" style="stroke: #000000; stroke-width: 0.8"/>
      </g>
     </g>
     <g id="text_12">
      <!-- 1.2 -->
      <g transform="translate(24.906875 37.212194) scale(0.1 -0.1)">
       <use xlink:href="#DejaVuSans-31"/>
       <use xlink:href="#DejaVuSans-2e" x="63.623047"/>
       <use xlink:href="#DejaVuSans-32" x="95.410156"/>
      </g>
     </g>
    </g>
    <g id="text_13">
     <!-- Fxx -->
     <g transform="translate(18.827188 166.014531) rotate(-90) scale(0.1 -0.1)">
      <defs>
       <path id="DejaVuSans-46" d="M 628 4666 
L 3309 4666 
L 3309 4134 
L 1259 4134 
L 1259 2759 
L 3109 2759 
L 3109 2228 
L 1259 2228 
L 1259 0 
L 628 0 
L 628 4666 
z
" transform="scale(0.015625)"/>
       <path id="DejaVuSans-78" d="M 3513 3500 
L 2247 1797 
L 3578 0 
L 2900 0 
L 1881 1375 
L 863 0 
L 184 0 
L 1544 1831 
L 300 3500 
L 978 3500 
L 1906 2253 
L 2834 3500 
L 3513 3500 
z
" transform="scale(0.015625)"/>
      </defs>
      <use xlink:href="#DejaVuSans-46"/>
      <use xlink:href="#DejaVuSans-78" x="57.519531"/>
      <use xlink:href="#DejaVuSans-78" x="116.699219"/>
     </g>
    </g>
   </g>
   <g id="line2d_12">
    <path d="M 69.747636 81.995788 
L 73.403909 71.651537 
L 77.060182 63.741555 
L 80.716455 58.658601 
L 84.372727 56.701403 
L 88.029 58.058697 
L 91.685273 62.797793 
L 95.341545 70.858394 
L 98.997818 82.052156 
L 102.654091 96.068214 
L 106.310364 112.484539 
L 109.966636 130.784604 
L 113.622909 150.378366 
L 117.279182 170.626172 
L 120.935455 190.863897 
L 124.591727 210.427614 
L 128.248 228.676419 
L 131.904273 245.012618 
L 135.560545 258.899117 
L 139.216818 269.87435 
L 142.873091 277.565122 
L 146.529364 281.697511 
L 150.185636 282.105544 
L 153.841909 278.737122 
L 157.498182 271.656671 
L 161.154455 261.044319 
L 164.810727 247.191813 
L 168.467 230.495596 
L 172.123273 211.447433 
L 175.779545 190.622616 
L 179.435818 168.665344 
L 183.092091 146.270747 
L 186.748364 124.163192 
L 190.404636 103.071177 
L 194.060909 83.699793 
L 197.717182 66.702392 
L 201.373455 52.653323 
L 205.029727 42.023569 
L 208.686 35.160805 
L 212.342273 32.274974 
L 215.998545 33.430071 
L 219.654818 38.542453 
L 223.311091 47.385664 
L 226.967364 59.6015 
L 230.623636 74.716744 
L 234.279909 92.164673 
L 237.936182 111.310172 
L 241.592455 131.476941 
L 245.248727 151.975141 
L 248.905 172.127824 
L 252.561273 191.294738 
L 256.217545 208.892618 
L 259.873818 224.411582 
L 263.530091 237.427797 
L 267.186364 247.612767 
L 270.842636 254.739599 
L 274.498909 258.686413 
L 278.155182 259.43689 
L 281.811455 257.077893 
L 285.467727 251.794184 
L 289.124 243.860413 
L 292.780273 233.630653 
L 296.436545 221.525752 
L 300.092818 208.018723 
L 303.749091 193.618275 
L 307.405364 178.850705 
L 311.061636 164.240492 
L 314.717909 150.29028 
L 318.374182 137.461192 
L 322.030455 126.154615 
L 325.686727 116.696581 
L 329.343 109.325733 
L 332.999273 104.185595 
L 336.655545 101.321502 
L 340.311818 100.68229 
L 343.968091 102.126485 
L 347.624364 105.432534 
L 351.280636 110.312396 
L 354.936909 116.427687 
L 358.593182 123.407464 
L 362.249455 130.866704 
L 365.905727 138.424572 
L 369.562 145.721624 
L 373.218273 152.435232 
L 376.874545 158.292676 
L 380.530818 163.08148 
L 384.187091 166.656752 
L 387.843364 168.945374 
L 391.499636 169.947037 
L 395.155909 169.73214 
L 398.812182 168.436699 
L 402.468455 166.254431 
L 406.124727 163.426299 
L 409.781 160.22788 
L 413.437273 156.955005 
L 417.093545 153.908281 
L 420.749818 151.377142 
L 424.406091 149.62419 
L 428.062364 148.870615 
L 431.718636 149.283446 
" clip-path="url(#p83d673e4d0)" style="fill: none; stroke-dasharray: 5.55,2.4; stroke-dashoffset: 0; stroke: #ff0000; stroke-width: 1.5"/>
   </g>
   <g id="line2d_13">
    <path d="M 69.747636 87.395275 
L 73.403909 77.882562 
L 77.060182 70.603329 
L 80.716455 65.890978 
L 84.372727 64.002344 
L 88.029 65.107796 
L 91.685273 69.283732 
L 95.341545 76.507605 
L 98.997818 86.65554 
L 102.654091 99.502582 
L 106.310364 114.725628 
L 109.966636 131.909148 
L 113.622909 150.553968 
L 117.279182 170.089476 
L 120.935455 189.889684 
L 124.591727 209.293336 
L 128.248 227.627836 
L 131.904273 244.236031 
L 135.560545 258.504278 
L 139.216818 269.889738 
L 142.873091 277.944924 
L 146.529364 282.337932 
L 150.185636 282.867417 
L 153.841909 279.471937 
L 157.498182 272.233533 
L 161.154455 261.37548 
L 164.810727 247.25405 
L 168.467 230.344272 
L 172.123273 211.220031 
L 175.779545 190.529544 
L 179.435818 168.967892 
L 183.092091 147.248705 
L 186.748364 126.077009 
L 190.404636 106.124753 
L 194.060909 88.009802 
L 197.717182 72.27857 
L 201.373455 59.392073 
L 205.029727 49.715063 
L 208.686 43.507997 
L 212.342273 40.921749 
L 215.998545 41.995027 
L 219.654818 46.654576 
L 223.311091 54.718125 
L 226.967364 65.900051 
L 230.623636 79.819637 
L 234.279909 96.011829 
L 237.936182 113.940438 
L 241.592455 133.013815 
L 245.248727 152.603033 
L 248.905 172.062519 
L 252.561273 190.752781 
L 256.217545 208.064414 
L 259.873818 223.44214 
L 263.530091 236.407273 
L 267.186364 246.577019 
L 270.842636 253.679277 
L 274.498909 257.562108 
L 278.155182 258.197509 
L 281.811455 255.679545 
L 285.467727 250.21712 
L 289.124 242.121811 
L 292.780273 231.791426 
L 296.436545 219.690134 
L 300.092818 206.326336 
L 303.749091 192.229627 
L 307.405364 177.92826 
L 311.061636 163.928336 
L 314.717909 150.69562 
L 318.374182 138.640484 
L 322.030455 128.106147 
L 325.686727 119.360161 
L 329.343 112.589009 
L 332.999273 107.895639 
L 336.655545 105.299827 
L 340.311818 104.741243 
L 343.968091 106.08509 
L 347.624364 109.130173 
L 351.280636 113.619149 
L 354.936909 119.250696 
L 358.593182 125.693205 
L 362.249455 132.599572 
L 365.905727 139.62254 
L 369.562 146.430019 
L 373.218273 152.719695 
L 376.874545 158.23227 
L 380.530818 162.762634 
L 384.187091 166.168378 
L 387.843364 168.375156 
L 391.499636 169.378605 
L 395.155909 169.242697 
L 398.812182 168.094672 
L 402.468455 166.116855 
L 406.124727 163.535859 
L 409.781 160.609813 
L 413.437273 157.614283 
L 417.093545 154.827638 
L 420.749818 152.516519 
L 424.406091 150.92206 
L 428.062364 150.24742 
L 431.718636 150.647067 
" clip-path="url(#p83d673e4d0)" style="fill: none; stroke-dasharray: 5.55,2.4; stroke-dashoffset: 0; stroke: #0000ff; stroke-width: 1.5"/>
   </g>
   <g id="line2d_14">
    <path d="M 69.747636 77.062932 
L 73.403909 66.060832 
L 77.060182 57.646626 
L 80.716455 52.235674 
L 84.372727 50.14391 
L 88.029 51.571547 
L 91.685273 56.591391 
L 95.341545 65.142375 
L 98.997818 77.028789 
L 102.654091 91.925423 
L 106.310364 109.38858 
L 109.966636 128.872582 
L 113.622909 149.751006 
L 117.279182 171.341501 
L 120.935455 192.932664 
L 124.591727 213.811289 
L 128.248 233.288321 
L 131.904273 250.722217 
L 135.560545 265.538874 
L 139.216818 277.247905 
L 142.873091 285.45544 
L 146.529364 289.873894 
L 150.185636 290.329091 
L 153.841909 286.765044 
L 157.498182 279.246484 
L 161.154455 267.959119 
L 164.810727 253.207424 
L 168.467 235.409658 
L 172.123273 215.089554 
L 175.779545 192.864121 
L 179.435818 169.427015 
L 183.092091 145.527334 
L 186.748364 121.944213 
L 190.404636 99.458256 
L 194.060909 78.821322 
L 197.717182 60.726491 
L 201.373455 45.780002 
L 205.029727 34.476784 
L 208.686 27.180774 
L 212.342273 24.110909 
L 215.998545 25.333286 
L 219.654818 30.7597 
L 223.311091 40.152531 
L 226.967364 53.135728 
L 230.623636 69.211417 
L 234.279909 87.781397 
L 237.936182 108.172561 
L 241.592455 129.664954 
L 245.248727 151.520981 
L 248.905 173.01416 
L 252.561273 193.455826 
L 256.217545 212.218496 
L 259.873818 228.75497 
L 263.530091 242.612801 
L 267.186364 253.444196 
L 270.842636 261.01177 
L 274.498909 265.190706 
L 278.155182 265.967874 
L 281.811455 263.438329 
L 285.467727 257.799476 
L 289.124 249.342995 
L 292.780273 238.444538 
L 296.436545 225.551084 
L 300.092818 211.165865 
L 303.749091 195.83089 
L 307.405364 180.107325 
L 311.061636 164.554361 
L 314.717909 149.707463 
L 318.374182 136.057194 
L 322.030455 124.029854 
L 325.686727 113.971086 
L 329.343 106.133393 
L 332.999273 100.668227 
L 336.655545 97.622953 
L 340.311818 96.942747 
L 343.968091 98.477143 
L 347.624364 101.990803 
L 351.280636 107.177803 
L 354.936909 113.67866 
L 358.593182 121.099153 
L 362.249455 129.029968 
L 365.905727 137.066176 
L 369.562 144.825629 
L 373.218273 151.965445 
L 376.874545 158.195962 
L 380.530818 163.291697 
L 384.187091 167.099042 
L 387.843364 169.540589 
L 391.499636 170.616108 
L 395.155909 170.400243 
L 398.812182 169.037098 
L 402.468455 166.731897 
L 406.124727 163.739978 
L 409.781 160.353491 
L 413.437273 156.886238 
L 417.093545 153.657282 
L 420.749818 150.974008 
L 424.406091 149.11547 
L 428.062364 148.316845 
L 431.718636 148.755838 
" clip-path="url(#p83d673e4d0)" style="fill: none; stroke-dasharray: 5.55,2.4; stroke-dashoffset: 0; stroke: #008000; stroke-width: 1.5"/>
   </g>
   <g id="line2d_15">
    <path d="M 69.747636 92.328109 
L 73.403909 83.473238 
L 77.060182 76.698222 
L 80.716455 72.313864 
L 84.372727 70.559795 
L 88.029 71.594902 
L 91.685273 75.490094 
L 95.341545 82.22359 
L 98.997818 91.678882 
L 102.654091 103.645356 
L 106.310364 117.821577 
L 109.966636 133.821167 
L 113.622909 151.181328 
L 117.279182 169.374149 
L 120.935455 187.820915 
L 124.591727 205.909655 
L 128.248 223.015922 
L 131.904273 238.526415 
L 135.560545 251.864498 
L 139.216818 262.516156 
L 142.873091 270.054576 
L 146.529364 274.161517 
L 150.185636 274.643838 
L 153.841909 271.443984 
L 157.498182 264.643689 
L 161.154455 254.460652 
L 164.810727 241.238416 
L 168.467 225.430193 
L 172.123273 207.5779 
L 175.779545 188.288035 
L 179.435818 168.206222 
L 183.092091 147.992121 
L 186.748364 128.295992 
L 190.404636 109.737673 
L 194.060909 92.888263 
L 197.717182 78.254452 
L 201.373455 66.265364 
L 205.029727 57.261808 
L 208.686 51.487982 
L 212.342273 49.085763 
L 215.998545 50.091761 
L 219.654818 54.437282 
L 223.311091 61.951218 
L 226.967364 72.365792 
L 230.623636 85.324942 
L 234.279909 100.395091 
L 237.936182 117.078042 
L 241.592455 134.8258 
L 245.248727 153.057193 
L 248.905 171.176182 
L 252.561273 188.591689 
L 256.217545 204.738529 
L 259.873818 219.09874 
L 263.530091 231.222254 
L 267.186364 240.745572 
L 270.842636 247.407087 
L 274.498909 251.057795 
L 278.155182 251.666506 
L 281.811455 249.319091 
L 285.467727 244.211812 
L 289.124 236.639216 
L 292.780273 226.977531 
L 296.436545 215.664797 
L 300.092818 203.179192 
L 303.749091 190.017014 
L 307.405364 176.671642 
L 311.061636 163.614469 
L 314.717909 151.278439 
L 318.374182 140.044482 
L 322.030455 130.230905 
L 325.686727 122.08565 
L 329.343 115.78134 
L 332.999273 111.412997 
L 336.655545 108.998364 
L 340.311818 108.480775 
L 343.968091 109.734422 
L 347.624364 112.571895 
L 351.280636 116.753735 
L 354.936909 121.999717 
L 358.593182 128.001512 
L 362.249455 134.436306 
L 365.905727 140.980936 
L 369.562 147.326014 
L 373.218273 153.189483 
L 376.874545 158.328984 
L 380.530818 162.552418 
L 384.187091 165.726088 
L 387.843364 167.779941 
L 391.499636 168.709534 
L 395.155909 168.574594 
L 398.812182 167.494273 
L 402.468455 165.639389 
L 406.124727 163.222181 
L 409.781 160.484203 
L 413.437273 157.683051 
L 417.093545 155.078639 
L 420.749818 152.919654 
L 424.406091 151.430781 
L 428.062364 150.801191 
L 431.718636 151.174677 
" clip-path="url(#p83d673e4d0)" style="fill: none; stroke-dasharray: 5.55,2.4; stroke-dashoffset: 0; stroke: #bfbf00; stroke-width: 1.5"/>
   </g>
   <g id="line2d_16">
    <path d="M 66.091364 96.525332 
L 69.747636 84.695526 
L 73.403909 74.767042 
L 77.060182 67.172433 
L 80.716455 62.27478 
L 84.372727 60.351863 
L 88.029 61.583235 
L 91.685273 66.040752 
L 95.341545 73.682991 
L 98.997818 84.353842 
L 102.654091 97.785394 
L 106.310364 113.605081 
L 109.966636 131.346875 
L 113.622909 150.466167 
L 117.279182 170.357824 
L 120.935455 190.37679 
L 124.591727 209.860474 
L 128.248 228.152125 
L 131.904273 244.62432 
L 135.560545 258.701692 
L 139.216818 269.882037 
L 142.873091 277.755016 
L 146.529364 282.017714 
L 150.185636 282.486473 
L 153.841909 279.104522 
L 157.498182 271.945094 
L 161.154455 261.209892 
L 164.810727 247.222926 
L 168.467 230.41993 
L 172.123273 211.33373 
L 175.779545 190.576079 
L 179.435818 168.816618 
L 183.092091 146.759727 
L 186.748364 125.120101 
L 190.404636 104.597965 
L 194.060909 85.854795 
L 197.717182 69.490476 
L 201.373455 56.022691 
L 205.029727 45.869306 
L 208.686 39.33439 
L 212.342273 36.598349 
L 215.998545 37.712536 
L 219.654818 42.598503 
L 223.311091 51.051884 
L 226.967364 62.750768 
L 230.623636 77.268185 
L 234.279909 94.088247 
L 237.936182 112.625303 
L 241.592455 132.245378 
L 245.248727 152.289087 
L 248.905 172.095171 
L 252.561273 191.023759 
L 256.217545 208.478514 
L 259.873818 223.926858 
L 263.530091 236.917531 
L 267.186364 247.094889 
L 270.842636 254.209433 
L 274.498909 258.124256 
L 278.155182 258.817194 
L 281.811455 256.378715 
L 285.467727 251.005648 
L 289.124 242.991109 
L 292.780273 232.711037 
L 296.436545 220.607942 
L 300.092818 207.172529 
L 303.749091 192.923951 
L 307.405364 178.389483 
L 311.061636 164.084415 
L 314.717909 150.49295 
L 318.374182 138.050838 
L 322.030455 127.13038 
L 325.686727 118.028369 
L 329.343 110.957369 
L 332.999273 106.040614 
L 336.655545 103.310662 
L 340.311818 102.711764 
L 343.968091 104.105785 
L 347.624364 107.281351 
L 351.280636 111.965771 
L 354.936909 117.83919 
L 358.593182 124.550333 
L 362.249455 131.733137 
L 365.905727 139.023556 
L 369.562 146.075821 
L 373.218273 152.577464 
L 376.874545 158.262473 
L 380.530818 162.922057 
L 384.187091 166.412565 
L 387.843364 168.660265 
L 391.499636 169.662821 
L 395.155909 169.487419 
L 398.812182 168.265686 
L 402.468455 166.185643 
L 406.124727 163.481079 
L 409.781 160.418846 
L 413.437273 157.284644 
L 417.093545 154.36796 
L 420.749818 151.946831 
L 424.406091 150.273126 
L 428.062364 149.559018 
L 431.718636 149.965257 
" clip-path="url(#p83d673e4d0)" style="fill: none; stroke: #000000; stroke-width: 2; stroke-linecap: square"/>
   </g>
   <g id="line2d_17">
    <defs>
     <path id="m4689b2d456" d="M 0 2.5 
C 0.663008 2.5 1.29895 2.236584 1.767767 1.767767 
C 2.236584 1.29895 2.5 0.663008 2.5 0 
C 2.5 -0.663008 2.236584 -1.29895 1.767767 -1.767767 
C 1.29895 -2.236584 0.663008 -2.5 0 -2.5 
C -0.663008 -2.5 -1.29895 -2.236584 -1.767767 -1.767767 
C -2.236584 -1.29895 -2.5 -0.663008 -2.5 0 
C -2.5 0.663008 -2.236584 1.29895 -1.767767 1.767767 
C -1.29895 2.236584 -0.663008 2.5 0 2.5 
z
" style="stroke: #000000"/>
    </defs>
    <g clip-path="url(#p83d673e4d0)">
     <use xlink:href="#m4689b2d456" x="69.747636" y="84.695526" style="fill-opacity: 0; stroke: #000000"/>
     <use xlink:href="#m4689b2d456" x="73.403909" y="74.767042" style="fill-opacity: 0; stroke: #000000"/>
     <use xlink:href="#m4689b2d456" x="77.060182" y="67.172433" style="fill-opacity: 0; stroke: #000000"/>
     <use xlink:href="#m4689b2d456" x="80.716455" y="62.27478" style="fill-opacity: 0; stroke: #000000"/>
     <use xlink:href="#m4689b2d456" x="84.372727" y="60.351863" style="fill-opacity: 0; stroke: #000000"/>
     <use xlink:href="#m4689b2d456" x="88.029" y="61.583235" style="fill-opacity: 0; stroke: #000000"/>
     <use xlink:href="#m4689b2d456" x="91.685273" y="66.040752" style="fill-opacity: 0; stroke: #000000"/>
     <use xlink:href="#m4689b2d456" x="95.341545" y="73.682991" style="fill-opacity: 0; stroke: #000000"/>
     <use xlink:href="#m4689b2d456" x="98.997818" y="84.353842" style="fill-opacity: 0; stroke: #000000"/>
     <use xlink:href="#m4689b2d456" x="102.654091" y="97.785394" style="fill-opacity: 0; stroke: #000000"/>
     <use xlink:href="#m4689b2d456" x="106.310364" y="113.605081" style="fill-opacity: 0; stroke: #000000"/>
     <use xlink:href="#m4689b2d456" x="109.966636" y="131.346875" style="fill-opacity: 0; stroke: #000000"/>
     <use xlink:href="#m4689b2d456" x="113.622909" y="150.466167" style="fill-opacity: 0; stroke: #000000"/>
     <use xlink:href="#m4689b2d456" x="117.279182" y="170.357824" style="fill-opacity: 0; stroke: #000000"/>
     <use xlink:href="#m4689b2d456" x="120.935455" y="190.37679" style="fill-opacity: 0; stroke: #000000"/>
     <use xlink:href="#m4689b2d456" x="124.591727" y="209.860474" style="fill-opacity: 0; stroke: #000000"/>
     <use xlink:href="#m4689b2d456" x="128.248" y="228.152125" style="fill-opacity: 0; stroke: #000000"/>
     <use xlink:href="#m4689b2d456" x="131.904273" y="244.62432" style="fill-opacity: 0; stroke: #000000"/>
     <use xlink:href="#m4689b2d456" x="135.560545" y="258.701692" style="fill-opacity: 0; stroke: #000000"/>
     <use xlink:href="#m4689b2d456" x="139.216818" y="269.882037" style="fill-opacity: 0; stroke: #000000"/>
     <use xlink:href="#m4689b2d456" x="142.873091" y="277.755016" style="fill-opacity: 0; stroke: #000000"/>
     <use xlink:href="#m4689b2d456" x="146.529364" y="282.017714" style="fill-opacity: 0; stroke: #000000"/>
     <use xlink:href="#m4689b2d456" x="150.185636" y="282.486473" style="fill-opacity: 0; stroke: #000000"/>
     <use xlink:href="#m4689b2d456" x="153.841909" y="279.104522" style="fill-opacity: 0; stroke: #000000"/>
     <use xlink:href="#m4689b2d456" x="157.498182" y="271.945094" style="fill-opacity: 0; stroke: #000000"/>
     <use xlink:href="#m4689b2d456" x="161.154455" y="261.209892" style="fill-opacity: 0; stroke: #000000"/>
     <use xlink:href="#m4689b2d456" x="164.810727" y="247.222926" style="fill-opacity: 0; stroke: #000000"/>
     <use xlink:href="#m4689b2d456" x="168.467" y="230.41993" style="fill-opacity: 0; stroke: #000000"/>
     <use xlink:href="#m4689b2d456" x="172.123273" y="211.33373" style="fill-opacity: 0; stroke: #000000"/>
     <use xlink:href="#m4689b2d456" x="175.779545" y="190.576079" style="fill-opacity: 0; stroke: #000000"/>
     <use xlink:href="#m4689b2d456" x="179.435818" y="168.816618" style="fill-opacity: 0; stroke: #000000"/>
     <use xlink:href="#m4689b2d456" x="183.092091" y="146.759727" style="fill-opacity: 0; stroke: #000000"/>
     <use xlink:href="#m4689b2d456" x="186.748364" y="125.120101" style="fill-opacity: 0; stroke: #000000"/>
     <use xlink:href="#m4689b2d456" x="190.404636" y="104.597965" style="fill-opacity: 0; stroke: #000000"/>
     <use xlink:href="#m4689b2d456" x="194.060909" y="85.854795" style="fill-opacity: 0; stroke: #000000"/>
     <use xlink:href="#m4689b2d456" x="197.717182" y="69.490476" style="fill-opacity: 0; stroke: #000000"/>
     <use xlink:href="#m4689b2d456" x="201.373455" y="56.022691" style="fill-opacity: 0; stroke: #000000"/>
     <use xlink:href="#m4689b2d456" x="205.029727" y="45.869306" style="fill-opacity: 0; stroke: #000000"/>
     <use xlink:href="#m4689b2d456" x="208.686" y="39.33439" style="fill-opacity: 0; stroke: #000000"/>
     <use xlink:href="#m4689b2d456" x="212.342273" y="36.598349" style="fill-opacity: 0; stroke: #000000"/>
     <use xlink:href="#m4689b2d456" x="215.998545" y="37.712536" style="fill-opacity: 0; stroke: #000000"/>
     <use xlink:href="#m4689b2d456" x="219.654818" y="42.598503" style="fill-opacity: 0; stroke: #000000"/>
     <use xlink:href="#m4689b2d456" x="223.311091" y="51.051884" style="fill-opacity: 0; stroke: #000000"/>
     <use xlink:href="#m4689b2d456" x="226.967364" y="62.750768" style="fill-opacity: 0; stroke: #000000"/>
     <use xlink:href="#m4689b2d456" x="230.623636" y="77.268185" style="fill-opacity: 0; stroke: #000000"/>
     <use xlink:href="#m4689b2d456" x="234.279909" y="94.088247" style="fill-opacity: 0; stroke: #000000"/>
     <use xlink:href="#m4689b2d456" x="237.936182" y="112.625303" style="fill-opacity: 0; stroke: #000000"/>
     <use xlink:href="#m4689b2d456" x="241.592455" y="132.245378" style="fill-opacity: 0; stroke: #000000"/>
     <use xlink:href="#m4689b2d456" x="245.248727" y="152.289087" style="fill-opacity: 0; stroke: #000000"/>
     <use xlink:href="#m4689b2d456" x="248.905" y="172.095171" style="fill-opacity: 0; stroke: #000000"/>
     <use xlink:href="#m4689b2d456" x="252.561273" y="191.023759" style="fill-opacity: 0; stroke: #000000"/>
     <use xlink:href="#m4689b2d456" x="256.217545" y="208.478514" style="fill-opacity: 0; stroke: #000000"/>
     <use xlink:href="#m4689b2d456" x="259.873818" y="223.926858" style="fill-opacity: 0; stroke: #000000"/>
     <use xlink:href="#m4689b2d456" x="263.530091" y="236.917531" style="fill-opacity: 0; stroke: #000000"/>
     <use xlink:href="#m4689b2d456" x="267.186364" y="247.094889" style="fill-opacity: 0; stroke: #000000"/>
     <use xlink:href="#m4689b2d456" x="270.842636" y="254.209433" style="fill-opacity: 0; stroke: #000000"/>
     <use xlink:href="#m4689b2d456" x="274.498909" y="258.124256" style="fill-opacity: 0; stroke: #000000"/>
     <use xlink:href="#m4689b2d456" x="278.155182" y="258.817194" style="fill-opacity: 0; stroke: #000000"/>
     <use xlink:href="#m4689b2d456" x="281.811455" y="256.378715" style="fill-opacity: 0; stroke: #000000"/>
     <use xlink:href="#m4689b2d456" x="285.467727" y="251.005648" style="fill-opacity: 0; stroke: #000000"/>
     <use xlink:href="#m4689b2d456" x="289.124" y="242.991109" style="fill-opacity: 0; stroke: #000000"/>
     <use xlink:href="#m4689b2d456" x="292.780273" y="232.711037" style="fill-opacity: 0; stroke: #000000"/>
     <use xlink:href="#m4689b2d456" x="296.436545" y="220.607942" style="fill-opacity: 0; stroke: #000000"/>
     <use xlink:href="#m4689b2d456" x="300.092818" y="207.172529" style="fill-opacity: 0; stroke: #000000"/>
     <use xlink:href="#m4689b2d456" x="303.749091" y="192.923951" style="fill-opacity: 0; stroke: #000000"/>
     <use xlink:href="#m4689b2d456" x="307.405364" y="178.389483" style="fill-opacity: 0; stroke: #000000"/>
     <use xlink:href="#m4689b2d456" x="311.061636" y="164.084415" style="fill-opacity: 0; stroke: #000000"/>
     <use xlink:href="#m4689b2d456" x="314.717909" y="150.49295" style="fill-opacity: 0; stroke: #000000"/>
     <use xlink:href="#m4689b2d456" x="318.374182" y="138.050838" style="fill-opacity: 0; stroke: #000000"/>
     <use xlink:href="#m4689b2d456" x="322.030455" y="127.13038" style="fill-opacity: 0; stroke: #000000"/>
     <use xlink:href="#m4689b2d456" x="325.686727" y="118.028369" style="fill-opacity: 0; stroke: #000000"/>
     <use xlink:href="#m4689b2d456" x="329.343" y="110.957369" style="fill-opacity: 0; stroke: #000000"/>
     <use xlink:href="#m4689b2d456" x="332.999273" y="106.040614" style="fill-opacity: 0; stroke: #000000"/>
     <use xlink:href="#m4689b2d456" x="336.655545" y="103.310662" style="fill-opacity: 0; stroke: #000000"/>
     <use xlink:href="#m4689b2d456" x="340.311818" y="102.711764" style="fill-opacity: 0; stroke: #000000"/>
     <use xlink:href="#m4689b2d456" x="343.968091" y="104.105785" style="fill-opacity: 0; stroke: #000000"/>
     <use xlink:href="#m4689b2d456" x="347.624364" y="107.281351" style="fill-opacity: 0; stroke: #000000"/>
     <use xlink:href="#m4689b2d456" x="351.280636" y="111.965771" style="fill-opacity: 0; stroke: #000000"/>
     <use xlink:href="#m4689b2d456" x="354.936909" y="117.83919" style="fill-opacity: 0; stroke: #000000"/>
     <use xlink:href="#m4689b2d456" x="358.593182" y="124.550333" style="fill-opacity: 0; stroke: #000000"/>
     <use xlink:href="#m4689b2d456" x="362.249455" y="131.733137" style="fill-opacity: 0; stroke: #000000"/>
     <use xlink:href="#m4689b2d456" x="365.905727" y="139.023556" style="fill-opacity: 0; stroke: #000000"/>
     <use xlink:href="#m4689b2d456" x="369.562" y="146.075821" style="fill-opacity: 0; stroke: #000000"/>
     <use xlink:href="#m4689b2d456" x="373.218273" y="152.577464" style="fill-opacity: 0; stroke: #000000"/>
     <use xlink:href="#m4689b2d456" x="376.874545" y="158.262473" style="fill-opacity: 0; stroke: #000000"/>
     <use xlink:href="#m4689b2d456" x="380.530818" y="162.922057" style="fill-opacity: 0; stroke: #000000"/>
     <use xlink:href="#m4689b2d456" x="384.187091" y="166.412565" style="fill-opacity: 0; stroke: #000000"/>
     <use xlink:href="#m4689b2d456" x="387.843364" y="168.660265" style="fill-opacity: 0; stroke: #000000"/>
     <use xlink:href="#m4689b2d456" x="391.499636" y="169.662821" style="fill-opacity: 0; stroke: #000000"/>
     <use xlink:href="#m4689b2d456" x="395.155909" y="169.487419" style="fill-opacity: 0; stroke: #000000"/>
     <use xlink:href="#m4689b2d456" x="398.812182" y="168.265686" style="fill-opacity: 0; stroke: #000000"/>
     <use xlink:href="#m4689b2d456" x="402.468455" y="166.185643" style="fill-opacity: 0; stroke: #000000"/>
     <use xlink:href="#m4689b2d456" x="406.124727" y="163.481079" style="fill-opacity: 0; stroke: #000000"/>
     <use xlink:href="#m4689b2d456" x="409.781" y="160.418846" style="fill-opacity: 0; stroke: #000000"/>
     <use xlink:href="#m4689b2d456" x="413.437273" y="157.284644" style="fill-opacity: 0; stroke: #000000"/>
     <use xlink:href="#m4689b2d456" x="417.093545" y="154.36796" style="fill-opacity: 0; stroke: #000000"/>
     <use xlink:href="#m4689b2d456" x="420.749818" y="151.946831" style="fill-opacity: 0; stroke: #000000"/>
     <use xlink:href="#m4689b2d456" x="424.406091" y="150.273126" style="fill-opacity: 0; stroke: #000000"/>
     <use xlink:href="#m4689b2d456" x="428.062364" y="149.559018" style="fill-opacity: 0; stroke: #000000"/>
     <use xlink:href="#m4689b2d456" x="431.718636" y="149.965257" style="fill-opacity: 0; stroke: #000000"/>
    </g>
   </g>
   <g id="patch_3">
    <path d="M 47.81 303.64 
L 47.81 10.8 
" style="fill: none; stroke: #000000; stroke-width: 0.8; stroke-linejoin: miter; stroke-linecap: square"/>
   </g>
   <g id="patch_4">
    <path d="M 450 303.64 
L 450 10.8 
" style="fill: none; stroke: #000000; stroke-width: 0.8; stroke-linejoin: miter; stroke-linecap: square"/>
   </g>
   <g id="patch_5">
    <path d="M 47.81 303.64 
L 450 303.64 
" style="fill: none; stroke: #000000; stroke-width: 0.8; stroke-linejoin: miter; stroke-linecap: square"/>
   </g>
   <g id="patch_6">
    <path d="M 47.81 10.8 
L 450 10.8 
" style="fill: none; stroke: #000000; stroke-width: 0.8; stroke-linejoin: miter; stroke-linecap: square"/>
   </g>
   <g id="legend_1">
    <g id="patch_7">
     <path d="M 343.317187 298.64 
L 443 298.64 
Q 445 298.64 445 296.64 
L 445 209.57125 
Q 445 207.57125 443 207.57125 
L 343.317187 207.57125 
Q 341.317187 207.57125 341.317187 209.57125 
L 341.317187 296.64 
Q 341.317187 298.64 343.317187 298.64 
z
" style="fill: #ffffff; opacity: 0.8; stroke: #cccccc; stroke-linejoin: miter"/>
    </g>
    <g id="line2d_18">
     <path d="M 345.317187 215.669687 
L 355.317187 215.669687 
L 365.317187 215.669687 
" style="fill: none; stroke-dasharray: 5.55,2.4; stroke-dashoffset: 0; stroke: #ff0000; stroke-width: 1.5"/>
    </g>
    <g id="text_14">
     <!-- A -->
     <g transform="translate(373.317187 219.169687) scale(0.1 -0.1)">
      <defs>
       <path id="DejaVuSans-41" d="M 2188 4044 
L 1331 1722 
L 3047 1722 
L 2188 4044 
z
M 1831 4666 
L 2547 4666 
L 4325 0 
L 3669 0 
L 3244 1197 
L 1141 1197 
L 716 0 
L 50 0 
L 1831 4666 
z
" transform="scale(0.015625)"/>
      </defs>
      <use xlink:href="#DejaVuSans-41"/>
     </g>
    </g>
    <g id="line2d_19">
     <path d="M 345.317187 230.347812 
L 355.317187 230.347812 
L 365.317187 230.347812 
" style="fill: none; stroke-dasharray: 5.55,2.4; stroke-dashoffset: 0; stroke: #0000ff; stroke-width: 1.5"/>
    </g>
    <g id="text_15">
     <!-- B -->
     <g transform="translate(373.317187 233.847812) scale(0.1 -0.1)">
      <defs>
       <path id="DejaVuSans-42" d="M 1259 2228 
L 1259 519 
L 2272 519 
Q 2781 519 3026 730 
Q 3272 941 3272 1375 
Q 3272 1813 3026 2020 
Q 2781 2228 2272 2228 
L 1259 2228 
z
M 1259 4147 
L 1259 2741 
L 2194 2741 
Q 2656 2741 2882 2914 
Q 3109 3088 3109 3444 
Q 3109 3797 2882 3972 
Q 2656 4147 2194 4147 
L 1259 4147 
z
M 628 4666 
L 2241 4666 
Q 2963 4666 3353 4366 
Q 3744 4066 3744 3513 
Q 3744 3084 3544 2831 
Q 3344 2578 2956 2516 
Q 3422 2416 3680 2098 
Q 3938 1781 3938 1306 
Q 3938 681 3513 340 
Q 3088 0 2303 0 
L 628 0 
L 628 4666 
z
" transform="scale(0.015625)"/>
      </defs>
      <use xlink:href="#DejaVuSans-42"/>
     </g>
    </g>
    <g id="line2d_20">
     <path d="M 345.317187 245.025937 
L 355.317187 245.025937 
L 365.317187 245.025937 
" style="fill: none; stroke-dasharray: 5.55,2.4; stroke-dashoffset: 0; stroke: #008000; stroke-width: 1.5"/>
    </g>
    <g id="text_16">
     <!-- C -->
     <g transform="translate(373.317187 248.525937) scale(0.1 -0.1)">
      <defs>
       <path id="DejaVuSans-43" d="M 4122 4306 
L 4122 3641 
Q 3803 3938 3442 4084 
Q 3081 4231 2675 4231 
Q 1875 4231 1450 3742 
Q 1025 3253 1025 2328 
Q 1025 1406 1450 917 
Q 1875 428 2675 428 
Q 3081 428 3442 575 
Q 3803 722 4122 1019 
L 4122 359 
Q 3791 134 3420 21 
Q 3050 -91 2638 -91 
Q 1578 -91 968 557 
Q 359 1206 359 2328 
Q 359 3453 968 4101 
Q 1578 4750 2638 4750 
Q 3056 4750 3426 4639 
Q 3797 4528 4122 4306 
z
" transform="scale(0.015625)"/>
      </defs>
      <use xlink:href="#DejaVuSans-43"/>
     </g>
    </g>
    <g id="line2d_21">
     <path d="M 345.317187 259.704062 
L 355.317187 259.704062 
L 365.317187 259.704062 
" style="fill: none; stroke-dasharray: 5.55,2.4; stroke-dashoffset: 0; stroke: #bfbf00; stroke-width: 1.5"/>
    </g>
    <g id="text_17">
     <!-- D -->
     <g transform="translate(373.317187 263.204062) scale(0.1 -0.1)">
      <defs>
       <path id="DejaVuSans-44" d="M 1259 4147 
L 1259 519 
L 2022 519 
Q 2988 519 3436 956 
Q 3884 1394 3884 2338 
Q 3884 3275 3436 3711 
Q 2988 4147 2022 4147 
L 1259 4147 
z
M 628 4666 
L 1925 4666 
Q 3281 4666 3915 4102 
Q 4550 3538 4550 2338 
Q 4550 1131 3912 565 
Q 3275 0 1925 0 
L 628 0 
L 628 4666 
z
" transform="scale(0.015625)"/>
      </defs>
      <use xlink:href="#DejaVuSans-44"/>
     </g>
    </g>
    <g id="line2d_22">
     <path d="M 345.317187 274.382187 
L 355.317187 274.382187 
L 365.317187 274.382187 
" style="fill: none; stroke: #000000; stroke-width: 2; stroke-linecap: square"/>
    </g>
    <g id="text_18">
     <!-- target -->
     <g transform="translate(373.317187 277.882187) scale(0.1 -0.1)">
      <defs>
       <path id="DejaVuSans-61" d="M 2194 1759 
Q 1497 1759 1228 1600 
Q 959 1441 959 1056 
Q 959 750 1161 570 
Q 1363 391 1709 391 
Q 2188 391 2477 730 
Q 2766 1069 2766 1631 
L 2766 1759 
L 2194 1759 
z
M 3341 1997 
L 3341 0 
L 2766 0 
L 2766 531 
Q 2569 213 2275 61 
Q 1981 -91 1556 -91 
Q 1019 -91 701 211 
Q 384 513 384 1019 
Q 384 1609 779 1909 
Q 1175 2209 1959 2209 
L 2766 2209 
L 2766 2266 
Q 2766 2663 2505 2880 
Q 2244 3097 1772 3097 
Q 1472 3097 1187 3025 
Q 903 2953 641 2809 
L 641 3341 
Q 956 3463 1253 3523 
Q 1550 3584 1831 3584 
Q 2591 3584 2966 3190 
Q 3341 2797 3341 1997 
z
" transform="scale(0.015625)"/>
       <path id="DejaVuSans-72" d="M 2631 2963 
Q 2534 3019 2420 3045 
Q 2306 3072 2169 3072 
Q 1681 3072 1420 2755 
Q 1159 2438 1159 1844 
L 1159 0 
L 581 0 
L 581 3500 
L 1159 3500 
L 1159 2956 
Q 1341 3275 1631 3429 
Q 1922 3584 2338 3584 
Q 2397 3584 2469 3576 
Q 2541 3569 2628 3553 
L 2631 2963 
z
" transform="scale(0.015625)"/>
       <path id="DejaVuSans-67" d="M 2906 1791 
Q 2906 2416 2648 2759 
Q 2391 3103 1925 3103 
Q 1463 3103 1205 2759 
Q 947 2416 947 1791 
Q 947 1169 1205 825 
Q 1463 481 1925 481 
Q 2391 481 2648 825 
Q 2906 1169 2906 1791 
z
M 3481 434 
Q 3481 -459 3084 -895 
Q 2688 -1331 1869 -1331 
Q 1566 -1331 1297 -1286 
Q 1028 -1241 775 -1147 
L 775 -588 
Q 1028 -725 1275 -790 
Q 1522 -856 1778 -856 
Q 2344 -856 2625 -561 
Q 2906 -266 2906 331 
L 2906 616 
Q 2728 306 2450 153 
Q 2172 0 1784 0 
Q 1141 0 747 490 
Q 353 981 353 1791 
Q 353 2603 747 3093 
Q 1141 3584 1784 3584 
Q 2172 3584 2450 3431 
Q 2728 3278 2906 2969 
L 2906 3500 
L 3481 3500 
L 3481 434 
z
" transform="scale(0.015625)"/>
      </defs>
      <use xlink:href="#DejaVuSans-74"/>
      <use xlink:href="#DejaVuSans-61" x="39.208984"/>
      <use xlink:href="#DejaVuSans-72" x="100.488281"/>
      <use xlink:href="#DejaVuSans-67" x="139.851562"/>
      <use xlink:href="#DejaVuSans-65" x="203.328125"/>
      <use xlink:href="#DejaVuSans-74" x="264.851562"/>
     </g>
    </g>
    <g id="line2d_23">
     <g>
      <use xlink:href="#m4689b2d456" x="355.317187" y="289.060312" style="fill-opacity: 0; stroke: #000000"/>
     </g>
    </g>
    <g id="text_19">
     <!-- homogenized -->
     <g transform="translate(373.317187 292.560312) scale(0.1 -0.1)">
      <defs>
       <path id="DejaVuSans-68" d="M 3513 2113 
L 3513 0 
L 2938 0 
L 2938 2094 
Q 2938 2591 2744 2837 
Q 2550 3084 2163 3084 
Q 1697 3084 1428 2787 
Q 1159 2491 1159 1978 
L 1159 0 
L 581 0 
L 581 4863 
L 1159 4863 
L 1159 2956 
Q 1366 3272 1645 3428 
Q 1925 3584 2291 3584 
Q 2894 3584 3203 3211 
Q 3513 2838 3513 2113 
z
" transform="scale(0.015625)"/>
       <path id="DejaVuSans-6f" d="M 1959 3097 
Q 1497 3097 1228 2736 
Q 959 2375 959 1747 
Q 959 1119 1226 758 
Q 1494 397 1959 397 
Q 2419 397 2687 759 
Q 2956 1122 2956 1747 
Q 2956 2369 2687 2733 
Q 2419 3097 1959 3097 
z
M 1959 3584 
Q 2709 3584 3137 3096 
Q 3566 2609 3566 1747 
Q 3566 888 3137 398 
Q 2709 -91 1959 -91 
Q 1206 -91 779 398 
Q 353 888 353 1747 
Q 353 2609 779 3096 
Q 1206 3584 1959 3584 
z
" transform="scale(0.015625)"/>
       <path id="DejaVuSans-6e" d="M 3513 2113 
L 3513 0 
L 2938 0 
L 2938 2094 
Q 2938 2591 2744 2837 
Q 2550 3084 2163 3084 
Q 1697 3084 1428 2787 
Q 1159 2491 1159 1978 
L 1159 0 
L 581 0 
L 581 3500 
L 1159 3500 
L 1159 2956 
Q 1366 3272 1645 3428 
Q 1925 3584 2291 3584 
Q 2894 3584 3203 3211 
Q 3513 2838 3513 2113 
z
" transform="scale(0.015625)"/>
       <path id="DejaVuSans-7a" d="M 353 3500 
L 3084 3500 
L 3084 2975 
L 922 459 
L 3084 459 
L 3084 0 
L 275 0 
L 275 525 
L 2438 3041 
L 353 3041 
L 353 3500 
z
" transform="scale(0.015625)"/>
       <path id="DejaVuSans-64" d="M 2906 2969 
L 2906 4863 
L 3481 4863 
L 3481 0 
L 2906 0 
L 2906 525 
Q 2725 213 2448 61 
Q 2172 -91 1784 -91 
Q 1150 -91 751 415 
Q 353 922 353 1747 
Q 353 2572 751 3078 
Q 1150 3584 1784 3584 
Q 2172 3584 2448 3432 
Q 2725 3281 2906 2969 
z
M 947 1747 
Q 947 1113 1208 752 
Q 1469 391 1925 391 
Q 2381 391 2643 752 
Q 2906 1113 2906 1747 
Q 2906 2381 2643 2742 
Q 2381 3103 1925 3103 
Q 1469 3103 1208 2742 
Q 947 2381 947 1747 
z
" transform="scale(0.015625)"/>
      </defs>
      <use xlink:href="#DejaVuSans-68"/>
      <use xlink:href="#DejaVuSans-6f" x="63.378906"/>
      <use xlink:href="#DejaVuSans-6d" x="124.560547"/>
      <use xlink:href="#DejaVuSans-6f" x="221.972656"/>
      <use xlink:href="#DejaVuSans-67" x="283.154297"/>
      <use xlink:href="#DejaVuSans-65" x="346.630859"/>
      <use xlink:href="#DejaVuSans-6e" x="408.154297"/>
      <use xlink:href="#DejaVuSans-69" x="471.533203"/>
      <use xlink:href="#DejaVuSans-7a" x="499.316406"/>
      <use xlink:href="#DejaVuSans-65" x="551.806641"/>
      <use xlink:href="#DejaVuSans-64" x="613.330078"/>
     </g>
    </g>
   </g>
  </g>
 </g>
 <defs>
  <clipPath id="p83d673e4d0">
   <rect x="47.81" y="10.8" width="402.19" height="292.84"/>
  </clipPath>
 </defs>
</svg>
